<svg width="1280" height="2028" viewBox="0 0 1280 2028" fill="none" xmlns="http://www.w3.org/2000/svg">
<path d="M164.333 323C164.333 324.473 165.527 325.667 167 325.667C168.473 325.667 169.667 324.473 169.667 323C169.667 321.527 168.473 320.333 167 320.333C165.527 320.333 164.333 321.527 164.333 323ZM388 488L387.891 487.512L388 488ZM383.65 706L383.706 705.503L383.65 706ZM195 828L194.501 828.035L195 828ZM356.5 1012.5L356.999 1012.53L356.5 1012.5ZM227 1157.5L226.593 1157.21L226.593 1157.21L227 1157.5ZM368.5 1308L368.763 1308.43L368.5 1308ZM568 1238.5L568.27 1238.08L568 1238.5ZM534 1383.5L534.277 1383.92L534 1383.5ZM213.65 1587L214.136 1586.88L213.65 1587ZM236 1894.5L235.507 1894.59L236 1894.5ZM476.833 1890C476.833 1891.47 478.027 1892.67 479.5 1892.67C480.973 1892.67 482.167 1891.47 482.167 1890C482.167 1888.53 480.973 1887.33 479.5 1887.33C478.027 1887.33 476.833 1888.53 476.833 1890ZM167 323L166.587 322.718C165.057 324.955 163.622 327.244 162.285 329.58L162.719 329.828L163.153 330.077C164.477 327.764 165.897 325.497 167.413 323.282L167 323ZM154.515 348.195L154.04 348.037C152.337 353.165 151.045 358.419 150.172 363.747L150.666 363.828L151.159 363.908C152.024 358.632 153.303 353.43 154.989 348.352L154.515 348.195ZM149.38 383.899L148.88 383.916C149.064 389.281 149.667 394.656 150.699 399.99L151.19 399.895L151.681 399.801C150.659 394.518 150.061 389.195 149.879 383.882L149.38 383.899ZM156.916 419.178L156.453 419.367C158.455 424.297 160.859 429.135 163.67 433.837L164.099 433.58L164.528 433.323C161.743 428.665 159.363 423.873 157.379 418.99L156.916 419.178ZM175.977 449.814L175.602 450.145C179.088 454.097 182.924 457.891 187.115 461.493L187.441 461.113L187.766 460.734C183.61 457.162 179.807 453.401 176.352 449.484L175.977 449.814ZM203.705 472.961L203.443 473.387C207.9 476.133 212.64 478.697 217.667 481.058L217.88 480.605L218.092 480.153C213.098 477.808 208.391 475.261 203.967 472.535L203.705 472.961ZM236.591 487.974L236.437 488.45C241.406 490.065 246.597 491.505 252.012 492.755L252.124 492.268L252.237 491.781C246.85 490.537 241.687 489.105 236.746 487.499L236.591 487.974ZM271.961 495.833L271.895 496.328C277.071 497.012 282.418 497.537 287.939 497.894L287.971 497.395L288.004 496.896C282.504 496.54 277.179 496.017 272.026 495.337L271.961 495.833ZM308.079 497.94L308.084 498.44C313.32 498.395 318.694 498.21 324.206 497.877L324.176 497.378L324.146 496.879C318.651 497.21 313.294 497.395 308.075 497.44L308.079 497.94ZM344.248 495.578L344.307 496.075C349.515 495.46 354.834 494.722 360.266 493.856L360.187 493.362L360.108 492.868C354.69 493.732 349.384 494.469 344.19 495.081L344.248 495.578ZM379.995 489.727L380.096 490.217C382.743 489.67 385.414 489.093 388.11 488.488L388 488L387.891 487.512C385.201 488.117 382.535 488.692 379.894 489.238L379.995 489.727ZM388 488L388.11 488.488C390.731 487.899 393.315 487.365 395.862 486.884L395.77 486.392L395.677 485.901C393.118 486.384 390.522 486.921 387.891 487.512L388 488ZM415.282 483.646L415.327 484.144C420.75 483.655 425.984 483.422 431.032 483.426L431.032 482.926L431.032 482.426C425.953 482.422 420.689 482.656 415.237 483.148L415.282 483.646ZM450.678 484.205L450.611 484.7C455.997 485.421 461.131 486.433 466.017 487.704L466.143 487.22L466.269 486.736C461.342 485.455 456.169 484.435 450.744 483.709L450.678 484.205ZM484.723 493.741L484.517 494.197C489.432 496.413 494.024 498.915 498.306 501.652L498.575 501.23L498.844 500.809C494.523 498.047 489.887 495.521 484.928 493.285L484.723 493.741ZM514.099 513.325L513.756 513.689C517.662 517.366 521.188 521.251 524.348 525.268L524.741 524.959L525.134 524.65C521.944 520.594 518.384 516.673 514.442 512.961L514.099 513.325ZM535.429 541.48L534.986 541.712C537.494 546.507 539.554 551.345 541.187 556.114L541.66 555.952L542.133 555.79C540.484 550.973 538.403 546.089 535.872 541.249L535.429 541.48ZM546.049 575.143L545.553 575.198C545.852 577.891 546 580.5 546 583H546.5H547C547 580.461 546.85 577.815 546.546 575.087L546.049 575.143ZM546.5 583H546C546 585.69 545.886 588.571 545.642 591.608L546.14 591.648L546.639 591.688C546.885 588.626 547 585.717 547 583H546.5ZM542.594 612.973L542.109 612.852C540.769 618.204 539.044 623.727 536.873 629.288L537.339 629.47L537.804 629.652C539.991 624.049 541.729 618.486 543.079 613.094L542.594 612.973ZM527.833 648.894L527.404 648.637C524.512 653.455 521.223 658.184 517.495 662.738L517.882 663.054L518.269 663.371C522.029 658.778 525.346 654.008 528.261 649.152L527.833 648.894ZM502.664 678.403L502.345 678.019C498.055 681.586 493.379 684.931 488.29 687.991L488.548 688.42L488.805 688.848C493.939 685.762 498.656 682.387 502.984 678.788L502.664 678.403ZM469.102 697.836L468.924 697.369C463.762 699.335 458.278 701.044 452.453 702.457L452.57 702.943L452.688 703.429C458.553 702.006 464.078 700.285 469.28 698.304L469.102 697.836ZM431.235 706.581L431.183 706.083C425.694 706.656 419.958 706.996 413.963 707.081L413.97 707.581L413.978 708.08C420.001 707.995 425.767 707.654 431.287 707.078L431.235 706.581ZM392.337 706.839L392.376 706.34C389.536 706.114 386.646 705.835 383.706 705.503L383.65 706L383.593 706.497C386.545 706.83 389.446 707.11 392.297 707.337L392.337 706.839ZM383.65 706L383.706 705.503C380.907 705.187 378.143 704.905 375.416 704.657L375.371 705.155L375.325 705.653C378.045 705.901 380.801 706.182 383.593 706.497L383.65 706ZM354.811 703.889L354.826 703.389C349.14 703.215 343.628 703.198 338.286 703.331L338.298 703.831L338.311 704.331C343.633 704.198 349.127 704.215 354.795 704.389L354.811 703.889ZM317.725 705.154L317.672 704.657C312.013 705.258 306.575 706.045 301.353 707.004L301.444 707.496L301.534 707.988C306.73 707.033 312.142 706.25 317.778 705.651L317.725 705.154ZM281.379 712.321L281.234 711.842C275.761 713.497 270.579 715.366 265.678 717.429L265.872 717.89L266.066 718.351C270.934 716.302 276.083 714.444 281.524 712.799L281.379 712.321ZM247.512 727.275L247.25 726.849C242.392 729.831 237.903 733.037 233.769 736.434L234.087 736.821L234.404 737.207C238.502 733.839 242.954 730.659 247.773 727.701L247.512 727.275ZM219.45 751.311L219.066 750.99C215.447 755.324 212.256 759.841 209.472 764.491L209.901 764.748L210.33 765.004C213.087 760.399 216.248 755.925 219.833 751.631L219.45 751.311ZM201.101 783.365L200.63 783.197C198.744 788.462 197.294 793.806 196.255 799.166L196.746 799.261L197.237 799.356C198.266 794.044 199.703 788.75 201.572 783.534L201.101 783.365ZM194.734 819.762L194.234 819.76C194.221 822.538 194.311 825.299 194.501 828.035L195 828L195.499 827.965C195.31 825.254 195.221 822.517 195.234 819.764L194.734 819.762ZM195 828L194.501 828.035C194.703 830.94 194.999 833.748 195.382 836.464L195.877 836.394L196.372 836.324C195.992 833.632 195.699 830.848 195.499 827.965L195 828ZM200.898 856.627L200.429 856.801C202.468 862.297 204.959 867.312 207.83 871.916L208.254 871.651L208.678 871.387C205.843 866.84 203.382 861.885 201.367 856.453L200.898 856.627ZM221.43 887.85L221.082 888.209C225.111 892.108 229.468 895.636 234.062 898.879L234.35 898.471L234.639 898.062C230.08 894.844 225.765 891.349 221.778 887.491L221.43 887.85ZM252.244 909.318L252.01 909.76C256.933 912.367 261.979 914.806 267.067 917.156L267.277 916.702L267.486 916.249C262.409 913.903 257.38 911.472 252.478 908.876L252.244 909.318ZM286.39 925.258L286.186 925.715C291.343 928.011 296.436 930.317 301.383 932.72L301.602 932.271L301.82 931.821C296.858 929.41 291.753 927.098 286.593 924.801L286.39 925.258ZM319.968 942.313L319.701 942.735C324.499 945.765 328.991 949.034 333.071 952.648L333.402 952.274L333.734 951.899C329.606 948.243 325.069 944.942 320.235 941.89L319.968 942.313ZM346.89 968.156L346.463 968.416C349.243 972.971 351.502 977.987 353.141 983.566L353.62 983.425L354.1 983.284C352.437 977.621 350.142 972.524 347.317 967.895L346.89 968.156ZM356.658 1004.07L356.158 1004.08C356.218 1006.78 356.168 1009.57 356.001 1012.47L356.5 1012.5L356.999 1012.53C357.167 1009.6 357.218 1006.78 357.158 1004.06L356.658 1004.07ZM356.5 1012.5L356.001 1012.47C355.851 1015.08 355.64 1017.55 355.368 1019.89L355.865 1019.95L356.361 1020.01C356.635 1017.64 356.848 1015.15 356.999 1012.53L356.5 1012.5ZM351.81 1038.06L351.34 1037.89C349.514 1042.88 347.198 1047.09 344.422 1050.81L344.822 1051.11L345.223 1051.41C348.059 1047.61 350.42 1043.31 352.279 1038.24L351.81 1038.06ZM331.502 1063.98L331.202 1063.58C327.48 1066.36 323.376 1069.05 318.905 1071.89L319.173 1072.31L319.441 1072.73C323.916 1069.89 328.047 1067.19 331.801 1064.38L331.502 1063.98ZM303.478 1082.29L303.204 1081.87C299.303 1084.43 295.215 1087.22 290.953 1090.33L291.247 1090.74L291.542 1091.14C295.789 1088.04 299.862 1085.26 303.753 1082.71L303.478 1082.29ZM276.642 1102.26L276.318 1101.88C272.725 1104.94 269.034 1108.26 265.249 1111.89L265.595 1112.25L265.941 1112.61C269.711 1109 273.388 1105.69 276.966 1102.64L276.642 1102.26ZM252.635 1125.57L252.266 1125.23C249.071 1128.74 245.82 1132.48 242.515 1136.47L242.9 1136.79L243.285 1137.11C246.581 1133.13 249.821 1129.4 253.005 1125.91L252.635 1125.57ZM231.432 1151.42L231.03 1151.12C229.561 1153.1 228.082 1155.13 226.593 1157.21L227 1157.5L227.407 1157.79C228.892 1155.71 230.367 1153.69 231.833 1151.72L231.432 1151.42ZM227 1157.5L226.593 1157.21C224.93 1159.54 223.36 1161.86 221.878 1164.18L222.3 1164.45L222.721 1164.72C224.193 1162.41 225.754 1160.1 227.407 1157.79L227 1157.5ZM212.419 1182.74L211.962 1182.53C209.622 1187.79 207.723 1193.02 206.239 1198.18L206.719 1198.32L207.2 1198.46C208.671 1193.34 210.554 1188.16 212.875 1182.94L212.419 1182.74ZM202.927 1218.75L202.429 1218.71C201.954 1224.4 201.976 1229.97 202.452 1235.41L202.951 1235.36L203.449 1235.32C202.977 1229.94 202.956 1224.42 203.425 1218.8L202.927 1218.75ZM207.033 1255.73L206.557 1255.88C208.263 1261.24 210.43 1266.39 213.01 1271.3L213.452 1271.06L213.895 1270.83C211.342 1265.97 209.198 1260.88 207.51 1255.58L207.033 1255.73ZM225.016 1288.31L224.632 1288.63C228.199 1292.91 232.123 1296.89 236.354 1300.54L236.68 1300.16L237.007 1299.78C232.817 1296.17 228.932 1292.22 225.4 1287.99L225.016 1288.31ZM253.669 1312.12L253.423 1312.56C258.246 1315.29 263.306 1317.66 268.558 1319.64L268.734 1319.17L268.91 1318.7C263.707 1316.74 258.694 1314.39 253.916 1311.69L253.669 1312.12ZM288.782 1324.59L288.699 1325.08C294.134 1326.01 299.694 1326.52 305.336 1326.61L305.343 1326.11L305.351 1325.61C299.76 1325.52 294.251 1325.01 288.866 1324.1L288.782 1324.59ZM326.044 1324.45L326.131 1324.94C331.514 1323.99 336.926 1322.64 342.333 1320.85L342.175 1320.38L342.018 1319.9C336.658 1321.68 331.293 1323.02 325.958 1323.96L326.044 1324.45ZM361.26 1312.17L361.495 1312.61C363.928 1311.31 366.352 1309.92 368.763 1308.43L368.5 1308L368.237 1307.57C365.843 1309.06 363.438 1310.44 361.024 1311.73L361.26 1312.17ZM368.5 1308L368.763 1308.43C370.837 1307.14 372.902 1305.75 374.961 1304.27L374.669 1303.87L374.377 1303.46C372.334 1304.93 370.289 1306.3 368.237 1307.57L368.5 1308ZM389.113 1292.13L389.445 1292.51C393.069 1289.28 396.704 1285.87 400.366 1282.36L400.02 1282L399.674 1281.64C396.016 1285.15 392.392 1288.54 388.78 1291.76L389.113 1292.13ZM413.392 1269.04L413.74 1269.4C417.283 1265.97 420.873 1262.53 424.526 1259.15L424.186 1258.78L423.846 1258.42C420.186 1261.8 416.59 1265.25 413.044 1268.68L413.392 1269.04ZM438.185 1246.52L438.502 1246.91C442.356 1243.75 446.292 1240.74 450.328 1237.93L450.042 1237.52L449.757 1237.11C445.696 1239.94 441.739 1242.97 437.868 1246.13L438.185 1246.52ZM465.975 1227.92L466.2 1228.37C470.619 1226.14 475.162 1224.2 479.848 1222.65L479.69 1222.17L479.532 1221.7C474.795 1223.27 470.207 1225.22 465.749 1227.48L465.975 1227.92ZM497.827 1218.22L497.879 1218.72C502.649 1218.22 507.566 1218.13 512.646 1218.5L512.682 1218L512.719 1217.5C507.58 1217.12 502.603 1217.22 497.775 1217.72L497.827 1218.22ZM530.975 1221.26L530.84 1221.74C535.362 1223 540.008 1224.63 544.786 1226.65L544.981 1226.19L545.176 1225.73C540.361 1223.69 535.675 1222.05 531.109 1220.78L530.975 1221.26ZM561.583 1234.57L561.331 1235.01C563.44 1236.23 565.572 1237.54 567.73 1238.92L568 1238.5L568.27 1238.08C566.1 1236.69 563.956 1235.38 561.834 1234.14L561.583 1234.57ZM568 1238.5L567.73 1238.92C569.938 1240.33 571.988 1241.87 573.884 1243.51L574.211 1243.13L574.538 1242.75C572.605 1241.08 570.517 1239.52 568.27 1238.08L568 1238.5ZM586.113 1258.22L585.67 1258.45C587.994 1262.93 589.676 1267.77 590.739 1272.87L591.228 1272.77L591.718 1272.67C590.638 1267.48 588.927 1262.56 586.557 1257.99L586.113 1258.22ZM592.44 1292.02L591.942 1291.99C591.608 1296.95 590.808 1302.04 589.557 1307.17L590.042 1307.29L590.528 1307.41C591.792 1302.22 592.602 1297.08 592.939 1292.05L592.44 1292.02ZM583.768 1325.56L583.311 1325.35C581.274 1329.95 578.894 1334.52 576.184 1339.01L576.613 1339.27L577.041 1339.53C579.771 1335 582.17 1330.39 584.225 1325.76L583.768 1325.56ZM565.46 1355.05L565.073 1354.74C561.866 1358.65 558.393 1362.46 554.661 1366.11L555.011 1366.47L555.361 1366.83C559.119 1363.15 562.617 1359.31 565.846 1355.37L565.46 1355.05ZM540.326 1379.04L540.027 1378.64C537.98 1380.16 535.878 1381.65 533.723 1383.08L534 1383.5L534.277 1383.92C536.448 1382.47 538.564 1380.97 540.625 1379.44L540.326 1379.04ZM534 1383.5L533.723 1383.08C531.57 1384.52 529.292 1385.89 526.899 1387.19L527.138 1387.63L527.377 1388.07C529.795 1386.75 532.098 1385.37 534.277 1383.92L534 1383.5ZM508.748 1395.76L508.578 1395.29C503.711 1397.06 498.569 1398.68 493.191 1400.19L493.325 1400.67L493.46 1401.15C498.858 1399.64 504.025 1398.01 508.919 1396.23L508.748 1395.76ZM473.823 1405.47L473.716 1404.98C468.582 1406.1 463.303 1407.16 457.907 1408.17L457.999 1408.66L458.091 1409.15C463.495 1408.14 468.783 1407.08 473.929 1405.96L473.823 1405.47ZM438.139 1412.13L438.058 1411.63C432.82 1412.49 427.509 1413.33 422.145 1414.17L422.222 1414.66L422.299 1415.16C427.664 1414.32 432.978 1413.48 438.22 1412.62L438.139 1412.13ZM402.303 1417.74L402.226 1417.24C396.932 1418.06 391.614 1418.89 386.292 1419.75L386.371 1420.24L386.45 1420.74C391.77 1419.88 397.086 1419.05 402.379 1418.23L402.303 1417.74ZM366.496 1423.58L366.409 1423.09C361.095 1424.03 355.802 1425.02 350.549 1426.06L350.646 1426.55L350.743 1427.04C355.989 1426 361.275 1425.02 366.583 1424.08L366.496 1423.58ZM330.932 1430.79L330.818 1430.31C325.527 1431.55 320.305 1432.87 315.175 1434.29L315.308 1434.77L315.441 1435.25C320.557 1433.84 325.766 1432.52 331.047 1431.28L330.932 1430.79ZM296.087 1440.7L295.924 1440.22C290.742 1442.02 285.696 1443.93 280.812 1446L281.007 1446.46L281.201 1446.92C286.062 1444.86 291.087 1442.95 296.25 1441.17L296.087 1440.7ZM262.895 1455.27L262.651 1454.83C257.87 1457.52 253.32 1460.4 249.034 1463.5L249.327 1463.91L249.62 1464.31C253.872 1461.23 258.39 1458.37 263.14 1455.71L262.895 1455.27ZM234.124 1477.11L233.762 1476.77C230.035 1480.68 226.651 1484.88 223.649 1489.39L224.065 1489.67L224.481 1489.94C227.449 1485.49 230.797 1481.33 234.486 1477.46L234.124 1477.11ZM214.896 1507.52L214.428 1507.34C212.57 1512.25 211.082 1517.45 209.996 1522.95L210.487 1523.05L210.977 1523.15C212.053 1517.69 213.525 1512.55 215.363 1507.7L214.896 1507.52ZM208.395 1542.95L207.895 1542.94C207.784 1548.08 207.969 1553.45 208.468 1559.06L208.966 1559.02L209.464 1558.97C208.968 1553.4 208.784 1548.06 208.895 1542.96L208.395 1542.95ZM211.878 1578.91L211.387 1579.01C211.917 1581.67 212.509 1584.37 213.163 1587.12L213.65 1587L214.136 1586.88C213.484 1584.15 212.895 1581.46 212.368 1578.82L211.878 1578.91ZM213.65 1587L213.163 1587.12C213.772 1589.67 214.419 1592.14 215.101 1594.52L215.581 1594.38L216.062 1594.24C215.385 1591.88 214.742 1589.43 214.136 1586.88L213.65 1587ZM222.032 1612.32L221.575 1612.52C223.774 1617.48 226.151 1621.96 228.659 1626.04L229.085 1625.78L229.511 1625.52C227.027 1621.47 224.67 1617.04 222.49 1612.12L222.032 1612.32ZM240.437 1641.05L240.063 1641.38C243.581 1645.36 247.198 1648.91 250.815 1652.23L251.153 1651.86L251.491 1651.49C247.891 1648.19 244.301 1644.66 240.812 1640.72L240.437 1641.05ZM265.478 1664.4L265.148 1664.78C269.012 1668.17 272.71 1671.58 276.114 1675.26L276.482 1674.92L276.849 1674.59C273.41 1670.86 269.682 1667.43 265.808 1664.02L265.478 1664.4ZM287.517 1690.36L287.073 1690.59C289.246 1694.76 291.073 1699.4 292.464 1704.68L292.948 1704.55L293.431 1704.42C292.021 1699.07 290.167 1694.37 287.96 1690.13L287.517 1690.36ZM295.788 1723.36L295.289 1723.39C295.428 1725.82 295.5 1728.35 295.5 1731H296H296.5C296.5 1728.34 296.428 1725.78 296.288 1723.34L295.788 1723.36ZM296 1731H295.5C295.5 1733.76 295.436 1736.44 295.312 1739.02L295.811 1739.05L296.31 1739.07C296.435 1736.47 296.5 1733.78 296.5 1731H296ZM293.422 1759L292.932 1758.91C291.814 1764.48 290.369 1769.57 288.67 1774.26L289.14 1774.43L289.61 1774.6C291.327 1769.87 292.785 1764.73 293.912 1759.1L293.422 1759ZM280.426 1792.5L280 1792.24C277.114 1796.96 273.987 1801.25 270.764 1805.29L271.155 1805.6L271.545 1805.91C274.787 1801.85 277.94 1797.53 280.853 1792.76L280.426 1792.5ZM258.1 1820.85L257.723 1820.52C254.153 1824.62 250.704 1828.71 247.59 1833.04L247.996 1833.33L248.402 1833.62C251.488 1829.34 254.912 1825.27 258.477 1821.18L258.1 1820.85ZM238.398 1850.88L237.929 1850.71C236.167 1855.45 234.882 1860.63 234.223 1866.41L234.72 1866.47L235.217 1866.53C235.867 1860.82 237.132 1855.73 238.867 1851.06L238.398 1850.88ZM234.855 1886.53L234.358 1886.58C234.641 1889.15 235.022 1891.81 235.507 1894.59L236 1894.5L236.493 1894.41C236.011 1891.66 235.633 1889.02 235.352 1886.47L234.855 1886.53ZM236 1894.5L235.507 1894.59C235.953 1897.13 236.55 1899.65 237.291 1902.12L237.77 1901.98L238.249 1901.83C237.519 1899.4 236.931 1896.92 236.493 1894.41L236 1894.5ZM245.695 1919.41L245.27 1919.67C247.935 1923.98 251.047 1928.1 254.551 1932.01L254.923 1931.68L255.296 1931.35C251.828 1927.47 248.752 1923.4 246.121 1919.15L245.695 1919.41ZM269.022 1944.7L268.717 1945.1C272.721 1948.19 277 1951.07 281.512 1953.71L281.765 1953.28L282.018 1952.85C277.541 1950.23 273.297 1947.37 269.327 1944.31L269.022 1944.7ZM298.989 1961.77L298.8 1962.24C303.509 1964.16 308.377 1965.85 313.372 1967.29L313.51 1966.81L313.649 1966.33C308.689 1964.9 303.853 1963.22 299.178 1961.31L298.989 1961.77ZM332.272 1970.91L332.197 1971.41C337.248 1972.17 342.375 1972.67 347.548 1972.91L347.571 1972.41L347.593 1971.91C342.456 1971.68 337.363 1971.18 332.346 1970.42L332.272 1970.91ZM366.767 1971.97L366.812 1972.47C371.898 1972.01 376.991 1971.27 382.062 1970.23L381.962 1969.74L381.861 1969.25C376.828 1970.28 371.772 1971.02 366.722 1971.48L366.767 1971.97ZM400.442 1964.55L400.612 1965.02C405.399 1963.29 410.133 1961.26 414.787 1958.93L414.563 1958.48L414.339 1958.03C409.72 1960.35 405.023 1962.36 400.272 1964.08L400.442 1964.55ZM431.03 1948.64L431.317 1949.05C435.458 1946.14 439.501 1942.95 443.427 1939.46L443.095 1939.08L442.762 1938.71C438.865 1942.18 434.852 1945.35 430.743 1948.23L431.03 1948.64ZM456.506 1925.4L456.886 1925.72C460.157 1921.91 463.311 1917.83 466.334 1913.5L465.923 1913.21L465.513 1912.93C462.51 1917.24 459.375 1921.28 456.126 1925.07L456.506 1925.4ZM475.947 1896.91L476.387 1897.14C477.606 1894.89 478.794 1892.58 479.949 1890.22L479.5 1890L479.051 1889.78C477.901 1892.13 476.72 1894.43 475.508 1896.67L475.947 1896.91Z" fill="#B9B5ED"/>
</svg>
