<svg width="20" height="20" viewBox="0 0 20 20" fill="none" xmlns="http://www.w3.org/2000/svg">
<path d="M9.27007 12.2698C9.23824 11.949 9.09642 11.6473 8.8665 11.4173C8.60372 11.1546 8.24715 11.0068 7.87554 11.0067H4.10179V13.8099H7.87554C8.24715 13.8098 8.60372 13.662 8.8665 13.3992C9.12925 13.1364 9.27711 12.7799 9.27711 12.4083L9.27007 12.2698ZM14.8216 7.37218C16.2088 7.37222 17.1277 8.04583 17.6646 8.88481C18.1739 9.68061 18.3333 10.6038 18.3333 11.2226C18.3332 11.6647 17.9746 12.0234 17.5324 12.0235H12.6246C12.817 12.9226 13.5609 13.8099 14.8216 13.8099C16.1558 13.8098 16.8229 13.171 16.9662 13.0277L18.0987 14.1602C17.7906 14.4683 16.7401 15.4116 14.8216 15.4116C12.2341 15.4116 10.9712 13.2323 10.9712 11.5612C10.9712 11.4392 10.9763 11.3084 10.9853 11.1702V11.1663C11.0294 10.5354 11.1981 9.60316 11.765 8.80973C12.3656 7.96942 13.3526 7.37218 14.8216 7.37218ZM14.8216 8.97398C13.849 8.97398 13.3561 9.33813 13.0681 9.74124C12.9218 9.94591 12.817 10.1807 12.7411 10.4217H16.6111C16.5449 10.1915 16.4493 9.95747 16.3155 9.74828C16.0392 9.31666 15.6029 8.97401 14.8216 8.97398ZM17.193 5V6.60179H12.4494V5H17.193ZM8.59901 8.00336C8.59901 7.63164 8.45124 7.27525 8.18839 7.01241C7.92555 6.7496 7.56913 6.60179 7.19744 6.60179H4.10179V9.40493H7.19744C7.56913 9.40493 7.92555 9.25712 8.18839 8.99431C8.45124 8.73147 8.59901 8.37508 8.59901 8.00336ZM10.2008 8.00336C10.2008 8.6975 9.96035 9.36664 9.52583 9.90001C9.69481 10.0112 9.85382 10.1396 9.99901 10.2848C10.5622 10.848 10.8789 11.6118 10.8789 12.4083L10.875 12.5569C10.8382 13.2993 10.527 14.0037 9.99901 14.5318C9.43584 15.0949 8.67198 15.4116 7.87554 15.4116H3.3009C2.85857 15.4116 2.5 15.0531 2.5 14.6107V5.8009C2.5 5.35857 2.85857 5 3.3009 5H7.19744C7.99395 5 8.75768 5.31669 9.32091 5.87989C9.88415 6.44313 10.2008 7.20682 10.2008 8.00336Z" fill="white"/>
</svg>
