<svg width="1920" height="2566" viewBox="0 0 1920 2566" fill="none" xmlns="http://www.w3.org/2000/svg">
<g clip-path="url(#clip0_1033_7878)">
<path opacity="0.6" d="M692 1184C482.5 1108.5 447 1089 409.5 908.5C372 728 176.501 734.5 89.5005 602C2.50034 469.5 64 362.5 3.72314 265C-39.4254 111.197 -42.4996 -38 -42.4996 -38C-53.6663 146.833 -100.3 1702.9 -73.4996 1700.5C-39.9996 1697.5 34 1700.5 84 1822.5C156.018 1998.22 360 2011.5 516 1935.5C672 1859.5 913.088 1867.79 1028.5 1988.5C1181 2148 1333 2120.5 1585.5 2150C1838 2179.5 1922.5 2405.5 2005 2537.5C2087.5 2669.5 1896.84 2310.89 1861.5 2256.5C1771.5 2118 1640 2089.5 1564.5 2076C1489 2062.5 1308.92 2028.66 1268 1838C1244.5 1728.5 1147 1652.41 1103.5 1633.5C927.5 1557 877.445 1525.5 863 1430C845 1311 783.547 1216.99 692 1184Z" fill="#6C63DA"/>
<g opacity="0.8" filter="url(#filter0_f_1033_7878)">
<path d="M415.818 1168.7C358.233 820.562 233.206 884.897 65.9475 688.779C-101.311 492.661 -3.35951 896.311 -19.4418 1032.76C-35.5241 1169.22 -226.646 1032.76 -226.646 1032.76C-238.233 1224.56 -254.453 1594.55 -226.646 1592.06C-191.888 1588.95 1.6212 1400.38 88 1577.5C236.5 1882 490.5 1762.5 607 1762.5C723.5 1762.5 936.168 1676.31 1005.5 1799C1183.5 2114 1587 2097.5 1743.5 2200L1852.5 2257C1778.5 2186.77 1589.73 2114.11 1495 2081C1350.5 2030.5 1149.43 1955.17 1110 1799C1073.21 1653.27 952.03 1706.15 849.311 1678.71C667.033 1630.01 714.889 1533.43 699.901 1434.34C681.225 1310.86 432.838 1271.59 415.818 1168.7Z" fill="#6C63DA"/>
</g>
<path d="M375 1032.5C238.405 724.956 -81.2413 839.5 -143.934 605.5C-206.628 371.5 -143.935 910 -143.935 910C-180.011 1091.62 -170.813 1581.07 -143.934 1582.32C-110.337 1583.88 -31.9258 1582.48 -12.3067 1771.37C7.31239 1960.26 221.151 2014.32 353 1916C439.5 1851.5 798 1732 989 1880.5C1124.28 1985.68 1111.5 2052 1327 2070C1542.5 2088 1706 2116 1804.5 2246.5C1903 2377 2013.5 2498 2013.5 2498C1945 2387 2009 2427.5 1804.5 2202C1600 1976.5 1351.5 2070 1254.5 1938C1157.5 1806 1253.23 1775.63 1180 1643C1106.77 1510.37 919.829 1624.95 904 1435C871.5 1045 472.934 1253 375 1032.5Z" stroke="#B9B5ED" stroke-dasharray="16 20"/>
<path opacity="0.5" d="M1874.5 320.5C1898.01 262.104 1947.55 218.204 2043.28 231.788C2037.24 315.552 2034.07 411.176 1980.22 495.371C1898.72 622.796 1746.39 609.859 1639.34 677.453C1608.34 697.028 1597.08 737.069 1596 759.601C1596 651.257 1660.68 640.584 1770.32 569.433C1879.96 498.281 1843.5 397.5 1874.5 320.5Z" fill="#E73C91"/>
<g opacity="0.5" filter="url(#filter1_f_1033_7878)">
<path d="M1932.68 275.125C1966.43 235.839 2005.12 214 2096 214C2089.97 278.979 2090.51 314.897 2045.22 386.38C1979.25 490.52 1915.21 553.585 1816.57 591.748C1784.16 604.286 1716.96 628.941 1671.68 643.495C1760.3 610.648 1856.67 551.645 1887.4 464.646C1908.79 404.084 1895.16 318.786 1932.68 275.125Z" fill="#E73C91"/>
</g>
</g>
<defs>
<filter id="filter0_f_1033_7878" x="-382" y="496" width="2374.5" height="1901" filterUnits="userSpaceOnUse" color-interpolation-filters="sRGB">
<feFlood flood-opacity="0" result="BackgroundImageFix"/>
<feBlend mode="normal" in="SourceGraphic" in2="BackgroundImageFix" result="shape"/>
<feGaussianBlur stdDeviation="70" result="effect1_foregroundBlur_1033_7878"/>
</filter>
<filter id="filter1_f_1033_7878" x="1639.34" y="181.659" width="489.003" height="494.178" filterUnits="userSpaceOnUse" color-interpolation-filters="sRGB">
<feFlood flood-opacity="0" result="BackgroundImageFix"/>
<feBlend mode="normal" in="SourceGraphic" in2="BackgroundImageFix" result="shape"/>
<feGaussianBlur stdDeviation="16.1707" result="effect1_foregroundBlur_1033_7878"/>
</filter>
<clipPath id="clip0_1033_7878">
<rect width="1920" height="2566" fill="white"/>
</clipPath>
</defs>
</svg>
