<svg width="60" height="60" viewBox="0 0 60 60" fill="none" xmlns="http://www.w3.org/2000/svg">
<path d="M0 12C0 5.37258 5.37258 0 12 0H48C54.6274 0 60 5.37258 60 12V48C60 54.6274 54.6274 60 48 60H12C5.37258 60 0 54.6274 0 48V12Z" fill="#3D435C"/>
<path d="M30 45C27.925 45 25.975 44.6062 24.15 43.8187C22.325 43.0312 20.7375 41.9625 19.3875 40.6125C18.0375 39.2625 16.9688 37.675 16.1813 35.85C15.3937 34.025 15 32.075 15 30C15 27.925 15.3937 25.975 16.1813 24.15C16.9688 22.325 18.0375 20.7375 19.3875 19.3875C20.7375 18.0375 22.325 16.9688 24.15 16.1813C25.975 15.3937 27.925 15 30 15C32.075 15 34.025 15.3937 35.85 16.1813C37.675 16.9688 39.2625 18.0375 40.6125 19.3875C41.9625 20.7375 43.0312 22.325 43.8187 24.15C44.6062 25.975 45 27.925 45 30V32.175C45 33.65 44.4938 34.9063 43.4813 35.9438C42.4688 36.9813 41.225 37.5 39.75 37.5C38.875 37.5 38.05 37.3125 37.275 36.9375C36.5 36.5625 35.85 36.025 35.325 35.325C34.6 36.05 33.7813 36.5937 32.8688 36.9562C31.9563 37.3187 31 37.5 30 37.5C27.925 37.5 26.1563 36.7688 24.6938 35.3063C23.2313 33.8438 22.5 32.075 22.5 30C22.5 27.925 23.2313 26.1563 24.6938 24.6938C26.1563 23.2313 27.925 22.5 30 22.5C32.075 22.5 33.8438 23.2313 35.3063 24.6938C36.7688 26.1563 37.5 27.925 37.5 30V32.175C37.5 32.825 37.7125 33.375 38.1375 33.825C38.5625 34.275 39.1 34.5 39.75 34.5C40.4 34.5 40.9375 34.275 41.3625 33.825C41.7875 33.375 42 32.825 42 32.175V30C42 26.65 40.8375 23.8125 38.5125 21.4875C36.1875 19.1625 33.35 18 30 18C26.65 18 23.8125 19.1625 21.4875 21.4875C19.1625 23.8125 18 26.65 18 30C18 33.35 19.1625 36.1875 21.4875 38.5125C23.8125 40.8375 26.65 42 30 42H37.5V45H30ZM30 34.5C31.25 34.5 32.3125 34.0625 33.1875 33.1875C34.0625 32.3125 34.5 31.25 34.5 30C34.5 28.75 34.0625 27.6875 33.1875 26.8125C32.3125 25.9375 31.25 25.5 30 25.5C28.75 25.5 27.6875 25.9375 26.8125 26.8125C25.9375 27.6875 25.5 28.75 25.5 30C25.5 31.25 25.9375 32.3125 26.8125 33.1875C27.6875 34.0625 28.75 34.5 30 34.5Z" fill="white"/>
</svg>
