<svg width="60" height="60" viewBox="0 0 60 60" fill="none" xmlns="http://www.w3.org/2000/svg">
<path d="M0 12C0 5.37258 5.37258 0 12 0H48C54.6274 0 60 5.37258 60 12V48C60 54.6274 54.6274 60 48 60H12C5.37258 60 0 54.6274 0 48V12Z" fill="#3D435C"/>
<path d="M22.7595 24.9468C23.5508 24.9468 24.1923 25.5885 24.1925 26.3798V40.8607C24.1925 41.6521 23.5509 42.2937 22.7595 42.2937H17.933C17.1416 42.2937 16.5 41.6521 16.5 40.8607V26.3798L16.507 26.2342C16.5801 25.5113 17.1908 24.9468 17.933 24.9468H22.7595ZM40.634 32.414C40.634 30.8738 40.0229 29.3958 38.9338 28.3067C37.8447 27.2177 36.3667 26.6065 34.8265 26.6065C33.2867 26.6066 31.8096 27.2179 30.7207 28.3067C29.6316 29.3958 29.0204 30.8738 29.0204 32.414V39.4277H30.981V32.414C30.981 31.3938 31.3861 30.4149 32.1075 29.6935C32.8287 28.9725 33.8067 28.5672 34.8265 28.567C35.8466 28.567 36.8256 28.9723 37.547 29.6935C38.2683 30.4149 38.6735 31.3938 38.6735 32.414V39.4277H40.634V32.414ZM19.366 39.4277H21.3265V27.8127H19.366V39.4277ZM21.3265 20.3469C21.3265 19.8056 20.8882 19.3662 20.3469 19.366C19.8055 19.366 19.366 19.8055 19.366 20.3469C19.3662 20.8882 19.8056 21.3265 20.3469 21.3265C20.888 21.3262 21.3262 20.888 21.3265 20.3469ZM43.5 40.8607C43.5 41.6521 42.8584 42.2937 42.067 42.2937H37.2405C36.4491 42.2937 35.8075 41.6521 35.8075 40.8607V32.414C35.8075 32.1539 35.7045 31.9037 35.5206 31.7199C35.3368 31.5361 35.0865 31.433 34.8265 31.433C34.5668 31.4331 34.3175 31.5363 34.1338 31.7199C33.95 31.9037 33.8469 32.1539 33.8469 32.414V40.8607C33.8469 41.6521 33.2052 42.2936 32.414 42.2937H27.5874C26.796 42.2937 26.1545 41.6521 26.1545 40.8607V32.414C26.1545 30.1137 27.0678 27.907 28.6944 26.2804C30.3208 24.6541 32.5266 23.7406 34.8265 23.7405C37.1268 23.7405 39.3335 24.6539 40.9601 26.2804C42.5867 27.907 43.5 30.1137 43.5 32.414V40.8607ZM24.1925 20.3469C24.1922 22.4709 22.4709 24.1922 20.3469 24.1925C18.2228 24.1925 16.5003 22.471 16.5 20.3469C16.5 18.2226 18.2226 16.5 20.3469 16.5C22.471 16.5003 24.1925 18.2228 24.1925 20.3469Z" fill="white"/>
</svg>
