<svg width="60" height="60" viewBox="0 0 60 60" fill="none" xmlns="http://www.w3.org/2000/svg">
<path d="M0 12C0 5.37258 5.37258 0 12 0H48C54.6274 0 60 5.37258 60 12V48C60 54.6274 54.6274 60 48 60H12C5.37258 60 0 54.6274 0 48V12Z" fill="#3D435C"/>
<path d="M23.1001 37.875C22.0501 38.75 20.9563 39.15 19.8188 39.075C18.6813 39 17.6876 38.6125 16.8376 37.9125C15.9876 37.2125 15.4063 36.2938 15.0938 35.1562C14.7813 34.0187 14.9876 32.85 15.7126 31.65L18.5251 27C17.9001 26.45 17.4063 25.7875 17.0438 25.0125C16.6813 24.2375 16.5001 23.4 16.5001 22.5C16.5001 20.85 17.0876 19.4375 18.2626 18.2625C19.4376 17.0875 20.8501 16.5 22.5001 16.5C24.1501 16.5 25.5626 17.0875 26.7376 18.2625C27.9126 19.4375 28.5001 20.85 28.5001 22.5C28.5001 24.15 27.9126 25.5625 26.7376 26.7375C25.5626 27.9125 24.1501 28.5 22.5001 28.5C22.2751 28.5 22.0501 28.4875 21.8251 28.4625C21.6001 28.4375 21.3876 28.4 21.1876 28.35L18.3001 33.225C18.0251 33.675 17.9376 34.1188 18.0376 34.5563C18.1376 34.9938 18.3501 35.35 18.6751 35.625C19.0001 35.9 19.3876 36.0562 19.8376 36.0938C20.2876 36.1313 20.7251 35.975 21.1501 35.625L36.9001 22.0875C37.9501 21.2125 39.0501 20.8187 40.2001 20.9062C41.3501 20.9938 42.3501 21.3875 43.2001 22.0875C44.0501 22.7875 44.6251 23.7062 44.9251 24.8438C45.2251 25.9813 45.0126 27.15 44.2876 28.35L41.4751 33C42.1001 33.55 42.5938 34.2125 42.9563 34.9875C43.3188 35.7625 43.5001 36.6 43.5001 37.5C43.5001 39.15 42.9126 40.5625 41.7376 41.7375C40.5626 42.9125 39.1501 43.5 37.5001 43.5C35.8501 43.5 34.4376 42.9125 33.2626 41.7375C32.0876 40.5625 31.5001 39.15 31.5001 37.5C31.5001 35.85 32.0876 34.4375 33.2626 33.2625C34.4376 32.0875 35.8501 31.5 37.5001 31.5C37.7251 31.5 37.9438 31.5125 38.1563 31.5375C38.3688 31.5625 38.5751 31.6 38.7751 31.65L41.7001 26.775C41.9751 26.325 42.0626 25.8813 41.9626 25.4438C41.8626 25.0063 41.6501 24.65 41.3251 24.375C41.0001 24.1 40.6126 23.9438 40.1626 23.9062C39.7126 23.8687 39.2751 24.025 38.8501 24.375L23.1001 37.875ZM22.5001 25.5C23.3251 25.5 24.0313 25.2062 24.6188 24.6187C25.2063 24.0312 25.5001 23.325 25.5001 22.5C25.5001 21.675 25.2063 20.9688 24.6188 20.3813C24.0313 19.7938 23.3251 19.5 22.5001 19.5C21.6751 19.5 20.9688 19.7938 20.3813 20.3813C19.7938 20.9688 19.5001 21.675 19.5001 22.5C19.5001 23.325 19.7938 24.0312 20.3813 24.6187C20.9688 25.2062 21.6751 25.5 22.5001 25.5ZM37.5001 40.5C38.3251 40.5 39.0313 40.2063 39.6188 39.6188C40.2063 39.0313 40.5001 38.325 40.5001 37.5C40.5001 36.675 40.2063 35.9688 39.6188 35.3813C39.0313 34.7938 38.3251 34.5 37.5001 34.5C36.6751 34.5 35.9688 34.7938 35.3813 35.3813C34.7938 35.9688 34.5001 36.675 34.5001 37.5C34.5001 38.325 34.7938 39.0313 35.3813 39.6188C35.9688 40.2063 36.6751 40.5 37.5001 40.5Z" fill="white"/>
</svg>
