<svg width="60" height="60" viewBox="0 0 60 60" fill="none" xmlns="http://www.w3.org/2000/svg">
<path d="M0 12C0 5.37258 5.37258 0 12 0H48C54.6274 0 60 5.37258 60 12V48C60 54.6274 54.6274 60 48 60H12C5.37258 60 0 54.6274 0 48V12Z" fill="#3D435C"/>
<path d="M28.6861 34.0857C28.6288 33.5083 28.3736 32.9652 27.9597 32.5512C27.4867 32.0782 26.8449 31.8122 26.176 31.8121H19.3832V36.8577H26.176C26.8449 36.8576 27.4867 36.5916 27.9597 36.1186C28.4326 35.6455 28.6988 35.0039 28.6988 34.3349L28.6861 34.0857ZM38.6789 25.2699C41.1758 25.27 42.8298 26.4825 43.7963 27.9927C44.713 29.4251 45 31.0868 45 32.2007C44.9998 32.9965 44.3542 33.642 43.5584 33.6423H34.7243C35.0705 35.2607 36.4096 36.8577 38.6789 36.8577C41.0805 36.8577 42.2813 35.7077 42.5391 35.4499L44.5777 37.4884C44.0231 38.043 42.1322 39.7409 38.6789 39.741C34.0214 39.741 31.7482 35.8182 31.7481 32.8102C31.7481 32.5906 31.7573 32.3551 31.7735 32.1063V32.0993C31.8529 30.9637 32.1566 29.2857 33.1771 27.8575C34.2581 26.345 36.0347 25.2699 38.6789 25.2699ZM38.6789 28.1532C36.9282 28.1532 36.041 28.8086 35.5225 29.5342C35.2593 29.9026 35.0706 30.3252 34.9341 30.759H41.9C41.7808 30.3448 41.6088 29.9234 41.3678 29.5469C40.8706 28.77 40.0851 28.1532 38.6789 28.1532ZM42.9474 21V23.8832H34.4089V21H42.9474ZM27.4782 26.406C27.4782 25.737 27.2122 25.0955 26.7391 24.6223C26.266 24.1493 25.6244 23.8832 24.9554 23.8832H19.3832V28.9289H24.9554C25.6244 28.9289 26.266 28.6628 26.7391 28.1898C27.2122 27.7166 27.4782 27.0751 27.4782 26.406ZM30.3614 26.406C30.3614 27.6555 29.9286 28.8599 29.1465 29.82C29.4507 30.0202 29.7369 30.2513 29.9982 30.5127C31.0119 31.5265 31.582 32.9013 31.582 34.3349L31.575 34.6024C31.5088 35.9387 30.9487 37.2066 29.9982 38.1572C28.9845 39.1709 27.6096 39.7408 26.176 39.741H17.9416C17.1454 39.741 16.5 39.0955 16.5 38.2993V22.4416C16.5 21.6454 17.1454 21 17.9416 21H24.9554C26.3891 21 27.7638 21.57 28.7776 22.5838C29.7915 23.5976 30.3614 24.9723 30.3614 26.406Z" fill="white"/>
</svg>
