<svg width="60" height="60" viewBox="0 0 60 60" fill="none" xmlns="http://www.w3.org/2000/svg">
<path d="M0 12C0 5.37258 5.37258 0 12 0H48C54.6274 0 60 5.37258 60 12V48C60 54.6274 54.6274 60 48 60H12C5.37258 60 0 54.6274 0 48V12Z" fill="#3D435C"/>
<path d="M34.9408 42.3751V38.2296L34.9291 37.9805C34.8791 37.4012 34.6561 36.8479 34.2846 36.3956C33.9391 35.9751 33.848 35.4005 34.0473 34.8941C34.2468 34.3876 34.7058 34.0285 35.2455 33.9566C37.0643 33.7144 38.4443 33.176 39.3661 32.2911C40.2486 31.4436 40.8998 30.0953 40.8998 27.8043C40.8998 27.0549 40.5534 26.0258 40.0985 25.0548C39.8842 24.5973 39.6686 24.1993 39.5067 23.9166C39.4263 23.776 39.3597 23.6649 39.3148 23.5914C39.2925 23.5549 39.2743 23.5279 39.2636 23.5108C39.2582 23.5023 39.2554 23.495 39.2533 23.4918L39.2518 23.4903C38.976 23.0616 38.937 22.5218 39.1478 22.0577C39.3699 21.5686 39.5125 20.786 39.5023 20.0333C39.5009 19.9316 39.4956 19.835 39.4892 19.7447C39.4312 19.7626 39.3704 19.7785 39.309 19.7989C38.4902 20.0707 37.3983 20.5665 36.3222 21.46C35.9387 21.7783 35.4221 21.8853 34.9437 21.7457C32.7439 21.1032 30.4886 21.1637 28.2948 21.7545C27.8245 21.8809 27.3219 21.7711 26.9472 21.46C25.8708 20.5664 24.7787 20.0707 23.9603 19.7989C23.898 19.7782 23.8361 19.7628 23.7772 19.7447C23.7708 19.8346 23.7683 19.9305 23.767 20.0318C23.7569 20.7842 23.9 21.5675 24.1229 22.0577C24.3341 22.5219 24.2948 23.0615 24.0189 23.4903V23.4888C24.0188 23.4891 24.0184 23.4903 24.0175 23.4918C24.0154 23.495 24.0126 23.5023 24.0072 23.5108C23.9965 23.5279 23.9783 23.5548 23.9559 23.5914C23.911 23.6649 23.8445 23.776 23.7641 23.9166C23.6022 24.1993 23.3866 24.5972 23.1723 25.0548C22.7174 26.0258 22.371 27.0548 22.371 27.8043C22.371 30.0947 23.0208 31.4435 23.9032 32.2911C24.8249 33.1764 26.2057 33.7144 28.0253 33.9566C28.5651 34.0285 29.024 34.3874 29.2235 34.8941C29.4228 35.4006 29.3318 35.9751 28.9862 36.3956C28.5614 36.9122 28.3286 37.5607 28.3285 38.2296V42.3751C28.3285 43.2035 27.6569 43.8751 26.8285 43.8751C26.0002 43.8749 25.3285 43.2034 25.3285 42.3751V42.3355C24.785 42.4981 24.2235 42.6004 23.6542 42.6343C22.6231 42.6958 21.5905 42.5403 20.6234 42.1773C19.6548 41.8139 18.7803 41.245 18.0746 40.5103V40.5089C17.3668 39.7744 16.8461 38.891 16.5614 37.9234C16.3276 37.1287 16.7819 36.2955 17.5766 36.0616C18.3217 35.8424 19.1014 36.2277 19.3886 36.9317L19.4384 37.0767L19.4984 37.2598C19.63 37.6225 19.8311 37.9675 20.0975 38.2779L20.2367 38.4288L20.2382 38.4317C20.6234 38.8327 21.1144 39.1582 21.6767 39.3692C22.2504 39.5846 22.8637 39.6767 23.4755 39.6402C24.0872 39.6037 24.6848 39.4388 25.2289 39.1568L25.3285 39.1099V38.2296C25.3286 37.6436 25.4208 37.0667 25.5892 36.5142C24.1927 36.1165 22.8874 35.4739 21.8261 34.4547C20.22 32.9119 19.371 30.7035 19.371 27.8043C19.371 26.3587 19.968 24.8246 20.4564 23.7818C20.6892 23.2849 20.9212 22.8513 21.1054 22.525C20.8592 21.6991 20.7563 20.7924 20.767 19.9923C20.7743 19.4514 20.8329 18.8938 20.9691 18.3897C21.0924 17.9337 21.3377 17.2977 21.8759 16.8487C22.1809 16.5943 22.5745 16.4706 22.9701 16.5059L22.8368 18.0001C22.9686 16.5315 22.971 16.5063 22.9716 16.5059H22.976C22.9774 16.5061 22.9788 16.5072 22.9804 16.5074C22.9844 16.5078 22.9897 16.5083 22.995 16.5089C23.0057 16.5099 23.019 16.5115 23.0346 16.5133C23.0656 16.5168 23.1064 16.5211 23.1561 16.5279C23.2562 16.5417 23.394 16.5629 23.5619 16.5953C23.8973 16.6601 24.3603 16.7698 24.9066 16.9512C25.8414 17.2617 27.0334 17.7894 28.2509 18.6768C30.4425 18.1883 32.7359 18.1334 35.0272 18.6695C36.2418 17.786 37.4314 17.2609 38.3642 16.9512C38.9106 16.7699 39.3734 16.66 39.7089 16.5953C39.8769 16.5629 40.0145 16.5417 40.1146 16.5279C40.1644 16.5211 40.2052 16.5168 40.2362 16.5133C40.2518 16.5115 40.2651 16.5099 40.2758 16.5089C40.2811 16.5083 40.2864 16.5078 40.2904 16.5074C40.292 16.5072 40.2934 16.5061 40.2948 16.5059H40.2992C40.2998 16.5064 40.3017 16.5315 40.4105 17.7437L40.3007 16.5059C40.6972 16.4705 41.0911 16.5947 41.3964 16.8502C41.9333 17.2996 42.1775 17.9359 42.3002 18.3912C42.4359 18.8948 42.495 19.4516 42.5023 19.9923C42.5132 20.7923 42.4097 21.699 42.164 22.525C42.3482 22.8514 42.5814 23.2846 42.8143 23.7818C43.3028 24.8246 43.8998 26.3587 43.8998 27.8043C43.8998 30.7042 43.051 32.9121 41.4447 34.4547C40.3829 35.4743 39.0769 36.1166 37.6801 36.5142C37.8484 37.0668 37.9409 37.6435 37.9408 38.2296V42.3751C37.9408 43.2034 37.2691 43.8749 36.4408 43.8751C35.6124 43.8751 34.9408 43.2035 34.9408 42.3751Z" fill="white"/>
</svg>
