<svg width="60" height="60" viewBox="0 0 60 60" fill="none" xmlns="http://www.w3.org/2000/svg">
<path d="M0 12C0 5.37258 5.37258 0 12 0H48C54.6274 0 60 5.37258 60 12V48C60 54.6274 54.6274 60 48 60H12C5.37258 60 0 54.6274 0 48V12Z" fill="#3D435C"/>
<path d="M13.5 42V37.8C13.5 36.95 13.7187 36.1687 14.1562 35.4562C14.5938 34.7437 15.175 34.2 15.9 33.825C17.45 33.05 19.025 32.4687 20.625 32.0812C22.225 31.6937 23.85 31.5 25.5 31.5C27.15 31.5 28.775 31.6937 30.375 32.0812C31.975 32.4687 33.55 33.05 35.1 33.825C35.825 34.2 36.4062 34.7437 36.8438 35.4562C37.2813 36.1687 37.5 36.95 37.5 37.8V42H13.5ZM40.5 42V37.5C40.5 36.4 40.1938 35.3437 39.5813 34.3312C38.9688 33.3187 38.1 32.45 36.975 31.725C38.25 31.875 39.45 32.1313 40.575 32.4938C41.7 32.8563 42.75 33.3 43.725 33.825C44.625 34.325 45.3125 34.8813 45.7875 35.4938C46.2625 36.1063 46.5 36.775 46.5 37.5V42H40.5ZM25.5 30C23.85 30 22.4375 29.4125 21.2625 28.2375C20.0875 27.0625 19.5 25.65 19.5 24C19.5 22.35 20.0875 20.9375 21.2625 19.7625C22.4375 18.5875 23.85 18 25.5 18C27.15 18 28.5625 18.5875 29.7375 19.7625C30.9125 20.9375 31.5 22.35 31.5 24C31.5 25.65 30.9125 27.0625 29.7375 28.2375C28.5625 29.4125 27.15 30 25.5 30ZM40.5 24C40.5 25.65 39.9125 27.0625 38.7375 28.2375C37.5625 29.4125 36.15 30 34.5 30C34.225 30 33.875 29.9688 33.45 29.9062C33.025 29.8437 32.675 29.775 32.4 29.7C33.075 28.9 33.5937 28.0125 33.9562 27.0375C34.3187 26.0625 34.5 25.05 34.5 24C34.5 22.95 34.3187 21.9375 33.9562 20.9625C33.5937 19.9875 33.075 19.1 32.4 18.3C32.75 18.175 33.1 18.0938 33.45 18.0563C33.8 18.0188 34.15 18 34.5 18C36.15 18 37.5625 18.5875 38.7375 19.7625C39.9125 20.9375 40.5 22.35 40.5 24ZM16.5 39H34.5V37.8C34.5 37.525 34.4313 37.275 34.2938 37.05C34.1563 36.825 33.975 36.65 33.75 36.525C32.4 35.85 31.0375 35.3438 29.6625 35.0063C28.2875 34.6688 26.9 34.5 25.5 34.5C24.1 34.5 22.7125 34.6688 21.3375 35.0063C19.9625 35.3438 18.6 35.85 17.25 36.525C17.025 36.65 16.8438 36.825 16.7063 37.05C16.5688 37.275 16.5 37.525 16.5 37.8V39ZM25.5 27C26.325 27 27.0313 26.7062 27.6188 26.1187C28.2063 25.5312 28.5 24.825 28.5 24C28.5 23.175 28.2063 22.4688 27.6188 21.8813C27.0313 21.2938 26.325 21 25.5 21C24.675 21 23.9688 21.2938 23.3813 21.8813C22.7938 22.4688 22.5 23.175 22.5 24C22.5 24.825 22.7938 25.5312 23.3813 26.1187C23.9688 26.7062 24.675 27 25.5 27Z" fill="white"/>
</svg>
