<svg width="60" height="60" viewBox="0 0 60 60" fill="none" xmlns="http://www.w3.org/2000/svg">
<path d="M0 12C0 5.37258 5.37258 0 12 0H48C54.6274 0 60 5.37258 60 12V48C60 54.6274 54.6274 60 48 60H12C5.37258 60 0 54.6274 0 48V12Z" fill="#3D435C"/>
<path d="M18 39V21V40.5V39ZM18 42C17.175 42 16.4688 41.7063 15.8813 41.1188C15.2938 40.5313 15 39.825 15 39V21C15 20.175 15.2938 19.4688 15.8813 18.8813C16.4688 18.2938 17.175 18 18 18H27L30 21H42C42.825 21 43.5313 21.2938 44.1188 21.8813C44.7063 22.4688 45 23.175 45 24V31.5H42V24H28.7625L25.7625 21H18V39H25.5V42H18ZM33.9 45.9L28.5 40.5L33.9 35.1L36 37.2375L32.7375 40.5L36 43.7625L33.9 45.9ZM41.1 45.9L39 43.7625L42.2625 40.5L39 37.2375L41.1 35.1L46.5 40.5L41.1 45.9Z" fill="white"/>
</svg>
