<svg width="60" height="60" viewBox="0 0 60 60" fill="none" xmlns="http://www.w3.org/2000/svg">
<path d="M0 12C0 5.37258 5.37258 0 12 0H48C54.6274 0 60 5.37258 60 12V48C60 54.6274 54.6274 60 48 60H12C5.37258 60 0 54.6274 0 48V12Z" fill="#3D435C"/>
<path d="M26.5125 32.55L27.825 28.275L24.375 25.5H28.65L30 21.3L31.35 25.5H35.625L32.1375 28.275L33.45 32.55L30 29.8875L26.5125 32.55ZM21 46.5V34.9125C20.05 33.8625 19.3125 32.6625 18.7875 31.3125C18.2625 29.9625 18 28.525 18 27C18 23.65 19.1625 20.8125 21.4875 18.4875C23.8125 16.1625 26.65 15 30 15C33.35 15 36.1875 16.1625 38.5125 18.4875C40.8375 20.8125 42 23.65 42 27C42 28.525 41.7375 29.9625 41.2125 31.3125C40.6875 32.6625 39.95 33.8625 39 34.9125V46.5L30 43.5L21 46.5ZM30 36C32.5 36 34.625 35.125 36.375 33.375C38.125 31.625 39 29.5 39 27C39 24.5 38.125 22.375 36.375 20.625C34.625 18.875 32.5 18 30 18C27.5 18 25.375 18.875 23.625 20.625C21.875 22.375 21 24.5 21 27C21 29.5 21.875 31.625 23.625 33.375C25.375 35.125 27.5 36 30 36ZM24 42.0375L30 40.5L36 42.0375V37.3875C35.125 37.8875 34.1813 38.2813 33.1688 38.5688C32.1563 38.8563 31.1 39 30 39C28.9 39 27.8438 38.8563 26.8313 38.5688C25.8188 38.2813 24.875 37.8875 24 37.3875V42.0375Z" fill="white"/>
</svg>
