<svg width="1280" height="360" viewBox="0 0 1280 360" fill="none" xmlns="http://www.w3.org/2000/svg">
<g filter="url(#filter1_d_1461_16508)">
<g clip-path="url(#clip0_1461_16508)">
<path d="M404 52C404 40.9543 412.954 32 424 32H604C615.046 32 624 40.9543 624 52V308C624 319.046 615.046 328 604 328H424C412.954 328 404 319.046 404 308V52Z" fill="#667099" fill-opacity="0.1"/>
<path d="M420 64C420 55.1634 427.163 48 436 48H592C600.837 48 608 55.1634 608 64V172C608 180.837 600.837 188 592 188H436C427.163 188 420 180.837 420 172V64Z" fill="#0E5858"/>
<path d="M423.104 229.048H437.44V231.48H425.664V238.168H434.336V240.6H425.664V248.6H438.048V251.032H423.104V229.048ZM446.356 251.32C444.009 251.32 441.94 250.424 440.148 248.632L441.652 246.872C442.462 247.576 443.23 248.099 443.956 248.44C444.681 248.76 445.449 248.92 446.26 248.92C447.305 248.92 448.126 248.696 448.724 248.248C449.342 247.779 449.652 247.139 449.652 246.328C449.652 245.837 449.524 245.443 449.268 245.144C449.033 244.845 448.681 244.589 448.212 244.376C447.764 244.141 447.006 243.811 445.94 243.384C444.766 242.915 443.849 242.509 443.188 242.168C442.548 241.805 442.036 241.357 441.652 240.824C441.268 240.269 441.076 239.587 441.076 238.776C441.076 237.453 441.545 236.387 442.484 235.576C443.422 234.765 444.638 234.36 446.132 234.36C447.006 234.36 447.881 234.509 448.756 234.808C449.652 235.085 450.356 235.448 450.868 235.896L449.748 237.784C448.788 237.08 447.668 236.728 446.388 236.728C445.577 236.728 444.926 236.899 444.436 237.24C443.966 237.56 443.732 238.008 443.732 238.584C443.732 239.181 443.966 239.651 444.436 239.992C444.926 240.312 445.758 240.707 446.932 241.176C448.254 241.709 449.289 242.189 450.036 242.616C450.782 243.043 451.348 243.544 451.732 244.12C452.116 244.675 452.308 245.379 452.308 246.232C452.308 247.747 451.753 248.973 450.644 249.912C449.534 250.851 448.105 251.32 446.356 251.32ZM455.625 239.672C455.625 238.925 455.518 238.253 455.305 237.656C455.113 237.059 454.739 236.515 454.185 236.024L455.817 234.424C456.67 234.915 457.299 235.715 457.705 236.824C458.302 236.077 459.006 235.512 459.817 235.128C460.627 234.744 461.47 234.552 462.345 234.552C463.283 234.552 464.137 234.765 464.905 235.192C465.694 235.597 466.313 236.195 466.761 236.984C467.379 236.195 468.115 235.597 468.969 235.192C469.843 234.765 470.729 234.552 471.625 234.552C473.118 234.552 474.345 235.032 475.305 235.992C476.286 236.952 476.766 238.243 476.745 239.864L476.617 251.032H474.153L474.185 240.216C474.185 239.107 473.961 238.285 473.513 237.752C473.086 237.197 472.403 236.92 471.465 236.92C470.569 236.92 469.801 237.155 469.161 237.624C468.521 238.072 467.955 238.765 467.465 239.704V251.032H464.905V240.216C464.905 239.149 464.681 238.339 464.233 237.784C463.785 237.208 463.123 236.92 462.249 236.92C461.374 236.92 460.563 237.176 459.817 237.688C459.07 238.2 458.526 238.84 458.185 239.608V251.032H455.625V239.672ZM482.594 243.928C482.658 245.251 483.01 246.424 483.65 247.448C484.311 248.472 485.516 248.984 487.266 248.984C488.183 248.984 489.036 248.845 489.826 248.568C490.615 248.269 491.447 247.821 492.322 247.224L493.538 249.208C492.748 249.848 491.778 250.371 490.626 250.776C489.474 251.16 488.311 251.352 487.138 251.352C485.644 251.352 484.354 251.011 483.266 250.328C482.178 249.624 481.346 248.675 480.77 247.48C480.194 246.264 479.906 244.888 479.906 243.352C479.906 241.816 480.183 240.365 480.738 239C481.314 237.635 482.146 236.536 483.234 235.704C484.343 234.872 485.655 234.456 487.17 234.456C488.407 234.456 489.538 234.755 490.562 235.352C491.586 235.949 492.396 236.781 492.994 237.848C493.591 238.893 493.89 240.056 493.89 241.336C493.89 241.869 493.847 242.733 493.762 243.928H482.594ZM491.298 241.56V241.24C491.298 240.408 491.106 239.661 490.722 239C490.359 238.317 489.858 237.784 489.218 237.4C488.599 237.016 487.906 236.824 487.138 236.824C486.05 236.824 485.1 237.229 484.29 238.04C483.5 238.851 482.978 240.024 482.722 241.56H491.298ZM504.279 234.456C504.898 234.456 505.634 234.563 506.487 234.776L506.423 237.304C505.57 237.069 504.877 236.952 504.343 236.952C503.341 236.952 502.562 237.187 502.007 237.656C501.367 238.168 500.813 238.851 500.343 239.704V251.032H497.719V239.704C497.719 238.04 497.271 236.824 496.375 236.056L498.135 234.424C498.455 234.616 498.775 234.904 499.095 235.288C499.437 235.672 499.714 236.109 499.927 236.6C500.397 236.003 500.877 235.544 501.367 235.224C502.178 234.712 503.149 234.456 504.279 234.456ZM520.189 251.416C519.378 250.861 518.802 250.179 518.461 249.368C517.97 249.987 517.309 250.467 516.477 250.808C515.666 251.149 514.749 251.32 513.725 251.32C511.975 251.32 510.567 250.84 509.501 249.88C508.455 248.92 507.933 247.651 507.933 246.072C507.933 244.408 508.562 243.117 509.821 242.2C511.079 241.261 512.839 240.792 515.101 240.792H517.885V240.12C517.885 238.904 517.661 238.051 517.213 237.56C516.786 237.048 516.05 236.792 515.005 236.792C514.109 236.792 513.223 236.952 512.349 237.272C511.495 237.592 510.706 238.051 509.981 238.648L508.701 236.696C509.469 235.992 510.418 235.437 511.549 235.032C512.679 234.627 513.842 234.424 515.036 234.424C516.807 234.424 518.162 234.883 519.101 235.8C520.039 236.717 520.509 238.04 520.509 239.768V246.136C520.509 247.821 520.967 249.048 521.885 249.816L520.189 251.416ZM513.757 248.952C514.994 248.952 515.986 248.6 516.733 247.896C517.501 247.171 517.885 246.243 517.885 245.112V243.16H515.101C513.501 243.16 512.338 243.395 511.613 243.864C510.909 244.312 510.557 245.037 510.557 246.04C510.557 246.957 510.834 247.672 511.389 248.184C511.965 248.696 512.754 248.952 513.757 248.952ZM525.184 227.736H527.744V251.032H525.184V227.736ZM538.256 251.32C536.827 251.32 535.579 250.947 534.512 250.2C533.467 249.432 532.667 248.419 532.112 247.16C531.557 245.88 531.28 244.493 531.28 243C531.28 241.4 531.589 239.96 532.208 238.68C532.848 237.379 533.765 236.355 534.96 235.608C536.155 234.861 537.563 234.488 539.184 234.488C539.995 234.488 541.125 234.573 542.576 234.744V227.704H545.04V246.168C545.04 247.811 545.499 249.048 546.416 249.88L544.848 251.384C544.059 250.872 543.461 250.115 543.056 249.112C542.501 249.859 541.797 250.413 540.944 250.776C540.091 251.139 539.195 251.32 538.256 251.32ZM538.352 248.952C539.227 248.952 539.995 248.749 540.656 248.344C541.317 247.917 541.829 247.341 542.192 246.616C542.448 246.104 542.576 245.507 542.576 244.824V237.144C541.573 237.016 540.837 236.941 540.368 236.92C539.92 236.877 539.44 236.856 538.928 236.856C537.349 236.856 536.101 237.432 535.184 238.584C534.267 239.715 533.808 241.155 533.808 242.904C533.808 244.632 534.203 246.072 534.992 247.224C535.803 248.376 536.923 248.952 538.352 248.952ZM560.845 251.416C560.034 250.861 559.458 250.179 559.117 249.368C558.626 249.987 557.965 250.467 557.133 250.808C556.322 251.149 555.405 251.32 554.381 251.32C552.631 251.32 551.223 250.84 550.157 249.88C549.111 248.92 548.589 247.651 548.589 246.072C548.589 244.408 549.218 243.117 550.477 242.2C551.735 241.261 553.495 240.792 555.757 240.792H558.541V240.12C558.541 238.904 558.317 238.051 557.869 237.56C557.442 237.048 556.706 236.792 555.661 236.792C554.765 236.792 553.879 236.952 553.005 237.272C552.151 237.592 551.362 238.051 550.637 238.648L549.357 236.696C550.125 235.992 551.074 235.437 552.205 235.032C553.335 234.627 554.498 234.424 555.693 234.424C557.463 234.424 558.818 234.883 559.757 235.8C560.695 236.717 561.165 238.04 561.165 239.768V246.136C561.165 247.821 561.623 249.048 562.541 249.816L560.845 251.416ZM554.413 248.952C555.65 248.952 556.642 248.6 557.389 247.896C558.157 247.171 558.541 246.243 558.541 245.112V243.16H555.757C554.157 243.16 552.994 243.395 552.269 243.864C551.565 244.312 551.213 245.037 551.213 246.04C551.213 246.957 551.49 247.672 552.045 248.184C552.621 248.696 553.41 248.952 554.413 248.952Z" fill="white"/>
<path d="M429.615 277.62V279H422.839V277.62H429.615ZM423.182 266.203V279H421.485V266.203H423.182ZM428.719 271.705V273.085H422.839V271.705H428.719ZM429.527 266.203V267.592H422.839V266.203H429.527ZM437.279 282.656V271.318L437.42 269.49H438.914V282.656H437.279ZM430.89 274.351V274.166C430.89 273.439 430.975 272.78 431.145 272.188C431.314 271.591 431.563 271.078 431.892 270.65C432.22 270.223 432.615 269.895 433.078 269.666C433.547 269.432 434.08 269.314 434.678 269.314C435.275 269.314 435.8 269.42 436.251 269.631C436.708 269.836 437.095 270.138 437.411 270.536C437.733 270.929 437.988 271.403 438.176 271.96C438.363 272.517 438.492 273.146 438.562 273.85V274.658C438.498 275.355 438.372 275.982 438.185 276.539C437.997 277.096 437.742 277.57 437.42 277.963C437.104 278.355 436.714 278.657 436.251 278.868C435.794 279.073 435.264 279.176 434.66 279.176C434.074 279.176 433.547 279.056 433.078 278.815C432.615 278.575 432.22 278.238 431.892 277.805C431.569 277.371 431.32 276.861 431.145 276.275C430.975 275.684 430.89 275.042 430.89 274.351ZM432.524 274.166V274.351C432.524 274.825 432.574 275.273 432.674 275.695C432.773 276.111 432.926 276.48 433.131 276.803C433.342 277.125 433.605 277.38 433.922 277.567C434.244 277.749 434.625 277.84 435.064 277.84C435.604 277.84 436.052 277.723 436.409 277.488C436.772 277.254 437.062 276.946 437.279 276.565C437.496 276.179 437.663 275.766 437.78 275.326V273.208C437.716 272.886 437.613 272.572 437.473 272.268C437.338 271.963 437.162 271.69 436.945 271.45C436.729 271.204 436.465 271.011 436.154 270.87C435.85 270.724 435.492 270.65 435.082 270.65C434.637 270.65 434.253 270.744 433.931 270.932C433.608 271.119 433.342 271.377 433.131 271.705C432.926 272.027 432.773 272.399 432.674 272.821C432.574 273.243 432.524 273.691 432.524 274.166ZM447.343 276.803V269.49H448.978V279H447.422L447.343 276.803ZM447.65 274.799L448.327 274.781C448.327 275.414 448.26 276 448.125 276.539C447.996 277.072 447.785 277.535 447.492 277.928C447.199 278.32 446.815 278.628 446.341 278.851C445.866 279.067 445.289 279.176 444.609 279.176C444.146 279.176 443.722 279.108 443.335 278.974C442.954 278.839 442.626 278.631 442.351 278.35C442.075 278.068 441.861 277.702 441.709 277.251C441.562 276.8 441.489 276.258 441.489 275.625V269.49H443.115V275.643C443.115 276.07 443.162 276.425 443.256 276.706C443.355 276.981 443.487 277.201 443.651 277.365C443.821 277.523 444.009 277.635 444.214 277.699C444.425 277.764 444.642 277.796 444.864 277.796C445.556 277.796 446.104 277.664 446.508 277.4C446.912 277.131 447.202 276.771 447.378 276.319C447.56 275.862 447.65 275.355 447.65 274.799ZM453.223 269.49V279H451.588V269.49H453.223ZM451.465 266.968C451.465 266.704 451.544 266.481 451.702 266.3C451.866 266.118 452.106 266.027 452.423 266.027C452.733 266.027 452.971 266.118 453.135 266.3C453.305 266.481 453.39 266.704 453.39 266.968C453.39 267.22 453.305 267.437 453.135 267.618C452.971 267.794 452.733 267.882 452.423 267.882C452.106 267.882 451.866 267.794 451.702 267.618C451.544 267.437 451.465 267.22 451.465 266.968ZM457.6 265.5V279H455.965V265.5H457.6ZM461.977 269.49V279H460.342V269.49H461.977ZM460.219 266.968C460.219 266.704 460.298 266.481 460.456 266.3C460.62 266.118 460.86 266.027 461.177 266.027C461.487 266.027 461.725 266.118 461.889 266.3C462.059 266.481 462.144 266.704 462.144 266.968C462.144 267.22 462.059 267.437 461.889 267.618C461.725 267.794 461.487 267.882 461.177 267.882C460.86 267.882 460.62 267.794 460.456 267.618C460.298 267.437 460.219 267.22 460.219 266.968ZM464.578 265.5H466.213V277.154L466.072 279H464.578V265.5ZM472.638 274.166V274.351C472.638 275.042 472.556 275.684 472.392 276.275C472.228 276.861 471.987 277.371 471.671 277.805C471.354 278.238 470.968 278.575 470.511 278.815C470.054 279.056 469.529 279.176 468.938 279.176C468.334 279.176 467.804 279.073 467.347 278.868C466.896 278.657 466.515 278.355 466.204 277.963C465.894 277.57 465.645 277.096 465.457 276.539C465.275 275.982 465.149 275.355 465.079 274.658V273.85C465.149 273.146 465.275 272.517 465.457 271.96C465.645 271.403 465.894 270.929 466.204 270.536C466.515 270.138 466.896 269.836 467.347 269.631C467.798 269.42 468.322 269.314 468.92 269.314C469.518 269.314 470.048 269.432 470.511 269.666C470.974 269.895 471.36 270.223 471.671 270.65C471.987 271.078 472.228 271.591 472.392 272.188C472.556 272.78 472.638 273.439 472.638 274.166ZM471.003 274.351V274.166C471.003 273.691 470.959 273.246 470.871 272.83C470.783 272.408 470.643 272.039 470.449 271.723C470.256 271.4 470.001 271.148 469.685 270.967C469.368 270.779 468.979 270.686 468.516 270.686C468.105 270.686 467.748 270.756 467.443 270.896C467.145 271.037 466.89 271.228 466.679 271.468C466.468 271.702 466.295 271.972 466.16 272.276C466.031 272.575 465.935 272.886 465.87 273.208V275.326C465.964 275.736 466.116 276.132 466.327 276.513C466.544 276.888 466.831 277.195 467.188 277.436C467.552 277.676 468 277.796 468.533 277.796C468.973 277.796 469.348 277.708 469.658 277.532C469.975 277.351 470.229 277.102 470.423 276.785C470.622 276.469 470.769 276.103 470.862 275.687C470.956 275.271 471.003 274.825 471.003 274.351ZM476.32 270.984V279H474.694V269.49H476.276L476.32 270.984ZM479.291 269.438L479.282 270.949C479.147 270.92 479.019 270.902 478.896 270.896C478.778 270.885 478.644 270.879 478.491 270.879C478.116 270.879 477.785 270.938 477.498 271.055C477.211 271.172 476.968 271.336 476.769 271.547C476.569 271.758 476.411 272.01 476.294 272.303C476.183 272.59 476.109 272.906 476.074 273.252L475.617 273.516C475.617 272.941 475.673 272.402 475.784 271.898C475.901 271.395 476.08 270.949 476.32 270.562C476.561 270.17 476.865 269.865 477.234 269.648C477.609 269.426 478.055 269.314 478.57 269.314C478.688 269.314 478.822 269.329 478.975 269.358C479.127 269.382 479.232 269.408 479.291 269.438ZM482.561 269.49V279H480.926V269.49H482.561ZM480.803 266.968C480.803 266.704 480.882 266.481 481.04 266.3C481.204 266.118 481.444 266.027 481.761 266.027C482.071 266.027 482.309 266.118 482.473 266.3C482.643 266.481 482.728 266.704 482.728 266.968C482.728 267.22 482.643 267.437 482.473 267.618C482.309 267.794 482.071 267.882 481.761 267.882C481.444 267.882 481.204 267.794 481.04 267.618C480.882 267.437 480.803 267.22 480.803 266.968ZM484.74 274.351V274.148C484.74 273.463 484.84 272.827 485.039 272.241C485.238 271.649 485.525 271.137 485.9 270.703C486.275 270.264 486.729 269.924 487.263 269.684C487.796 269.438 488.394 269.314 489.056 269.314C489.724 269.314 490.324 269.438 490.857 269.684C491.396 269.924 491.854 270.264 492.229 270.703C492.609 271.137 492.899 271.649 493.099 272.241C493.298 272.827 493.397 273.463 493.397 274.148V274.351C493.397 275.036 493.298 275.672 493.099 276.258C492.899 276.844 492.609 277.356 492.229 277.796C491.854 278.229 491.399 278.569 490.866 278.815C490.339 279.056 489.741 279.176 489.073 279.176C488.405 279.176 487.805 279.056 487.271 278.815C486.738 278.569 486.281 278.229 485.9 277.796C485.525 277.356 485.238 276.844 485.039 276.258C484.84 275.672 484.74 275.036 484.74 274.351ZM486.366 274.148V274.351C486.366 274.825 486.422 275.273 486.533 275.695C486.645 276.111 486.812 276.48 487.034 276.803C487.263 277.125 487.547 277.38 487.887 277.567C488.227 277.749 488.622 277.84 489.073 277.84C489.519 277.84 489.908 277.749 490.242 277.567C490.582 277.38 490.863 277.125 491.086 276.803C491.309 276.48 491.476 276.111 491.587 275.695C491.704 275.273 491.763 274.825 491.763 274.351V274.148C491.763 273.68 491.704 273.237 491.587 272.821C491.476 272.399 491.306 272.027 491.077 271.705C490.854 271.377 490.573 271.119 490.233 270.932C489.899 270.744 489.507 270.65 489.056 270.65C488.61 270.65 488.218 270.744 487.878 270.932C487.544 271.119 487.263 271.377 487.034 271.705C486.812 272.027 486.645 272.399 486.533 272.821C486.422 273.237 486.366 273.68 486.366 274.148ZM496.913 277.066V278.376C496.913 278.909 496.778 279.472 496.509 280.063C496.239 280.661 495.861 281.159 495.375 281.558L494.452 280.916C494.64 280.658 494.798 280.395 494.927 280.125C495.056 279.861 495.152 279.586 495.217 279.299C495.287 279.018 495.322 278.719 495.322 278.402V277.066H496.913ZM509.06 277.374V272.479C509.06 272.104 508.983 271.778 508.831 271.503C508.685 271.222 508.462 271.005 508.163 270.853C507.864 270.7 507.495 270.624 507.056 270.624C506.646 270.624 506.285 270.694 505.975 270.835C505.67 270.976 505.43 271.16 505.254 271.389C505.084 271.617 504.999 271.863 504.999 272.127H503.373C503.373 271.787 503.461 271.45 503.637 271.116C503.812 270.782 504.064 270.48 504.393 270.211C504.727 269.936 505.125 269.719 505.588 269.561C506.057 269.396 506.578 269.314 507.152 269.314C507.844 269.314 508.453 269.432 508.98 269.666C509.514 269.9 509.93 270.255 510.229 270.729C510.533 271.198 510.686 271.787 510.686 272.496V276.926C510.686 277.242 510.712 277.579 510.765 277.937C510.823 278.294 510.908 278.602 511.02 278.859V279H509.323C509.241 278.812 509.177 278.563 509.13 278.253C509.083 277.937 509.06 277.644 509.06 277.374ZM509.341 273.234L509.358 274.377H507.715C507.252 274.377 506.839 274.415 506.476 274.491C506.112 274.562 505.808 274.67 505.562 274.816C505.315 274.963 505.128 275.147 504.999 275.37C504.87 275.587 504.806 275.842 504.806 276.135C504.806 276.434 504.873 276.706 505.008 276.952C505.143 277.198 505.345 277.395 505.614 277.541C505.89 277.682 506.227 277.752 506.625 277.752C507.123 277.752 507.562 277.646 507.943 277.436C508.324 277.225 508.626 276.967 508.849 276.662C509.077 276.357 509.2 276.062 509.218 275.774L509.912 276.557C509.871 276.803 509.76 277.075 509.578 277.374C509.396 277.673 509.153 277.96 508.849 278.235C508.55 278.505 508.192 278.73 507.776 278.912C507.366 279.088 506.903 279.176 506.388 279.176C505.743 279.176 505.178 279.05 504.691 278.798C504.211 278.546 503.836 278.209 503.566 277.787C503.303 277.359 503.171 276.882 503.171 276.354C503.171 275.845 503.271 275.396 503.47 275.01C503.669 274.617 503.956 274.292 504.331 274.034C504.706 273.771 505.157 273.571 505.685 273.437C506.212 273.302 506.801 273.234 507.451 273.234H509.341ZM514.869 270.984V279H513.243V269.49H514.825L514.869 270.984ZM517.84 269.438L517.831 270.949C517.696 270.92 517.567 270.902 517.444 270.896C517.327 270.885 517.192 270.879 517.04 270.879C516.665 270.879 516.334 270.938 516.047 271.055C515.76 271.172 515.517 271.336 515.317 271.547C515.118 271.758 514.96 272.01 514.843 272.303C514.731 272.59 514.658 272.906 514.623 273.252L514.166 273.516C514.166 272.941 514.222 272.402 514.333 271.898C514.45 271.395 514.629 270.949 514.869 270.562C515.109 270.17 515.414 269.865 515.783 269.648C516.158 269.426 516.604 269.314 517.119 269.314C517.236 269.314 517.371 269.329 517.523 269.358C517.676 269.382 517.781 269.408 517.84 269.438ZM520.96 271.38V279H519.325V269.49H520.872L520.96 271.38ZM520.626 273.885L519.87 273.858C519.876 273.208 519.961 272.607 520.125 272.057C520.289 271.5 520.532 271.017 520.854 270.606C521.177 270.196 521.578 269.88 522.059 269.657C522.539 269.429 523.096 269.314 523.729 269.314C524.174 269.314 524.584 269.379 524.959 269.508C525.334 269.631 525.659 269.827 525.935 270.097C526.21 270.366 526.424 270.712 526.576 271.134C526.729 271.556 526.805 272.065 526.805 272.663V279H525.179V272.742C525.179 272.244 525.094 271.846 524.924 271.547C524.76 271.248 524.525 271.031 524.221 270.896C523.916 270.756 523.559 270.686 523.148 270.686C522.668 270.686 522.267 270.771 521.944 270.94C521.622 271.11 521.364 271.345 521.171 271.644C520.978 271.942 520.837 272.285 520.749 272.672C520.667 273.053 520.626 273.457 520.626 273.885ZM526.787 272.988L525.697 273.322C525.703 272.801 525.788 272.3 525.952 271.819C526.122 271.339 526.365 270.911 526.682 270.536C527.004 270.161 527.399 269.865 527.868 269.648C528.337 269.426 528.873 269.314 529.477 269.314C529.986 269.314 530.438 269.382 530.83 269.517C531.229 269.651 531.562 269.859 531.832 270.141C532.107 270.416 532.315 270.771 532.456 271.204C532.597 271.638 532.667 272.153 532.667 272.751V279H531.032V272.733C531.032 272.2 530.947 271.787 530.777 271.494C530.613 271.195 530.379 270.987 530.074 270.87C529.775 270.747 529.418 270.686 529.002 270.686C528.645 270.686 528.328 270.747 528.053 270.87C527.777 270.993 527.546 271.163 527.358 271.38C527.171 271.591 527.027 271.834 526.928 272.109C526.834 272.385 526.787 272.678 526.787 272.988ZM534.697 274.351V274.148C534.697 273.463 534.797 272.827 534.996 272.241C535.195 271.649 535.482 271.137 535.857 270.703C536.232 270.264 536.687 269.924 537.22 269.684C537.753 269.438 538.351 269.314 539.013 269.314C539.681 269.314 540.281 269.438 540.814 269.684C541.354 269.924 541.811 270.264 542.186 270.703C542.566 271.137 542.856 271.649 543.056 272.241C543.255 272.827 543.354 273.463 543.354 274.148V274.351C543.354 275.036 543.255 275.672 543.056 276.258C542.856 276.844 542.566 277.356 542.186 277.796C541.811 278.229 541.356 278.569 540.823 278.815C540.296 279.056 539.698 279.176 539.03 279.176C538.362 279.176 537.762 279.056 537.229 278.815C536.695 278.569 536.238 278.229 535.857 277.796C535.482 277.356 535.195 276.844 534.996 276.258C534.797 275.672 534.697 275.036 534.697 274.351ZM536.323 274.148V274.351C536.323 274.825 536.379 275.273 536.49 275.695C536.602 276.111 536.769 276.48 536.991 276.803C537.22 277.125 537.504 277.38 537.844 277.567C538.184 277.749 538.579 277.84 539.03 277.84C539.476 277.84 539.865 277.749 540.199 277.567C540.539 277.38 540.82 277.125 541.043 276.803C541.266 276.48 541.433 276.111 541.544 275.695C541.661 275.273 541.72 274.825 541.72 274.351V274.148C541.72 273.68 541.661 273.237 541.544 272.821C541.433 272.399 541.263 272.027 541.034 271.705C540.812 271.377 540.53 271.119 540.19 270.932C539.856 270.744 539.464 270.65 539.013 270.65C538.567 270.65 538.175 270.744 537.835 270.932C537.501 271.119 537.22 271.377 536.991 271.705C536.769 272.027 536.602 272.399 536.49 272.821C536.379 273.237 536.323 273.68 536.323 274.148ZM547.02 271.521V279H545.394V269.49H546.932L547.02 271.521ZM546.633 273.885L545.956 273.858C545.962 273.208 546.059 272.607 546.246 272.057C546.434 271.5 546.697 271.017 547.037 270.606C547.377 270.196 547.781 269.88 548.25 269.657C548.725 269.429 549.249 269.314 549.823 269.314C550.292 269.314 550.714 269.379 551.089 269.508C551.464 269.631 551.783 269.83 552.047 270.105C552.316 270.381 552.521 270.738 552.662 271.178C552.803 271.611 552.873 272.142 552.873 272.769V279H551.238V272.751C551.238 272.253 551.165 271.854 551.019 271.556C550.872 271.251 550.658 271.031 550.377 270.896C550.096 270.756 549.75 270.686 549.34 270.686C548.936 270.686 548.566 270.771 548.232 270.94C547.904 271.11 547.62 271.345 547.38 271.644C547.146 271.942 546.961 272.285 546.826 272.672C546.697 273.053 546.633 273.457 546.633 273.885ZM557.101 269.49V279H555.475V269.49H557.101ZM555.422 268.102L557.127 265.518H559.087L556.731 268.102H555.422ZM565.415 277.374V272.479C565.415 272.104 565.339 271.778 565.187 271.503C565.04 271.222 564.817 271.005 564.519 270.853C564.22 270.7 563.851 270.624 563.411 270.624C563.001 270.624 562.641 270.694 562.33 270.835C562.025 270.976 561.785 271.16 561.609 271.389C561.439 271.617 561.354 271.863 561.354 272.127H559.729C559.729 271.787 559.816 271.45 559.992 271.116C560.168 270.782 560.42 270.48 560.748 270.211C561.082 269.936 561.48 269.719 561.943 269.561C562.412 269.396 562.934 269.314 563.508 269.314C564.199 269.314 564.809 269.432 565.336 269.666C565.869 269.9 566.285 270.255 566.584 270.729C566.889 271.198 567.041 271.787 567.041 272.496V276.926C567.041 277.242 567.067 277.579 567.12 277.937C567.179 278.294 567.264 278.602 567.375 278.859V279H565.679C565.597 278.812 565.532 278.563 565.485 278.253C565.438 277.937 565.415 277.644 565.415 277.374ZM565.696 273.234L565.714 274.377H564.07C563.607 274.377 563.194 274.415 562.831 274.491C562.468 274.562 562.163 274.67 561.917 274.816C561.671 274.963 561.483 275.147 561.354 275.37C561.226 275.587 561.161 275.842 561.161 276.135C561.161 276.434 561.229 276.706 561.363 276.952C561.498 277.198 561.7 277.395 561.97 277.541C562.245 277.682 562.582 277.752 562.98 277.752C563.479 277.752 563.918 277.646 564.299 277.436C564.68 277.225 564.981 276.967 565.204 276.662C565.433 276.357 565.556 276.062 565.573 275.774L566.268 276.557C566.227 276.803 566.115 277.075 565.934 277.374C565.752 277.673 565.509 277.96 565.204 278.235C564.905 278.505 564.548 278.73 564.132 278.912C563.722 279.088 563.259 279.176 562.743 279.176C562.099 279.176 561.533 279.05 561.047 278.798C560.566 278.546 560.191 278.209 559.922 277.787C559.658 277.359 559.526 276.882 559.526 276.354C559.526 275.845 559.626 275.396 559.825 275.01C560.024 274.617 560.312 274.292 560.687 274.034C561.062 273.771 561.513 273.571 562.04 273.437C562.567 273.302 563.156 273.234 563.807 273.234H565.696ZM571.075 277.066V278.376C571.075 278.909 570.94 279.472 570.671 280.063C570.401 280.661 570.023 281.159 569.537 281.558L568.614 280.916C568.802 280.658 568.96 280.395 569.089 280.125C569.218 279.861 569.314 279.586 569.379 279.299C569.449 279.018 569.484 278.719 569.484 278.402V277.066H571.075ZM425.045 303.84C425.432 303.84 425.789 303.761 426.117 303.603C426.445 303.444 426.715 303.228 426.926 302.952C427.137 302.671 427.257 302.352 427.286 301.994H428.833C428.804 302.557 428.613 303.081 428.262 303.567C427.916 304.048 427.462 304.438 426.899 304.736C426.337 305.029 425.719 305.176 425.045 305.176C424.33 305.176 423.706 305.05 423.173 304.798C422.646 304.546 422.206 304.2 421.854 303.761C421.509 303.321 421.248 302.817 421.072 302.249C420.902 301.675 420.817 301.068 420.817 300.43V300.061C420.817 299.422 420.902 298.818 421.072 298.25C421.248 297.676 421.509 297.169 421.854 296.729C422.206 296.29 422.646 295.944 423.173 295.692C423.706 295.44 424.33 295.314 425.045 295.314C425.789 295.314 426.439 295.467 426.996 295.771C427.553 296.07 427.989 296.48 428.306 297.002C428.628 297.518 428.804 298.104 428.833 298.76H427.286C427.257 298.367 427.146 298.013 426.952 297.696C426.765 297.38 426.507 297.128 426.179 296.94C425.856 296.747 425.479 296.65 425.045 296.65C424.547 296.65 424.128 296.75 423.788 296.949C423.454 297.143 423.188 297.406 422.988 297.74C422.795 298.068 422.654 298.435 422.566 298.839C422.484 299.237 422.443 299.645 422.443 300.061V300.43C422.443 300.846 422.484 301.256 422.566 301.66C422.648 302.064 422.786 302.431 422.979 302.759C423.179 303.087 423.445 303.351 423.779 303.55C424.119 303.743 424.541 303.84 425.045 303.84ZM432.287 296.984V305H430.661V295.49H432.243L432.287 296.984ZM435.258 295.438L435.249 296.949C435.114 296.92 434.985 296.902 434.862 296.896C434.745 296.885 434.61 296.879 434.458 296.879C434.083 296.879 433.752 296.938 433.465 297.055C433.178 297.172 432.935 297.336 432.735 297.547C432.536 297.758 432.378 298.01 432.261 298.303C432.149 298.59 432.076 298.906 432.041 299.252L431.584 299.516C431.584 298.941 431.64 298.402 431.751 297.898C431.868 297.395 432.047 296.949 432.287 296.562C432.527 296.17 432.832 295.865 433.201 295.648C433.576 295.426 434.021 295.314 434.537 295.314C434.654 295.314 434.789 295.329 434.941 295.358C435.094 295.382 435.199 295.408 435.258 295.438ZM440.531 305.176C439.869 305.176 439.269 305.064 438.729 304.842C438.196 304.613 437.736 304.294 437.35 303.884C436.969 303.474 436.676 302.987 436.471 302.425C436.266 301.862 436.163 301.247 436.163 300.579V300.21C436.163 299.437 436.277 298.748 436.506 298.145C436.734 297.535 437.045 297.02 437.438 296.598C437.83 296.176 438.275 295.856 438.773 295.64C439.271 295.423 439.787 295.314 440.32 295.314C441 295.314 441.586 295.432 442.078 295.666C442.576 295.9 442.983 296.229 443.3 296.65C443.616 297.066 443.851 297.559 444.003 298.127C444.155 298.689 444.231 299.305 444.231 299.973V300.702H437.13V299.375H442.605V299.252C442.582 298.83 442.494 298.42 442.342 298.021C442.195 297.623 441.961 297.295 441.639 297.037C441.316 296.779 440.877 296.65 440.32 296.65C439.951 296.65 439.611 296.729 439.301 296.888C438.99 297.04 438.724 297.269 438.501 297.573C438.278 297.878 438.105 298.25 437.982 298.689C437.859 299.129 437.798 299.636 437.798 300.21V300.579C437.798 301.03 437.859 301.455 437.982 301.854C438.111 302.246 438.296 302.592 438.536 302.891C438.782 303.189 439.078 303.424 439.424 303.594C439.775 303.764 440.174 303.849 440.619 303.849C441.193 303.849 441.68 303.731 442.078 303.497C442.477 303.263 442.825 302.949 443.124 302.557L444.108 303.339C443.903 303.649 443.643 303.945 443.326 304.227C443.01 304.508 442.62 304.736 442.157 304.912C441.7 305.088 441.158 305.176 440.531 305.176ZM449.936 303.84C450.322 303.84 450.68 303.761 451.008 303.603C451.336 303.444 451.605 303.228 451.816 302.952C452.027 302.671 452.147 302.352 452.177 301.994H453.724C453.694 302.557 453.504 303.081 453.152 303.567C452.807 304.048 452.353 304.438 451.79 304.736C451.228 305.029 450.609 305.176 449.936 305.176C449.221 305.176 448.597 305.05 448.063 304.798C447.536 304.546 447.097 304.2 446.745 303.761C446.399 303.321 446.139 302.817 445.963 302.249C445.793 301.675 445.708 301.068 445.708 300.43V300.061C445.708 299.422 445.793 298.818 445.963 298.25C446.139 297.676 446.399 297.169 446.745 296.729C447.097 296.29 447.536 295.944 448.063 295.692C448.597 295.44 449.221 295.314 449.936 295.314C450.68 295.314 451.33 295.467 451.887 295.771C452.443 296.07 452.88 296.48 453.196 297.002C453.519 297.518 453.694 298.104 453.724 298.76H452.177C452.147 298.367 452.036 298.013 451.843 297.696C451.655 297.38 451.397 297.128 451.069 296.94C450.747 296.747 450.369 296.65 449.936 296.65C449.438 296.65 449.019 296.75 448.679 296.949C448.345 297.143 448.078 297.406 447.879 297.74C447.686 298.068 447.545 298.435 447.457 298.839C447.375 299.237 447.334 299.645 447.334 300.061V300.43C447.334 300.846 447.375 301.256 447.457 301.66C447.539 302.064 447.677 302.431 447.87 302.759C448.069 303.087 448.336 303.351 448.67 303.55C449.01 303.743 449.432 303.84 449.936 303.84ZM457.318 295.49V305H455.684V295.49H457.318ZM455.561 292.968C455.561 292.704 455.64 292.481 455.798 292.3C455.962 292.118 456.202 292.027 456.519 292.027C456.829 292.027 457.066 292.118 457.23 292.3C457.4 292.481 457.485 292.704 457.485 292.968C457.485 293.22 457.4 293.437 457.23 293.618C457.066 293.794 456.829 293.882 456.519 293.882C456.202 293.882 455.962 293.794 455.798 293.618C455.64 293.437 455.561 293.22 455.561 292.968ZM461.546 297.38V305H459.911V295.49H461.458L461.546 297.38ZM461.212 299.885L460.456 299.858C460.462 299.208 460.547 298.607 460.711 298.057C460.875 297.5 461.118 297.017 461.44 296.606C461.763 296.196 462.164 295.88 462.645 295.657C463.125 295.429 463.682 295.314 464.314 295.314C464.76 295.314 465.17 295.379 465.545 295.508C465.92 295.631 466.245 295.827 466.521 296.097C466.796 296.366 467.01 296.712 467.162 297.134C467.314 297.556 467.391 298.065 467.391 298.663V305H465.765V298.742C465.765 298.244 465.68 297.846 465.51 297.547C465.346 297.248 465.111 297.031 464.807 296.896C464.502 296.756 464.145 296.686 463.734 296.686C463.254 296.686 462.853 296.771 462.53 296.94C462.208 297.11 461.95 297.345 461.757 297.644C461.563 297.942 461.423 298.285 461.335 298.672C461.253 299.053 461.212 299.457 461.212 299.885ZM467.373 298.988L466.283 299.322C466.289 298.801 466.374 298.3 466.538 297.819C466.708 297.339 466.951 296.911 467.268 296.536C467.59 296.161 467.985 295.865 468.454 295.648C468.923 295.426 469.459 295.314 470.062 295.314C470.572 295.314 471.023 295.382 471.416 295.517C471.814 295.651 472.148 295.859 472.418 296.141C472.693 296.416 472.901 296.771 473.042 297.204C473.183 297.638 473.253 298.153 473.253 298.751V305H471.618V298.733C471.618 298.2 471.533 297.787 471.363 297.494C471.199 297.195 470.965 296.987 470.66 296.87C470.361 296.747 470.004 296.686 469.588 296.686C469.23 296.686 468.914 296.747 468.639 296.87C468.363 296.993 468.132 297.163 467.944 297.38C467.757 297.591 467.613 297.834 467.514 298.109C467.42 298.385 467.373 298.678 467.373 298.988ZM477.48 295.49V305H475.846V295.49H477.48ZM475.723 292.968C475.723 292.704 475.802 292.481 475.96 292.3C476.124 292.118 476.364 292.027 476.681 292.027C476.991 292.027 477.229 292.118 477.393 292.3C477.562 292.481 477.647 292.704 477.647 292.968C477.647 293.22 477.562 293.437 477.393 293.618C477.229 293.794 476.991 293.882 476.681 293.882C476.364 293.882 476.124 293.794 475.96 293.618C475.802 293.437 475.723 293.22 475.723 292.968ZM484.037 305.176C483.375 305.176 482.774 305.064 482.235 304.842C481.702 304.613 481.242 304.294 480.855 303.884C480.475 303.474 480.182 302.987 479.977 302.425C479.771 301.862 479.669 301.247 479.669 300.579V300.21C479.669 299.437 479.783 298.748 480.012 298.145C480.24 297.535 480.551 297.02 480.943 296.598C481.336 296.176 481.781 295.856 482.279 295.64C482.777 295.423 483.293 295.314 483.826 295.314C484.506 295.314 485.092 295.432 485.584 295.666C486.082 295.9 486.489 296.229 486.806 296.65C487.122 297.066 487.356 297.559 487.509 298.127C487.661 298.689 487.737 299.305 487.737 299.973V300.702H480.636V299.375H486.111V299.252C486.088 298.83 486 298.42 485.848 298.021C485.701 297.623 485.467 297.295 485.145 297.037C484.822 296.779 484.383 296.65 483.826 296.65C483.457 296.65 483.117 296.729 482.807 296.888C482.496 297.04 482.229 297.269 482.007 297.573C481.784 297.878 481.611 298.25 481.488 298.689C481.365 299.129 481.304 299.636 481.304 300.21V300.579C481.304 301.03 481.365 301.455 481.488 301.854C481.617 302.246 481.802 302.592 482.042 302.891C482.288 303.189 482.584 303.424 482.93 303.594C483.281 303.764 483.68 303.849 484.125 303.849C484.699 303.849 485.186 303.731 485.584 303.497C485.982 303.263 486.331 302.949 486.63 302.557L487.614 303.339C487.409 303.649 487.148 303.945 486.832 304.227C486.516 304.508 486.126 304.736 485.663 304.912C485.206 305.088 484.664 305.176 484.037 305.176ZM491.262 297.521V305H489.636V295.49H491.174L491.262 297.521ZM490.875 299.885L490.198 299.858C490.204 299.208 490.301 298.607 490.488 298.057C490.676 297.5 490.939 297.017 491.279 296.606C491.619 296.196 492.023 295.88 492.492 295.657C492.967 295.429 493.491 295.314 494.065 295.314C494.534 295.314 494.956 295.379 495.331 295.508C495.706 295.631 496.025 295.83 496.289 296.105C496.559 296.381 496.764 296.738 496.904 297.178C497.045 297.611 497.115 298.142 497.115 298.769V305H495.48V298.751C495.48 298.253 495.407 297.854 495.261 297.556C495.114 297.251 494.9 297.031 494.619 296.896C494.338 296.756 493.992 296.686 493.582 296.686C493.178 296.686 492.809 296.771 492.475 296.94C492.146 297.11 491.862 297.345 491.622 297.644C491.388 297.942 491.203 298.285 491.068 298.672C490.939 299.053 490.875 299.457 490.875 299.885ZM503.566 295.49V296.738H498.425V295.49H503.566ZM500.165 293.179H501.791V302.645C501.791 302.967 501.841 303.21 501.94 303.374C502.04 303.538 502.169 303.646 502.327 303.699C502.485 303.752 502.655 303.778 502.837 303.778C502.972 303.778 503.112 303.767 503.259 303.743C503.411 303.714 503.525 303.69 503.602 303.673L503.61 305C503.481 305.041 503.312 305.079 503.101 305.114C502.896 305.155 502.646 305.176 502.354 305.176C501.955 305.176 501.589 305.097 501.255 304.938C500.921 304.78 500.654 304.517 500.455 304.147C500.262 303.772 500.165 303.269 500.165 302.636V293.179ZM504.867 300.351V300.148C504.867 299.463 504.967 298.827 505.166 298.241C505.365 297.649 505.652 297.137 506.027 296.703C506.402 296.264 506.856 295.924 507.39 295.684C507.923 295.438 508.521 295.314 509.183 295.314C509.851 295.314 510.451 295.438 510.984 295.684C511.523 295.924 511.98 296.264 512.355 296.703C512.736 297.137 513.026 297.649 513.226 298.241C513.425 298.827 513.524 299.463 513.524 300.148V300.351C513.524 301.036 513.425 301.672 513.226 302.258C513.026 302.844 512.736 303.356 512.355 303.796C511.98 304.229 511.526 304.569 510.993 304.815C510.466 305.056 509.868 305.176 509.2 305.176C508.532 305.176 507.932 305.056 507.398 304.815C506.865 304.569 506.408 304.229 506.027 303.796C505.652 303.356 505.365 302.844 505.166 302.258C504.967 301.672 504.867 301.036 504.867 300.351ZM506.493 300.148V300.351C506.493 300.825 506.549 301.273 506.66 301.695C506.771 302.111 506.938 302.48 507.161 302.803C507.39 303.125 507.674 303.38 508.014 303.567C508.354 303.749 508.749 303.84 509.2 303.84C509.646 303.84 510.035 303.749 510.369 303.567C510.709 303.38 510.99 303.125 511.213 302.803C511.436 302.48 511.603 302.111 511.714 301.695C511.831 301.273 511.89 300.825 511.89 300.351V300.148C511.89 299.68 511.831 299.237 511.714 298.821C511.603 298.399 511.433 298.027 511.204 297.705C510.981 297.377 510.7 297.119 510.36 296.932C510.026 296.744 509.634 296.65 509.183 296.65C508.737 296.65 508.345 296.744 508.005 296.932C507.671 297.119 507.39 297.377 507.161 297.705C506.938 298.027 506.771 298.399 506.66 298.821C506.549 299.237 506.493 299.68 506.493 300.148Z" fill="white"/>
</g>
</g>
<g filter="url(#filter3_d_1461_16508)">
<g clip-path="url(#clip1_1461_16508)">
<path d="M656 52C656 40.9543 664.954 32 676 32H856C867.046 32 876 40.9543 876 52V308C876 319.046 867.046 328 856 328H676C664.954 328 656 319.046 656 308V52Z" fill="#667099" fill-opacity="0.1"/>
<path d="M672 64C672 55.1634 679.163 48 688 48H844C852.837 48 860 55.1634 860 64V172C860 180.837 852.837 188 844 188H688C679.163 188 672 180.837 672 172V64Z" fill="#ECD7AC"/>
<path d="M683.648 228.888C685.632 229.016 687.392 229.571 688.928 230.552C690.485 231.533 691.691 232.856 692.544 234.52C693.397 236.163 693.824 238.008 693.824 240.056C693.824 242.232 693.344 244.173 692.384 245.88C691.445 247.587 690.133 248.92 688.448 249.88C686.763 250.84 684.843 251.32 682.688 251.32H681.088C680.917 251.32 680.544 251.32 679.968 251.32C679.392 251.32 678.368 251.256 676.896 251.128L675.104 250.968V228.856L683.648 228.888ZM681.664 248.92C684.736 248.92 687.093 248.163 688.736 246.648C690.379 245.133 691.2 242.968 691.2 240.152C691.2 237.507 690.496 235.405 689.088 233.848C687.701 232.291 685.771 231.448 683.296 231.32H677.728V248.76C679.179 248.867 680.491 248.92 681.664 248.92ZM704.433 251.32C702.919 251.32 701.553 250.957 700.337 250.232C699.143 249.507 698.204 248.515 697.521 247.256C696.839 245.976 696.497 244.536 696.497 242.936C696.497 241.336 696.839 239.896 697.521 238.616C698.225 237.315 699.175 236.301 700.369 235.576C701.585 234.829 702.951 234.456 704.465 234.456C705.98 234.456 707.335 234.819 708.529 235.544C709.745 236.269 710.695 237.283 711.377 238.584C712.06 239.864 712.401 241.304 712.401 242.904C712.401 244.504 712.06 245.944 711.377 247.224C710.695 248.504 709.745 249.507 708.529 250.232C707.313 250.957 705.948 251.32 704.433 251.32ZM704.465 248.952C706.065 248.952 707.345 248.397 708.305 247.288C709.287 246.179 709.777 244.717 709.777 242.904C709.777 241.069 709.287 239.597 708.305 238.488C707.345 237.379 706.065 236.824 704.465 236.824C703.42 236.824 702.492 237.08 701.681 237.592C700.871 238.104 700.241 238.819 699.793 239.736C699.345 240.653 699.121 241.709 699.121 242.904C699.121 244.717 699.612 246.179 700.593 247.288C701.575 248.397 702.865 248.952 704.465 248.952ZM722.311 234.456C722.929 234.456 723.665 234.563 724.519 234.776L724.455 237.304C723.601 237.069 722.908 236.952 722.375 236.952C721.372 236.952 720.593 237.187 720.039 237.656C719.399 238.168 718.844 238.851 718.375 239.704V251.032H715.751V239.704C715.751 238.04 715.303 236.824 714.407 236.056L716.167 234.424C716.487 234.616 716.807 234.904 717.127 235.288C717.468 235.672 717.745 236.109 717.959 236.6C718.428 236.003 718.908 235.544 719.399 235.224C720.209 234.712 721.18 234.456 722.311 234.456ZM738.22 251.416C737.409 250.861 736.833 250.179 736.492 249.368C736.001 249.987 735.34 250.467 734.508 250.808C733.697 251.149 732.78 251.32 731.756 251.32C730.006 251.32 728.598 250.84 727.532 249.88C726.486 248.92 725.964 247.651 725.964 246.072C725.964 244.408 726.593 243.117 727.852 242.2C729.11 241.261 730.87 240.792 733.132 240.792H735.916V240.12C735.916 238.904 735.692 238.051 735.244 237.56C734.817 237.048 734.081 236.792 733.036 236.792C732.14 236.792 731.254 236.952 730.38 237.272C729.526 237.592 728.737 238.051 728.012 238.648L726.732 236.696C727.5 235.992 728.449 235.437 729.58 235.032C730.71 234.627 731.873 234.424 733.068 234.424C734.838 234.424 736.193 234.883 737.132 235.8C738.07 236.717 738.54 238.04 738.54 239.768V246.136C738.54 247.821 738.998 249.048 739.916 249.816L738.22 251.416ZM731.788 248.952C733.025 248.952 734.017 248.6 734.764 247.896C735.532 247.171 735.916 246.243 735.916 245.112V243.16H733.132C731.532 243.16 730.369 243.395 729.644 243.864C728.94 244.312 728.588 245.037 728.588 246.04C728.588 246.957 728.865 247.672 729.42 248.184C729.996 248.696 730.785 248.952 731.788 248.952ZM748.694 251.32C747.264 251.32 746.016 250.947 744.95 250.2C743.904 249.432 743.104 248.419 742.549 247.16C741.995 245.88 741.718 244.493 741.718 243C741.718 241.4 742.027 239.96 742.646 238.68C743.286 237.379 744.203 236.355 745.398 235.608C746.592 234.861 748 234.488 749.622 234.488C750.432 234.488 751.563 234.573 753.014 234.744V227.704H755.478V246.168C755.478 247.811 755.936 249.048 756.854 249.88L755.286 251.384C754.496 250.872 753.899 250.115 753.494 249.112C752.939 249.859 752.235 250.413 751.382 250.776C750.528 251.139 749.632 251.32 748.694 251.32ZM748.79 248.952C749.664 248.952 750.432 248.749 751.094 248.344C751.755 247.917 752.267 247.341 752.63 246.616C752.886 246.104 753.014 245.507 753.014 244.824V237.144C752.011 237.016 751.275 236.941 750.806 236.92C750.358 236.877 749.878 236.856 749.366 236.856C747.787 236.856 746.539 237.432 745.622 238.584C744.704 239.715 744.246 241.155 744.246 242.904C744.246 244.632 744.64 246.072 745.43 247.224C746.24 248.376 747.36 248.952 748.79 248.952ZM766.777 251.32C765.262 251.32 763.897 250.957 762.681 250.232C761.486 249.507 760.548 248.515 759.865 247.256C759.182 245.976 758.841 244.536 758.841 242.936C758.841 241.336 759.182 239.896 759.865 238.616C760.569 237.315 761.518 236.301 762.713 235.576C763.929 234.829 765.294 234.456 766.809 234.456C768.324 234.456 769.678 234.819 770.873 235.544C772.089 236.269 773.038 237.283 773.721 238.584C774.404 239.864 774.745 241.304 774.745 242.904C774.745 244.504 774.404 245.944 773.721 247.224C773.038 248.504 772.089 249.507 770.873 250.232C769.657 250.957 768.292 251.32 766.777 251.32ZM766.809 248.952C768.409 248.952 769.689 248.397 770.649 247.288C771.63 246.179 772.121 244.717 772.121 242.904C772.121 241.069 771.63 239.597 770.649 238.488C769.689 237.379 768.409 236.824 766.809 236.824C765.764 236.824 764.836 237.08 764.025 237.592C763.214 238.104 762.585 238.819 762.137 239.736C761.689 240.653 761.465 241.709 761.465 242.904C761.465 244.717 761.956 246.179 762.937 247.288C763.918 248.397 765.209 248.952 766.809 248.952Z" fill="white"/>
<path d="M678.205 273.981H674.786V272.602H678.205C678.867 272.602 679.403 272.496 679.813 272.285C680.224 272.074 680.522 271.781 680.71 271.406C680.903 271.031 681 270.604 681 270.123C681 269.684 680.903 269.271 680.71 268.884C680.522 268.497 680.224 268.187 679.813 267.952C679.403 267.712 678.867 267.592 678.205 267.592H675.182V279H673.485V266.203H678.205C679.172 266.203 679.989 266.37 680.657 266.704C681.325 267.038 681.832 267.501 682.178 268.093C682.523 268.679 682.696 269.35 682.696 270.105C682.696 270.926 682.523 271.626 682.178 272.206C681.832 272.786 681.325 273.229 680.657 273.533C679.989 273.832 679.172 273.981 678.205 273.981ZM686.221 270.984V279H684.595V269.49H686.177L686.221 270.984ZM689.191 269.438L689.183 270.949C689.048 270.92 688.919 270.902 688.796 270.896C688.679 270.885 688.544 270.879 688.392 270.879C688.017 270.879 687.686 270.938 687.398 271.055C687.111 271.172 686.868 271.336 686.669 271.547C686.47 271.758 686.312 272.01 686.194 272.303C686.083 272.59 686.01 272.906 685.975 273.252L685.518 273.516C685.518 272.941 685.573 272.402 685.685 271.898C685.802 271.395 685.98 270.949 686.221 270.562C686.461 270.17 686.766 269.865 687.135 269.648C687.51 269.426 687.955 269.314 688.471 269.314C688.588 269.314 688.723 269.329 688.875 269.358C689.027 269.382 689.133 269.408 689.191 269.438ZM694.465 279.176C693.803 279.176 693.202 279.064 692.663 278.842C692.13 278.613 691.67 278.294 691.283 277.884C690.902 277.474 690.609 276.987 690.404 276.425C690.199 275.862 690.097 275.247 690.097 274.579V274.21C690.097 273.437 690.211 272.748 690.439 272.145C690.668 271.535 690.979 271.02 691.371 270.598C691.764 270.176 692.209 269.856 692.707 269.64C693.205 269.423 693.721 269.314 694.254 269.314C694.934 269.314 695.52 269.432 696.012 269.666C696.51 269.9 696.917 270.229 697.233 270.65C697.55 271.066 697.784 271.559 697.937 272.127C698.089 272.689 698.165 273.305 698.165 273.973V274.702H691.063V273.375H696.539V273.252C696.516 272.83 696.428 272.42 696.275 272.021C696.129 271.623 695.895 271.295 695.572 271.037C695.25 270.779 694.811 270.65 694.254 270.65C693.885 270.65 693.545 270.729 693.234 270.888C692.924 271.04 692.657 271.269 692.435 271.573C692.212 271.878 692.039 272.25 691.916 272.689C691.793 273.129 691.731 273.636 691.731 274.21V274.579C691.731 275.03 691.793 275.455 691.916 275.854C692.045 276.246 692.229 276.592 692.47 276.891C692.716 277.189 693.012 277.424 693.357 277.594C693.709 277.764 694.107 277.849 694.553 277.849C695.127 277.849 695.613 277.731 696.012 277.497C696.41 277.263 696.759 276.949 697.058 276.557L698.042 277.339C697.837 277.649 697.576 277.945 697.26 278.227C696.943 278.508 696.554 278.736 696.091 278.912C695.634 279.088 695.092 279.176 694.465 279.176ZM705.601 276.478C705.601 276.243 705.548 276.026 705.442 275.827C705.343 275.622 705.135 275.438 704.818 275.273C704.508 275.104 704.039 274.957 703.412 274.834C702.885 274.723 702.407 274.591 701.979 274.438C701.558 274.286 701.197 274.102 700.898 273.885C700.605 273.668 700.38 273.413 700.222 273.12C700.063 272.827 699.984 272.484 699.984 272.092C699.984 271.717 700.066 271.362 700.23 271.028C700.4 270.694 700.638 270.398 700.942 270.141C701.253 269.883 701.625 269.681 702.059 269.534C702.492 269.388 702.976 269.314 703.509 269.314C704.271 269.314 704.921 269.449 705.46 269.719C705.999 269.988 706.412 270.349 706.699 270.8C706.986 271.245 707.13 271.74 707.13 272.285H705.504C705.504 272.021 705.425 271.767 705.267 271.521C705.114 271.269 704.889 271.061 704.59 270.896C704.297 270.732 703.937 270.65 703.509 270.65C703.058 270.65 702.691 270.721 702.41 270.861C702.135 270.996 701.933 271.169 701.804 271.38C701.681 271.591 701.619 271.813 701.619 272.048C701.619 272.224 701.648 272.382 701.707 272.522C701.771 272.657 701.883 272.783 702.041 272.9C702.199 273.012 702.422 273.117 702.709 273.217C702.996 273.316 703.362 273.416 703.808 273.516C704.587 273.691 705.229 273.902 705.732 274.148C706.236 274.395 706.611 274.696 706.857 275.054C707.104 275.411 707.227 275.845 707.227 276.354C707.227 276.771 707.139 277.151 706.963 277.497C706.793 277.843 706.544 278.142 706.216 278.394C705.894 278.64 705.507 278.833 705.056 278.974C704.61 279.108 704.109 279.176 703.553 279.176C702.715 279.176 702.006 279.026 701.426 278.728C700.846 278.429 700.406 278.042 700.107 277.567C699.809 277.093 699.659 276.592 699.659 276.064H701.294C701.317 276.51 701.446 276.864 701.681 277.128C701.915 277.386 702.202 277.57 702.542 277.682C702.882 277.787 703.219 277.84 703.553 277.84C703.998 277.84 704.37 277.781 704.669 277.664C704.974 277.547 705.205 277.386 705.363 277.181C705.521 276.976 705.601 276.741 705.601 276.478ZM713.344 269.49V270.738H708.202V269.49H713.344ZM709.942 267.179H711.568V276.645C711.568 276.967 711.618 277.21 711.718 277.374C711.817 277.538 711.946 277.646 712.104 277.699C712.263 277.752 712.433 277.778 712.614 277.778C712.749 277.778 712.89 277.767 713.036 277.743C713.188 277.714 713.303 277.69 713.379 277.673L713.388 279C713.259 279.041 713.089 279.079 712.878 279.114C712.673 279.155 712.424 279.176 712.131 279.176C711.732 279.176 711.366 279.097 711.032 278.938C710.698 278.78 710.432 278.517 710.232 278.147C710.039 277.772 709.942 277.269 709.942 276.636V267.179ZM717.018 269.49V279H715.383V269.49H717.018ZM715.26 266.968C715.26 266.704 715.339 266.481 715.497 266.3C715.661 266.118 715.901 266.027 716.218 266.027C716.528 266.027 716.766 266.118 716.93 266.3C717.1 266.481 717.185 266.704 717.185 266.968C717.185 267.22 717.1 267.437 716.93 267.618C716.766 267.794 716.528 267.882 716.218 267.882C715.901 267.882 715.661 267.794 715.497 267.618C715.339 267.437 715.26 267.22 715.26 266.968ZM725.789 269.49H727.266V278.798C727.266 279.636 727.096 280.351 726.756 280.942C726.416 281.534 725.941 281.982 725.332 282.287C724.729 282.598 724.031 282.753 723.24 282.753C722.912 282.753 722.525 282.7 722.08 282.595C721.641 282.495 721.207 282.322 720.779 282.076C720.357 281.836 720.003 281.511 719.716 281.101L720.568 280.134C720.967 280.614 721.383 280.948 721.816 281.136C722.256 281.323 722.689 281.417 723.117 281.417C723.633 281.417 724.078 281.32 724.453 281.127C724.828 280.934 725.118 280.646 725.323 280.266C725.534 279.891 725.64 279.428 725.64 278.877V271.582L725.789 269.49ZM719.241 274.351V274.166C719.241 273.439 719.326 272.78 719.496 272.188C719.672 271.591 719.921 271.078 720.243 270.65C720.571 270.223 720.967 269.895 721.43 269.666C721.893 269.432 722.414 269.314 722.994 269.314C723.592 269.314 724.113 269.42 724.559 269.631C725.01 269.836 725.391 270.138 725.701 270.536C726.018 270.929 726.267 271.403 726.448 271.96C726.63 272.517 726.756 273.146 726.826 273.85V274.658C726.762 275.355 726.636 275.982 726.448 276.539C726.267 277.096 726.018 277.57 725.701 277.963C725.391 278.355 725.01 278.657 724.559 278.868C724.107 279.073 723.58 279.176 722.977 279.176C722.408 279.176 721.893 279.056 721.43 278.815C720.973 278.575 720.58 278.238 720.252 277.805C719.924 277.371 719.672 276.861 719.496 276.275C719.326 275.684 719.241 275.042 719.241 274.351ZM720.867 274.166V274.351C720.867 274.825 720.914 275.271 721.008 275.687C721.107 276.103 721.257 276.469 721.456 276.785C721.661 277.102 721.922 277.351 722.238 277.532C722.555 277.708 722.933 277.796 723.372 277.796C723.911 277.796 724.356 277.682 724.708 277.453C725.06 277.225 725.338 276.923 725.543 276.548C725.754 276.173 725.918 275.766 726.035 275.326V273.208C725.971 272.886 725.871 272.575 725.736 272.276C725.607 271.972 725.438 271.702 725.227 271.468C725.021 271.228 724.767 271.037 724.462 270.896C724.157 270.756 723.8 270.686 723.39 270.686C722.944 270.686 722.561 270.779 722.238 270.967C721.922 271.148 721.661 271.4 721.456 271.723C721.257 272.039 721.107 272.408 721.008 272.83C720.914 273.246 720.867 273.691 720.867 274.166ZM731.502 269.49V279H729.867V269.49H731.502ZM729.744 266.968C729.744 266.704 729.823 266.481 729.981 266.3C730.146 266.118 730.386 266.027 730.702 266.027C731.013 266.027 731.25 266.118 731.414 266.3C731.584 266.481 731.669 266.704 731.669 266.968C731.669 267.22 731.584 267.437 731.414 267.618C731.25 267.794 731.013 267.882 730.702 267.882C730.386 267.882 730.146 267.794 729.981 267.618C729.823 267.437 729.744 267.22 729.744 266.968ZM733.682 274.351V274.148C733.682 273.463 733.781 272.827 733.98 272.241C734.18 271.649 734.467 271.137 734.842 270.703C735.217 270.264 735.671 269.924 736.204 269.684C736.737 269.438 737.335 269.314 737.997 269.314C738.665 269.314 739.266 269.438 739.799 269.684C740.338 269.924 740.795 270.264 741.17 270.703C741.551 271.137 741.841 271.649 742.04 272.241C742.239 272.827 742.339 273.463 742.339 274.148V274.351C742.339 275.036 742.239 275.672 742.04 276.258C741.841 276.844 741.551 277.356 741.17 277.796C740.795 278.229 740.341 278.569 739.808 278.815C739.28 279.056 738.683 279.176 738.015 279.176C737.347 279.176 736.746 279.056 736.213 278.815C735.68 278.569 735.223 278.229 734.842 277.796C734.467 277.356 734.18 276.844 733.98 276.258C733.781 275.672 733.682 275.036 733.682 274.351ZM735.308 274.148V274.351C735.308 274.825 735.363 275.273 735.475 275.695C735.586 276.111 735.753 276.48 735.976 276.803C736.204 277.125 736.488 277.38 736.828 277.567C737.168 277.749 737.563 277.84 738.015 277.84C738.46 277.84 738.85 277.749 739.184 277.567C739.523 277.38 739.805 277.125 740.027 276.803C740.25 276.48 740.417 276.111 740.528 275.695C740.646 275.273 740.704 274.825 740.704 274.351V274.148C740.704 273.68 740.646 273.237 740.528 272.821C740.417 272.399 740.247 272.027 740.019 271.705C739.796 271.377 739.515 271.119 739.175 270.932C738.841 270.744 738.448 270.65 737.997 270.65C737.552 270.65 737.159 270.744 736.819 270.932C736.485 271.119 736.204 271.377 735.976 271.705C735.753 272.027 735.586 272.399 735.475 272.821C735.363 273.237 735.308 273.68 735.308 274.148ZM745.854 277.066V278.376C745.854 278.909 745.72 279.472 745.45 280.063C745.181 280.661 744.803 281.159 744.316 281.558L743.394 280.916C743.581 280.658 743.739 280.395 743.868 280.125C743.997 279.861 744.094 279.586 744.158 279.299C744.229 279.018 744.264 278.719 744.264 278.402V277.066H745.854ZM758.001 277.374V272.479C758.001 272.104 757.925 271.778 757.772 271.503C757.626 271.222 757.403 271.005 757.104 270.853C756.806 270.7 756.437 270.624 755.997 270.624C755.587 270.624 755.227 270.694 754.916 270.835C754.611 270.976 754.371 271.16 754.195 271.389C754.025 271.617 753.94 271.863 753.94 272.127H752.314C752.314 271.787 752.402 271.45 752.578 271.116C752.754 270.782 753.006 270.48 753.334 270.211C753.668 269.936 754.066 269.719 754.529 269.561C754.998 269.396 755.52 269.314 756.094 269.314C756.785 269.314 757.395 269.432 757.922 269.666C758.455 269.9 758.871 270.255 759.17 270.729C759.475 271.198 759.627 271.787 759.627 272.496V276.926C759.627 277.242 759.653 277.579 759.706 277.937C759.765 278.294 759.85 278.602 759.961 278.859V279H758.265C758.183 278.812 758.118 278.563 758.071 278.253C758.024 277.937 758.001 277.644 758.001 277.374ZM758.282 273.234L758.3 274.377H756.656C756.193 274.377 755.78 274.415 755.417 274.491C755.054 274.562 754.749 274.67 754.503 274.816C754.257 274.963 754.069 275.147 753.94 275.37C753.812 275.587 753.747 275.842 753.747 276.135C753.747 276.434 753.814 276.706 753.949 276.952C754.084 277.198 754.286 277.395 754.556 277.541C754.831 277.682 755.168 277.752 755.566 277.752C756.064 277.752 756.504 277.646 756.885 277.436C757.266 277.225 757.567 276.967 757.79 276.662C758.019 276.357 758.142 276.062 758.159 275.774L758.854 276.557C758.812 276.803 758.701 277.075 758.52 277.374C758.338 277.673 758.095 277.96 757.79 278.235C757.491 278.505 757.134 278.73 756.718 278.912C756.308 279.088 755.845 279.176 755.329 279.176C754.685 279.176 754.119 279.05 753.633 278.798C753.152 278.546 752.777 278.209 752.508 277.787C752.244 277.359 752.112 276.882 752.112 276.354C752.112 275.845 752.212 275.396 752.411 275.01C752.61 274.617 752.897 274.292 753.272 274.034C753.647 273.771 754.099 273.571 754.626 273.437C755.153 273.302 755.742 273.234 756.393 273.234H758.282ZM768.003 276.803V269.49H769.638V279H768.082L768.003 276.803ZM768.311 274.799L768.987 274.781C768.987 275.414 768.92 276 768.785 276.539C768.656 277.072 768.445 277.535 768.152 277.928C767.859 278.32 767.476 278.628 767.001 278.851C766.526 279.067 765.949 279.176 765.27 279.176C764.807 279.176 764.382 279.108 763.995 278.974C763.614 278.839 763.286 278.631 763.011 278.35C762.735 278.068 762.521 277.702 762.369 277.251C762.223 276.8 762.149 276.258 762.149 275.625V269.49H763.775V275.643C763.775 276.07 763.822 276.425 763.916 276.706C764.016 276.981 764.147 277.201 764.312 277.365C764.481 277.523 764.669 277.635 764.874 277.699C765.085 277.764 765.302 277.796 765.524 277.796C766.216 277.796 766.764 277.664 767.168 277.4C767.572 277.131 767.862 276.771 768.038 276.319C768.22 275.862 768.311 275.355 768.311 274.799ZM773.742 270.984V279H772.116V269.49H773.698L773.742 270.984ZM776.713 269.438L776.704 270.949C776.569 270.92 776.44 270.902 776.317 270.896C776.2 270.885 776.065 270.879 775.913 270.879C775.538 270.879 775.207 270.938 774.92 271.055C774.633 271.172 774.39 271.336 774.19 271.547C773.991 271.758 773.833 272.01 773.716 272.303C773.604 272.59 773.531 272.906 773.496 273.252L773.039 273.516C773.039 272.941 773.095 272.402 773.206 271.898C773.323 271.395 773.502 270.949 773.742 270.562C773.982 270.17 774.287 269.865 774.656 269.648C775.031 269.426 775.477 269.314 775.992 269.314C776.109 269.314 776.244 269.329 776.396 269.358C776.549 269.382 776.654 269.408 776.713 269.438ZM777.609 274.351V274.148C777.609 273.463 777.709 272.827 777.908 272.241C778.107 271.649 778.395 271.137 778.77 270.703C779.145 270.264 779.599 269.924 780.132 269.684C780.665 269.438 781.263 269.314 781.925 269.314C782.593 269.314 783.193 269.438 783.727 269.684C784.266 269.924 784.723 270.264 785.098 270.703C785.479 271.137 785.769 271.649 785.968 272.241C786.167 272.827 786.267 273.463 786.267 274.148V274.351C786.267 275.036 786.167 275.672 785.968 276.258C785.769 276.844 785.479 277.356 785.098 277.796C784.723 278.229 784.269 278.569 783.735 278.815C783.208 279.056 782.61 279.176 781.942 279.176C781.274 279.176 780.674 279.056 780.141 278.815C779.607 278.569 779.15 278.229 778.77 277.796C778.395 277.356 778.107 276.844 777.908 276.258C777.709 275.672 777.609 275.036 777.609 274.351ZM779.235 274.148V274.351C779.235 274.825 779.291 275.273 779.402 275.695C779.514 276.111 779.681 276.48 779.903 276.803C780.132 277.125 780.416 277.38 780.756 277.567C781.096 277.749 781.491 277.84 781.942 277.84C782.388 277.84 782.777 277.749 783.111 277.567C783.451 277.38 783.732 277.125 783.955 276.803C784.178 276.48 784.345 276.111 784.456 275.695C784.573 275.273 784.632 274.825 784.632 274.351V274.148C784.632 273.68 784.573 273.237 784.456 272.821C784.345 272.399 784.175 272.027 783.946 271.705C783.724 271.377 783.442 271.119 783.103 270.932C782.769 270.744 782.376 270.65 781.925 270.65C781.479 270.65 781.087 270.744 780.747 270.932C780.413 271.119 780.132 271.377 779.903 271.705C779.681 272.027 779.514 272.399 779.402 272.821C779.291 273.237 779.235 273.68 779.235 274.148ZM789.932 270.984V279H788.306V269.49H789.888L789.932 270.984ZM792.902 269.438L792.894 270.949C792.759 270.92 792.63 270.902 792.507 270.896C792.39 270.885 792.255 270.879 792.103 270.879C791.728 270.879 791.396 270.938 791.109 271.055C790.822 271.172 790.579 271.336 790.38 271.547C790.181 271.758 790.022 272.01 789.905 272.303C789.794 272.59 789.721 272.906 789.686 273.252L789.229 273.516C789.229 272.941 789.284 272.402 789.396 271.898C789.513 271.395 789.691 270.949 789.932 270.562C790.172 270.17 790.477 269.865 790.846 269.648C791.221 269.426 791.666 269.314 792.182 269.314C792.299 269.314 792.434 269.329 792.586 269.358C792.738 269.382 792.844 269.408 792.902 269.438ZM796.172 269.49V279H794.537V269.49H796.172ZM794.414 266.968C794.414 266.704 794.493 266.481 794.651 266.3C794.815 266.118 795.056 266.027 795.372 266.027C795.683 266.027 795.92 266.118 796.084 266.3C796.254 266.481 796.339 266.704 796.339 266.968C796.339 267.22 796.254 267.437 796.084 267.618C795.92 267.794 795.683 267.882 795.372 267.882C795.056 267.882 794.815 267.794 794.651 267.618C794.493 267.437 794.414 267.22 794.414 266.968ZM804.776 277.154V265.5H806.411V279H804.917L804.776 277.154ZM798.378 274.351V274.166C798.378 273.439 798.466 272.78 798.642 272.188C798.823 271.591 799.078 271.078 799.406 270.65C799.74 270.223 800.136 269.895 800.593 269.666C801.056 269.432 801.571 269.314 802.14 269.314C802.737 269.314 803.259 269.42 803.704 269.631C804.155 269.836 804.536 270.138 804.847 270.536C805.163 270.929 805.412 271.403 805.594 271.96C805.775 272.517 805.901 273.146 805.972 273.85V274.658C805.907 275.355 805.781 275.982 805.594 276.539C805.412 277.096 805.163 277.57 804.847 277.963C804.536 278.355 804.155 278.657 803.704 278.868C803.253 279.073 802.726 279.176 802.122 279.176C801.565 279.176 801.056 279.056 800.593 278.815C800.136 278.575 799.74 278.238 799.406 277.805C799.078 277.371 798.823 276.861 798.642 276.275C798.466 275.684 798.378 275.042 798.378 274.351ZM800.013 274.166V274.351C800.013 274.825 800.06 275.271 800.153 275.687C800.253 276.103 800.405 276.469 800.61 276.785C800.815 277.102 801.076 277.351 801.393 277.532C801.709 277.708 802.087 277.796 802.526 277.796C803.065 277.796 803.508 277.682 803.854 277.453C804.205 277.225 804.486 276.923 804.697 276.548C804.908 276.173 805.072 275.766 805.189 275.326V273.208C805.119 272.886 805.017 272.575 804.882 272.276C804.753 271.972 804.583 271.702 804.372 271.468C804.167 271.228 803.912 271.037 803.607 270.896C803.309 270.756 802.954 270.686 802.544 270.686C802.099 270.686 801.715 270.779 801.393 270.967C801.076 271.148 800.815 271.4 800.61 271.723C800.405 272.039 800.253 272.408 800.153 272.83C800.06 273.246 800.013 273.691 800.013 274.166ZM814.55 277.374V272.479C814.55 272.104 814.474 271.778 814.321 271.503C814.175 271.222 813.952 271.005 813.653 270.853C813.354 270.7 812.985 270.624 812.546 270.624C812.136 270.624 811.775 270.694 811.465 270.835C811.16 270.976 810.92 271.16 810.744 271.389C810.574 271.617 810.489 271.863 810.489 272.127H808.863C808.863 271.787 808.951 271.45 809.127 271.116C809.303 270.782 809.555 270.48 809.883 270.211C810.217 269.936 810.615 269.719 811.078 269.561C811.547 269.396 812.068 269.314 812.643 269.314C813.334 269.314 813.943 269.432 814.471 269.666C815.004 269.9 815.42 270.255 815.719 270.729C816.023 271.198 816.176 271.787 816.176 272.496V276.926C816.176 277.242 816.202 277.579 816.255 277.937C816.313 278.294 816.398 278.602 816.51 278.859V279H814.813C814.731 278.812 814.667 278.563 814.62 278.253C814.573 277.937 814.55 277.644 814.55 277.374ZM814.831 273.234L814.849 274.377H813.205C812.742 274.377 812.329 274.415 811.966 274.491C811.603 274.562 811.298 274.67 811.052 274.816C810.806 274.963 810.618 275.147 810.489 275.37C810.36 275.587 810.296 275.842 810.296 276.135C810.296 276.434 810.363 276.706 810.498 276.952C810.633 277.198 810.835 277.395 811.104 277.541C811.38 277.682 811.717 277.752 812.115 277.752C812.613 277.752 813.053 277.646 813.434 277.436C813.814 277.225 814.116 276.967 814.339 276.662C814.567 276.357 814.69 276.062 814.708 275.774L815.402 276.557C815.361 276.803 815.25 277.075 815.068 277.374C814.887 277.673 814.644 277.96 814.339 278.235C814.04 278.505 813.683 278.73 813.267 278.912C812.856 279.088 812.394 279.176 811.878 279.176C811.233 279.176 810.668 279.05 810.182 278.798C809.701 278.546 809.326 278.209 809.057 277.787C808.793 277.359 808.661 276.882 808.661 276.354C808.661 275.845 808.761 275.396 808.96 275.01C809.159 274.617 809.446 274.292 809.821 274.034C810.196 273.771 810.647 273.571 811.175 273.437C811.702 273.302 812.291 273.234 812.941 273.234H814.831ZM824.728 277.154V265.5H826.362V279H824.868L824.728 277.154ZM818.329 274.351V274.166C818.329 273.439 818.417 272.78 818.593 272.188C818.774 271.591 819.029 271.078 819.357 270.65C819.691 270.223 820.087 269.895 820.544 269.666C821.007 269.432 821.522 269.314 822.091 269.314C822.688 269.314 823.21 269.42 823.655 269.631C824.106 269.836 824.487 270.138 824.798 270.536C825.114 270.929 825.363 271.403 825.545 271.96C825.727 272.517 825.853 273.146 825.923 273.85V274.658C825.858 275.355 825.732 275.982 825.545 276.539C825.363 277.096 825.114 277.57 824.798 277.963C824.487 278.355 824.106 278.657 823.655 278.868C823.204 279.073 822.677 279.176 822.073 279.176C821.517 279.176 821.007 279.056 820.544 278.815C820.087 278.575 819.691 278.238 819.357 277.805C819.029 277.371 818.774 276.861 818.593 276.275C818.417 275.684 818.329 275.042 818.329 274.351ZM819.964 274.166V274.351C819.964 274.825 820.011 275.271 820.104 275.687C820.204 276.103 820.356 276.469 820.562 276.785C820.767 277.102 821.027 277.351 821.344 277.532C821.66 277.708 822.038 277.796 822.478 277.796C823.017 277.796 823.459 277.682 823.805 277.453C824.156 277.225 824.438 276.923 824.648 276.548C824.859 276.173 825.023 275.766 825.141 275.326V273.208C825.07 272.886 824.968 272.575 824.833 272.276C824.704 271.972 824.534 271.702 824.323 271.468C824.118 271.228 823.863 271.037 823.559 270.896C823.26 270.756 822.905 270.686 822.495 270.686C822.05 270.686 821.666 270.779 821.344 270.967C821.027 271.148 820.767 271.4 820.562 271.723C820.356 272.039 820.204 272.408 820.104 272.83C820.011 273.246 819.964 273.691 819.964 274.166ZM830.37 277.066V278.376C830.37 278.909 830.235 279.472 829.966 280.063C829.696 280.661 829.318 281.159 828.832 281.558L827.909 280.916C828.097 280.658 828.255 280.395 828.384 280.125C828.513 279.861 828.609 279.586 828.674 279.299C828.744 279.018 828.779 278.719 828.779 278.402V277.066H830.37ZM677.186 305.176C676.523 305.176 675.923 305.064 675.384 304.842C674.851 304.613 674.391 304.294 674.004 303.884C673.623 303.474 673.33 302.987 673.125 302.425C672.92 301.862 672.817 301.247 672.817 300.579V300.21C672.817 299.437 672.932 298.748 673.16 298.145C673.389 297.535 673.699 297.02 674.092 296.598C674.484 296.176 674.93 295.856 675.428 295.64C675.926 295.423 676.441 295.314 676.975 295.314C677.654 295.314 678.24 295.432 678.732 295.666C679.23 295.9 679.638 296.229 679.954 296.65C680.271 297.066 680.505 297.559 680.657 298.127C680.81 298.689 680.886 299.305 680.886 299.973V300.702H673.784V299.375H679.26V299.252C679.236 298.83 679.148 298.42 678.996 298.021C678.85 297.623 678.615 297.295 678.293 297.037C677.971 296.779 677.531 296.65 676.975 296.65C676.605 296.65 676.266 296.729 675.955 296.888C675.645 297.04 675.378 297.269 675.155 297.573C674.933 297.878 674.76 298.25 674.637 298.689C674.514 299.129 674.452 299.636 674.452 300.21V300.579C674.452 301.03 674.514 301.455 674.637 301.854C674.766 302.246 674.95 302.592 675.19 302.891C675.437 303.189 675.732 303.424 676.078 303.594C676.43 303.764 676.828 303.849 677.273 303.849C677.848 303.849 678.334 303.731 678.732 303.497C679.131 303.263 679.479 302.949 679.778 302.557L680.763 303.339C680.558 303.649 680.297 303.945 679.98 304.227C679.664 304.508 679.274 304.736 678.812 304.912C678.354 305.088 677.812 305.176 677.186 305.176ZM684.41 297.521V305H682.784V295.49H684.322L684.41 297.521ZM684.023 299.885L683.347 299.858C683.353 299.208 683.449 298.607 683.637 298.057C683.824 297.5 684.088 297.017 684.428 296.606C684.768 296.196 685.172 295.88 685.641 295.657C686.115 295.429 686.64 295.314 687.214 295.314C687.683 295.314 688.104 295.379 688.479 295.508C688.854 295.631 689.174 295.83 689.438 296.105C689.707 296.381 689.912 296.738 690.053 297.178C690.193 297.611 690.264 298.142 690.264 298.769V305H688.629V298.751C688.629 298.253 688.556 297.854 688.409 297.556C688.263 297.251 688.049 297.031 687.768 296.896C687.486 296.756 687.141 296.686 686.73 296.686C686.326 296.686 685.957 296.771 685.623 296.94C685.295 297.11 685.011 297.345 684.771 297.644C684.536 297.942 684.352 298.285 684.217 298.672C684.088 299.053 684.023 299.457 684.023 299.885ZM696.68 305.176C696.018 305.176 695.417 305.064 694.878 304.842C694.345 304.613 693.885 304.294 693.498 303.884C693.117 303.474 692.824 302.987 692.619 302.425C692.414 301.862 692.312 301.247 692.312 300.579V300.21C692.312 299.437 692.426 298.748 692.654 298.145C692.883 297.535 693.193 297.02 693.586 296.598C693.979 296.176 694.424 295.856 694.922 295.64C695.42 295.423 695.936 295.314 696.469 295.314C697.148 295.314 697.734 295.432 698.227 295.666C698.725 295.9 699.132 296.229 699.448 296.65C699.765 297.066 699.999 297.559 700.151 298.127C700.304 298.689 700.38 299.305 700.38 299.973V300.702H693.278V299.375H698.754V299.252C698.73 298.83 698.643 298.42 698.49 298.021C698.344 297.623 698.109 297.295 697.787 297.037C697.465 296.779 697.025 296.65 696.469 296.65C696.1 296.65 695.76 296.729 695.449 296.888C695.139 297.04 694.872 297.269 694.649 297.573C694.427 297.878 694.254 298.25 694.131 298.689C694.008 299.129 693.946 299.636 693.946 300.21V300.579C693.946 301.03 694.008 301.455 694.131 301.854C694.26 302.246 694.444 302.592 694.685 302.891C694.931 303.189 695.227 303.424 695.572 303.594C695.924 303.764 696.322 303.849 696.768 303.849C697.342 303.849 697.828 303.731 698.227 303.497C698.625 303.263 698.974 302.949 699.272 302.557L700.257 303.339C700.052 303.649 699.791 303.945 699.475 304.227C699.158 304.508 698.769 304.736 698.306 304.912C697.849 305.088 697.307 305.176 696.68 305.176ZM703.904 296.984V305H702.278V295.49H703.86L703.904 296.984ZM706.875 295.438L706.866 296.949C706.731 296.92 706.603 296.902 706.479 296.896C706.362 296.885 706.228 296.879 706.075 296.879C705.7 296.879 705.369 296.938 705.082 297.055C704.795 297.172 704.552 297.336 704.353 297.547C704.153 297.758 703.995 298.01 703.878 298.303C703.767 298.59 703.693 298.906 703.658 299.252L703.201 299.516C703.201 298.941 703.257 298.402 703.368 297.898C703.485 297.395 703.664 296.949 703.904 296.562C704.145 296.17 704.449 295.865 704.818 295.648C705.193 295.426 705.639 295.314 706.154 295.314C706.271 295.314 706.406 295.329 706.559 295.358C706.711 295.382 706.816 295.408 706.875 295.438ZM714.363 295.49H715.84V304.798C715.84 305.636 715.67 306.351 715.33 306.942C714.99 307.534 714.516 307.982 713.906 308.287C713.303 308.598 712.605 308.753 711.814 308.753C711.486 308.753 711.1 308.7 710.654 308.595C710.215 308.495 709.781 308.322 709.354 308.076C708.932 307.836 708.577 307.511 708.29 307.101L709.143 306.134C709.541 306.614 709.957 306.948 710.391 307.136C710.83 307.323 711.264 307.417 711.691 307.417C712.207 307.417 712.652 307.32 713.027 307.127C713.402 306.934 713.692 306.646 713.897 306.266C714.108 305.891 714.214 305.428 714.214 304.877V297.582L714.363 295.49ZM707.815 300.351V300.166C707.815 299.439 707.9 298.78 708.07 298.188C708.246 297.591 708.495 297.078 708.817 296.65C709.146 296.223 709.541 295.895 710.004 295.666C710.467 295.432 710.988 295.314 711.568 295.314C712.166 295.314 712.688 295.42 713.133 295.631C713.584 295.836 713.965 296.138 714.275 296.536C714.592 296.929 714.841 297.403 715.022 297.96C715.204 298.517 715.33 299.146 715.4 299.85V300.658C715.336 301.355 715.21 301.982 715.022 302.539C714.841 303.096 714.592 303.57 714.275 303.963C713.965 304.355 713.584 304.657 713.133 304.868C712.682 305.073 712.154 305.176 711.551 305.176C710.982 305.176 710.467 305.056 710.004 304.815C709.547 304.575 709.154 304.238 708.826 303.805C708.498 303.371 708.246 302.861 708.07 302.275C707.9 301.684 707.815 301.042 707.815 300.351ZM709.441 300.166V300.351C709.441 300.825 709.488 301.271 709.582 301.687C709.682 302.103 709.831 302.469 710.03 302.785C710.235 303.102 710.496 303.351 710.812 303.532C711.129 303.708 711.507 303.796 711.946 303.796C712.485 303.796 712.931 303.682 713.282 303.453C713.634 303.225 713.912 302.923 714.117 302.548C714.328 302.173 714.492 301.766 714.609 301.326V299.208C714.545 298.886 714.445 298.575 714.311 298.276C714.182 297.972 714.012 297.702 713.801 297.468C713.596 297.228 713.341 297.037 713.036 296.896C712.731 296.756 712.374 296.686 711.964 296.686C711.519 296.686 711.135 296.779 710.812 296.967C710.496 297.148 710.235 297.4 710.03 297.723C709.831 298.039 709.682 298.408 709.582 298.83C709.488 299.246 709.441 299.691 709.441 300.166ZM720.067 295.49V305H718.441V295.49H720.067ZM718.389 294.102L720.094 291.518H722.054L719.698 294.102H718.389ZM728.382 303.374V298.479C728.382 298.104 728.306 297.778 728.153 297.503C728.007 297.222 727.784 297.005 727.485 296.853C727.187 296.7 726.817 296.624 726.378 296.624C725.968 296.624 725.607 296.694 725.297 296.835C724.992 296.976 724.752 297.16 724.576 297.389C724.406 297.617 724.321 297.863 724.321 298.127H722.695C722.695 297.787 722.783 297.45 722.959 297.116C723.135 296.782 723.387 296.48 723.715 296.211C724.049 295.936 724.447 295.719 724.91 295.561C725.379 295.396 725.9 295.314 726.475 295.314C727.166 295.314 727.775 295.432 728.303 295.666C728.836 295.9 729.252 296.255 729.551 296.729C729.855 297.198 730.008 297.787 730.008 298.496V302.926C730.008 303.242 730.034 303.579 730.087 303.937C730.146 304.294 730.23 304.602 730.342 304.859V305H728.646C728.563 304.812 728.499 304.563 728.452 304.253C728.405 303.937 728.382 303.644 728.382 303.374ZM728.663 299.234L728.681 300.377H727.037C726.574 300.377 726.161 300.415 725.798 300.491C725.435 300.562 725.13 300.67 724.884 300.816C724.638 300.963 724.45 301.147 724.321 301.37C724.192 301.587 724.128 301.842 724.128 302.135C724.128 302.434 724.195 302.706 724.33 302.952C724.465 303.198 724.667 303.395 724.937 303.541C725.212 303.682 725.549 303.752 725.947 303.752C726.445 303.752 726.885 303.646 727.266 303.436C727.646 303.225 727.948 302.967 728.171 302.662C728.399 302.357 728.522 302.062 728.54 301.774L729.234 302.557C729.193 302.803 729.082 303.075 728.9 303.374C728.719 303.673 728.476 303.96 728.171 304.235C727.872 304.505 727.515 304.73 727.099 304.912C726.688 305.088 726.226 305.176 725.71 305.176C725.065 305.176 724.5 305.05 724.014 304.798C723.533 304.546 723.158 304.209 722.889 303.787C722.625 303.359 722.493 302.882 722.493 302.354C722.493 301.845 722.593 301.396 722.792 301.01C722.991 300.617 723.278 300.292 723.653 300.034C724.028 299.771 724.479 299.571 725.007 299.437C725.534 299.302 726.123 299.234 726.773 299.234H728.663Z" fill="white"/>
</g>
</g>
<defs>
<filter id="filter1_d_1461_16508" x="397" y="26" width="234" height="310" filterUnits="userSpaceOnUse" color-interpolation-filters="sRGB">
<feFlood flood-opacity="0" result="BackgroundImageFix"/>
<feColorMatrix in="SourceAlpha" type="matrix" values="0 0 0 0 0 0 0 0 0 0 0 0 0 0 0 0 0 0 127 0" result="hardAlpha"/>
<feMorphology radius="1" operator="dilate" in="SourceAlpha" result="effect1_dropShadow_1461_16508"/>
<feOffset dy="1"/>
<feGaussianBlur stdDeviation="3"/>
<feColorMatrix type="matrix" values="0 0 0 0 0.1 0 0 0 0 0.1 0 0 0 0 0.1 0 0 0 0.15 0"/>
<feBlend mode="normal" in2="BackgroundImageFix" result="effect1_dropShadow_1461_16508"/>
<feBlend mode="normal" in="SourceGraphic" in2="effect1_dropShadow_1461_16508" result="shape"/>
</filter>
<filter id="filter3_d_1461_16508" x="649" y="26" width="234" height="310" filterUnits="userSpaceOnUse" color-interpolation-filters="sRGB">
<feFlood flood-opacity="0" result="BackgroundImageFix"/>
<feColorMatrix in="SourceAlpha" type="matrix" values="0 0 0 0 0 0 0 0 0 0 0 0 0 0 0 0 0 0 127 0" result="hardAlpha"/>
<feMorphology radius="1" operator="dilate" in="SourceAlpha" result="effect1_dropShadow_1461_16508"/>
<feOffset dy="1"/>
<feGaussianBlur stdDeviation="3"/>
<feColorMatrix type="matrix" values="0 0 0 0 0.1 0 0 0 0 0.1 0 0 0 0 0.1 0 0 0 0.15 0"/>
<feBlend mode="normal" in2="BackgroundImageFix" result="effect1_dropShadow_1461_16508"/>
<feBlend mode="normal" in="SourceGraphic" in2="effect1_dropShadow_1461_16508" result="shape"/>
</filter>
<clipPath id="clip0_1461_16508">
<path d="M404 52C404 40.9543 412.954 32 424 32H604C615.046 32 624 40.9543 624 52V308C624 319.046 615.046 328 604 328H424C412.954 328 404 319.046 404 308V52Z" fill="white"/>
</clipPath>
<clipPath id="clip1_1461_16508">
<path d="M656 52C656 40.9543 664.954 32 676 32H856C867.046 32 876 40.9543 876 52V308C876 319.046 867.046 328 856 328H676C664.954 328 656 319.046 656 308V52Z" fill="white"/>
</clipPath>
</defs>
</svg>
