<svg width="38" height="36" viewBox="0 0 38 36" fill="none" xmlns="http://www.w3.org/2000/svg">
<path d="M-0.000115119 30.147C2.66626 26.3213 4.28928 22.6115 4.86892 19.0177C5.33264 15.4239 5.50654 11.8301 5.39061 8.23626L5.21671 6.49732C5.21671 4.87431 5.62247 3.48316 6.43397 2.32386C7.24548 1.16457 8.40477 0.411024 9.91186 0.0632334C11.6508 -0.168623 13.0999 0.237132 14.2592 1.2805C15.3026 2.43979 15.8243 3.77298 15.8243 5.28007L15.9982 7.01901C16.23 12.1199 15.5924 17.1049 14.0853 21.9739C13.1579 24.4084 12.0566 26.5531 10.7813 28.408C9.50611 30.3788 7.7092 32.5815 5.39061 35.016L-0.000115119 30.147ZM21.5628 30.147C24.2292 26.3213 25.8522 22.6115 26.4318 19.0177C26.8955 15.4239 27.0694 11.8301 26.9535 8.23626L26.7796 6.49732C26.7796 4.87431 27.1854 3.48316 27.9969 2.32386C28.8084 1.16457 29.9677 0.411024 31.4747 0.0632334C33.2137 -0.168623 34.6628 0.237132 35.8221 1.2805C36.8655 2.43979 37.3872 3.77298 37.3872 5.28007L37.561 7.01901C37.7929 12.1199 37.1553 17.1049 35.6482 21.9739C34.7208 24.4084 33.6194 26.5531 32.3442 28.408C31.069 30.3788 29.2721 32.5815 26.9535 35.016L21.5628 30.147Z" fill="#7970E6"/>
</svg>
