<svg width="38" height="36" viewBox="0 0 38 36" fill="none" xmlns="http://www.w3.org/2000/svg">
<path d="M37.6075 4.86904C34.9412 8.69471 33.3181 12.4045 32.7385 15.9983C32.2748 19.5921 32.1009 23.1859 32.2168 26.7797L32.3907 28.5187C32.3907 30.1417 31.985 31.5328 31.1734 32.6921C30.3619 33.8514 29.2026 34.605 27.6956 34.9528C25.9566 35.1846 24.5075 34.7789 23.3482 33.7355C22.3048 32.5762 21.7832 31.243 21.7832 29.7359L21.6093 27.997C21.3774 22.8961 22.015 17.9111 23.5221 13.0421C24.4495 10.6076 25.5509 8.46286 26.8261 6.60798C28.1013 4.63718 29.8982 2.43452 32.2168 0L37.6075 4.86904ZM16.0446 4.86904C13.3783 8.69471 11.7553 12.4045 11.1756 15.9983C10.7119 19.5921 10.538 23.1859 10.6539 26.7797L10.8278 28.5187C10.8278 30.1417 10.4221 31.5328 9.61056 32.6921C8.79905 33.8514 7.63976 34.605 6.13267 34.9528C4.39373 35.1846 2.94461 34.7789 1.78531 33.7355C0.741949 32.5762 0.220267 31.243 0.220267 29.7359L0.046372 27.997C-0.185488 22.8961 0.452125 17.9111 1.95921 13.0421C2.88665 10.6076 3.98798 8.46286 5.2632 6.60798C6.53843 4.63718 8.33533 2.43452 10.6539 0L16.0446 4.86904Z" fill="#7970E6"/>
</svg>
