<svg width="381" height="212" viewBox="0 0 381 212" fill="none" xmlns="http://www.w3.org/2000/svg">
<g clip-path="url(#clip0_1189_10538)">
<g clip-path="url(#clip1_1189_10538)">
<path d="M0 12.1563C0 5.52884 5.37258 0.15625 12 0.15625H369C375.627 0.15625 381 5.52883 381 12.1563V200.156C381 206.784 375.627 212.156 369 212.156H12C5.37258 212.156 0 206.784 0 200.156V12.1563Z" fill="url(#paint0_linear_1189_10538)"/>
<g opacity="0.2">
<path d="M303.726 100.708C282.145 58.6376 239.42 30.1729 190.5 30.1729C141.579 30.1729 98.8428 58.6574 77.2736 100.712C76.3632 102.512 75.8889 104.499 75.8889 106.515C75.8889 108.532 76.3632 110.519 77.2736 112.319C98.8547 154.389 141.579 182.854 190.5 182.854C239.42 182.854 282.157 154.37 303.726 112.315C304.636 110.515 305.111 108.528 305.111 106.511C305.111 104.495 304.636 102.508 303.726 100.708ZM190.5 163.769C179.166 163.769 168.086 160.411 158.663 154.12C149.239 147.828 141.894 138.886 137.556 128.424C133.219 117.962 132.084 106.45 134.295 95.3435C136.507 84.237 141.964 74.0351 149.979 66.0277C157.993 58.0204 168.204 52.5674 179.32 50.3582C190.436 48.1489 201.958 49.2828 212.43 53.6163C222.901 57.9499 231.851 65.2884 238.148 74.704C244.444 84.1197 247.805 95.1894 247.805 106.513C247.809 114.033 246.329 121.48 243.451 128.429C240.572 135.377 236.351 141.69 231.029 147.007C225.707 152.325 219.388 156.542 212.434 159.418C205.48 162.294 198.026 163.773 190.5 163.769ZM190.5 68.3432C187.09 68.3908 183.702 68.8977 180.428 69.8501C183.127 73.5147 184.422 78.0245 184.078 82.5614C183.735 87.0983 181.775 91.362 178.555 94.5793C175.335 97.7966 171.068 99.7543 166.527 100.098C161.986 100.441 157.472 99.1467 153.804 96.45C151.716 104.138 152.093 112.287 154.882 119.75C157.672 127.213 162.734 133.613 169.355 138.052C175.976 142.49 183.824 144.741 191.793 144.49C199.762 144.238 207.452 141.496 213.78 136.649C220.107 131.803 224.755 125.095 227.067 117.471C229.38 109.848 229.241 101.691 226.671 94.1502C224.101 86.6091 219.229 80.0632 212.74 75.4337C206.251 70.8043 198.473 68.3244 190.5 68.3432Z" fill="url(#paint1_linear_1189_10538)"/>
</g>
<g opacity="0.2">
<path d="M298.417 71.5942C266.683 36.5425 218.047 20.1056 170.793 32.7672C123.54 45.4288 89.6317 84.0038 79.6821 130.208C79.2684 132.182 79.3248 134.225 79.8466 136.172C80.3684 138.119 81.341 139.917 82.686 141.419C114.42 176.471 163.056 192.908 210.31 180.246C257.564 167.584 291.472 129.009 301.421 82.8049C301.835 80.8314 301.779 78.7885 301.257 76.8412C300.735 74.8938 299.762 73.0965 298.417 71.5942ZM205.37 161.811C194.423 164.745 182.852 164.369 172.121 160.731C161.39 157.093 151.98 150.356 145.083 141.373C138.186 132.39 134.11 121.564 133.371 110.264C132.633 98.9637 135.264 87.6967 140.933 77.888C146.602 68.0793 155.053 60.1692 165.219 55.1582C175.384 50.1472 186.808 48.2602 198.044 49.736C209.28 51.2117 219.824 55.9838 228.343 63.4488C236.862 70.9139 242.974 80.7366 245.905 91.6748C247.854 98.9375 248.353 106.514 247.37 113.97C246.388 121.427 243.945 128.617 240.181 135.131C236.416 141.645 231.404 147.354 225.431 151.931C219.458 156.509 212.641 159.867 205.37 161.811ZM180.672 69.6369C177.391 70.5654 174.25 71.9319 171.333 73.6993C174.889 76.5406 177.307 80.5614 178.15 85.0326C178.992 89.5039 178.203 94.1295 175.925 98.0705C173.648 102.012 170.032 105.007 165.735 106.514C161.438 108.021 156.743 107.939 152.502 106.284C152.474 114.25 154.948 122.024 159.574 128.51C164.2 134.997 170.746 139.87 178.29 142.443C185.834 145.016 193.997 145.16 201.63 142.854C209.262 140.549 215.98 135.91 220.838 129.59C225.696 123.271 228.449 115.589 228.709 107.627C228.97 99.6643 226.725 91.8216 222.291 85.2027C217.856 78.5838 211.456 73.5219 203.99 70.7296C196.524 67.9373 188.369 67.5551 180.672 69.6369Z" fill="url(#paint2_linear_1189_10538)"/>
</g>
<g opacity="0.2">
<path d="M301.319 130.204C291.362 83.9813 257.46 45.4286 210.206 32.767C162.953 20.1054 114.3 36.5584 82.5812 71.5979C81.2362 73.1001 80.2636 74.8975 79.7418 76.8448C79.22 78.7922 79.1637 80.835 79.5773 82.8085C89.5344 129.031 123.436 167.584 170.69 180.246C217.943 192.907 266.596 176.454 298.315 141.415C299.66 139.913 300.632 138.115 301.154 136.168C301.676 134.221 301.732 132.178 301.319 130.204ZM175.629 161.811C164.681 158.877 154.849 152.766 147.374 144.25C139.9 135.734 135.119 125.196 133.638 113.968C132.156 102.74 134.039 91.326 139.05 81.1702C144.06 71.0145 151.972 62.5727 161.786 56.9125C171.6 51.2523 182.874 48.6278 194.183 49.371C205.492 50.1141 216.329 54.1915 225.321 61.0875C234.314 67.9835 241.06 77.3885 244.705 88.113C248.35 98.8375 248.732 110.4 245.801 121.338C243.858 128.603 240.501 135.413 235.923 141.379C231.344 147.346 225.633 152.351 219.116 156.11C212.599 159.869 205.404 162.307 197.942 163.285C190.48 164.263 182.898 163.762 175.629 161.811ZM200.327 69.6367C197.021 68.8001 193.617 68.4129 190.208 68.4854C191.867 72.7237 191.951 77.415 190.444 81.7084C188.938 86.0018 185.942 89.6131 181.999 91.8873C178.056 94.1616 173.427 94.9481 168.952 94.1044C164.477 93.2606 160.452 90.8424 157.607 87.2884C153.6 94.1739 151.855 102.143 152.618 110.073C153.381 118.004 156.614 125.497 161.861 131.497C167.108 137.498 174.105 141.704 181.868 143.523C189.631 145.343 197.768 144.685 205.135 141.641C212.501 138.597 218.726 133.321 222.933 126.555C227.14 119.79 229.117 111.875 228.587 103.926C228.056 95.9769 225.044 88.393 219.974 82.2419C214.905 76.0908 208.034 71.6822 200.327 69.6367Z" fill="#49438E"/>
</g>
</g>
<path d="M14.328 79.9481H16.296V86.9321H24.336V79.9481H26.304V96.4361H24.336V88.8041H16.296V96.4361H14.328V79.9481ZM30.3206 100.684C31.3286 100.716 32.0486 100.58 32.4806 100.276C32.6726 100.132 32.8486 99.9481 33.0086 99.7241C33.1686 99.5161 33.2806 99.2921 33.3446 99.0521L34.1366 96.4121L28.9766 84.1241H31.1606L35.0246 93.7721L37.8806 84.1241H40.0166L35.1686 99.6761C35.0406 100.076 34.8486 100.46 34.5926 100.828C34.3366 101.212 34.0406 101.516 33.7046 101.74C32.9046 102.268 31.8646 102.516 30.5846 102.484L30.3206 100.684ZM47.5326 84.0761C48.6526 84.0761 49.6046 84.3561 50.3886 84.9161C51.1886 85.4761 51.7886 86.2281 52.1886 87.1721C52.6046 88.1001 52.8126 89.1241 52.8126 90.2441C52.8126 91.4761 52.5726 92.5801 52.0926 93.5561C51.6286 94.5161 50.9406 95.2761 50.0286 95.8361C49.1326 96.3801 48.0766 96.6521 46.8606 96.6521C46.3806 96.6521 45.5646 96.5801 44.4126 96.4361V102.652H42.5166V88.0121C42.5166 86.7641 42.1806 85.8521 41.5086 85.2761L42.8286 84.0521C43.0686 84.1961 43.3086 84.4121 43.5486 84.7001C43.7886 84.9721 43.9886 85.2921 44.1486 85.6601C44.5326 85.1801 45.0366 84.7961 45.6606 84.5081C46.2846 84.2201 46.9086 84.0761 47.5326 84.0761ZM46.7406 94.8761C48.0846 94.8761 49.1006 94.4681 49.7886 93.6521C50.4926 92.8361 50.8446 91.7481 50.8446 90.3881C50.8446 89.1081 50.5486 88.0361 49.9566 87.1721C49.3646 86.2921 48.5726 85.8521 47.5806 85.8521C46.7966 85.8521 46.0846 86.1081 45.4446 86.6201C44.8206 87.1161 44.4766 87.7561 44.4126 88.5401V94.7321C45.3726 94.8281 46.1486 94.8761 46.7406 94.8761ZM55.4993 87.9161C55.4993 87.3561 55.4193 86.8521 55.2593 86.4041C55.1153 85.9561 54.8353 85.5481 54.4193 85.1801L55.6913 83.9801C56.3473 84.3641 56.8353 85.0041 57.1553 85.9001C58.1953 84.6521 59.4993 84.0281 61.0673 84.0281C62.3313 84.0281 63.3313 84.3721 64.0673 85.0601C64.8193 85.7481 65.1953 86.7481 65.1953 88.0601V96.4361L63.2273 96.4601V88.3241C63.2273 87.5401 63.0593 86.9241 62.7233 86.4761C62.3873 86.0281 61.7953 85.8041 60.9473 85.8041C60.2113 85.8041 59.5873 85.9801 59.0753 86.3321C58.5793 86.6681 58.0433 87.2201 57.4673 87.9881V96.4361H55.4993V87.9161ZM73.6609 96.6521C72.5249 96.6521 71.5009 96.3801 70.5889 95.8361C69.6929 95.2921 68.9889 94.5481 68.4769 93.6041C67.9649 92.6441 67.7089 91.5641 67.7089 90.3641C67.7089 89.1641 67.9649 88.0841 68.4769 87.1241C69.0049 86.1481 69.7169 85.3881 70.6129 84.8441C71.5249 84.2841 72.5489 84.0041 73.6849 84.0041C74.8209 84.0041 75.8369 84.2761 76.7329 84.8201C77.6449 85.3641 78.3569 86.1241 78.8689 87.1001C79.3809 88.0601 79.6369 89.1401 79.6369 90.3401C79.6369 91.5401 79.3809 92.6201 78.8689 93.5801C78.3569 94.5401 77.6449 95.2921 76.7329 95.8361C75.8209 96.3801 74.7969 96.6521 73.6609 96.6521ZM73.6849 94.8761C74.8849 94.8761 75.8449 94.4601 76.5649 93.6281C77.3009 92.7961 77.6689 91.7001 77.6689 90.3401C77.6689 88.9641 77.3009 87.8601 76.5649 87.0281C75.8449 86.1961 74.8849 85.7801 73.6849 85.7801C72.9009 85.7801 72.2049 85.9721 71.5969 86.3561C70.9889 86.7401 70.5169 87.2761 70.1809 87.9641C69.8449 88.6521 69.6769 89.4441 69.6769 90.3401C69.6769 91.7001 70.0449 92.7961 70.7809 93.6281C71.5169 94.4601 72.4849 94.8761 73.6849 94.8761ZM85.6963 96.6521C83.9363 96.6521 82.3843 95.9801 81.0403 94.6361L82.1683 93.3161C82.7763 93.8441 83.3523 94.2361 83.8963 94.4921C84.4403 94.7321 85.0163 94.8521 85.6243 94.8521C86.4083 94.8521 87.0243 94.6841 87.4723 94.3481C87.9363 93.9961 88.1683 93.5161 88.1683 92.9081C88.1683 92.5401 88.0723 92.2441 87.8803 92.0201C87.7043 91.7961 87.4403 91.6041 87.0883 91.4441C86.7523 91.2681 86.1843 91.0201 85.3843 90.7001C84.5043 90.3481 83.8163 90.0441 83.3203 89.7881C82.8403 89.5161 82.4563 89.1801 82.1683 88.7801C81.8803 88.3641 81.7363 87.8521 81.7363 87.2441C81.7363 86.2521 82.0883 85.4521 82.7923 84.8441C83.4963 84.2361 84.4083 83.9321 85.5283 83.9321C86.1843 83.9321 86.8403 84.0441 87.4963 84.2681C88.1683 84.4761 88.6963 84.7481 89.0803 85.0841L88.2403 86.5001C87.5203 85.9721 86.6803 85.7081 85.7203 85.7081C85.1123 85.7081 84.6243 85.8361 84.2563 86.0921C83.9043 86.3321 83.7283 86.6681 83.7283 87.1001C83.7283 87.5481 83.9043 87.9001 84.2563 88.1561C84.6243 88.3961 85.2483 88.6921 86.1283 89.0441C87.1203 89.4441 87.8963 89.8041 88.4563 90.1241C89.0163 90.4441 89.4403 90.8201 89.7283 91.2521C90.0163 91.6681 90.1603 92.1961 90.1603 92.8361C90.1603 93.9721 89.7443 94.8921 88.9123 95.5961C88.0803 96.3001 87.0083 96.6521 85.6963 96.6521Z" fill="white"/>
<path d="M13.0078 119.587V110.95H13.8867L16.8867 116.282H16.9336L19.9336 110.95H20.8125V119.587H19.7578V114.911L19.7812 113.188H19.7344L17.0977 117.911H16.7227L14.0859 113.188H14.0391L14.0625 114.911V119.587H13.0078ZM24.4048 119.681C24.022 119.681 23.6763 119.606 23.3677 119.458C23.0591 119.31 22.8149 119.099 22.6352 118.825C22.4555 118.548 22.3657 118.216 22.3657 117.829C22.3657 117.419 22.477 117.069 22.6997 116.78C22.9223 116.491 23.2446 116.272 23.6665 116.124C24.0884 115.972 24.6001 115.896 25.2016 115.896H26.4907V116.704H25.272C24.6587 116.704 24.1841 116.802 23.8481 116.997C23.5161 117.192 23.3501 117.47 23.3501 117.829C23.3501 118.036 23.4028 118.214 23.5083 118.362C23.6138 118.507 23.7544 118.618 23.9302 118.696C24.1098 118.774 24.3071 118.813 24.522 118.813C24.7798 118.813 25.0454 118.757 25.3188 118.644C25.5962 118.526 25.8286 118.358 26.0161 118.14C26.2075 117.917 26.3032 117.646 26.3032 117.325V116.681L26.2798 116.317V115.626C26.2798 115.524 26.272 115.396 26.2563 115.239C26.2407 115.079 26.1938 114.921 26.1157 114.765C26.0415 114.608 25.9145 114.478 25.7348 114.372C25.5552 114.263 25.3032 114.208 24.979 114.208C24.7876 114.208 24.5805 114.233 24.3579 114.284C24.1391 114.331 23.9243 114.397 23.7134 114.483C23.5063 114.569 23.3227 114.669 23.1626 114.782L22.7759 113.88C22.9829 113.759 23.2134 113.653 23.4673 113.563C23.7251 113.47 23.9907 113.397 24.2641 113.347C24.5415 113.296 24.811 113.271 25.0727 113.271C25.4946 113.271 25.8442 113.333 26.1216 113.458C26.4028 113.583 26.6255 113.755 26.7895 113.974C26.9536 114.192 27.0688 114.442 27.1352 114.724C27.2055 115.001 27.2407 115.294 27.2407 115.603V117.782C27.2407 118.044 27.268 118.251 27.3227 118.403C27.3813 118.556 27.4829 118.661 27.6274 118.72L27.7446 118.767L27.3579 119.681L27.1938 119.61C26.9751 119.517 26.7876 119.378 26.6313 119.194C26.4751 119.011 26.397 118.829 26.397 118.649L26.5962 118.72H26.2095L26.4673 118.556C26.3149 118.864 26.0552 119.13 25.688 119.353C25.3247 119.571 24.897 119.681 24.4048 119.681ZM31.208 119.681C30.622 119.681 30.1806 119.511 29.8838 119.171C29.5869 118.831 29.4384 118.396 29.4384 117.864V111.384H30.4463V117.759C30.4463 118.079 30.5185 118.323 30.663 118.491C30.8076 118.659 30.997 118.743 31.2314 118.743C31.333 118.743 31.4248 118.729 31.5068 118.702C31.5888 118.671 31.665 118.638 31.7353 118.603L32.122 119.493C32.0048 119.54 31.872 119.583 31.7236 119.622C31.5752 119.661 31.4033 119.681 31.208 119.681ZM28.4072 114.29V113.376H31.9814V114.29H28.4072ZM35.7143 119.681C35.1323 119.681 34.6147 119.55 34.1616 119.288C33.7123 119.022 33.3588 118.649 33.101 118.169C32.8432 117.688 32.7143 117.122 32.7143 116.47C32.7143 115.821 32.8393 115.259 33.0893 114.782C33.3393 114.306 33.6791 113.937 34.1088 113.675C34.5424 113.413 35.0307 113.282 35.5737 113.282C36.1088 113.282 36.5815 113.405 36.9916 113.651C37.4018 113.894 37.7221 114.229 37.9526 114.659C38.187 115.089 38.3041 115.579 38.3041 116.13C38.3041 116.298 38.2944 116.448 38.2748 116.581C38.2592 116.714 38.2455 116.813 38.2338 116.88H33.476V116.06H37.3198C37.3198 115.724 37.2495 115.417 37.1088 115.14C36.9682 114.858 36.767 114.636 36.5053 114.472C36.2436 114.304 35.933 114.22 35.5737 114.22C35.2065 114.22 34.8823 114.313 34.601 114.501C34.3198 114.688 34.0991 114.952 33.9389 115.292C33.7787 115.628 33.6987 116.021 33.6987 116.47C33.6987 116.923 33.7827 117.321 33.9506 117.665C34.1186 118.005 34.3569 118.271 34.6655 118.462C34.9741 118.649 35.3393 118.743 35.7612 118.743C36.0112 118.743 36.2377 118.712 36.4409 118.649C36.6479 118.583 36.8295 118.503 36.9858 118.409C37.1459 118.312 37.2807 118.216 37.3901 118.122L37.7768 119.036C37.5385 119.212 37.2397 119.364 36.8803 119.493C36.5248 119.618 36.1362 119.681 35.7143 119.681ZM39.6581 119.587V113.376H40.6659V114.325H40.83L40.4902 114.712C40.6034 114.454 40.7558 114.218 40.9472 114.003C41.1425 113.784 41.3749 113.61 41.6445 113.481C41.9179 113.349 42.2284 113.282 42.5761 113.282C42.7128 113.282 42.8398 113.292 42.957 113.312C43.078 113.327 43.162 113.345 43.2089 113.364L42.7987 114.337C42.7753 114.325 42.7226 114.315 42.6405 114.308C42.5585 114.296 42.4667 114.29 42.3652 114.29C42.1855 114.29 41.996 114.329 41.7968 114.407C41.6015 114.485 41.4179 114.599 41.246 114.747C41.0741 114.896 40.9335 115.079 40.8241 115.298C40.7187 115.513 40.6659 115.759 40.6659 116.036V119.587H39.6581ZM44.1293 119.587V113.376H45.1371V119.587H44.1293ZM44.6332 112.38C44.4184 112.38 44.2367 112.306 44.0883 112.157C43.9438 112.009 43.8715 111.829 43.8715 111.618C43.8715 111.407 43.9438 111.228 44.0883 111.079C44.2367 110.931 44.4184 110.856 44.6332 110.856C44.8441 110.856 45.0238 110.931 45.1723 111.079C45.3207 111.228 45.3949 111.407 45.3949 111.618C45.3949 111.829 45.3207 112.009 45.1723 112.157C45.0238 112.306 44.8441 112.38 44.6332 112.38ZM48.5653 119.681C48.1825 119.681 47.8368 119.606 47.5282 119.458C47.2196 119.31 46.9755 119.099 46.7958 118.825C46.6161 118.548 46.5262 118.216 46.5262 117.829C46.5262 117.419 46.6376 117.069 46.8602 116.78C47.0829 116.491 47.4052 116.272 47.827 116.124C48.2489 115.972 48.7606 115.896 49.3622 115.896H50.6512V116.704H49.4325C48.8192 116.704 48.3446 116.802 48.0087 116.997C47.6766 117.192 47.5106 117.47 47.5106 117.829C47.5106 118.036 47.5634 118.214 47.6688 118.362C47.7743 118.507 47.9149 118.618 48.0907 118.696C48.2704 118.774 48.4677 118.813 48.6825 118.813C48.9403 118.813 49.2059 118.757 49.4794 118.644C49.7567 118.526 49.9891 118.358 50.1766 118.14C50.368 117.917 50.4637 117.646 50.4637 117.325V116.681L50.4403 116.317V115.626C50.4403 115.524 50.4325 115.396 50.4169 115.239C50.4012 115.079 50.3544 114.921 50.2762 114.765C50.202 114.608 50.0751 114.478 49.8954 114.372C49.7157 114.263 49.4637 114.208 49.1395 114.208C48.9481 114.208 48.7411 114.233 48.5184 114.284C48.2997 114.331 48.0848 114.397 47.8739 114.483C47.6669 114.569 47.4833 114.669 47.3231 114.782L46.9364 113.88C47.1434 113.759 47.3739 113.653 47.6278 113.563C47.8856 113.47 48.1512 113.397 48.4247 113.347C48.702 113.296 48.9716 113.271 49.2333 113.271C49.6552 113.271 50.0048 113.333 50.2821 113.458C50.5634 113.583 50.786 113.755 50.9501 113.974C51.1141 114.192 51.2294 114.442 51.2958 114.724C51.3661 115.001 51.4012 115.294 51.4012 115.603V117.782C51.4012 118.044 51.4286 118.251 51.4833 118.403C51.5419 118.556 51.6434 118.661 51.788 118.72L51.9052 118.767L51.5184 119.681L51.3544 119.61C51.1356 119.517 50.9481 119.378 50.7919 119.194C50.6356 119.011 50.5575 118.829 50.5575 118.649L50.7567 118.72H50.37L50.6278 118.556C50.4755 118.864 50.2157 119.13 49.8485 119.353C49.4852 119.571 49.0575 119.681 48.5653 119.681ZM54.431 119.681C54.138 119.681 53.8978 119.62 53.7103 119.499C53.5267 119.374 53.39 119.194 53.3002 118.96C53.2103 118.722 53.1654 118.435 53.1654 118.099V110.563H54.1732V118.122C54.1732 118.2 54.1791 118.288 54.1908 118.386C54.2064 118.483 54.2455 118.567 54.308 118.638C54.3705 118.708 54.4779 118.743 54.6302 118.743C54.6771 118.743 54.724 118.739 54.7709 118.731C54.8177 118.72 54.8646 118.708 54.9115 118.696V119.61C54.8529 119.634 54.7806 119.651 54.6947 119.663C54.6087 119.675 54.5209 119.681 54.431 119.681ZM61.6038 119.681C61.096 119.681 60.6292 119.575 60.2034 119.364C59.7816 119.153 59.4417 118.86 59.1839 118.485C58.93 118.106 58.803 117.665 58.803 117.161L59.8577 117.138C59.8577 117.45 59.9339 117.726 60.0863 117.964C60.2386 118.202 60.4456 118.388 60.7073 118.521C60.9691 118.653 61.264 118.72 61.5921 118.72C61.928 118.72 62.2288 118.649 62.4945 118.509C62.764 118.368 62.9749 118.177 63.1273 117.935C63.2835 117.692 63.3616 117.419 63.3616 117.114C63.3616 116.813 63.2816 116.544 63.1214 116.306C62.9652 116.067 62.7347 115.88 62.43 115.743C62.1292 115.603 61.7601 115.532 61.3226 115.532H60.9593V114.618H61.3695C61.6976 114.618 61.9827 114.55 62.2249 114.413C62.471 114.276 62.6605 114.095 62.7933 113.868C62.93 113.638 62.9984 113.384 62.9984 113.106C62.9984 112.837 62.9398 112.606 62.8226 112.415C62.7054 112.224 62.5413 112.077 62.3304 111.976C62.1234 111.87 61.8812 111.817 61.6038 111.817C61.3109 111.817 61.057 111.872 60.8421 111.981C60.6312 112.091 60.4671 112.245 60.3499 112.444C60.2327 112.64 60.1741 112.868 60.1741 113.13H59.1195C59.1195 112.704 59.2191 112.319 59.4183 111.976C59.6214 111.632 59.9066 111.36 60.2738 111.161C60.6448 110.958 61.0804 110.856 61.5804 110.856C62.0491 110.856 62.471 110.948 62.846 111.132C63.221 111.312 63.5179 111.565 63.7366 111.894C63.9554 112.222 64.0648 112.603 64.0648 113.036C64.0648 113.466 63.9632 113.845 63.7601 114.173C63.557 114.497 63.2874 114.749 62.9515 114.929C62.6195 115.104 62.2601 115.185 61.8734 115.169V114.935C62.346 114.915 62.7738 114.999 63.1566 115.187C63.5433 115.374 63.8499 115.64 64.0765 115.983C64.303 116.327 64.4163 116.724 64.4163 117.173C64.4163 117.642 64.2913 118.065 64.0413 118.444C63.7952 118.823 63.4593 119.124 63.0335 119.347C62.6116 119.569 62.1351 119.681 61.6038 119.681ZM69.0813 119.587V110.95H71.8704C72.4524 110.95 72.9895 111.048 73.4817 111.243C73.9739 111.435 74.3997 111.714 74.7591 112.081C75.1223 112.448 75.4036 112.894 75.6028 113.417C75.802 113.94 75.9016 114.532 75.9016 115.192C75.9016 115.868 75.802 116.478 75.6028 117.021C75.4036 117.56 75.1243 118.021 74.7649 118.403C74.4095 118.786 73.9915 119.079 73.511 119.282C73.0305 119.485 72.5071 119.587 71.9407 119.587H69.0813ZM70.136 118.626H71.9407C72.347 118.626 72.7259 118.548 73.0774 118.392C73.429 118.231 73.7376 118.001 74.0032 117.7C74.2688 117.399 74.4759 117.038 74.6243 116.616C74.7727 116.194 74.847 115.72 74.847 115.192C74.847 114.677 74.7727 114.216 74.6243 113.81C74.4759 113.403 74.2688 113.06 74.0032 112.778C73.7376 112.497 73.429 112.282 73.0774 112.134C72.7259 111.985 72.347 111.911 71.9407 111.911H70.136V118.626ZM79.9978 119.681C79.4158 119.681 78.8982 119.55 78.4451 119.288C77.9959 119.022 77.6423 118.649 77.3845 118.169C77.1267 117.688 76.9978 117.122 76.9978 116.47C76.9978 115.821 77.1228 115.259 77.3728 114.782C77.6228 114.306 77.9627 113.937 78.3923 113.675C78.8259 113.413 79.3142 113.282 79.8572 113.282C80.3923 113.282 80.865 113.405 81.2752 113.651C81.6853 113.894 82.0056 114.229 82.2361 114.659C82.4705 115.089 82.5877 115.579 82.5877 116.13C82.5877 116.298 82.5779 116.448 82.5584 116.581C82.5427 116.714 82.5291 116.813 82.5173 116.88H77.7595V116.06H81.6033C81.6033 115.724 81.533 115.417 81.3923 115.14C81.2517 114.858 81.0505 114.636 80.7888 114.472C80.5271 114.304 80.2166 114.22 79.8572 114.22C79.49 114.22 79.1658 114.313 78.8845 114.501C78.6033 114.688 78.3826 114.952 78.2224 115.292C78.0623 115.628 77.9822 116.021 77.9822 116.47C77.9822 116.923 78.0662 117.321 78.2341 117.665C78.4021 118.005 78.6404 118.271 78.949 118.462C79.2576 118.649 79.6228 118.743 80.0447 118.743C80.2947 118.743 80.5212 118.712 80.7244 118.649C80.9314 118.583 81.113 118.503 81.2693 118.409C81.4295 118.312 81.5642 118.216 81.6736 118.122L82.0603 119.036C81.822 119.212 81.5232 119.364 81.1638 119.493C80.8084 119.618 80.4197 119.681 79.9978 119.681ZM85.6877 119.681C85.3205 119.681 84.9866 119.612 84.6858 119.476C84.3889 119.335 84.1389 119.155 83.9358 118.937C83.7327 118.714 83.5901 118.481 83.508 118.239L84.4221 117.864C84.5041 118.099 84.6604 118.304 84.8909 118.479C85.1252 118.655 85.3909 118.743 85.6877 118.743C85.8752 118.743 86.053 118.708 86.2209 118.638C86.3889 118.563 86.5256 118.462 86.6311 118.333C86.7366 118.2 86.7893 118.044 86.7893 117.864C86.7893 117.688 86.7405 117.54 86.6428 117.419C86.5452 117.294 86.4202 117.188 86.2678 117.103C86.1155 117.017 85.9553 116.944 85.7873 116.886C85.6233 116.827 85.4729 116.774 85.3362 116.728C85.1018 116.649 84.8557 116.546 84.5979 116.417C84.3401 116.284 84.1213 116.104 83.9416 115.878C83.762 115.647 83.6721 115.349 83.6721 114.981C83.6721 114.618 83.7639 114.31 83.9475 114.056C84.1311 113.802 84.3713 113.61 84.6682 113.481C84.9651 113.349 85.2815 113.282 85.6174 113.282C86.1213 113.282 86.5393 113.411 86.8713 113.669C87.2073 113.923 87.4455 114.208 87.5862 114.524L86.6721 114.911C86.5784 114.728 86.4475 114.563 86.2795 114.419C86.1155 114.271 85.8948 114.196 85.6174 114.196C85.3674 114.196 85.1448 114.265 84.9495 114.401C84.7541 114.534 84.6565 114.728 84.6565 114.981C84.6565 115.196 84.7248 115.368 84.8616 115.497C84.9983 115.626 85.1623 115.729 85.3538 115.808C85.5491 115.886 85.7346 115.954 85.9104 116.013C86.0705 116.063 86.2561 116.132 86.467 116.218C86.678 116.304 86.883 116.415 87.0823 116.552C87.2815 116.688 87.4455 116.86 87.5745 117.067C87.7073 117.274 87.7737 117.528 87.7737 117.829C87.7737 118.188 87.676 118.509 87.4807 118.79C87.2893 119.067 87.0354 119.286 86.719 119.446C86.4026 119.603 86.0588 119.681 85.6877 119.681ZM89.1745 119.587V113.376H90.1823V119.587H89.1745ZM89.6784 112.38C89.4636 112.38 89.282 112.306 89.1335 112.157C88.989 112.009 88.9167 111.829 88.9167 111.618C88.9167 111.407 88.989 111.228 89.1335 111.079C89.282 110.931 89.4636 110.856 89.6784 110.856C89.8894 110.856 90.0691 110.931 90.2175 111.079C90.3659 111.228 90.4402 111.407 90.4402 111.618C90.4402 111.829 90.3659 112.009 90.2175 112.157C90.0691 112.306 89.8894 112.38 89.6784 112.38ZM94.384 122.142C93.9387 122.142 93.5109 122.081 93.1008 121.96C92.6906 121.839 92.3645 121.7 92.1223 121.544L92.509 120.653C92.7043 120.798 92.9699 120.929 93.3059 121.046C93.6457 121.167 93.9973 121.228 94.3605 121.228C94.6652 121.228 94.9699 121.169 95.2746 121.052C95.5832 120.935 95.8391 120.745 96.0422 120.483C96.2492 120.222 96.3527 119.876 96.3527 119.446V118.626H96.177L96.3996 118.075V114.735L96.1066 114.161H96.3293V113.376H97.3371V119.399C97.3371 119.884 97.2531 120.298 97.0852 120.642C96.9172 120.989 96.6906 121.272 96.4055 121.491C96.1242 121.714 95.8078 121.878 95.4563 121.983C95.1086 122.089 94.7512 122.142 94.384 122.142ZM94.3137 119.61C93.9426 119.61 93.5891 119.536 93.2531 119.388C92.9172 119.239 92.6184 119.026 92.3566 118.749C92.0988 118.472 91.8957 118.138 91.7473 117.747C91.5988 117.353 91.5246 116.911 91.5246 116.423C91.5246 115.763 91.6555 115.198 91.9172 114.729C92.1828 114.261 92.5305 113.903 92.9602 113.657C93.3898 113.407 93.8566 113.282 94.3605 113.282C94.8801 113.282 95.341 113.413 95.7434 113.675C96.1496 113.937 96.468 114.302 96.6984 114.771C96.9289 115.239 97.0441 115.782 97.0441 116.399C97.0441 117.021 96.925 117.573 96.6867 118.058C96.4484 118.538 96.1223 118.917 95.7082 119.194C95.298 119.472 94.8332 119.61 94.3137 119.61ZM94.4777 118.673C94.8449 118.673 95.1711 118.577 95.4563 118.386C95.7414 118.19 95.966 117.923 96.1301 117.583C96.2941 117.239 96.3762 116.845 96.3762 116.399C96.3762 115.958 96.2941 115.575 96.1301 115.251C95.966 114.923 95.7414 114.669 95.4563 114.489C95.1711 114.31 94.8449 114.22 94.4777 114.22C94.0949 114.22 93.759 114.313 93.4699 114.501C93.1809 114.685 92.9563 114.942 92.7961 115.274C92.6359 115.606 92.5559 115.989 92.5559 116.423C92.5559 116.86 92.6379 117.249 92.802 117.589C92.966 117.925 93.1926 118.19 93.4816 118.386C93.7707 118.577 94.1027 118.673 94.4777 118.673ZM98.9723 119.587V113.376H99.9802V114.138H100.215L99.7809 114.571C99.8864 114.29 100.043 114.054 100.25 113.862C100.457 113.671 100.701 113.526 100.982 113.429C101.263 113.331 101.566 113.282 101.89 113.282C102.414 113.282 102.836 113.397 103.156 113.628C103.48 113.858 103.715 114.151 103.859 114.507C104.007 114.862 104.082 115.228 104.082 115.603V119.587H103.074V115.813C103.074 115.286 102.943 114.89 102.681 114.624C102.424 114.354 102.066 114.22 101.609 114.22C101.304 114.22 101.029 114.282 100.783 114.407C100.537 114.528 100.341 114.708 100.197 114.946C100.052 115.181 99.9802 115.47 99.9802 115.813V119.587H98.9723ZM111.255 119.681C110.798 119.681 110.378 119.587 109.995 119.399C109.612 119.212 109.286 118.968 109.016 118.667C108.747 118.366 108.555 118.048 108.442 117.712L109.426 117.302C109.508 117.552 109.633 117.784 109.801 117.999C109.973 118.214 110.18 118.388 110.423 118.521C110.669 118.653 110.942 118.72 111.243 118.72C111.524 118.72 111.786 118.659 112.028 118.538C112.27 118.413 112.465 118.243 112.614 118.028C112.762 117.81 112.837 117.56 112.837 117.278C112.837 116.989 112.762 116.745 112.614 116.546C112.469 116.343 112.29 116.175 112.075 116.042C111.86 115.909 111.645 115.804 111.43 115.726C111.219 115.644 111.048 115.579 110.915 115.532C110.536 115.399 110.178 115.226 109.842 115.011C109.506 114.796 109.233 114.526 109.022 114.202C108.815 113.878 108.712 113.485 108.712 113.024C108.712 112.587 108.811 112.206 109.01 111.882C109.21 111.558 109.489 111.306 109.848 111.126C110.208 110.946 110.626 110.856 111.102 110.856C111.544 110.856 111.928 110.929 112.256 111.073C112.589 111.218 112.866 111.407 113.089 111.642C113.315 111.876 113.489 112.126 113.61 112.392L112.673 112.767C112.598 112.63 112.491 112.489 112.35 112.345C112.21 112.196 112.036 112.071 111.829 111.97C111.622 111.868 111.383 111.817 111.114 111.817C110.751 111.817 110.43 111.921 110.153 112.128C109.88 112.335 109.743 112.642 109.743 113.048C109.743 113.298 109.796 113.513 109.901 113.692C110.01 113.872 110.151 114.026 110.323 114.155C110.495 114.28 110.674 114.386 110.862 114.472C111.053 114.558 111.231 114.63 111.395 114.688C111.579 114.751 111.807 114.839 112.081 114.952C112.358 115.062 112.631 115.212 112.901 115.403C113.174 115.591 113.403 115.833 113.587 116.13C113.774 116.427 113.868 116.794 113.868 117.231C113.868 117.724 113.745 118.153 113.499 118.521C113.256 118.888 112.936 119.173 112.538 119.376C112.139 119.579 111.712 119.681 111.255 119.681ZM115.737 122.142C115.499 122.142 115.276 122.114 115.069 122.06C114.862 122.005 114.718 121.954 114.636 121.907L115.023 120.993C115.148 121.056 115.276 121.106 115.409 121.146C115.542 121.185 115.663 121.204 115.773 121.204C116.011 121.208 116.206 121.149 116.359 121.028C116.515 120.911 116.636 120.772 116.722 120.612C116.808 120.456 116.87 120.321 116.909 120.208L117.226 119.271L117.249 119.88L114.542 113.376H115.644L117.109 117.161L117.589 118.438H117.636L118.069 117.161L119.405 113.376H120.472L117.8 120.454C117.749 120.595 117.675 120.759 117.577 120.946C117.484 121.138 117.359 121.323 117.202 121.503C117.046 121.687 116.849 121.839 116.61 121.96C116.372 122.081 116.081 122.142 115.737 122.142ZM123.15 119.681C122.783 119.681 122.449 119.612 122.148 119.476C121.851 119.335 121.601 119.155 121.398 118.937C121.195 118.714 121.052 118.481 120.97 118.239L121.884 117.864C121.966 118.099 122.123 118.304 122.353 118.479C122.588 118.655 122.853 118.743 123.15 118.743C123.338 118.743 123.515 118.708 123.683 118.638C123.851 118.563 123.988 118.462 124.093 118.333C124.199 118.2 124.252 118.044 124.252 117.864C124.252 117.688 124.203 117.54 124.105 117.419C124.007 117.294 123.882 117.188 123.73 117.103C123.578 117.017 123.418 116.944 123.25 116.886C123.086 116.827 122.935 116.774 122.798 116.728C122.564 116.649 122.318 116.546 122.06 116.417C121.802 116.284 121.584 116.104 121.404 115.878C121.224 115.647 121.134 115.349 121.134 114.981C121.134 114.618 121.226 114.31 121.41 114.056C121.593 113.802 121.834 113.61 122.13 113.481C122.427 113.349 122.744 113.282 123.08 113.282C123.584 113.282 124.002 113.411 124.334 113.669C124.67 113.923 124.908 114.208 125.048 114.524L124.134 114.911C124.041 114.728 123.91 114.563 123.742 114.419C123.578 114.271 123.357 114.196 123.08 114.196C122.83 114.196 122.607 114.265 122.412 114.401C122.216 114.534 122.119 114.728 122.119 114.981C122.119 115.196 122.187 115.368 122.324 115.497C122.461 115.626 122.625 115.729 122.816 115.808C123.011 115.886 123.197 115.954 123.373 116.013C123.533 116.063 123.718 116.132 123.929 116.218C124.14 116.304 124.345 116.415 124.545 116.552C124.744 116.688 124.908 116.86 125.037 117.067C125.17 117.274 125.236 117.528 125.236 117.829C125.236 118.188 125.138 118.509 124.943 118.79C124.752 119.067 124.498 119.286 124.181 119.446C123.865 119.603 123.521 119.681 123.15 119.681ZM128.816 119.681C128.231 119.681 127.789 119.511 127.492 119.171C127.195 118.831 127.047 118.396 127.047 117.864V111.384H128.055V117.759C128.055 118.079 128.127 118.323 128.272 118.491C128.416 118.659 128.606 118.743 128.84 118.743C128.941 118.743 129.033 118.729 129.115 118.702C129.197 118.671 129.274 118.638 129.344 118.603L129.731 119.493C129.613 119.54 129.481 119.583 129.332 119.622C129.184 119.661 129.012 119.681 128.816 119.681ZM126.016 114.29V113.376H129.59V114.29H126.016ZM133.323 119.681C132.741 119.681 132.223 119.55 131.77 119.288C131.321 119.022 130.967 118.649 130.71 118.169C130.452 117.688 130.323 117.122 130.323 116.47C130.323 115.821 130.448 115.259 130.698 114.782C130.948 114.306 131.288 113.937 131.717 113.675C132.151 113.413 132.639 113.282 133.182 113.282C133.717 113.282 134.19 113.405 134.6 113.651C135.01 113.894 135.331 114.229 135.561 114.659C135.795 115.089 135.913 115.579 135.913 116.13C135.913 116.298 135.903 116.448 135.883 116.581C135.868 116.714 135.854 116.813 135.842 116.88H131.085V116.06H134.928C134.928 115.724 134.858 115.417 134.717 115.14C134.577 114.858 134.376 114.636 134.114 114.472C133.852 114.304 133.542 114.22 133.182 114.22C132.815 114.22 132.491 114.313 132.21 114.501C131.928 114.688 131.708 114.952 131.547 115.292C131.387 115.628 131.307 116.021 131.307 116.47C131.307 116.923 131.391 117.321 131.559 117.665C131.727 118.005 131.965 118.271 132.274 118.462C132.583 118.649 132.948 118.743 133.37 118.743C133.62 118.743 133.846 118.712 134.049 118.649C134.256 118.583 134.438 118.503 134.594 118.409C134.754 118.312 134.889 118.216 134.999 118.122L135.385 119.036C135.147 119.212 134.848 119.364 134.489 119.493C134.133 119.618 133.745 119.681 133.323 119.681ZM137.267 119.587V113.376H138.274V114.114H138.462L138.028 114.665C138.177 114.231 138.423 113.894 138.767 113.651C139.114 113.405 139.517 113.282 139.974 113.282C140.442 113.282 140.837 113.403 141.157 113.646C141.481 113.888 141.696 114.196 141.802 114.571L141.345 114.161H141.989L141.439 114.571C141.61 114.138 141.888 113.815 142.271 113.604C142.657 113.39 143.075 113.282 143.524 113.282C143.872 113.282 144.179 113.341 144.444 113.458C144.71 113.571 144.933 113.731 145.112 113.938C145.292 114.142 145.427 114.38 145.517 114.653C145.61 114.927 145.657 115.22 145.657 115.532V119.587H144.649V115.743C144.649 115.239 144.53 114.86 144.292 114.606C144.058 114.349 143.747 114.22 143.36 114.22C143.114 114.22 142.886 114.276 142.675 114.39C142.464 114.499 142.292 114.667 142.159 114.894C142.03 115.116 141.966 115.399 141.966 115.743V119.587H140.958V115.743C140.958 115.239 140.837 114.86 140.595 114.606C140.356 114.349 140.044 114.22 139.657 114.22C139.29 114.22 138.968 114.351 138.69 114.612C138.413 114.87 138.274 115.263 138.274 115.79V119.587H137.267ZM12.3867 130.29V129.376H16.0195V130.29H12.3867ZM13.4766 135.587V128.263C13.4766 127.735 13.6328 127.306 13.9453 126.974C14.2617 126.638 14.707 126.47 15.2812 126.47C15.4766 126.47 15.6426 126.487 15.7793 126.522C15.9199 126.554 16.0547 126.599 16.1836 126.657L15.8086 127.548C15.7383 127.493 15.6562 127.456 15.5625 127.437C15.4688 127.417 15.375 127.407 15.2812 127.407C15.0312 127.407 14.8359 127.491 14.6953 127.659C14.5547 127.827 14.4844 128.063 14.4844 128.368V135.587H13.4766ZM19.4009 135.681C18.8188 135.681 18.2993 135.544 17.8423 135.271C17.3891 134.997 17.0317 134.618 16.77 134.134C16.5083 133.646 16.3774 133.083 16.3774 132.446C16.3774 131.821 16.5083 131.272 16.77 130.8C17.0317 130.323 17.3891 129.952 17.8423 129.687C18.2993 129.417 18.8188 129.282 19.4009 129.282C19.9868 129.282 20.5063 129.417 20.9595 129.687C21.4165 129.952 21.7739 130.323 22.0317 130.8C22.2934 131.272 22.4243 131.821 22.4243 132.446C22.4243 133.083 22.2915 133.646 22.0259 134.134C21.7641 134.618 21.4048 134.997 20.9477 135.271C20.4946 135.544 19.979 135.681 19.4009 135.681ZM19.4009 134.743C19.7876 134.743 20.1313 134.647 20.4321 134.456C20.7329 134.265 20.9673 133.997 21.1352 133.653C21.3071 133.31 21.393 132.907 21.393 132.446C21.393 131.997 21.3071 131.606 21.1352 131.274C20.9673 130.938 20.7329 130.679 20.4321 130.495C20.1313 130.312 19.7876 130.22 19.4009 130.22C19.018 130.22 18.6762 130.312 18.3755 130.495C18.0747 130.679 17.8384 130.938 17.6665 131.274C17.4946 131.606 17.4087 131.997 17.4087 132.446C17.4087 132.907 17.4927 133.31 17.6606 133.653C17.8325 133.997 18.0669 134.265 18.3637 134.456C18.6645 134.647 19.0102 134.743 19.4009 134.743ZM23.7314 135.587V129.376H24.7392V130.325H24.9033L24.5634 130.712C24.6767 130.454 24.8291 130.218 25.0205 130.003C25.2158 129.784 25.4482 129.61 25.7177 129.481C25.9912 129.349 26.3017 129.282 26.6494 129.282C26.7861 129.282 26.913 129.292 27.0302 129.312C27.1513 129.327 27.2353 129.345 27.2822 129.364L26.872 130.337C26.8486 130.325 26.7959 130.315 26.7138 130.308C26.6318 130.296 26.54 130.29 26.4384 130.29C26.2587 130.29 26.0693 130.329 25.8701 130.407C25.6748 130.485 25.4912 130.599 25.3193 130.747C25.1474 130.896 25.0068 131.079 24.8974 131.298C24.792 131.513 24.7392 131.759 24.7392 132.036V135.587H23.7314ZM32.2519 135.587V134.626H34.1503C34.6777 134.626 35.0956 134.495 35.4042 134.233C35.7167 133.972 35.873 133.606 35.873 133.138C35.873 132.669 35.705 132.306 35.3691 132.048C35.037 131.79 34.58 131.661 33.998 131.661H32.1112V130.724H33.6698C33.9902 130.724 34.2675 130.661 34.5019 130.536C34.7402 130.411 34.9237 130.239 35.0527 130.021C35.1855 129.802 35.2519 129.552 35.2519 129.271C35.2519 128.825 35.1015 128.487 34.8007 128.257C34.5038 128.026 34.1034 127.911 33.5995 127.911H32.1112V126.95H33.5527C34.1112 126.95 34.5956 127.044 35.0058 127.231C35.4198 127.415 35.7402 127.671 35.9667 127.999C36.1933 128.327 36.3066 128.704 36.3066 129.13C36.3066 129.442 36.246 129.739 36.1249 130.021C36.0038 130.298 35.8417 130.54 35.6386 130.747C35.4355 130.954 35.2089 131.103 34.9589 131.192V130.935C35.3691 131.028 35.7206 131.179 36.0136 131.386C36.3105 131.589 36.537 131.843 36.6933 132.147C36.8495 132.448 36.9277 132.794 36.9277 133.185C36.9277 133.661 36.8105 134.081 36.5761 134.444C36.3417 134.804 36.0116 135.085 35.5859 135.288C35.1601 135.487 34.6581 135.587 34.08 135.587H32.2519ZM31.3144 135.587V126.95H32.3456V135.587H31.3144ZM41.059 135.681C40.477 135.681 39.9594 135.55 39.5063 135.288C39.057 135.022 38.7035 134.649 38.4457 134.169C38.1879 133.688 38.059 133.122 38.059 132.47C38.059 131.821 38.184 131.259 38.434 130.782C38.684 130.306 39.0238 129.937 39.4535 129.675C39.8871 129.413 40.3754 129.282 40.9184 129.282C41.4535 129.282 41.9262 129.405 42.3363 129.651C42.7465 129.894 43.0668 130.229 43.2973 130.659C43.5316 131.089 43.6488 131.579 43.6488 132.13C43.6488 132.298 43.6391 132.448 43.6195 132.581C43.6039 132.714 43.5902 132.813 43.5785 132.88H38.8207V132.06H42.6645C42.6645 131.724 42.5941 131.417 42.4535 131.14C42.3129 130.858 42.1117 130.636 41.85 130.472C41.5883 130.304 41.2777 130.22 40.9184 130.22C40.5512 130.22 40.227 130.313 39.9457 130.501C39.6645 130.688 39.4438 130.952 39.2836 131.292C39.1234 131.628 39.0434 132.021 39.0434 132.47C39.0434 132.923 39.1273 133.321 39.2953 133.665C39.4633 134.005 39.7016 134.271 40.0102 134.462C40.3188 134.649 40.684 134.743 41.1059 134.743C41.3559 134.743 41.5824 134.712 41.7855 134.649C41.9926 134.583 42.1742 134.503 42.3305 134.409C42.4906 134.312 42.6254 134.216 42.7348 134.122L43.1215 135.036C42.8832 135.212 42.5844 135.364 42.225 135.493C41.8695 135.618 41.4809 135.681 41.059 135.681ZM46.2919 135.681C45.9989 135.681 45.7587 135.62 45.5712 135.499C45.3876 135.374 45.2509 135.194 45.161 134.96C45.0712 134.722 45.0262 134.435 45.0262 134.099V126.563H46.0341V134.122C46.0341 134.2 46.0399 134.288 46.0516 134.386C46.0673 134.483 46.1063 134.567 46.1688 134.638C46.2313 134.708 46.3387 134.743 46.4911 134.743C46.538 134.743 46.5848 134.739 46.6317 134.731C46.6786 134.72 46.7255 134.708 46.7723 134.696V135.61C46.7137 135.634 46.6415 135.651 46.5555 135.663C46.4696 135.675 46.3817 135.681 46.2919 135.681ZM50.599 135.681C50.017 135.681 49.4994 135.55 49.0462 135.288C48.597 135.022 48.2435 134.649 47.9857 134.169C47.7279 133.688 47.599 133.122 47.599 132.47C47.599 131.821 47.724 131.259 47.974 130.782C48.224 130.306 48.5638 129.937 48.9935 129.675C49.4271 129.413 49.9154 129.282 50.4584 129.282C50.9935 129.282 51.4662 129.405 51.8763 129.651C52.2865 129.894 52.6068 130.229 52.8373 130.659C53.0716 131.089 53.1888 131.579 53.1888 132.13C53.1888 132.298 53.1791 132.448 53.1595 132.581C53.1439 132.714 53.1302 132.813 53.1185 132.88H48.3607V132.06H52.2045C52.2045 131.724 52.1341 131.417 51.9935 131.14C51.8529 130.858 51.6517 130.636 51.39 130.472C51.1283 130.304 50.8177 130.22 50.4584 130.22C50.0912 130.22 49.767 130.313 49.4857 130.501C49.2045 130.688 48.9837 130.952 48.8236 131.292C48.6634 131.628 48.5834 132.021 48.5834 132.47C48.5834 132.923 48.6673 133.321 48.8353 133.665C49.0033 134.005 49.2416 134.271 49.5502 134.462C49.8587 134.649 50.224 134.743 50.6459 134.743C50.8959 134.743 51.1224 134.712 51.3255 134.649C51.5326 134.583 51.7142 134.503 51.8705 134.409C52.0306 134.312 52.1654 134.216 52.2748 134.122L52.6615 135.036C52.4232 135.212 52.1244 135.364 51.765 135.493C51.4095 135.618 51.0209 135.681 50.599 135.681ZM56.1952 135.681C55.8123 135.681 55.4666 135.606 55.158 135.458C54.8495 135.31 54.6053 135.099 54.4256 134.825C54.2459 134.548 54.1561 134.216 54.1561 133.829C54.1561 133.419 54.2674 133.069 54.4901 132.78C54.7127 132.491 55.035 132.272 55.4569 132.124C55.8787 131.972 56.3905 131.896 56.992 131.896H58.2811V132.704H57.0623C56.4491 132.704 55.9745 132.802 55.6385 132.997C55.3065 133.192 55.1405 133.47 55.1405 133.829C55.1405 134.036 55.1932 134.214 55.2987 134.362C55.4041 134.507 55.5448 134.618 55.7205 134.696C55.9002 134.774 56.0975 134.813 56.3123 134.813C56.5702 134.813 56.8358 134.757 57.1092 134.644C57.3866 134.526 57.619 134.358 57.8065 134.14C57.9979 133.917 58.0936 133.646 58.0936 133.325V132.681L58.0702 132.317V131.626C58.0702 131.524 58.0623 131.396 58.0467 131.239C58.0311 131.079 57.9842 130.921 57.9061 130.765C57.8319 130.608 57.7049 130.478 57.5252 130.372C57.3455 130.263 57.0936 130.208 56.7694 130.208C56.578 130.208 56.3709 130.233 56.1483 130.284C55.9295 130.331 55.7147 130.397 55.5037 130.483C55.2967 130.569 55.1131 130.669 54.953 130.782L54.5662 129.88C54.7733 129.759 55.0037 129.653 55.2577 129.563C55.5155 129.47 55.7811 129.397 56.0545 129.347C56.3319 129.296 56.6014 129.271 56.8631 129.271C57.285 129.271 57.6346 129.333 57.912 129.458C58.1932 129.583 58.4159 129.755 58.5799 129.974C58.744 130.192 58.8592 130.442 58.9256 130.724C58.9959 131.001 59.0311 131.294 59.0311 131.603V133.782C59.0311 134.044 59.0584 134.251 59.1131 134.403C59.1717 134.556 59.2733 134.661 59.4178 134.72L59.535 134.767L59.1483 135.681L58.9842 135.61C58.7655 135.517 58.578 135.378 58.4217 135.194C58.2655 135.011 58.1873 134.829 58.1873 134.649L58.3866 134.72H57.9998L58.2577 134.556C58.1053 134.864 57.8455 135.13 57.4784 135.353C57.1151 135.571 56.6873 135.681 56.1952 135.681ZM60.1624 130.29V129.376H63.7952V130.29H60.1624ZM61.2523 135.587V128.263C61.2523 127.735 61.4085 127.306 61.721 126.974C62.0374 126.638 62.4827 126.47 63.057 126.47C63.2523 126.47 63.4183 126.487 63.555 126.522C63.6956 126.554 63.8304 126.599 63.9593 126.657L63.5843 127.548C63.514 127.493 63.432 127.456 63.3382 127.437C63.2445 127.417 63.1507 127.407 63.057 127.407C62.807 127.407 62.6116 127.491 62.471 127.659C62.3304 127.827 62.2601 128.063 62.2601 128.368V135.587H61.2523Z" fill="white"/>
<mask id="path-9-outside-1_1189_10538" maskUnits="userSpaceOnUse" x="12" y="12" width="78" height="30" fill="black">
<rect fill="white" x="12" y="12" width="78" height="30"/>
<path d="M13 19C13 15.6863 15.6863 13 19 13H83C86.3137 13 89 15.6863 89 19V35C89 38.3137 86.3137 41 83 41H19C15.6863 41 13 38.3137 13 35V19Z"/>
</mask>
<path d="M13 19C13 15.6863 15.6863 13 19 13H83C86.3137 13 89 15.6863 89 19V35C89 38.3137 86.3137 41 83 41H19C15.6863 41 13 38.3137 13 35V19Z" fill="#272B3A"/>
<path d="M19 13V14H83V13V12H19V13ZM89 19H88V35H89H90V19H89ZM83 41V40H19V41V42H83V41ZM13 35H14V19H13H12V35H13ZM19 41V40C16.2386 40 14 37.7614 14 35H13H12C12 38.866 15.134 42 19 42V41ZM89 35H88C88 37.7614 85.7614 40 83 40V41V42C86.866 42 90 38.866 90 35H89ZM83 13V14C85.7614 14 88 16.2386 88 19H89H90C90 15.134 86.866 12 83 12V13ZM19 13V12C15.134 12 12 15.134 12 19H13H14C14 16.2386 16.2386 14 19 14V13Z" fill="white" mask="url(#path-9-outside-1_1189_10538)"/>
<path d="M21.668 22.0469H23.1992L26.0771 29.7236L28.9482 22.0469H30.4795L26.6787 32H25.4619L21.668 22.0469ZM20.9707 22.0469H22.4268L22.6797 28.6914V32H20.9707V22.0469ZM29.7207 22.0469H31.1836V32H29.4678V28.6914L29.7207 22.0469ZM37.2266 30.5166V26.9893C37.2266 26.7249 37.1787 26.4971 37.083 26.3057C36.9873 26.1143 36.8415 25.9661 36.6455 25.8613C36.4541 25.7565 36.2126 25.7041 35.9209 25.7041C35.652 25.7041 35.4196 25.7497 35.2236 25.8408C35.0277 25.932 34.875 26.055 34.7656 26.21C34.6562 26.3649 34.6016 26.5404 34.6016 26.7363H32.9609C32.9609 26.4447 33.0316 26.1621 33.1729 25.8887C33.3141 25.6152 33.5192 25.3714 33.7881 25.1572C34.057 24.943 34.3783 24.7744 34.752 24.6514C35.1257 24.5283 35.5449 24.4668 36.0098 24.4668C36.5658 24.4668 37.0579 24.5602 37.4863 24.7471C37.9193 24.9339 38.2588 25.2165 38.5049 25.5947C38.7555 25.9684 38.8809 26.4378 38.8809 27.0029V30.291C38.8809 30.6283 38.9036 30.9313 38.9492 31.2002C38.9993 31.4645 39.07 31.6947 39.1611 31.8906V32H37.4727C37.3952 31.8223 37.3337 31.5967 37.2881 31.3232C37.2471 31.0452 37.2266 30.7764 37.2266 30.5166ZM37.4658 27.502L37.4795 28.5205H36.2969C35.9915 28.5205 35.7227 28.5501 35.4902 28.6094C35.2578 28.6641 35.0641 28.7461 34.9092 28.8555C34.7542 28.9648 34.638 29.097 34.5605 29.252C34.4831 29.4069 34.4443 29.5824 34.4443 29.7783C34.4443 29.9743 34.4899 30.1543 34.5811 30.3184C34.6722 30.4779 34.8044 30.6032 34.9775 30.6943C35.1553 30.7855 35.3695 30.8311 35.6201 30.8311C35.9574 30.8311 36.2513 30.7627 36.502 30.626C36.7572 30.4847 36.9577 30.3138 37.1035 30.1133C37.2493 29.9082 37.3268 29.7145 37.3359 29.5322L37.8691 30.2637C37.8145 30.4505 37.721 30.651 37.5889 30.8652C37.4567 31.0794 37.2835 31.2845 37.0693 31.4805C36.8597 31.6719 36.6068 31.8291 36.3105 31.9521C36.0189 32.0752 35.6816 32.1367 35.2988 32.1367C34.8158 32.1367 34.3851 32.041 34.0068 31.8496C33.6286 31.6536 33.3324 31.3916 33.1182 31.0635C32.904 30.7308 32.7969 30.3548 32.7969 29.9355C32.7969 29.5436 32.8698 29.1973 33.0156 28.8965C33.166 28.5911 33.3848 28.3359 33.6719 28.1309C33.9635 27.9258 34.319 27.7708 34.7383 27.666C35.1576 27.5566 35.6361 27.502 36.1738 27.502H37.4658ZM43.9941 24.6035V25.8066H39.8242V24.6035H43.9941ZM41.0273 22.792H42.6748V29.9561C42.6748 30.1839 42.7067 30.3594 42.7705 30.4824C42.8389 30.6009 42.9323 30.6807 43.0508 30.7217C43.1693 30.7627 43.3083 30.7832 43.4678 30.7832C43.5817 30.7832 43.6911 30.7764 43.7959 30.7627C43.9007 30.749 43.985 30.7354 44.0488 30.7217L44.0557 31.9795C43.9189 32.0205 43.7594 32.057 43.5771 32.0889C43.3994 32.1208 43.1943 32.1367 42.9619 32.1367C42.5837 32.1367 42.2487 32.0706 41.957 31.9385C41.6654 31.8018 41.4375 31.5807 41.2734 31.2754C41.1094 30.9701 41.0273 30.5645 41.0273 30.0586V22.792ZM48.5264 32.1367C47.9795 32.1367 47.485 32.0479 47.043 31.8701C46.6055 31.6878 46.2318 31.4349 45.9219 31.1113C45.6165 30.7878 45.3818 30.4072 45.2178 29.9697C45.0537 29.5322 44.9717 29.0605 44.9717 28.5547V28.2812C44.9717 27.7025 45.056 27.1784 45.2246 26.709C45.3932 26.2396 45.6279 25.8385 45.9287 25.5059C46.2295 25.1686 46.585 24.9111 46.9951 24.7334C47.4053 24.5557 47.8496 24.4668 48.3281 24.4668C48.8568 24.4668 49.3193 24.5557 49.7158 24.7334C50.1123 24.9111 50.4404 25.1618 50.7002 25.4854C50.9645 25.8044 51.1605 26.1849 51.2881 26.627C51.4202 27.069 51.4863 27.5566 51.4863 28.0898V28.7939H45.7715V27.6113H49.8594V27.4814C49.8503 27.1852 49.791 26.9072 49.6816 26.6475C49.5768 26.3877 49.415 26.1781 49.1963 26.0186C48.9775 25.859 48.6859 25.7793 48.3213 25.7793C48.0479 25.7793 47.804 25.8385 47.5898 25.957C47.3802 26.071 47.2048 26.2373 47.0635 26.4561C46.9222 26.6748 46.8128 26.9391 46.7354 27.249C46.6624 27.5544 46.626 27.8984 46.626 28.2812V28.5547C46.626 28.8783 46.6693 29.179 46.7559 29.457C46.847 29.7305 46.9792 29.9697 47.1523 30.1748C47.3255 30.3799 47.5352 30.5417 47.7812 30.6602C48.0273 30.7741 48.3076 30.8311 48.6221 30.8311C49.0186 30.8311 49.3717 30.7513 49.6816 30.5918C49.9915 30.4323 50.2604 30.2067 50.4883 29.915L51.3564 30.7559C51.1969 30.9883 50.9896 31.2116 50.7344 31.4258C50.4792 31.6354 50.167 31.8063 49.7979 31.9385C49.4333 32.0706 49.0094 32.1367 48.5264 32.1367ZM54.4258 26.0117V32H52.7783V24.6035H54.3506L54.4258 26.0117ZM56.6885 24.5557L56.6748 26.0869C56.5745 26.0687 56.4652 26.055 56.3467 26.0459C56.2327 26.0368 56.1188 26.0322 56.0049 26.0322C55.7223 26.0322 55.474 26.0732 55.2598 26.1553C55.0456 26.2327 54.8656 26.3467 54.7197 26.4971C54.5785 26.6429 54.4691 26.8206 54.3916 27.0303C54.3141 27.2399 54.2686 27.4746 54.2549 27.7344L53.8789 27.7617C53.8789 27.2969 53.9245 26.8662 54.0156 26.4697C54.1068 26.0732 54.2435 25.7246 54.4258 25.4238C54.6126 25.123 54.8451 24.8883 55.123 24.7197C55.4056 24.5511 55.7314 24.4668 56.1006 24.4668C56.2008 24.4668 56.3079 24.4759 56.4219 24.4941C56.5404 24.5124 56.6292 24.5329 56.6885 24.5557ZM59.4844 24.6035V32H57.8301V24.6035H59.4844ZM57.7207 22.6621C57.7207 22.4115 57.8027 22.2041 57.9668 22.04C58.1354 21.8714 58.3678 21.7871 58.6641 21.7871C58.9557 21.7871 59.1859 21.8714 59.3545 22.04C59.5231 22.2041 59.6074 22.4115 59.6074 22.6621C59.6074 22.9082 59.5231 23.1133 59.3545 23.2773C59.1859 23.4414 58.9557 23.5234 58.6641 23.5234C58.3678 23.5234 58.1354 23.4414 57.9668 23.2773C57.8027 23.1133 57.7207 22.9082 57.7207 22.6621ZM65.459 30.5166V26.9893C65.459 26.7249 65.4111 26.4971 65.3154 26.3057C65.2197 26.1143 65.0739 25.9661 64.8779 25.8613C64.6865 25.7565 64.445 25.7041 64.1533 25.7041C63.8844 25.7041 63.652 25.7497 63.4561 25.8408C63.2601 25.932 63.1074 26.055 62.998 26.21C62.8887 26.3649 62.834 26.5404 62.834 26.7363H61.1934C61.1934 26.4447 61.264 26.1621 61.4053 25.8887C61.5465 25.6152 61.7516 25.3714 62.0205 25.1572C62.2894 24.943 62.6107 24.7744 62.9844 24.6514C63.3581 24.5283 63.7773 24.4668 64.2422 24.4668C64.7982 24.4668 65.2904 24.5602 65.7188 24.7471C66.1517 24.9339 66.4912 25.2165 66.7373 25.5947C66.988 25.9684 67.1133 26.4378 67.1133 27.0029V30.291C67.1133 30.6283 67.1361 30.9313 67.1816 31.2002C67.2318 31.4645 67.3024 31.6947 67.3936 31.8906V32H65.7051C65.6276 31.8223 65.5661 31.5967 65.5205 31.3232C65.4795 31.0452 65.459 30.7764 65.459 30.5166ZM65.6982 27.502L65.7119 28.5205H64.5293C64.224 28.5205 63.9551 28.5501 63.7227 28.6094C63.4902 28.6641 63.2965 28.7461 63.1416 28.8555C62.9867 28.9648 62.8704 29.097 62.793 29.252C62.7155 29.4069 62.6768 29.5824 62.6768 29.7783C62.6768 29.9743 62.7223 30.1543 62.8135 30.3184C62.9046 30.4779 63.0368 30.6032 63.21 30.6943C63.3877 30.7855 63.6019 30.8311 63.8525 30.8311C64.1898 30.8311 64.4837 30.7627 64.7344 30.626C64.9896 30.4847 65.1901 30.3138 65.3359 30.1133C65.4818 29.9082 65.5592 29.7145 65.5684 29.5322L66.1016 30.2637C66.0469 30.4505 65.9535 30.651 65.8213 30.8652C65.6891 31.0794 65.516 31.2845 65.3018 31.4805C65.0921 31.6719 64.8392 31.8291 64.543 31.9521C64.2513 32.0752 63.9141 32.1367 63.5312 32.1367C63.0482 32.1367 62.6175 32.041 62.2393 31.8496C61.861 31.6536 61.5648 31.3916 61.3506 31.0635C61.1364 30.7308 61.0293 30.3548 61.0293 29.9355C61.0293 29.5436 61.1022 29.1973 61.248 28.8965C61.3984 28.5911 61.6172 28.3359 61.9043 28.1309C62.196 27.9258 62.5514 27.7708 62.9707 27.666C63.39 27.5566 63.8685 27.502 64.4062 27.502H65.6982ZM70.5996 21.5V32H68.9453V21.5H70.5996ZM77.7295 26.2783H78.7139C79.0967 26.2783 79.4134 26.2122 79.6641 26.0801C79.9193 25.9479 80.1084 25.7656 80.2314 25.5332C80.3545 25.3008 80.416 25.0342 80.416 24.7334C80.416 24.4189 80.359 24.1501 80.2451 23.9268C80.1357 23.6989 79.9671 23.5234 79.7393 23.4004C79.516 23.2773 79.2311 23.2158 78.8848 23.2158C78.5931 23.2158 78.3288 23.2751 78.0918 23.3936C77.8594 23.5075 77.6748 23.6715 77.5381 23.8857C77.4014 24.0954 77.333 24.346 77.333 24.6377H75.6787C75.6787 24.109 75.8177 23.6396 76.0957 23.2295C76.3737 22.8193 76.752 22.498 77.2305 22.2656C77.7135 22.0286 78.2559 21.9102 78.8574 21.9102C79.5 21.9102 80.0605 22.0173 80.5391 22.2314C81.0221 22.4411 81.3981 22.7555 81.667 23.1748C81.9359 23.5941 82.0703 24.1136 82.0703 24.7334C82.0703 25.016 82.0042 25.3031 81.8721 25.5947C81.7399 25.8864 81.5439 26.153 81.2842 26.3945C81.0244 26.6315 80.7008 26.8252 80.3135 26.9756C79.9261 27.1214 79.4772 27.1943 78.9668 27.1943H77.7295V26.2783ZM77.7295 27.5635V26.6611H78.9668C79.5501 26.6611 80.0469 26.7295 80.457 26.8662C80.8717 27.0029 81.209 27.1921 81.4688 27.4336C81.7285 27.6706 81.9176 27.9417 82.0361 28.2471C82.1592 28.5524 82.2207 28.876 82.2207 29.2178C82.2207 29.6826 82.1364 30.0973 81.9678 30.4619C81.8037 30.8219 81.569 31.1273 81.2637 31.3779C80.9583 31.6286 80.6006 31.8177 80.1904 31.9453C79.7848 32.0729 79.3428 32.1367 78.8643 32.1367C78.4359 32.1367 78.0257 32.0775 77.6338 31.959C77.2419 31.8405 76.891 31.665 76.5811 31.4326C76.2712 31.1956 76.0251 30.9017 75.8428 30.5508C75.665 30.1953 75.5762 29.7852 75.5762 29.3203H77.2236C77.2236 29.6165 77.292 29.8786 77.4287 30.1064C77.57 30.3298 77.766 30.5052 78.0166 30.6328C78.2718 30.7604 78.5635 30.8242 78.8916 30.8242C79.238 30.8242 79.5365 30.7627 79.7871 30.6396C80.0378 30.5166 80.2292 30.3343 80.3613 30.0928C80.498 29.8512 80.5664 29.5596 80.5664 29.2178C80.5664 28.8304 80.4912 28.516 80.3408 28.2744C80.1904 28.0329 79.9762 27.8551 79.6982 27.7412C79.4202 27.6227 79.0921 27.5635 78.7139 27.5635H77.7295Z" fill="white"/>
</g>
<defs>
<linearGradient id="paint0_linear_1189_10538" x1="381" y1="209.065" x2="-22.5651" y2="31.9222" gradientUnits="userSpaceOnUse">
<stop stop-color="#65CDBA"/>
<stop offset="0.407004" stop-color="#6C79C6"/>
<stop offset="1" stop-color="#D55D97"/>
</linearGradient>
<linearGradient id="paint1_linear_1189_10538" x1="190.5" y1="30.1729" x2="190.5" y2="182.854" gradientUnits="userSpaceOnUse">
<stop stop-color="#49438E"/>
<stop offset="1" stop-color="#2A2567"/>
</linearGradient>
<linearGradient id="paint2_linear_1189_10538" x1="170.793" y1="32.7672" x2="210.31" y2="180.246" gradientUnits="userSpaceOnUse">
<stop stop-color="#49438E"/>
<stop offset="1" stop-color="#2A2567"/>
</linearGradient>
<clipPath id="clip0_1189_10538">
<path d="M0 12C0 5.37259 5.37258 0 12 0H369C375.627 0 381 5.37258 381 12V200C381 206.627 375.627 212 369 212H12C5.37258 212 0 206.627 0 200V12Z" fill="white"/>
</clipPath>
<clipPath id="clip1_1189_10538">
<path d="M0 12.1563C0 5.52884 5.37258 0.15625 12 0.15625H369C375.627 0.15625 381 5.52883 381 12.1563V200.156C381 206.784 375.627 212.156 369 212.156H12C5.37258 212.156 0 206.784 0 200.156V12.1563Z" fill="white"/>
</clipPath>
</defs>
</svg>
