<svg width="381" height="212" viewBox="0 0 381 212" fill="none" xmlns="http://www.w3.org/2000/svg">
<g clip-path="url(#clip0_1488_16397)">
<g clip-path="url(#clip1_1488_16397)">
<path d="M0 12.1563C0 5.52884 5.37258 0.15625 12 0.15625H369C375.627 0.15625 381 5.52883 381 12.1563V200.156C381 206.784 375.627 212.156 369 212.156H12C5.37258 212.156 0 206.784 0 200.156V12.1563Z" fill="url(#paint0_linear_1488_16397)"/>
<g opacity="0.2">
<path d="M303.726 100.707C282.145 58.6366 239.42 30.1719 190.5 30.1719C141.579 30.1719 98.8428 58.6565 77.2736 100.711C76.3632 102.511 75.8889 104.498 75.8889 106.514C75.8889 108.531 76.3632 110.518 77.2736 112.318C98.8547 154.388 141.579 182.853 190.5 182.853C239.42 182.853 282.157 154.369 303.726 112.314C304.636 110.514 305.111 108.527 305.111 106.511C305.111 104.494 304.636 102.507 303.726 100.707ZM190.5 163.768C179.166 163.768 168.086 160.41 158.663 154.119C149.239 147.827 141.894 138.885 137.556 128.423C133.219 117.961 132.084 106.449 134.295 95.3425C136.507 84.236 141.964 74.0341 149.979 66.0268C157.993 58.0194 168.204 52.5664 179.32 50.3572C190.436 48.148 201.958 49.2818 212.43 53.6153C222.901 57.9489 231.851 65.2874 238.148 74.7031C244.444 84.1187 247.805 95.1884 247.805 106.512C247.809 114.032 246.329 121.479 243.451 128.428C240.572 135.376 236.351 141.689 231.029 147.006C225.707 152.324 219.388 156.541 212.434 159.417C205.48 162.293 198.026 163.772 190.5 163.768ZM190.5 68.3422C187.09 68.3898 183.702 68.8967 180.428 69.8491C183.127 73.5138 184.422 78.0235 184.078 82.5604C183.735 87.0973 181.775 91.3611 178.555 94.5783C175.335 97.7956 171.068 99.7533 166.527 100.097C161.986 100.44 157.472 99.1457 153.804 96.4491C151.716 104.137 152.093 112.286 154.882 119.749C157.672 127.212 162.734 133.613 169.355 138.051C175.976 142.489 183.824 144.74 191.793 144.489C199.762 144.237 207.452 141.495 213.78 136.648C220.107 131.802 224.755 125.094 227.067 117.471C229.38 109.847 229.241 101.69 226.671 94.1492C224.101 86.6081 219.229 80.0622 212.74 75.4328C206.251 70.8033 198.473 68.3234 190.5 68.3422Z" fill="url(#paint1_linear_1488_16397)"/>
</g>
<g opacity="0.2">
<path d="M298.417 71.5932C266.683 36.5415 218.047 20.1046 170.793 32.7662C123.54 45.4278 89.6317 84.0028 79.6821 130.207C79.2684 132.181 79.3248 134.224 79.8466 136.171C80.3684 138.118 81.341 139.916 82.686 141.418C114.42 176.47 163.056 192.907 210.31 180.245C257.564 167.583 291.472 129.008 301.421 82.8039C301.835 80.8304 301.779 78.7875 301.257 76.8402C300.735 74.8928 299.762 73.0955 298.417 71.5932ZM205.37 161.81C194.423 164.744 182.852 164.368 172.121 160.73C161.39 157.092 151.98 150.355 145.083 141.372C138.186 132.389 134.11 121.563 133.371 110.263C132.633 98.9627 135.264 87.6958 140.933 77.887C146.602 68.0783 155.053 60.1683 165.219 55.1572C175.384 50.1462 186.808 48.2593 198.044 49.735C209.28 51.2107 219.824 55.9828 228.343 63.4479C236.862 70.9129 242.974 80.7356 245.905 91.6738C247.854 98.9366 248.353 106.513 247.37 113.969C246.388 121.426 243.945 128.616 240.181 135.13C236.416 141.644 231.404 147.353 225.431 151.931C219.458 156.508 212.641 159.866 205.37 161.81ZM180.672 69.6359C177.391 70.5644 174.25 71.9309 171.333 73.6984C174.889 76.5396 177.307 80.5604 178.15 85.0317C178.992 89.5029 178.203 94.1285 175.925 98.0695C173.648 102.011 170.032 105.006 165.735 106.513C161.438 108.02 156.743 107.938 152.502 106.283C152.474 114.249 154.948 122.023 159.574 128.509C164.2 134.996 170.746 139.869 178.29 142.442C185.834 145.015 193.997 145.159 201.63 142.853C209.262 140.548 215.98 135.909 220.838 129.589C225.696 123.27 228.449 115.588 228.709 107.626C228.97 99.6633 226.725 91.8206 222.291 85.2017C217.856 78.5828 211.456 73.521 203.99 70.7287C196.524 67.9363 188.369 67.5542 180.672 69.6359Z" fill="url(#paint2_linear_1488_16397)"/>
</g>
<g opacity="0.2">
<path d="M301.319 130.204C291.362 83.9813 257.46 45.4286 210.206 32.767C162.953 20.1054 114.3 36.5584 82.5812 71.5979C81.2362 73.1001 80.2636 74.8975 79.7418 76.8448C79.22 78.7922 79.1637 80.835 79.5773 82.8085C89.5344 129.031 123.436 167.584 170.69 180.246C217.943 192.907 266.596 176.454 298.315 141.415C299.66 139.913 300.632 138.115 301.154 136.168C301.676 134.221 301.732 132.178 301.319 130.204ZM175.629 161.811C164.681 158.877 154.849 152.766 147.374 144.25C139.9 135.734 135.119 125.196 133.638 113.968C132.156 102.74 134.039 91.326 139.05 81.1702C144.06 71.0145 151.972 62.5727 161.786 56.9125C171.6 51.2523 182.874 48.6278 194.183 49.371C205.492 50.1141 216.329 54.1915 225.321 61.0875C234.314 67.9835 241.06 77.3885 244.705 88.113C248.35 98.8375 248.732 110.4 245.801 121.338C243.858 128.603 240.501 135.413 235.923 141.379C231.344 147.346 225.633 152.351 219.116 156.11C212.599 159.869 205.404 162.307 197.942 163.285C190.48 164.263 182.898 163.762 175.629 161.811ZM200.327 69.6367C197.021 68.8001 193.617 68.4129 190.208 68.4854C191.867 72.7237 191.951 77.415 190.444 81.7084C188.938 86.0018 185.942 89.6131 181.999 91.8873C178.056 94.1616 173.427 94.9481 168.952 94.1044C164.477 93.2606 160.452 90.8424 157.607 87.2884C153.6 94.1739 151.855 102.143 152.618 110.073C153.381 118.004 156.614 125.497 161.861 131.497C167.108 137.498 174.105 141.704 181.868 143.523C189.631 145.343 197.768 144.685 205.135 141.641C212.501 138.597 218.726 133.321 222.933 126.555C227.14 119.79 229.117 111.875 228.587 103.926C228.056 95.9769 225.044 88.393 219.974 82.2419C214.905 76.0908 208.034 71.6822 200.327 69.6367Z" fill="#49438E"/>
</g>
</g>
<path d="M14.328 79.9481H16.296V86.9321H24.336V79.9481H26.304V96.4361H24.336V88.8041H16.296V96.4361H14.328V79.9481ZM30.4886 84.3881L32.4566 84.4121V96.4361L30.4886 96.4121V84.3881ZM31.4246 82.0601C31.1046 82.0601 30.8166 81.9321 30.5606 81.6761C30.3046 81.4201 30.1766 81.1321 30.1766 80.8121C30.1766 80.4761 30.3046 80.1801 30.5606 79.9241C30.8166 79.6681 31.1046 79.5401 31.4246 79.5401C31.7606 79.5401 32.0566 79.6681 32.3126 79.9241C32.5846 80.1801 32.7206 80.4761 32.7206 80.8121C32.7206 81.1321 32.5846 81.4201 32.3126 81.6761C32.0566 81.9321 31.7606 82.0601 31.4246 82.0601ZM41.3685 84.0761C42.4885 84.0761 43.4405 84.3561 44.2245 84.9161C45.0245 85.4761 45.6245 86.2281 46.0245 87.1721C46.4405 88.1001 46.6485 89.1241 46.6485 90.2441C46.6485 91.4761 46.4085 92.5801 45.9285 93.5561C45.4645 94.5161 44.7765 95.2761 43.8645 95.8361C42.9685 96.3801 41.9125 96.6521 40.6965 96.6521C40.2165 96.6521 39.4005 96.5801 38.2485 96.4361V102.652H36.3525V88.0121C36.3525 86.7641 36.0165 85.8521 35.3445 85.2761L36.6645 84.0521C36.9045 84.1961 37.1445 84.4121 37.3845 84.7001C37.6245 84.9721 37.8245 85.2921 37.9845 85.6601C38.3685 85.1801 38.8725 84.7961 39.4965 84.5081C40.1205 84.2201 40.7445 84.0761 41.3685 84.0761ZM40.5765 94.8761C41.9205 94.8761 42.9365 94.4681 43.6245 93.6521C44.3285 92.8361 44.6805 91.7481 44.6805 90.3881C44.6805 89.1081 44.3845 88.0361 43.7925 87.1721C43.2005 86.2921 42.4085 85.8521 41.4165 85.8521C40.6325 85.8521 39.9205 86.1081 39.2805 86.6201C38.6565 87.1161 38.3125 87.7561 38.2485 88.5401V94.7321C39.2085 94.8281 39.9845 94.8761 40.5765 94.8761ZM49.3352 87.9161C49.3352 87.3561 49.2552 86.8521 49.0952 86.4041C48.9512 85.9561 48.6712 85.5481 48.2552 85.1801L49.5272 83.9801C50.1832 84.3641 50.6712 85.0041 50.9912 85.9001C52.0312 84.6521 53.3352 84.0281 54.9032 84.0281C56.1672 84.0281 57.1672 84.3721 57.9032 85.0601C58.6552 85.7481 59.0312 86.7481 59.0312 88.0601V96.4361L57.0632 96.4601V88.3241C57.0632 87.5401 56.8952 86.9241 56.5592 86.4761C56.2232 86.0281 55.6312 85.8041 54.7832 85.8041C54.0472 85.8041 53.4232 85.9801 52.9112 86.3321C52.4152 86.6681 51.8792 87.2201 51.3032 87.9881V96.4361H49.3352V87.9161ZM67.4968 96.6521C66.3608 96.6521 65.3368 96.3801 64.4248 95.8361C63.5288 95.2921 62.8248 94.5481 62.3128 93.6041C61.8008 92.6441 61.5448 91.5641 61.5448 90.3641C61.5448 89.1641 61.8008 88.0841 62.3128 87.1241C62.8408 86.1481 63.5528 85.3881 64.4488 84.8441C65.3608 84.2841 66.3848 84.0041 67.5208 84.0041C68.6568 84.0041 69.6728 84.2761 70.5688 84.8201C71.4808 85.3641 72.1928 86.1241 72.7048 87.1001C73.2168 88.0601 73.4728 89.1401 73.4728 90.3401C73.4728 91.5401 73.2168 92.6201 72.7048 93.5801C72.1928 94.5401 71.4808 95.2921 70.5688 95.8361C69.6568 96.3801 68.6328 96.6521 67.4968 96.6521ZM67.5208 94.8761C68.7208 94.8761 69.6808 94.4601 70.4008 93.6281C71.1368 92.7961 71.5048 91.7001 71.5048 90.3401C71.5048 88.9641 71.1368 87.8601 70.4008 87.0281C69.6808 86.1961 68.7208 85.7801 67.5208 85.7801C66.7368 85.7801 66.0408 85.9721 65.4328 86.3561C64.8248 86.7401 64.3528 87.2761 64.0168 87.9641C63.6808 88.6521 63.5128 89.4441 63.5128 90.3401C63.5128 91.7001 63.8808 92.7961 64.6168 93.6281C65.3528 94.4601 66.3208 94.8761 67.5208 94.8761ZM79.5323 96.6521C77.7723 96.6521 76.2203 95.9801 74.8763 94.6361L76.0043 93.3161C76.6123 93.8441 77.1883 94.2361 77.7323 94.4921C78.2763 94.7321 78.8523 94.8521 79.4603 94.8521C80.2443 94.8521 80.8603 94.6841 81.3083 94.3481C81.7723 93.9961 82.0043 93.5161 82.0043 92.9081C82.0043 92.5401 81.9083 92.2441 81.7163 92.0201C81.5403 91.7961 81.2763 91.6041 80.9243 91.4441C80.5883 91.2681 80.0203 91.0201 79.2203 90.7001C78.3403 90.3481 77.6523 90.0441 77.1562 89.7881C76.6763 89.5161 76.2923 89.1801 76.0043 88.7801C75.7163 88.3641 75.5723 87.8521 75.5723 87.2441C75.5723 86.2521 75.9243 85.4521 76.6283 84.8441C77.3323 84.2361 78.2443 83.9321 79.3643 83.9321C80.0203 83.9321 80.6763 84.0441 81.3323 84.2681C82.0043 84.4761 82.5323 84.7481 82.9163 85.0841L82.0763 86.5001C81.3563 85.9721 80.5163 85.7081 79.5563 85.7081C78.9483 85.7081 78.4603 85.8361 78.0923 86.0921C77.7403 86.3321 77.5643 86.6681 77.5643 87.1001C77.5643 87.5481 77.7403 87.9001 78.0923 88.1561C78.4603 88.3961 79.0843 88.6921 79.9643 89.0441C80.9563 89.4441 81.7323 89.8041 82.2923 90.1241C82.8523 90.4441 83.2763 90.8201 83.5643 91.2521C83.8523 91.6681 83.9963 92.1961 83.9963 92.8361C83.9963 93.9721 83.5803 94.8921 82.7483 95.5961C81.9163 96.3001 80.8443 96.6521 79.5323 96.6521Z" fill="white"/>
<path d="M13.0078 119.588V110.951H13.8867L16.8867 116.283H16.9336L19.9336 110.951H20.8125V119.588H19.7578V114.912L19.7812 113.189H19.7344L17.0977 117.912H16.7227L14.0859 113.189H14.0391L14.0625 114.912V119.588H13.0078ZM24.4048 119.682C24.022 119.682 23.6763 119.607 23.3677 119.459C23.0591 119.311 22.8149 119.1 22.6352 118.826C22.4555 118.549 22.3657 118.217 22.3657 117.83C22.3657 117.42 22.477 117.07 22.6997 116.781C22.9223 116.492 23.2446 116.273 23.6665 116.125C24.0884 115.973 24.6001 115.896 25.2016 115.896H26.4907V116.705H25.272C24.6587 116.705 24.1841 116.803 23.8481 116.998C23.5161 117.193 23.3501 117.471 23.3501 117.83C23.3501 118.037 23.4028 118.215 23.5083 118.363C23.6138 118.508 23.7544 118.619 23.9302 118.697C24.1098 118.775 24.3071 118.814 24.522 118.814C24.7798 118.814 25.0454 118.758 25.3188 118.645C25.5962 118.527 25.8286 118.359 26.0161 118.141C26.2075 117.918 26.3032 117.646 26.3032 117.326V116.682L26.2798 116.318V115.627C26.2798 115.525 26.272 115.396 26.2563 115.24C26.2407 115.08 26.1938 114.922 26.1157 114.766C26.0415 114.609 25.9145 114.479 25.7348 114.373C25.5552 114.264 25.3032 114.209 24.979 114.209C24.7876 114.209 24.5805 114.234 24.3579 114.285C24.1391 114.332 23.9243 114.398 23.7134 114.484C23.5063 114.57 23.3227 114.67 23.1626 114.783L22.7759 113.881C22.9829 113.76 23.2134 113.654 23.4673 113.564C23.7251 113.471 23.9907 113.398 24.2641 113.348C24.5415 113.297 24.811 113.271 25.0727 113.271C25.4946 113.271 25.8442 113.334 26.1216 113.459C26.4028 113.584 26.6255 113.756 26.7895 113.975C26.9536 114.193 27.0688 114.443 27.1352 114.725C27.2055 115.002 27.2407 115.295 27.2407 115.604V117.783C27.2407 118.045 27.268 118.252 27.3227 118.404C27.3813 118.557 27.4829 118.662 27.6274 118.721L27.7446 118.768L27.3579 119.682L27.1938 119.611C26.9751 119.518 26.7876 119.379 26.6313 119.195C26.4751 119.012 26.397 118.83 26.397 118.65L26.5962 118.721H26.2095L26.4673 118.557C26.3149 118.865 26.0552 119.131 25.688 119.354C25.3247 119.572 24.897 119.682 24.4048 119.682ZM31.208 119.682C30.622 119.682 30.1806 119.512 29.8838 119.172C29.5869 118.832 29.4384 118.396 29.4384 117.865V111.385H30.4463V117.76C30.4463 118.08 30.5185 118.324 30.663 118.492C30.8076 118.66 30.997 118.744 31.2314 118.744C31.333 118.744 31.4248 118.73 31.5068 118.703C31.5888 118.672 31.665 118.639 31.7353 118.604L32.122 119.494C32.0048 119.541 31.872 119.584 31.7236 119.623C31.5752 119.662 31.4033 119.682 31.208 119.682ZM28.4072 114.291V113.377H31.9814V114.291H28.4072ZM35.7143 119.682C35.1323 119.682 34.6147 119.551 34.1616 119.289C33.7123 119.023 33.3588 118.65 33.101 118.17C32.8432 117.689 32.7143 117.123 32.7143 116.471C32.7143 115.822 32.8393 115.26 33.0893 114.783C33.3393 114.307 33.6791 113.938 34.1088 113.676C34.5424 113.414 35.0307 113.283 35.5737 113.283C36.1088 113.283 36.5815 113.406 36.9916 113.652C37.4018 113.895 37.7221 114.23 37.9526 114.66C38.187 115.09 38.3041 115.58 38.3041 116.131C38.3041 116.299 38.2944 116.449 38.2748 116.582C38.2592 116.715 38.2455 116.814 38.2338 116.881H33.476V116.061H37.3198C37.3198 115.725 37.2495 115.418 37.1088 115.141C36.9682 114.859 36.767 114.637 36.5053 114.473C36.2436 114.305 35.933 114.221 35.5737 114.221C35.2065 114.221 34.8823 114.314 34.601 114.502C34.3198 114.689 34.0991 114.953 33.9389 115.293C33.7787 115.629 33.6987 116.021 33.6987 116.471C33.6987 116.924 33.7827 117.322 33.9506 117.666C34.1186 118.006 34.3569 118.271 34.6655 118.463C34.9741 118.65 35.3393 118.744 35.7612 118.744C36.0112 118.744 36.2377 118.713 36.4409 118.65C36.6479 118.584 36.8295 118.504 36.9858 118.41C37.1459 118.312 37.2807 118.217 37.3901 118.123L37.7768 119.037C37.5385 119.213 37.2397 119.365 36.8803 119.494C36.5248 119.619 36.1362 119.682 35.7143 119.682ZM39.6581 119.588V113.377H40.6659V114.326H40.83L40.4902 114.713C40.6034 114.455 40.7558 114.219 40.9472 114.004C41.1425 113.785 41.3749 113.611 41.6445 113.482C41.9179 113.35 42.2284 113.283 42.5761 113.283C42.7128 113.283 42.8398 113.293 42.957 113.312C43.078 113.328 43.162 113.346 43.2089 113.365L42.7987 114.338C42.7753 114.326 42.7226 114.316 42.6405 114.309C42.5585 114.297 42.4667 114.291 42.3652 114.291C42.1855 114.291 41.996 114.33 41.7968 114.408C41.6015 114.486 41.4179 114.6 41.246 114.748C41.0741 114.896 40.9335 115.08 40.8241 115.299C40.7187 115.514 40.6659 115.76 40.6659 116.037V119.588H39.6581ZM44.1293 119.588V113.377H45.1371V119.588H44.1293ZM44.6332 112.381C44.4184 112.381 44.2367 112.307 44.0883 112.158C43.9438 112.01 43.8715 111.83 43.8715 111.619C43.8715 111.408 43.9438 111.229 44.0883 111.08C44.2367 110.932 44.4184 110.857 44.6332 110.857C44.8441 110.857 45.0238 110.932 45.1723 111.08C45.3207 111.229 45.3949 111.408 45.3949 111.619C45.3949 111.83 45.3207 112.01 45.1723 112.158C45.0238 112.307 44.8441 112.381 44.6332 112.381ZM48.5653 119.682C48.1825 119.682 47.8368 119.607 47.5282 119.459C47.2196 119.311 46.9755 119.1 46.7958 118.826C46.6161 118.549 46.5262 118.217 46.5262 117.83C46.5262 117.42 46.6376 117.07 46.8602 116.781C47.0829 116.492 47.4052 116.273 47.827 116.125C48.2489 115.973 48.7606 115.896 49.3622 115.896H50.6512V116.705H49.4325C48.8192 116.705 48.3446 116.803 48.0087 116.998C47.6766 117.193 47.5106 117.471 47.5106 117.83C47.5106 118.037 47.5634 118.215 47.6688 118.363C47.7743 118.508 47.9149 118.619 48.0907 118.697C48.2704 118.775 48.4677 118.814 48.6825 118.814C48.9403 118.814 49.2059 118.758 49.4794 118.645C49.7567 118.527 49.9891 118.359 50.1766 118.141C50.368 117.918 50.4637 117.646 50.4637 117.326V116.682L50.4403 116.318V115.627C50.4403 115.525 50.4325 115.396 50.4169 115.24C50.4012 115.08 50.3544 114.922 50.2762 114.766C50.202 114.609 50.0751 114.479 49.8954 114.373C49.7157 114.264 49.4637 114.209 49.1395 114.209C48.9481 114.209 48.7411 114.234 48.5184 114.285C48.2997 114.332 48.0848 114.398 47.8739 114.484C47.6669 114.57 47.4833 114.67 47.3231 114.783L46.9364 113.881C47.1434 113.76 47.3739 113.654 47.6278 113.564C47.8856 113.471 48.1512 113.398 48.4247 113.348C48.702 113.297 48.9716 113.271 49.2333 113.271C49.6552 113.271 50.0048 113.334 50.2821 113.459C50.5634 113.584 50.786 113.756 50.9501 113.975C51.1141 114.193 51.2294 114.443 51.2958 114.725C51.3661 115.002 51.4012 115.295 51.4012 115.604V117.783C51.4012 118.045 51.4286 118.252 51.4833 118.404C51.5419 118.557 51.6434 118.662 51.788 118.721L51.9052 118.768L51.5184 119.682L51.3544 119.611C51.1356 119.518 50.9481 119.379 50.7919 119.195C50.6356 119.012 50.5575 118.83 50.5575 118.65L50.7567 118.721H50.37L50.6278 118.557C50.4755 118.865 50.2157 119.131 49.8485 119.354C49.4852 119.572 49.0575 119.682 48.5653 119.682ZM54.431 119.682C54.138 119.682 53.8978 119.621 53.7103 119.5C53.5267 119.375 53.39 119.195 53.3002 118.961C53.2103 118.723 53.1654 118.436 53.1654 118.1V110.564H54.1732V118.123C54.1732 118.201 54.1791 118.289 54.1908 118.387C54.2064 118.484 54.2455 118.568 54.308 118.639C54.3705 118.709 54.4779 118.744 54.6302 118.744C54.6771 118.744 54.724 118.74 54.7709 118.732C54.8177 118.721 54.8646 118.709 54.9115 118.697V119.611C54.8529 119.635 54.7806 119.652 54.6947 119.664C54.6087 119.676 54.5209 119.682 54.431 119.682ZM61.6038 119.682C61.096 119.682 60.6292 119.576 60.2034 119.365C59.7816 119.154 59.4417 118.861 59.1839 118.486C58.93 118.107 58.803 117.666 58.803 117.162L59.8577 117.139C59.8577 117.451 59.9339 117.727 60.0863 117.965C60.2386 118.203 60.4456 118.389 60.7073 118.521C60.9691 118.654 61.264 118.721 61.5921 118.721C61.928 118.721 62.2288 118.65 62.4945 118.51C62.764 118.369 62.9749 118.178 63.1273 117.936C63.2835 117.693 63.3616 117.42 63.3616 117.115C63.3616 116.814 63.2816 116.545 63.1214 116.307C62.9652 116.068 62.7347 115.881 62.43 115.744C62.1292 115.604 61.7601 115.533 61.3226 115.533H60.9593V114.619H61.3695C61.6976 114.619 61.9827 114.551 62.2249 114.414C62.471 114.277 62.6605 114.096 62.7933 113.869C62.93 113.639 62.9984 113.385 62.9984 113.107C62.9984 112.838 62.9398 112.607 62.8226 112.416C62.7054 112.225 62.5413 112.078 62.3304 111.977C62.1234 111.871 61.8812 111.818 61.6038 111.818C61.3109 111.818 61.057 111.873 60.8421 111.982C60.6312 112.092 60.4671 112.246 60.3499 112.445C60.2327 112.641 60.1741 112.869 60.1741 113.131H59.1195C59.1195 112.705 59.2191 112.32 59.4183 111.977C59.6214 111.633 59.9066 111.361 60.2738 111.162C60.6448 110.959 61.0804 110.857 61.5804 110.857C62.0491 110.857 62.471 110.949 62.846 111.133C63.221 111.312 63.5179 111.566 63.7366 111.895C63.9554 112.223 64.0648 112.604 64.0648 113.037C64.0648 113.467 63.9632 113.846 63.7601 114.174C63.557 114.498 63.2874 114.75 62.9515 114.93C62.6195 115.105 62.2601 115.186 61.8734 115.17V114.936C62.346 114.916 62.7738 115 63.1566 115.188C63.5433 115.375 63.8499 115.641 64.0765 115.984C64.303 116.328 64.4163 116.725 64.4163 117.174C64.4163 117.643 64.2913 118.066 64.0413 118.445C63.7952 118.824 63.4593 119.125 63.0335 119.348C62.6116 119.57 62.1351 119.682 61.6038 119.682ZM69.0813 119.588V110.951H71.8704C72.4524 110.951 72.9895 111.049 73.4817 111.244C73.9739 111.436 74.3997 111.715 74.7591 112.082C75.1223 112.449 75.4036 112.895 75.6028 113.418C75.802 113.941 75.9016 114.533 75.9016 115.193C75.9016 115.869 75.802 116.479 75.6028 117.021C75.4036 117.561 75.1243 118.021 74.7649 118.404C74.4095 118.787 73.9915 119.08 73.511 119.283C73.0305 119.486 72.5071 119.588 71.9407 119.588H69.0813ZM70.136 118.627H71.9407C72.347 118.627 72.7259 118.549 73.0774 118.393C73.429 118.232 73.7376 118.002 74.0032 117.701C74.2688 117.4 74.4759 117.039 74.6243 116.617C74.7727 116.195 74.847 115.721 74.847 115.193C74.847 114.678 74.7727 114.217 74.6243 113.811C74.4759 113.404 74.2688 113.061 74.0032 112.779C73.7376 112.498 73.429 112.283 73.0774 112.135C72.7259 111.986 72.347 111.912 71.9407 111.912H70.136V118.627ZM79.9978 119.682C79.4158 119.682 78.8982 119.551 78.4451 119.289C77.9959 119.023 77.6423 118.65 77.3845 118.17C77.1267 117.689 76.9978 117.123 76.9978 116.471C76.9978 115.822 77.1228 115.26 77.3728 114.783C77.6228 114.307 77.9627 113.938 78.3923 113.676C78.8259 113.414 79.3142 113.283 79.8572 113.283C80.3923 113.283 80.865 113.406 81.2752 113.652C81.6853 113.895 82.0056 114.23 82.2361 114.66C82.4705 115.09 82.5877 115.58 82.5877 116.131C82.5877 116.299 82.5779 116.449 82.5584 116.582C82.5427 116.715 82.5291 116.814 82.5173 116.881H77.7595V116.061H81.6033C81.6033 115.725 81.533 115.418 81.3923 115.141C81.2517 114.859 81.0505 114.637 80.7888 114.473C80.5271 114.305 80.2166 114.221 79.8572 114.221C79.49 114.221 79.1658 114.314 78.8845 114.502C78.6033 114.689 78.3826 114.953 78.2224 115.293C78.0623 115.629 77.9822 116.021 77.9822 116.471C77.9822 116.924 78.0662 117.322 78.2341 117.666C78.4021 118.006 78.6404 118.271 78.949 118.463C79.2576 118.65 79.6228 118.744 80.0447 118.744C80.2947 118.744 80.5212 118.713 80.7244 118.65C80.9314 118.584 81.113 118.504 81.2693 118.41C81.4295 118.312 81.5642 118.217 81.6736 118.123L82.0603 119.037C81.822 119.213 81.5232 119.365 81.1638 119.494C80.8084 119.619 80.4197 119.682 79.9978 119.682ZM85.6877 119.682C85.3205 119.682 84.9866 119.613 84.6858 119.477C84.3889 119.336 84.1389 119.156 83.9358 118.938C83.7327 118.715 83.5901 118.482 83.508 118.24L84.4221 117.865C84.5041 118.1 84.6604 118.305 84.8909 118.48C85.1252 118.656 85.3909 118.744 85.6877 118.744C85.8752 118.744 86.053 118.709 86.2209 118.639C86.3889 118.564 86.5256 118.463 86.6311 118.334C86.7366 118.201 86.7893 118.045 86.7893 117.865C86.7893 117.689 86.7405 117.541 86.6428 117.42C86.5452 117.295 86.4202 117.189 86.2678 117.104C86.1155 117.018 85.9553 116.945 85.7873 116.887C85.6233 116.828 85.4729 116.775 85.3362 116.729C85.1018 116.65 84.8557 116.547 84.5979 116.418C84.3401 116.285 84.1213 116.105 83.9416 115.879C83.762 115.648 83.6721 115.35 83.6721 114.982C83.6721 114.619 83.7639 114.311 83.9475 114.057C84.1311 113.803 84.3713 113.611 84.6682 113.482C84.9651 113.35 85.2815 113.283 85.6174 113.283C86.1213 113.283 86.5393 113.412 86.8713 113.67C87.2073 113.924 87.4455 114.209 87.5862 114.525L86.6721 114.912C86.5784 114.729 86.4475 114.564 86.2795 114.42C86.1155 114.271 85.8948 114.197 85.6174 114.197C85.3674 114.197 85.1448 114.266 84.9495 114.402C84.7541 114.535 84.6565 114.729 84.6565 114.982C84.6565 115.197 84.7248 115.369 84.8616 115.498C84.9983 115.627 85.1623 115.73 85.3538 115.809C85.5491 115.887 85.7346 115.955 85.9104 116.014C86.0705 116.064 86.2561 116.133 86.467 116.219C86.678 116.305 86.883 116.416 87.0823 116.553C87.2815 116.689 87.4455 116.861 87.5745 117.068C87.7073 117.275 87.7737 117.529 87.7737 117.83C87.7737 118.189 87.676 118.51 87.4807 118.791C87.2893 119.068 87.0354 119.287 86.719 119.447C86.4026 119.604 86.0588 119.682 85.6877 119.682ZM89.1745 119.588V113.377H90.1823V119.588H89.1745ZM89.6784 112.381C89.4636 112.381 89.282 112.307 89.1335 112.158C88.989 112.01 88.9167 111.83 88.9167 111.619C88.9167 111.408 88.989 111.229 89.1335 111.08C89.282 110.932 89.4636 110.857 89.6784 110.857C89.8894 110.857 90.0691 110.932 90.2175 111.08C90.3659 111.229 90.4402 111.408 90.4402 111.619C90.4402 111.83 90.3659 112.01 90.2175 112.158C90.0691 112.307 89.8894 112.381 89.6784 112.381ZM94.384 122.143C93.9387 122.143 93.5109 122.082 93.1008 121.961C92.6906 121.84 92.3645 121.701 92.1223 121.545L92.509 120.654C92.7043 120.799 92.9699 120.93 93.3059 121.047C93.6457 121.168 93.9973 121.229 94.3605 121.229C94.6652 121.229 94.9699 121.17 95.2746 121.053C95.5832 120.936 95.8391 120.746 96.0422 120.484C96.2492 120.223 96.3527 119.877 96.3527 119.447V118.627H96.177L96.3996 118.076V114.736L96.1066 114.162H96.3293V113.377H97.3371V119.4C97.3371 119.885 97.2531 120.299 97.0852 120.643C96.9172 120.99 96.6906 121.273 96.4055 121.492C96.1242 121.715 95.8078 121.879 95.4563 121.984C95.1086 122.09 94.7512 122.143 94.384 122.143ZM94.3137 119.611C93.9426 119.611 93.5891 119.537 93.2531 119.389C92.9172 119.24 92.6184 119.027 92.3566 118.75C92.0988 118.473 91.8957 118.139 91.7473 117.748C91.5988 117.354 91.5246 116.912 91.5246 116.424C91.5246 115.764 91.6555 115.199 91.9172 114.73C92.1828 114.262 92.5305 113.904 92.9602 113.658C93.3898 113.408 93.8566 113.283 94.3605 113.283C94.8801 113.283 95.341 113.414 95.7434 113.676C96.1496 113.938 96.468 114.303 96.6984 114.771C96.9289 115.24 97.0441 115.783 97.0441 116.4C97.0441 117.021 96.925 117.574 96.6867 118.059C96.4484 118.539 96.1223 118.918 95.7082 119.195C95.298 119.473 94.8332 119.611 94.3137 119.611ZM94.4777 118.674C94.8449 118.674 95.1711 118.578 95.4563 118.387C95.7414 118.191 95.966 117.924 96.1301 117.584C96.2941 117.24 96.3762 116.846 96.3762 116.4C96.3762 115.959 96.2941 115.576 96.1301 115.252C95.966 114.924 95.7414 114.67 95.4563 114.49C95.1711 114.311 94.8449 114.221 94.4777 114.221C94.0949 114.221 93.759 114.314 93.4699 114.502C93.1809 114.686 92.9563 114.943 92.7961 115.275C92.6359 115.607 92.5559 115.99 92.5559 116.424C92.5559 116.861 92.6379 117.25 92.802 117.59C92.966 117.926 93.1926 118.191 93.4816 118.387C93.7707 118.578 94.1027 118.674 94.4777 118.674ZM98.9723 119.588V113.377H99.9802V114.139H100.215L99.7809 114.572C99.8864 114.291 100.043 114.055 100.25 113.863C100.457 113.672 100.701 113.527 100.982 113.43C101.263 113.332 101.566 113.283 101.89 113.283C102.414 113.283 102.836 113.398 103.156 113.629C103.48 113.859 103.715 114.152 103.859 114.508C104.007 114.863 104.082 115.229 104.082 115.604V119.588H103.074V115.814C103.074 115.287 102.943 114.891 102.681 114.625C102.424 114.355 102.066 114.221 101.609 114.221C101.304 114.221 101.029 114.283 100.783 114.408C100.537 114.529 100.341 114.709 100.197 114.947C100.052 115.182 99.9802 115.471 99.9802 115.814V119.588H98.9723ZM111.255 119.682C110.798 119.682 110.378 119.588 109.995 119.4C109.612 119.213 109.286 118.969 109.016 118.668C108.747 118.367 108.555 118.049 108.442 117.713L109.426 117.303C109.508 117.553 109.633 117.785 109.801 118C109.973 118.215 110.18 118.389 110.423 118.521C110.669 118.654 110.942 118.721 111.243 118.721C111.524 118.721 111.786 118.66 112.028 118.539C112.27 118.414 112.465 118.244 112.614 118.029C112.762 117.811 112.837 117.561 112.837 117.279C112.837 116.99 112.762 116.746 112.614 116.547C112.469 116.344 112.29 116.176 112.075 116.043C111.86 115.91 111.645 115.805 111.43 115.727C111.219 115.645 111.048 115.58 110.915 115.533C110.536 115.4 110.178 115.227 109.842 115.012C109.506 114.797 109.233 114.527 109.022 114.203C108.815 113.879 108.712 113.486 108.712 113.025C108.712 112.588 108.811 112.207 109.01 111.883C109.21 111.559 109.489 111.307 109.848 111.127C110.208 110.947 110.626 110.857 111.102 110.857C111.544 110.857 111.928 110.93 112.256 111.074C112.589 111.219 112.866 111.408 113.089 111.643C113.315 111.877 113.489 112.127 113.61 112.393L112.673 112.768C112.598 112.631 112.491 112.49 112.35 112.346C112.21 112.197 112.036 112.072 111.829 111.971C111.622 111.869 111.383 111.818 111.114 111.818C110.751 111.818 110.43 111.922 110.153 112.129C109.88 112.336 109.743 112.643 109.743 113.049C109.743 113.299 109.796 113.514 109.901 113.693C110.01 113.873 110.151 114.027 110.323 114.156C110.495 114.281 110.674 114.387 110.862 114.473C111.053 114.559 111.231 114.631 111.395 114.689C111.579 114.752 111.807 114.84 112.081 114.953C112.358 115.062 112.631 115.213 112.901 115.404C113.174 115.592 113.403 115.834 113.587 116.131C113.774 116.428 113.868 116.795 113.868 117.232C113.868 117.725 113.745 118.154 113.499 118.521C113.256 118.889 112.936 119.174 112.538 119.377C112.139 119.58 111.712 119.682 111.255 119.682ZM115.737 122.143C115.499 122.143 115.276 122.115 115.069 122.061C114.862 122.006 114.718 121.955 114.636 121.908L115.023 120.994C115.148 121.057 115.276 121.107 115.409 121.146C115.542 121.186 115.663 121.205 115.773 121.205C116.011 121.209 116.206 121.15 116.359 121.029C116.515 120.912 116.636 120.773 116.722 120.613C116.808 120.457 116.87 120.322 116.909 120.209L117.226 119.271L117.249 119.881L114.542 113.377H115.644L117.109 117.162L117.589 118.439H117.636L118.069 117.162L119.405 113.377H120.472L117.8 120.455C117.749 120.596 117.675 120.76 117.577 120.947C117.484 121.139 117.359 121.324 117.202 121.504C117.046 121.688 116.849 121.84 116.61 121.961C116.372 122.082 116.081 122.143 115.737 122.143ZM123.15 119.682C122.783 119.682 122.449 119.613 122.148 119.477C121.851 119.336 121.601 119.156 121.398 118.938C121.195 118.715 121.052 118.482 120.97 118.24L121.884 117.865C121.966 118.1 122.123 118.305 122.353 118.48C122.588 118.656 122.853 118.744 123.15 118.744C123.338 118.744 123.515 118.709 123.683 118.639C123.851 118.564 123.988 118.463 124.093 118.334C124.199 118.201 124.252 118.045 124.252 117.865C124.252 117.689 124.203 117.541 124.105 117.42C124.007 117.295 123.882 117.189 123.73 117.104C123.578 117.018 123.418 116.945 123.25 116.887C123.086 116.828 122.935 116.775 122.798 116.729C122.564 116.65 122.318 116.547 122.06 116.418C121.802 116.285 121.584 116.105 121.404 115.879C121.224 115.648 121.134 115.35 121.134 114.982C121.134 114.619 121.226 114.311 121.41 114.057C121.593 113.803 121.834 113.611 122.13 113.482C122.427 113.35 122.744 113.283 123.08 113.283C123.584 113.283 124.002 113.412 124.334 113.67C124.67 113.924 124.908 114.209 125.048 114.525L124.134 114.912C124.041 114.729 123.91 114.564 123.742 114.42C123.578 114.271 123.357 114.197 123.08 114.197C122.83 114.197 122.607 114.266 122.412 114.402C122.216 114.535 122.119 114.729 122.119 114.982C122.119 115.197 122.187 115.369 122.324 115.498C122.461 115.627 122.625 115.73 122.816 115.809C123.011 115.887 123.197 115.955 123.373 116.014C123.533 116.064 123.718 116.133 123.929 116.219C124.14 116.305 124.345 116.416 124.545 116.553C124.744 116.689 124.908 116.861 125.037 117.068C125.17 117.275 125.236 117.529 125.236 117.83C125.236 118.189 125.138 118.51 124.943 118.791C124.752 119.068 124.498 119.287 124.181 119.447C123.865 119.604 123.521 119.682 123.15 119.682ZM128.816 119.682C128.231 119.682 127.789 119.512 127.492 119.172C127.195 118.832 127.047 118.396 127.047 117.865V111.385H128.055V117.76C128.055 118.08 128.127 118.324 128.272 118.492C128.416 118.66 128.606 118.744 128.84 118.744C128.941 118.744 129.033 118.73 129.115 118.703C129.197 118.672 129.274 118.639 129.344 118.604L129.731 119.494C129.613 119.541 129.481 119.584 129.332 119.623C129.184 119.662 129.012 119.682 128.816 119.682ZM126.016 114.291V113.377H129.59V114.291H126.016ZM133.323 119.682C132.741 119.682 132.223 119.551 131.77 119.289C131.321 119.023 130.967 118.65 130.71 118.17C130.452 117.689 130.323 117.123 130.323 116.471C130.323 115.822 130.448 115.26 130.698 114.783C130.948 114.307 131.288 113.938 131.717 113.676C132.151 113.414 132.639 113.283 133.182 113.283C133.717 113.283 134.19 113.406 134.6 113.652C135.01 113.895 135.331 114.23 135.561 114.66C135.795 115.09 135.913 115.58 135.913 116.131C135.913 116.299 135.903 116.449 135.883 116.582C135.868 116.715 135.854 116.814 135.842 116.881H131.085V116.061H134.928C134.928 115.725 134.858 115.418 134.717 115.141C134.577 114.859 134.376 114.637 134.114 114.473C133.852 114.305 133.542 114.221 133.182 114.221C132.815 114.221 132.491 114.314 132.21 114.502C131.928 114.689 131.708 114.953 131.547 115.293C131.387 115.629 131.307 116.021 131.307 116.471C131.307 116.924 131.391 117.322 131.559 117.666C131.727 118.006 131.965 118.271 132.274 118.463C132.583 118.65 132.948 118.744 133.37 118.744C133.62 118.744 133.846 118.713 134.049 118.65C134.256 118.584 134.438 118.504 134.594 118.41C134.754 118.312 134.889 118.217 134.999 118.123L135.385 119.037C135.147 119.213 134.848 119.365 134.489 119.494C134.133 119.619 133.745 119.682 133.323 119.682ZM137.267 119.588V113.377H138.274V114.115H138.462L138.028 114.666C138.177 114.232 138.423 113.895 138.767 113.652C139.114 113.406 139.517 113.283 139.974 113.283C140.442 113.283 140.837 113.404 141.157 113.646C141.481 113.889 141.696 114.197 141.802 114.572L141.345 114.162H141.989L141.439 114.572C141.61 114.139 141.888 113.816 142.271 113.605C142.657 113.391 143.075 113.283 143.524 113.283C143.872 113.283 144.179 113.342 144.444 113.459C144.71 113.572 144.933 113.732 145.112 113.939C145.292 114.143 145.427 114.381 145.517 114.654C145.61 114.928 145.657 115.221 145.657 115.533V119.588H144.649V115.744C144.649 115.24 144.53 114.861 144.292 114.607C144.058 114.35 143.747 114.221 143.36 114.221C143.114 114.221 142.886 114.277 142.675 114.391C142.464 114.5 142.292 114.668 142.159 114.895C142.03 115.117 141.966 115.4 141.966 115.744V119.588H140.958V115.744C140.958 115.24 140.837 114.861 140.595 114.607C140.356 114.35 140.044 114.221 139.657 114.221C139.29 114.221 138.968 114.352 138.69 114.613C138.413 114.871 138.274 115.264 138.274 115.791V119.588H137.267ZM12.3867 130.291V129.377H16.0195V130.291H12.3867ZM13.4766 135.588V128.264C13.4766 127.736 13.6328 127.307 13.9453 126.975C14.2617 126.639 14.707 126.471 15.2812 126.471C15.4766 126.471 15.6426 126.488 15.7793 126.523C15.9199 126.555 16.0547 126.6 16.1836 126.658L15.8086 127.549C15.7383 127.494 15.6562 127.457 15.5625 127.438C15.4688 127.418 15.375 127.408 15.2812 127.408C15.0312 127.408 14.8359 127.492 14.6953 127.66C14.5547 127.828 14.4844 128.064 14.4844 128.369V135.588H13.4766ZM19.4009 135.682C18.8188 135.682 18.2993 135.545 17.8423 135.271C17.3891 134.998 17.0317 134.619 16.77 134.135C16.5083 133.646 16.3774 133.084 16.3774 132.447C16.3774 131.822 16.5083 131.273 16.77 130.801C17.0317 130.324 17.3891 129.953 17.8423 129.688C18.2993 129.418 18.8188 129.283 19.4009 129.283C19.9868 129.283 20.5063 129.418 20.9595 129.688C21.4165 129.953 21.7739 130.324 22.0317 130.801C22.2934 131.273 22.4243 131.822 22.4243 132.447C22.4243 133.084 22.2915 133.646 22.0259 134.135C21.7641 134.619 21.4048 134.998 20.9477 135.271C20.4946 135.545 19.979 135.682 19.4009 135.682ZM19.4009 134.744C19.7876 134.744 20.1313 134.648 20.4321 134.457C20.7329 134.266 20.9673 133.998 21.1352 133.654C21.3071 133.311 21.393 132.908 21.393 132.447C21.393 131.998 21.3071 131.607 21.1352 131.275C20.9673 130.939 20.7329 130.68 20.4321 130.496C20.1313 130.312 19.7876 130.221 19.4009 130.221C19.018 130.221 18.6762 130.312 18.3755 130.496C18.0747 130.68 17.8384 130.939 17.6665 131.275C17.4946 131.607 17.4087 131.998 17.4087 132.447C17.4087 132.908 17.4927 133.311 17.6606 133.654C17.8325 133.998 18.0669 134.266 18.3637 134.457C18.6645 134.648 19.0102 134.744 19.4009 134.744ZM23.7314 135.588V129.377H24.7392V130.326H24.9033L24.5634 130.713C24.6767 130.455 24.8291 130.219 25.0205 130.004C25.2158 129.785 25.4482 129.611 25.7177 129.482C25.9912 129.35 26.3017 129.283 26.6494 129.283C26.7861 129.283 26.913 129.293 27.0302 129.312C27.1513 129.328 27.2353 129.346 27.2822 129.365L26.872 130.338C26.8486 130.326 26.7959 130.316 26.7138 130.309C26.6318 130.297 26.54 130.291 26.4384 130.291C26.2587 130.291 26.0693 130.33 25.8701 130.408C25.6748 130.486 25.4912 130.6 25.3193 130.748C25.1474 130.896 25.0068 131.08 24.8974 131.299C24.792 131.514 24.7392 131.76 24.7392 132.037V135.588H23.7314ZM32.2519 135.588V134.627H34.1503C34.6777 134.627 35.0956 134.496 35.4042 134.234C35.7167 133.973 35.873 133.607 35.873 133.139C35.873 132.67 35.705 132.307 35.3691 132.049C35.037 131.791 34.58 131.662 33.998 131.662H32.1112V130.725H33.6698C33.9902 130.725 34.2675 130.662 34.5019 130.537C34.7402 130.412 34.9237 130.24 35.0527 130.021C35.1855 129.803 35.2519 129.553 35.2519 129.271C35.2519 128.826 35.1015 128.488 34.8007 128.258C34.5038 128.027 34.1034 127.912 33.5995 127.912H32.1112V126.951H33.5527C34.1112 126.951 34.5956 127.045 35.0058 127.232C35.4198 127.416 35.7402 127.672 35.9667 128C36.1933 128.328 36.3066 128.705 36.3066 129.131C36.3066 129.443 36.246 129.74 36.1249 130.021C36.0038 130.299 35.8417 130.541 35.6386 130.748C35.4355 130.955 35.2089 131.104 34.9589 131.193V130.936C35.3691 131.029 35.7206 131.18 36.0136 131.387C36.3105 131.59 36.537 131.844 36.6933 132.148C36.8495 132.449 36.9277 132.795 36.9277 133.186C36.9277 133.662 36.8105 134.082 36.5761 134.445C36.3417 134.805 36.0116 135.086 35.5859 135.289C35.1601 135.488 34.6581 135.588 34.08 135.588H32.2519ZM31.3144 135.588V126.951H32.3456V135.588H31.3144ZM41.059 135.682C40.477 135.682 39.9594 135.551 39.5063 135.289C39.057 135.023 38.7035 134.65 38.4457 134.17C38.1879 133.689 38.059 133.123 38.059 132.471C38.059 131.822 38.184 131.26 38.434 130.783C38.684 130.307 39.0238 129.938 39.4535 129.676C39.8871 129.414 40.3754 129.283 40.9184 129.283C41.4535 129.283 41.9262 129.406 42.3363 129.652C42.7465 129.895 43.0668 130.23 43.2973 130.66C43.5316 131.09 43.6488 131.58 43.6488 132.131C43.6488 132.299 43.6391 132.449 43.6195 132.582C43.6039 132.715 43.5902 132.814 43.5785 132.881H38.8207V132.061H42.6645C42.6645 131.725 42.5941 131.418 42.4535 131.141C42.3129 130.859 42.1117 130.637 41.85 130.473C41.5883 130.305 41.2777 130.221 40.9184 130.221C40.5512 130.221 40.227 130.314 39.9457 130.502C39.6645 130.689 39.4438 130.953 39.2836 131.293C39.1234 131.629 39.0434 132.021 39.0434 132.471C39.0434 132.924 39.1273 133.322 39.2953 133.666C39.4633 134.006 39.7016 134.271 40.0102 134.463C40.3188 134.65 40.684 134.744 41.1059 134.744C41.3559 134.744 41.5824 134.713 41.7855 134.65C41.9926 134.584 42.1742 134.504 42.3305 134.41C42.4906 134.312 42.6254 134.217 42.7348 134.123L43.1215 135.037C42.8832 135.213 42.5844 135.365 42.225 135.494C41.8695 135.619 41.4809 135.682 41.059 135.682ZM46.2919 135.682C45.9989 135.682 45.7587 135.621 45.5712 135.5C45.3876 135.375 45.2509 135.195 45.161 134.961C45.0712 134.723 45.0262 134.436 45.0262 134.1V126.564H46.0341V134.123C46.0341 134.201 46.0399 134.289 46.0516 134.387C46.0673 134.484 46.1063 134.568 46.1688 134.639C46.2313 134.709 46.3387 134.744 46.4911 134.744C46.538 134.744 46.5848 134.74 46.6317 134.732C46.6786 134.721 46.7255 134.709 46.7723 134.697V135.611C46.7137 135.635 46.6415 135.652 46.5555 135.664C46.4696 135.676 46.3817 135.682 46.2919 135.682ZM50.599 135.682C50.017 135.682 49.4994 135.551 49.0462 135.289C48.597 135.023 48.2435 134.65 47.9857 134.17C47.7279 133.689 47.599 133.123 47.599 132.471C47.599 131.822 47.724 131.26 47.974 130.783C48.224 130.307 48.5638 129.938 48.9935 129.676C49.4271 129.414 49.9154 129.283 50.4584 129.283C50.9935 129.283 51.4662 129.406 51.8763 129.652C52.2865 129.895 52.6068 130.23 52.8373 130.66C53.0716 131.09 53.1888 131.58 53.1888 132.131C53.1888 132.299 53.1791 132.449 53.1595 132.582C53.1439 132.715 53.1302 132.814 53.1185 132.881H48.3607V132.061H52.2045C52.2045 131.725 52.1341 131.418 51.9935 131.141C51.8529 130.859 51.6517 130.637 51.39 130.473C51.1283 130.305 50.8177 130.221 50.4584 130.221C50.0912 130.221 49.767 130.314 49.4857 130.502C49.2045 130.689 48.9837 130.953 48.8236 131.293C48.6634 131.629 48.5834 132.021 48.5834 132.471C48.5834 132.924 48.6673 133.322 48.8353 133.666C49.0033 134.006 49.2416 134.271 49.5502 134.463C49.8587 134.65 50.224 134.744 50.6459 134.744C50.8959 134.744 51.1224 134.713 51.3255 134.65C51.5326 134.584 51.7142 134.504 51.8705 134.41C52.0306 134.312 52.1654 134.217 52.2748 134.123L52.6615 135.037C52.4232 135.213 52.1244 135.365 51.765 135.494C51.4095 135.619 51.0209 135.682 50.599 135.682ZM56.1952 135.682C55.8123 135.682 55.4666 135.607 55.158 135.459C54.8495 135.311 54.6053 135.1 54.4256 134.826C54.2459 134.549 54.1561 134.217 54.1561 133.83C54.1561 133.42 54.2674 133.07 54.4901 132.781C54.7127 132.492 55.035 132.273 55.4569 132.125C55.8787 131.973 56.3905 131.896 56.992 131.896H58.2811V132.705H57.0623C56.4491 132.705 55.9745 132.803 55.6385 132.998C55.3065 133.193 55.1405 133.471 55.1405 133.83C55.1405 134.037 55.1932 134.215 55.2987 134.363C55.4041 134.508 55.5448 134.619 55.7205 134.697C55.9002 134.775 56.0975 134.814 56.3123 134.814C56.5702 134.814 56.8358 134.758 57.1092 134.645C57.3866 134.527 57.619 134.359 57.8065 134.141C57.9979 133.918 58.0936 133.646 58.0936 133.326V132.682L58.0702 132.318V131.627C58.0702 131.525 58.0623 131.396 58.0467 131.24C58.0311 131.08 57.9842 130.922 57.9061 130.766C57.8319 130.609 57.7049 130.479 57.5252 130.373C57.3455 130.264 57.0936 130.209 56.7694 130.209C56.578 130.209 56.3709 130.234 56.1483 130.285C55.9295 130.332 55.7147 130.398 55.5037 130.484C55.2967 130.57 55.1131 130.67 54.953 130.783L54.5662 129.881C54.7733 129.76 55.0037 129.654 55.2577 129.564C55.5155 129.471 55.7811 129.398 56.0545 129.348C56.3319 129.297 56.6014 129.271 56.8631 129.271C57.285 129.271 57.6346 129.334 57.912 129.459C58.1932 129.584 58.4159 129.756 58.5799 129.975C58.744 130.193 58.8592 130.443 58.9256 130.725C58.9959 131.002 59.0311 131.295 59.0311 131.604V133.783C59.0311 134.045 59.0584 134.252 59.1131 134.404C59.1717 134.557 59.2733 134.662 59.4178 134.721L59.535 134.768L59.1483 135.682L58.9842 135.611C58.7655 135.518 58.578 135.379 58.4217 135.195C58.2655 135.012 58.1873 134.83 58.1873 134.65L58.3866 134.721H57.9998L58.2577 134.557C58.1053 134.865 57.8455 135.131 57.4784 135.354C57.1151 135.572 56.6873 135.682 56.1952 135.682ZM60.1624 130.291V129.377H63.7952V130.291H60.1624ZM61.2523 135.588V128.264C61.2523 127.736 61.4085 127.307 61.721 126.975C62.0374 126.639 62.4827 126.471 63.057 126.471C63.2523 126.471 63.4183 126.488 63.555 126.523C63.6956 126.555 63.8304 126.6 63.9593 126.658L63.5843 127.549C63.514 127.494 63.432 127.457 63.3382 127.438C63.2445 127.418 63.1507 127.408 63.057 127.408C62.807 127.408 62.6116 127.492 62.471 127.66C62.3304 127.828 62.2601 128.064 62.2601 128.369V135.588H61.2523Z" fill="white"/>
<mask id="path-9-outside-1_1488_16397" maskUnits="userSpaceOnUse" x="12" y="12" width="78" height="30" fill="black">
<rect fill="white" x="12" y="12" width="78" height="30"/>
<path d="M13 19C13 15.6863 15.6863 13 19 13H83C86.3137 13 89 15.6863 89 19V35C89 38.3137 86.3137 41 83 41H19C15.6863 41 13 38.3137 13 35V19Z"/>
</mask>
<path d="M13 19C13 15.6863 15.6863 13 19 13H83C86.3137 13 89 15.6863 89 19V35C89 38.3137 86.3137 41 83 41H19C15.6863 41 13 38.3137 13 35V19Z" fill="#272B3A"/>
<path d="M19 13V14H83V13V12H19V13ZM89 19H88V35H89H90V19H89ZM83 41V40H19V41V42H83V41ZM13 35H14V19H13H12V35H13ZM19 41V40C16.2386 40 14 37.7614 14 35H13H12C12 38.866 15.134 42 19 42V41ZM89 35H88C88 37.7614 85.7614 40 83 40V41V42C86.866 42 90 38.866 90 35H89ZM83 13V14C85.7614 14 88 16.2386 88 19H89H90C90 15.134 86.866 12 83 12V13ZM19 13V12C15.134 12 12 15.134 12 19H13H14C14 16.2386 16.2386 14 19 14V13Z" fill="white" mask="url(#path-9-outside-1_1488_16397)"/>
<path d="M21.668 22.0469H23.1992L26.0771 29.7236L28.9482 22.0469H30.4795L26.6787 32H25.4619L21.668 22.0469ZM20.9707 22.0469H22.4268L22.6797 28.6914V32H20.9707V22.0469ZM29.7207 22.0469H31.1836V32H29.4678V28.6914L29.7207 22.0469ZM37.2266 30.5166V26.9893C37.2266 26.7249 37.1787 26.4971 37.083 26.3057C36.9873 26.1143 36.8415 25.9661 36.6455 25.8613C36.4541 25.7565 36.2126 25.7041 35.9209 25.7041C35.652 25.7041 35.4196 25.7497 35.2236 25.8408C35.0277 25.932 34.875 26.055 34.7656 26.21C34.6562 26.3649 34.6016 26.5404 34.6016 26.7363H32.9609C32.9609 26.4447 33.0316 26.1621 33.1729 25.8887C33.3141 25.6152 33.5192 25.3714 33.7881 25.1572C34.057 24.943 34.3783 24.7744 34.752 24.6514C35.1257 24.5283 35.5449 24.4668 36.0098 24.4668C36.5658 24.4668 37.0579 24.5602 37.4863 24.7471C37.9193 24.9339 38.2588 25.2165 38.5049 25.5947C38.7555 25.9684 38.8809 26.4378 38.8809 27.0029V30.291C38.8809 30.6283 38.9036 30.9313 38.9492 31.2002C38.9993 31.4645 39.07 31.6947 39.1611 31.8906V32H37.4727C37.3952 31.8223 37.3337 31.5967 37.2881 31.3232C37.2471 31.0452 37.2266 30.7764 37.2266 30.5166ZM37.4658 27.502L37.4795 28.5205H36.2969C35.9915 28.5205 35.7227 28.5501 35.4902 28.6094C35.2578 28.6641 35.0641 28.7461 34.9092 28.8555C34.7542 28.9648 34.638 29.097 34.5605 29.252C34.4831 29.4069 34.4443 29.5824 34.4443 29.7783C34.4443 29.9743 34.4899 30.1543 34.5811 30.3184C34.6722 30.4779 34.8044 30.6032 34.9775 30.6943C35.1553 30.7855 35.3695 30.8311 35.6201 30.8311C35.9574 30.8311 36.2513 30.7627 36.502 30.626C36.7572 30.4847 36.9577 30.3138 37.1035 30.1133C37.2493 29.9082 37.3268 29.7145 37.3359 29.5322L37.8691 30.2637C37.8145 30.4505 37.721 30.651 37.5889 30.8652C37.4567 31.0794 37.2835 31.2845 37.0693 31.4805C36.8597 31.6719 36.6068 31.8291 36.3105 31.9521C36.0189 32.0752 35.6816 32.1367 35.2988 32.1367C34.8158 32.1367 34.3851 32.041 34.0068 31.8496C33.6286 31.6536 33.3324 31.3916 33.1182 31.0635C32.904 30.7308 32.7969 30.3548 32.7969 29.9355C32.7969 29.5436 32.8698 29.1973 33.0156 28.8965C33.166 28.5911 33.3848 28.3359 33.6719 28.1309C33.9635 27.9258 34.319 27.7708 34.7383 27.666C35.1576 27.5566 35.6361 27.502 36.1738 27.502H37.4658ZM43.9941 24.6035V25.8066H39.8242V24.6035H43.9941ZM41.0273 22.792H42.6748V29.9561C42.6748 30.1839 42.7067 30.3594 42.7705 30.4824C42.8389 30.6009 42.9323 30.6807 43.0508 30.7217C43.1693 30.7627 43.3083 30.7832 43.4678 30.7832C43.5817 30.7832 43.6911 30.7764 43.7959 30.7627C43.9007 30.749 43.985 30.7354 44.0488 30.7217L44.0557 31.9795C43.9189 32.0205 43.7594 32.057 43.5771 32.0889C43.3994 32.1208 43.1943 32.1367 42.9619 32.1367C42.5837 32.1367 42.2487 32.0706 41.957 31.9385C41.6654 31.8018 41.4375 31.5807 41.2734 31.2754C41.1094 30.9701 41.0273 30.5645 41.0273 30.0586V22.792ZM48.5264 32.1367C47.9795 32.1367 47.485 32.0479 47.043 31.8701C46.6055 31.6878 46.2318 31.4349 45.9219 31.1113C45.6165 30.7878 45.3818 30.4072 45.2178 29.9697C45.0537 29.5322 44.9717 29.0605 44.9717 28.5547V28.2812C44.9717 27.7025 45.056 27.1784 45.2246 26.709C45.3932 26.2396 45.6279 25.8385 45.9287 25.5059C46.2295 25.1686 46.585 24.9111 46.9951 24.7334C47.4053 24.5557 47.8496 24.4668 48.3281 24.4668C48.8568 24.4668 49.3193 24.5557 49.7158 24.7334C50.1123 24.9111 50.4404 25.1618 50.7002 25.4854C50.9645 25.8044 51.1605 26.1849 51.2881 26.627C51.4202 27.069 51.4863 27.5566 51.4863 28.0898V28.7939H45.7715V27.6113H49.8594V27.4814C49.8503 27.1852 49.791 26.9072 49.6816 26.6475C49.5768 26.3877 49.415 26.1781 49.1963 26.0186C48.9775 25.859 48.6859 25.7793 48.3213 25.7793C48.0479 25.7793 47.804 25.8385 47.5898 25.957C47.3802 26.071 47.2048 26.2373 47.0635 26.4561C46.9222 26.6748 46.8128 26.9391 46.7354 27.249C46.6624 27.5544 46.626 27.8984 46.626 28.2812V28.5547C46.626 28.8783 46.6693 29.179 46.7559 29.457C46.847 29.7305 46.9792 29.9697 47.1523 30.1748C47.3255 30.3799 47.5352 30.5417 47.7812 30.6602C48.0273 30.7741 48.3076 30.8311 48.6221 30.8311C49.0186 30.8311 49.3717 30.7513 49.6816 30.5918C49.9915 30.4323 50.2604 30.2067 50.4883 29.915L51.3564 30.7559C51.1969 30.9883 50.9896 31.2116 50.7344 31.4258C50.4792 31.6354 50.167 31.8063 49.7979 31.9385C49.4333 32.0706 49.0094 32.1367 48.5264 32.1367ZM54.4258 26.0117V32H52.7783V24.6035H54.3506L54.4258 26.0117ZM56.6885 24.5557L56.6748 26.0869C56.5745 26.0687 56.4652 26.055 56.3467 26.0459C56.2327 26.0368 56.1188 26.0322 56.0049 26.0322C55.7223 26.0322 55.474 26.0732 55.2598 26.1553C55.0456 26.2327 54.8656 26.3467 54.7197 26.4971C54.5785 26.6429 54.4691 26.8206 54.3916 27.0303C54.3141 27.2399 54.2686 27.4746 54.2549 27.7344L53.8789 27.7617C53.8789 27.2969 53.9245 26.8662 54.0156 26.4697C54.1068 26.0732 54.2435 25.7246 54.4258 25.4238C54.6126 25.123 54.8451 24.8883 55.123 24.7197C55.4056 24.5511 55.7314 24.4668 56.1006 24.4668C56.2008 24.4668 56.3079 24.4759 56.4219 24.4941C56.5404 24.5124 56.6292 24.5329 56.6885 24.5557ZM59.4844 24.6035V32H57.8301V24.6035H59.4844ZM57.7207 22.6621C57.7207 22.4115 57.8027 22.2041 57.9668 22.04C58.1354 21.8714 58.3678 21.7871 58.6641 21.7871C58.9557 21.7871 59.1859 21.8714 59.3545 22.04C59.5231 22.2041 59.6074 22.4115 59.6074 22.6621C59.6074 22.9082 59.5231 23.1133 59.3545 23.2773C59.1859 23.4414 58.9557 23.5234 58.6641 23.5234C58.3678 23.5234 58.1354 23.4414 57.9668 23.2773C57.8027 23.1133 57.7207 22.9082 57.7207 22.6621ZM65.459 30.5166V26.9893C65.459 26.7249 65.4111 26.4971 65.3154 26.3057C65.2197 26.1143 65.0739 25.9661 64.8779 25.8613C64.6865 25.7565 64.445 25.7041 64.1533 25.7041C63.8844 25.7041 63.652 25.7497 63.4561 25.8408C63.2601 25.932 63.1074 26.055 62.998 26.21C62.8887 26.3649 62.834 26.5404 62.834 26.7363H61.1934C61.1934 26.4447 61.264 26.1621 61.4053 25.8887C61.5465 25.6152 61.7516 25.3714 62.0205 25.1572C62.2894 24.943 62.6107 24.7744 62.9844 24.6514C63.3581 24.5283 63.7773 24.4668 64.2422 24.4668C64.7982 24.4668 65.2904 24.5602 65.7188 24.7471C66.1517 24.9339 66.4912 25.2165 66.7373 25.5947C66.988 25.9684 67.1133 26.4378 67.1133 27.0029V30.291C67.1133 30.6283 67.1361 30.9313 67.1816 31.2002C67.2318 31.4645 67.3024 31.6947 67.3936 31.8906V32H65.7051C65.6276 31.8223 65.5661 31.5967 65.5205 31.3232C65.4795 31.0452 65.459 30.7764 65.459 30.5166ZM65.6982 27.502L65.7119 28.5205H64.5293C64.224 28.5205 63.9551 28.5501 63.7227 28.6094C63.4902 28.6641 63.2965 28.7461 63.1416 28.8555C62.9867 28.9648 62.8704 29.097 62.793 29.252C62.7155 29.4069 62.6768 29.5824 62.6768 29.7783C62.6768 29.9743 62.7223 30.1543 62.8135 30.3184C62.9046 30.4779 63.0368 30.6032 63.21 30.6943C63.3877 30.7855 63.6019 30.8311 63.8525 30.8311C64.1898 30.8311 64.4837 30.7627 64.7344 30.626C64.9896 30.4847 65.1901 30.3138 65.3359 30.1133C65.4818 29.9082 65.5592 29.7145 65.5684 29.5322L66.1016 30.2637C66.0469 30.4505 65.9535 30.651 65.8213 30.8652C65.6891 31.0794 65.516 31.2845 65.3018 31.4805C65.0921 31.6719 64.8392 31.8291 64.543 31.9521C64.2513 32.0752 63.9141 32.1367 63.5312 32.1367C63.0482 32.1367 62.6175 32.041 62.2393 31.8496C61.861 31.6536 61.5648 31.3916 61.3506 31.0635C61.1364 30.7308 61.0293 30.3548 61.0293 29.9355C61.0293 29.5436 61.1022 29.1973 61.248 28.8965C61.3984 28.5911 61.6172 28.3359 61.9043 28.1309C62.196 27.9258 62.5514 27.7708 62.9707 27.666C63.39 27.5566 63.8685 27.502 64.4062 27.502H65.6982ZM70.5996 21.5V32H68.9453V21.5H70.5996ZM77.7295 26.2783H78.7139C79.0967 26.2783 79.4134 26.2122 79.6641 26.0801C79.9193 25.9479 80.1084 25.7656 80.2314 25.5332C80.3545 25.3008 80.416 25.0342 80.416 24.7334C80.416 24.4189 80.359 24.1501 80.2451 23.9268C80.1357 23.6989 79.9671 23.5234 79.7393 23.4004C79.516 23.2773 79.2311 23.2158 78.8848 23.2158C78.5931 23.2158 78.3288 23.2751 78.0918 23.3936C77.8594 23.5075 77.6748 23.6715 77.5381 23.8857C77.4014 24.0954 77.333 24.346 77.333 24.6377H75.6787C75.6787 24.109 75.8177 23.6396 76.0957 23.2295C76.3737 22.8193 76.752 22.498 77.2305 22.2656C77.7135 22.0286 78.2559 21.9102 78.8574 21.9102C79.5 21.9102 80.0605 22.0173 80.5391 22.2314C81.0221 22.4411 81.3981 22.7555 81.667 23.1748C81.9359 23.5941 82.0703 24.1136 82.0703 24.7334C82.0703 25.016 82.0042 25.3031 81.8721 25.5947C81.7399 25.8864 81.5439 26.153 81.2842 26.3945C81.0244 26.6315 80.7008 26.8252 80.3135 26.9756C79.9261 27.1214 79.4772 27.1943 78.9668 27.1943H77.7295V26.2783ZM77.7295 27.5635V26.6611H78.9668C79.5501 26.6611 80.0469 26.7295 80.457 26.8662C80.8717 27.0029 81.209 27.1921 81.4688 27.4336C81.7285 27.6706 81.9176 27.9417 82.0361 28.2471C82.1592 28.5524 82.2207 28.876 82.2207 29.2178C82.2207 29.6826 82.1364 30.0973 81.9678 30.4619C81.8037 30.8219 81.569 31.1273 81.2637 31.3779C80.9583 31.6286 80.6006 31.8177 80.1904 31.9453C79.7848 32.0729 79.3428 32.1367 78.8643 32.1367C78.4359 32.1367 78.0257 32.0775 77.6338 31.959C77.2419 31.8405 76.891 31.665 76.5811 31.4326C76.2712 31.1956 76.0251 30.9017 75.8428 30.5508C75.665 30.1953 75.5762 29.7852 75.5762 29.3203H77.2236C77.2236 29.6165 77.292 29.8786 77.4287 30.1064C77.57 30.3298 77.766 30.5052 78.0166 30.6328C78.2718 30.7604 78.5635 30.8242 78.8916 30.8242C79.238 30.8242 79.5365 30.7627 79.7871 30.6396C80.0378 30.5166 80.2292 30.3343 80.3613 30.0928C80.498 29.8512 80.5664 29.5596 80.5664 29.2178C80.5664 28.8304 80.4912 28.516 80.3408 28.2744C80.1904 28.0329 79.9762 27.8551 79.6982 27.7412C79.4202 27.6227 79.0921 27.5635 78.7139 27.5635H77.7295Z" fill="white"/>
</g>
<defs>
<linearGradient id="paint0_linear_1488_16397" x1="381" y1="209.065" x2="-22.5651" y2="31.9222" gradientUnits="userSpaceOnUse">
<stop stop-color="#65CDBA"/>
<stop offset="0.407004" stop-color="#6C79C6"/>
<stop offset="1" stop-color="#D55D97"/>
</linearGradient>
<linearGradient id="paint1_linear_1488_16397" x1="190.5" y1="30.1719" x2="190.5" y2="182.853" gradientUnits="userSpaceOnUse">
<stop stop-color="#49438E"/>
<stop offset="1" stop-color="#2A2567"/>
</linearGradient>
<linearGradient id="paint2_linear_1488_16397" x1="170.793" y1="32.7662" x2="210.31" y2="180.245" gradientUnits="userSpaceOnUse">
<stop stop-color="#49438E"/>
<stop offset="1" stop-color="#2A2567"/>
</linearGradient>
<clipPath id="clip0_1488_16397">
<path d="M0 12C0 5.37259 5.37258 0 12 0H369C375.627 0 381 5.37258 381 12V200C381 206.627 375.627 212 369 212H12C5.37258 212 0 206.627 0 200V12Z" fill="white"/>
</clipPath>
<clipPath id="clip1_1488_16397">
<path d="M0 12.1563C0 5.52884 5.37258 0.15625 12 0.15625H369C375.627 0.15625 381 5.52883 381 12.1563V200.156C381 206.784 375.627 212.156 369 212.156H12C5.37258 212.156 0 206.784 0 200.156V12.1563Z" fill="white"/>
</clipPath>
</defs>
</svg>
