<svg width="1200" height="630" viewBox="0 0 1200 630" fill="none" xmlns="http://www.w3.org/2000/svg">
<g clip-path="url(#clip0_1482_32857)">
<rect width="1200" height="630" fill="#292D3D"/>
<path opacity="0.6" d="M62.9189 255.71C-66.0372 164.695 -48.4973 145.547 -89.2886 18.8102C-130.08 -107.927 -235.154 -95.5376 -279.758 -192.538C-324.363 -289.538 -295.516 -365.606 -302.965 -425.609C-316.221 -532.383 -303.251 -632.056 -303.251 -632.056C-329.292 -510.083 -516.972 521.544 -498.882 522.643C-476.269 524.017 -423.447 523.826 -412.049 651.23C-400.65 778.634 -233.308 822.998 -159.091 780.4C-84.8737 737.802 32.8945 781.146 49.8067 892.353C68.3088 1014.02 110.502 1060.93 344.549 1078.59C578.596 1096.25 727.796 1222.34 769.454 1318.56C811.111 1414.77 785.206 1214.33 685.107 1094.64C634.875 1040.58 559.629 987.484 522.538 966.864C423.25 911.667 376.442 931.341 396.07 801.473C402.498 758.937 424.282 649.728 290.233 597.059C186.648 556.36 153.971 486.745 153.963 421.689C153.952 332.187 116.468 293.505 62.9189 255.71Z" fill="#6C63DA"/>
<path d="M-374.156 -259.587C-439.138 -476.731 -662.484 -427.516 -684.376 -589.21C-706.267 -750.904 -710.394 -385.771 -710.394 -385.771C-750.015 -267.51 -785.691 60.2811 -767.84 63.412C-745.527 67.3257 -693.02 73.0887 -696.052 200.966C-699.085 328.843 -569.933 418.362 -464.897 383.16C-340.262 341.39 -231.979 405.398 -227.708 517.803C-223.036 640.776 -118.678 738.982 7.56209 710.871C133.802 682.76 259.191 621.467 354.727 726.204C450.262 830.941 607.829 1013.91 607.829 1013.91C656.976 844.666 464.987 875.549 364.493 676.025C264 476.5 174.208 553.5 122.999 483.5C71.7912 413.5 134.765 384.612 108.207 277.283C77.1603 151.808 -97.5032 201.855 -91.8485 73.5962C-80.2383 -189.743 -327.566 -103.901 -374.156 -259.587Z" stroke="#938CE3" stroke-width="2.02065" stroke-dasharray="10.78 13.47"/>
<ellipse cx="1021.19" cy="488.028" rx="91.7077" ry="91.7077" transform="rotate(22.9318 1021.19 488.028)" fill="#F3A0C9"/>
<g opacity="0.6" filter="url(#filter0_f_1482_32857)">
<path fill-rule="evenodd" clip-rule="evenodd" d="M1097.49 449.482C1101.07 462.547 1091.52 474.838 1087.03 487.544C1082.81 499.511 1082.46 514.39 1072.06 521.496C1061.74 528.551 1047.99 522.889 1035.48 522.768C1023.29 522.651 1010.93 526.013 999.844 520.799C987.43 514.961 971.513 506.297 971.112 492.501C970.684 477.779 990.857 472.083 998.058 459.346C1002.85 450.867 999.285 439.209 1005.48 431.718C1012.46 423.263 1022.77 418.133 1033.56 416.392C1045.58 414.454 1058.03 415.854 1068.92 421.49C1081.01 427.748 1093.86 436.263 1097.49 449.482Z" fill="#ED6EAD"/>
</g>
<path opacity="0.3" fill-rule="evenodd" clip-rule="evenodd" d="M1002.67 423.938C1007.19 423.762 1010.8 419.396 1015.28 419.94C1020.6 420.586 1026.39 422.616 1029.12 427.149C1031.86 431.709 1031.26 437.878 1028.96 442.7C1026.93 446.972 1021.42 447.971 1017.76 451.015C1014.71 453.544 1013.12 457.715 1009.36 458.98C1005.35 460.328 1001.14 458.929 997.024 457.978C991.758 456.76 985.665 456.721 982.143 452.688C978.398 448.399 977.72 442.189 978.305 436.541C978.902 430.788 980.209 423.797 985.416 421.104C990.727 418.357 996.692 424.171 1002.67 423.938Z" fill="#F9D2E5"/>
<path opacity="0.8" fill-rule="evenodd" clip-rule="evenodd" d="M1054.42 488.8C1061.67 492.402 1063.34 501.582 1067.22 508.657C1070.87 515.321 1077.37 521.405 1076.39 528.897C1075.42 536.336 1067.42 540.238 1062.37 545.796C1057.46 551.21 1054.03 558.086 1047.29 560.976C1039.73 564.211 1029.52 567.888 1023.21 562.568C1016.47 556.892 1021.98 545.583 1019.17 537.28C1017.3 531.752 1010.68 528.704 1009.8 522.944C1008.82 516.442 1010.64 509.781 1014.17 504.252C1018.1 498.094 1023.68 493.075 1030.54 490.444C1038.15 487.521 1047.08 485.155 1054.42 488.8Z" fill="#ED6EAD"/>
<circle cx="71.8614" cy="38.6397" r="130.049" transform="rotate(158.519 71.8614 38.6397)" fill="#B9B5ED"/>
<circle cx="71.8614" cy="38.6397" r="130.049" transform="rotate(158.519 71.8614 38.6397)" fill="#B9B5ED"/>
<g opacity="0.6" filter="url(#filter1_f_1482_32857)">
<path fill-rule="evenodd" clip-rule="evenodd" d="M32.8309 153.403C16.2359 143.725 13.7178 121.792 5.65301 104.469C-1.94347 88.1524 -16.3613 72.7412 -12.8787 55.2219C-9.42091 37.8276 10.1223 29.9213 22.9163 17.6264C35.3798 5.6491 44.56 -10.02 60.9663 -15.7423C79.3349 -22.1491 104.056 -29.1685 118.154 -15.5915C133.198 -1.10345 118.416 24.686 123.762 44.7335C127.321 58.0805 142.504 66.3492 143.667 80.0812C144.979 95.5815 139.633 111.003 130.428 123.477C120.175 137.369 106.177 148.304 89.5565 153.4C71.0973 159.06 49.6219 163.195 32.8309 153.403Z" fill="#938CE3"/>
</g>
<path opacity="0.3" fill-rule="evenodd" clip-rule="evenodd" d="M154.225 85.1818C149.826 89.8408 150.501 97.8473 145.423 101.743C139.395 106.366 131.511 110.06 124.252 108.172C116.949 106.274 111.437 99.4284 108.976 92.2667C106.795 85.9212 111.379 79.4468 112.071 72.7275C112.646 67.1415 110.116 61.3395 112.676 56.3196C115.403 50.9736 121.054 48.2137 126.165 45.0949C132.707 41.1026 138.919 35.0954 146.489 35.6857C154.538 36.3134 161.388 41.9308 166.4 48.2326C171.505 54.6522 177.119 63.0315 174.517 70.927C171.864 78.9799 160.051 79.0108 154.225 85.1818Z" fill="#ECEAFA"/>
<path opacity="0.8" fill-rule="evenodd" clip-rule="evenodd" d="M37.44 70.8333C26.5157 74.3846 15.7121 66.7434 4.76341 63.425C-5.54951 60.2994 -18.1703 60.5856 -24.615 52.0258C-31.0136 43.5271 -26.7755 31.629 -27.1825 20.9944C-27.579 10.6345 -30.9311 0.266905 -26.9643 -9.35561C-22.5231 -20.1291 -15.8295 -33.9877 -4.15571 -34.8639C8.3015 -35.7989 13.9489 -18.8816 25.0342 -13.2586C32.4145 -9.51493 42.1475 -12.9982 48.7467 -8.02903C56.1957 -2.42003 60.9622 6.13425 62.876 15.2358C65.0075 25.3726 64.3279 36.002 59.9962 45.4702C55.1853 55.9858 48.4933 67.2402 37.44 70.8333Z" fill="#938CE3"/>
<path d="M362.868 229.305V251.121L365.028 251.049C366.804 251.001 368.172 250.761 369.132 250.329C370.14 249.849 371.124 249.009 372.084 247.809C373.428 246.225 375.012 243.801 376.836 240.537C377.748 238.857 379.596 235.113 382.38 229.305H389.436C388.476 230.985 387.06 233.673 385.188 237.369C383.604 240.393 382.452 242.577 381.732 243.921L380.796 245.505C379.884 247.137 378.972 248.601 378.06 249.897C377.964 250.041 377.556 250.593 376.836 251.553C376.116 252.465 375.396 253.209 374.676 253.785L387.492 272.145C387.924 272.721 388.284 273.129 388.572 273.369C388.86 273.561 389.172 273.657 389.508 273.657C389.844 273.657 390.132 273.609 390.372 273.513C390.612 273.369 390.852 273.201 391.092 273.009L393.756 277.257C392.604 278.409 391.164 278.985 389.436 278.985C386.988 278.985 384.996 278.001 383.46 276.033L369.42 256.233C367.692 256.713 365.556 256.953 363.012 256.953V278.697H356.964V229.305H362.868ZM411.491 279.417C406.211 279.417 401.555 277.401 397.523 273.369L400.907 269.409C402.731 270.993 404.459 272.169 406.091 272.937C407.723 273.657 409.451 274.017 411.275 274.017C413.627 274.017 415.475 273.513 416.819 272.505C418.211 271.449 418.907 270.009 418.907 268.185C418.907 267.081 418.619 266.193 418.043 265.521C417.515 264.849 416.723 264.273 415.667 263.793C414.659 263.265 412.955 262.521 410.555 261.561C407.915 260.505 405.851 259.593 404.363 258.825C402.923 258.009 401.771 257.001 400.907 255.801C400.043 254.553 399.611 253.017 399.611 251.193C399.611 248.217 400.667 245.817 402.779 243.993C404.891 242.169 407.627 241.257 410.987 241.257C412.955 241.257 414.923 241.593 416.891 242.265C418.907 242.889 420.491 243.705 421.643 244.713L419.123 248.961C416.963 247.377 414.443 246.585 411.563 246.585C409.739 246.585 408.275 246.969 407.171 247.737C406.115 248.457 405.587 249.465 405.587 250.761C405.587 252.105 406.115 253.161 407.171 253.929C408.275 254.649 410.147 255.537 412.787 256.593C415.763 257.793 418.091 258.873 419.771 259.833C421.451 260.793 422.723 261.921 423.587 263.217C424.451 264.465 424.883 266.049 424.883 267.969C424.883 271.377 423.635 274.137 421.139 276.249C418.643 278.361 415.427 279.417 411.491 279.417ZM436.387 262.785C436.531 265.761 437.323 268.401 438.763 270.705C440.251 273.009 442.963 274.161 446.899 274.161C448.963 274.161 450.883 273.849 452.659 273.225C454.435 272.553 456.307 271.545 458.275 270.201L461.011 274.665C459.235 276.105 457.051 277.281 454.459 278.193C451.867 279.057 449.251 279.489 446.611 279.489C443.251 279.489 440.347 278.721 437.899 277.185C435.451 275.601 433.579 273.465 432.283 270.777C430.987 268.041 430.339 264.945 430.339 261.489C430.339 258.033 430.963 254.769 432.211 251.697C433.507 248.625 435.379 246.153 437.827 244.281C440.323 242.409 443.275 241.473 446.683 241.473C449.467 241.473 452.011 242.145 454.315 243.489C456.619 244.833 458.443 246.705 459.787 249.105C461.131 251.457 461.803 254.073 461.803 256.953C461.803 258.153 461.707 260.097 461.515 262.785H436.387ZM455.971 257.457V256.737C455.971 254.865 455.539 253.185 454.675 251.697C453.859 250.161 452.731 248.961 451.291 248.097C449.899 247.233 448.339 246.801 446.611 246.801C444.163 246.801 442.027 247.713 440.203 249.537C438.427 251.361 437.251 254.001 436.675 257.457H455.971ZM470.588 253.209C470.588 251.529 470.348 250.017 469.868 248.673C469.436 247.329 468.596 246.105 467.348 245.001L471.164 241.401C473.132 242.553 474.596 244.473 475.556 247.161C478.676 243.417 482.588 241.545 487.292 241.545C491.084 241.545 494.084 242.577 496.292 244.641C498.548 246.705 499.676 249.705 499.676 253.641V278.769L493.772 278.841V254.433C493.772 252.081 493.268 250.233 492.26 248.889C491.252 247.545 489.476 246.873 486.932 246.873C484.724 246.873 482.852 247.401 481.316 248.457C479.828 249.465 478.22 251.121 476.492 253.425V278.769H470.588V253.209ZM509.774 242.625L515.678 242.697V278.769L509.774 278.697V242.625ZM512.582 235.641C511.622 235.641 510.758 235.257 509.99 234.489C509.222 233.721 508.838 232.857 508.838 231.897C508.838 230.889 509.222 230.001 509.99 229.233C510.758 228.465 511.622 228.081 512.582 228.081C513.59 228.081 514.478 228.465 515.246 229.233C516.062 230.001 516.47 230.889 516.47 231.897C516.47 232.857 516.062 233.721 515.246 234.489C514.478 235.257 513.59 235.641 512.582 235.641ZM551.092 279.633C549.268 278.385 547.972 276.849 547.204 275.025C546.1 276.417 544.612 277.497 542.74 278.265C540.916 279.033 538.852 279.417 536.548 279.417C532.612 279.417 529.444 278.337 527.044 276.177C524.692 274.017 523.516 271.161 523.516 267.609C523.516 263.865 524.932 260.961 527.764 258.897C530.596 256.785 534.556 255.729 539.644 255.729H545.908V254.217C545.908 251.481 545.404 249.561 544.396 248.457C543.436 247.305 541.78 246.729 539.428 246.729C537.412 246.729 535.42 247.089 533.452 247.809C531.532 248.529 529.756 249.561 528.124 250.905L525.244 246.513C526.972 244.929 529.108 243.681 531.652 242.769C534.196 241.857 536.812 241.401 539.5 241.401C543.484 241.401 546.532 242.433 548.644 244.497C550.756 246.561 551.812 249.537 551.812 253.425V267.753C551.812 271.545 552.844 274.305 554.908 276.033L551.092 279.633ZM536.62 274.089C539.404 274.089 541.636 273.297 543.316 271.713C545.044 270.081 545.908 267.993 545.908 265.449V261.057H539.644C536.044 261.057 533.428 261.585 531.796 262.641C530.212 263.649 529.42 265.281 529.42 267.537C529.42 269.601 530.044 271.209 531.292 272.361C532.588 273.513 534.364 274.089 536.62 274.089ZM590.548 229.305V251.121L592.708 251.049C594.484 251.001 595.852 250.761 596.812 250.329C597.82 249.849 598.804 249.009 599.764 247.809C601.108 246.225 602.692 243.801 604.516 240.537C605.428 238.857 607.276 235.113 610.06 229.305H617.116C616.156 230.985 614.74 233.673 612.868 237.369C611.284 240.393 610.132 242.577 609.412 243.921L608.476 245.505C607.564 247.137 606.652 248.601 605.74 249.897C605.644 250.041 605.236 250.593 604.516 251.553C603.796 252.465 603.076 253.209 602.356 253.785L615.172 272.145C615.604 272.721 615.964 273.129 616.252 273.369C616.54 273.561 616.852 273.657 617.188 273.657C617.524 273.657 617.812 273.609 618.052 273.513C618.292 273.369 618.532 273.201 618.772 273.009L621.436 277.257C620.284 278.409 618.844 278.985 617.116 278.985C614.668 278.985 612.676 278.001 611.14 276.033L597.1 256.233C595.372 256.713 593.236 256.953 590.692 256.953V278.697H584.644V229.305H590.548ZM639.346 279.417C635.938 279.417 632.866 278.601 630.13 276.969C627.442 275.337 625.33 273.105 623.794 270.273C622.258 267.393 621.49 264.153 621.49 260.553C621.49 256.953 622.258 253.713 623.794 250.833C625.378 247.905 627.514 245.625 630.202 243.993C632.938 242.313 636.01 241.473 639.418 241.473C642.826 241.473 645.874 242.289 648.562 243.921C651.298 245.553 653.434 247.833 654.97 250.761C656.506 253.641 657.274 256.881 657.274 260.481C657.274 264.081 656.506 267.321 654.97 270.201C653.434 273.081 651.298 275.337 648.562 276.969C645.826 278.601 642.754 279.417 639.346 279.417ZM639.418 274.089C643.018 274.089 645.898 272.841 648.058 270.345C650.266 267.849 651.37 264.561 651.37 260.481C651.37 256.353 650.266 253.041 648.058 250.545C645.898 248.049 643.018 246.801 639.418 246.801C637.066 246.801 634.978 247.377 633.154 248.529C631.33 249.681 629.914 251.289 628.906 253.353C627.898 255.417 627.394 257.793 627.394 260.481C627.394 264.561 628.498 267.849 630.706 270.345C632.914 272.841 635.818 274.089 639.418 274.089ZM664.978 253.209C664.978 251.529 664.738 250.017 664.258 248.673C663.826 247.329 662.986 246.105 661.738 245.001L665.554 241.401C667.522 242.553 668.986 244.473 669.946 247.161C673.066 243.417 676.978 241.545 681.682 241.545C685.474 241.545 688.474 242.577 690.682 244.641C692.938 246.705 694.066 249.705 694.066 253.641V278.769L688.162 278.841V254.433C688.162 252.081 687.658 250.233 686.65 248.889C685.642 247.545 683.866 246.873 681.322 246.873C679.114 246.873 677.242 247.401 675.706 248.457C674.218 249.465 672.61 251.121 670.882 253.425V278.769H664.978V253.209ZM704.525 253.209C704.525 251.529 704.285 250.017 703.805 248.673C703.373 247.329 702.533 246.105 701.285 245.001L705.101 241.401C707.069 242.553 708.533 244.473 709.493 247.161C712.613 243.417 716.525 241.545 721.229 241.545C725.021 241.545 728.021 242.577 730.229 244.641C732.485 246.705 733.613 249.705 733.613 253.641V278.769L727.709 278.841V254.433C727.709 252.081 727.205 250.233 726.197 248.889C725.189 247.545 723.413 246.873 720.869 246.873C718.661 246.873 716.789 247.401 715.253 248.457C713.765 249.465 712.157 251.121 710.429 253.425V278.769H704.525V253.209ZM758.76 279.417C755.352 279.417 752.28 278.601 749.544 276.969C746.856 275.337 744.744 273.105 743.208 270.273C741.672 267.393 740.904 264.153 740.904 260.553C740.904 256.953 741.672 253.713 743.208 250.833C744.792 247.905 746.928 245.625 749.616 243.993C752.352 242.313 755.424 241.473 758.832 241.473C762.24 241.473 765.288 242.289 767.976 243.921C770.712 245.553 772.848 247.833 774.384 250.761C775.92 253.641 776.688 256.881 776.688 260.481C776.688 264.081 775.92 267.321 774.384 270.201C772.848 273.081 770.712 275.337 767.976 276.969C765.24 278.601 762.168 279.417 758.76 279.417ZM758.832 274.089C762.432 274.089 765.312 272.841 767.472 270.345C769.68 267.849 770.784 264.561 770.784 260.481C770.784 256.353 769.68 253.041 767.472 250.545C765.312 248.049 762.432 246.801 758.832 246.801C756.48 246.801 754.392 247.377 752.568 248.529C750.744 249.681 749.328 251.289 748.32 253.353C747.312 255.417 746.808 257.793 746.808 260.481C746.808 264.561 747.912 267.849 750.12 270.345C752.328 272.841 755.232 274.089 758.832 274.089ZM784.017 249.249C783.633 248.385 783.057 247.593 782.289 246.873C781.521 246.105 780.753 245.625 779.985 245.433L783.153 240.609C786.129 242.289 788.361 245.121 789.849 249.105L797.769 270.057L807.921 242.121H813.825L800.433 278.769H795.177L784.017 249.249ZM844.194 279.633C842.37 278.385 841.074 276.849 840.306 275.025C839.202 276.417 837.714 277.497 835.842 278.265C834.018 279.033 831.954 279.417 829.65 279.417C825.714 279.417 822.546 278.337 820.146 276.177C817.794 274.017 816.618 271.161 816.618 267.609C816.618 263.865 818.034 260.961 820.866 258.897C823.698 256.785 827.658 255.729 832.746 255.729H839.01V254.217C839.01 251.481 838.506 249.561 837.498 248.457C836.538 247.305 834.882 246.729 832.53 246.729C830.514 246.729 828.522 247.089 826.554 247.809C824.634 248.529 822.858 249.561 821.226 250.905L818.346 246.513C820.074 244.929 822.21 243.681 824.754 242.769C827.298 241.857 829.914 241.401 832.602 241.401C836.586 241.401 839.634 242.433 841.746 244.497C843.858 246.561 844.914 249.537 844.914 253.425V267.753C844.914 271.545 845.946 274.305 848.01 276.033L844.194 279.633ZM829.722 274.089C832.506 274.089 834.738 273.297 836.418 271.713C838.146 270.081 839.01 267.993 839.01 265.449V261.057H832.746C829.146 261.057 826.53 261.585 824.898 262.641C823.314 263.649 822.522 265.281 822.522 267.537C822.522 269.601 823.146 271.209 824.394 272.361C825.69 273.513 827.466 274.089 829.722 274.089Z" fill="#D11A75"/>
<path d="M295.212 358.017C293.484 358.017 291.97 357.633 290.668 356.865C289.367 356.076 288.364 354.999 287.66 353.633C286.956 352.268 286.604 350.743 286.604 349.057V335.745H289.228V349.057C289.228 350.38 289.484 351.543 289.996 352.545C290.508 353.548 291.212 354.327 292.108 354.881C293.026 355.415 294.082 355.681 295.276 355.681C297.111 355.681 298.572 355.073 299.66 353.857C300.77 352.641 301.324 351.041 301.324 349.057V335.745H303.948V349.057C303.948 350.828 303.575 352.396 302.828 353.761C302.082 355.105 301.047 356.151 299.724 356.897C298.402 357.644 296.898 358.017 295.212 358.017ZM323.796 357.825C323.071 357.825 322.452 357.655 321.94 357.313C321.45 356.972 320.927 356.375 320.372 355.521L315.892 348.545L310.612 357.729H307.54L314.26 346.145L307.476 335.745H310.484L315.924 344.065L321.332 335.745H324.436L317.556 346.433L322.868 354.817C323.018 355.052 323.178 355.223 323.348 355.329C323.54 355.436 323.711 355.489 323.86 355.489C324.202 355.489 324.479 355.425 324.692 355.297L325.492 357.345C325.279 357.473 325.002 357.591 324.66 357.697C324.319 357.783 324.031 357.825 323.796 357.825ZM333.718 333.697H336.438L329.494 359.873H326.71L333.718 333.697ZM347.9 358.017C346.172 358.017 344.657 357.633 343.356 356.865C342.055 356.076 341.052 354.999 340.348 353.633C339.644 352.268 339.292 350.743 339.292 349.057V335.745H341.916V349.057C341.916 350.38 342.172 351.543 342.684 352.545C343.196 353.548 343.9 354.327 344.796 354.881C345.713 355.415 346.769 355.681 347.964 355.681C349.799 355.681 351.26 355.073 352.348 353.857C353.457 352.641 354.012 351.041 354.012 349.057V335.745H356.636V349.057C356.636 350.828 356.263 352.396 355.516 353.761C354.769 355.105 353.735 356.151 352.412 356.897C351.089 357.644 349.585 358.017 347.9 358.017ZM362.116 335.745H364.74V357.729H362.116V335.745ZM388.285 335.585C390.269 335.713 392.029 336.268 393.565 337.249C395.122 338.231 396.327 339.553 397.181 341.217C398.034 342.86 398.461 344.705 398.461 346.753C398.461 348.929 397.981 350.871 397.021 352.577C396.082 354.284 394.77 355.617 393.085 356.577C391.399 357.537 389.479 358.017 387.325 358.017H385.725C385.554 358.017 385.181 358.017 384.605 358.017C384.029 358.017 383.005 357.953 381.533 357.825L379.741 357.665V335.553L388.285 335.585ZM386.301 355.617C389.373 355.617 391.73 354.86 393.373 353.345C395.015 351.831 395.837 349.665 395.837 346.849C395.837 344.204 395.133 342.103 393.725 340.545C392.338 338.988 390.407 338.145 387.933 338.017H382.365V355.457C383.815 355.564 385.127 355.617 386.301 355.617ZM403.918 350.625C403.982 351.948 404.334 353.121 404.974 354.145C405.635 355.169 406.841 355.681 408.59 355.681C409.507 355.681 410.361 355.543 411.15 355.265C411.939 354.967 412.771 354.519 413.646 353.921L414.862 355.905C414.073 356.545 413.102 357.068 411.95 357.473C410.798 357.857 409.635 358.049 408.462 358.049C406.969 358.049 405.678 357.708 404.59 357.025C403.502 356.321 402.67 355.372 402.094 354.177C401.518 352.961 401.23 351.585 401.23 350.049C401.23 348.513 401.507 347.063 402.062 345.697C402.638 344.332 403.47 343.233 404.558 342.401C405.667 341.569 406.979 341.153 408.494 341.153C409.731 341.153 410.862 341.452 411.886 342.049C412.91 342.647 413.721 343.479 414.318 344.545C414.915 345.591 415.214 346.753 415.214 348.033C415.214 348.567 415.171 349.431 415.086 350.625H403.918ZM412.622 348.257V347.937C412.622 347.105 412.43 346.359 412.046 345.697C411.683 345.015 411.182 344.481 410.542 344.097C409.923 343.713 409.23 343.521 408.462 343.521C407.374 343.521 406.425 343.927 405.614 344.737C404.825 345.548 404.302 346.721 404.046 348.257H412.622ZM423.523 358.017C421.177 358.017 419.107 357.121 417.315 355.329L418.819 353.569C419.63 354.273 420.398 354.796 421.123 355.137C421.849 355.457 422.617 355.617 423.427 355.617C424.473 355.617 425.294 355.393 425.891 354.945C426.51 354.476 426.819 353.836 426.819 353.025C426.819 352.535 426.691 352.14 426.435 351.841C426.201 351.543 425.849 351.287 425.379 351.073C424.931 350.839 424.174 350.508 423.107 350.081C421.934 349.612 421.017 349.207 420.355 348.865C419.715 348.503 419.203 348.055 418.819 347.521C418.435 346.967 418.243 346.284 418.243 345.473C418.243 344.151 418.713 343.084 419.651 342.273C420.59 341.463 421.806 341.057 423.299 341.057C424.174 341.057 425.049 341.207 425.923 341.505C426.819 341.783 427.523 342.145 428.035 342.593L426.915 344.481C425.955 343.777 424.835 343.425 423.555 343.425C422.745 343.425 422.094 343.596 421.603 343.937C421.134 344.257 420.899 344.705 420.899 345.281C420.899 345.879 421.134 346.348 421.603 346.689C422.094 347.009 422.926 347.404 424.099 347.873C425.422 348.407 426.457 348.887 427.203 349.313C427.95 349.74 428.515 350.241 428.899 350.817C429.283 351.372 429.475 352.076 429.475 352.929C429.475 354.444 428.921 355.671 427.811 356.609C426.702 357.548 425.273 358.017 423.523 358.017ZM432.601 341.665L435.225 341.697V357.729L432.601 357.697V341.665ZM433.849 338.561C433.422 338.561 433.038 338.391 432.697 338.049C432.355 337.708 432.185 337.324 432.185 336.897C432.185 336.449 432.355 336.055 432.697 335.713C433.038 335.372 433.422 335.201 433.849 335.201C434.297 335.201 434.691 335.372 435.033 335.713C435.395 336.055 435.577 336.449 435.577 336.897C435.577 337.324 435.395 337.708 435.033 338.049C434.691 338.391 434.297 338.561 433.849 338.561ZM446.985 366.209C441.972 366.209 439.465 364.076 439.465 359.809C439.465 359.233 439.497 358.657 439.561 358.081C439.647 357.505 439.7 357.132 439.721 356.961C439.316 356.599 438.975 356.151 438.697 355.617C438.441 355.063 438.313 354.497 438.313 353.921C438.313 353.217 438.516 352.513 438.921 351.809C439.327 351.084 439.892 350.583 440.617 350.305C440.916 350.177 441.353 350.113 441.929 350.113C441.353 349.26 441.065 348.236 441.065 347.041C441.065 345.847 441.343 344.801 441.897 343.905C442.473 342.988 443.231 342.284 444.169 341.793C445.129 341.303 446.164 341.057 447.273 341.057C448.084 341.057 448.831 341.196 449.513 341.473H454.953V343.937L452.649 343.809C453.247 344.748 453.545 345.804 453.545 346.977C453.545 348.151 453.268 349.185 452.713 350.081C452.159 350.956 451.401 351.628 450.441 352.097C449.503 352.567 448.447 352.801 447.273 352.801C446.121 352.801 445.087 352.588 444.169 352.161C443.743 352.119 443.369 352.097 443.049 352.097C442.665 352.097 442.356 352.129 442.121 352.193C441.823 352.279 441.535 352.46 441.257 352.737C441.001 353.015 440.873 353.377 440.873 353.825C440.873 354.359 441.076 354.732 441.481 354.945C441.908 355.137 442.516 355.233 443.305 355.233L445.481 355.169L448.041 355.105C450.239 355.105 451.999 355.553 453.321 356.449C454.644 357.324 455.305 358.657 455.305 360.449C455.305 362.455 454.495 363.916 452.873 364.833C451.252 365.751 449.289 366.209 446.985 366.209ZM447.337 350.433C448.489 350.433 449.385 350.113 450.025 349.473C450.665 348.812 450.985 347.991 450.985 347.009C450.985 345.964 450.633 345.111 449.929 344.449C449.225 343.767 448.329 343.425 447.241 343.425C446.132 343.425 445.247 343.767 444.585 344.449C443.945 345.111 443.625 345.964 443.625 347.009C443.625 348.076 443.967 348.919 444.649 349.537C445.353 350.135 446.249 350.433 447.337 350.433ZM447.017 363.873C448.724 363.873 450.1 363.596 451.145 363.041C452.212 362.487 452.745 361.633 452.745 360.481C452.745 359.244 452.201 358.433 451.113 358.049C450.047 357.665 448.777 357.473 447.305 357.473C446.772 357.473 446.377 357.484 446.121 357.505C445.887 357.505 445.556 357.516 445.129 357.537C444.703 357.537 444.073 357.537 443.241 357.537L442.505 357.505C442.527 357.505 442.303 357.484 441.833 357.441L441.993 359.745C442.057 360.663 442.185 361.388 442.377 361.921C442.569 362.455 443.017 362.913 443.721 363.297C444.447 363.681 445.545 363.873 447.017 363.873ZM458.136 346.369C458.136 345.623 458.029 344.951 457.816 344.353C457.624 343.756 457.25 343.212 456.696 342.721L458.392 341.121C459.266 341.633 459.917 342.487 460.344 343.681C461.73 342.017 463.469 341.185 465.56 341.185C467.245 341.185 468.578 341.644 469.56 342.561C470.562 343.479 471.064 344.812 471.064 346.561V357.729L468.44 357.761V346.913C468.44 345.868 468.216 345.047 467.768 344.449C467.32 343.852 466.53 343.553 465.4 343.553C464.418 343.553 463.586 343.788 462.904 344.257C462.242 344.705 461.528 345.441 460.76 346.465V357.729H458.136V346.369ZM476.949 350.625C477.013 351.948 477.365 353.121 478.005 354.145C478.667 355.169 479.872 355.681 481.621 355.681C482.539 355.681 483.392 355.543 484.181 355.265C484.971 354.967 485.803 354.519 486.677 353.921L487.893 355.905C487.104 356.545 486.133 357.068 484.981 357.473C483.829 357.857 482.667 358.049 481.493 358.049C480 358.049 478.709 357.708 477.621 357.025C476.533 356.321 475.701 355.372 475.125 354.177C474.549 352.961 474.261 351.585 474.261 350.049C474.261 348.513 474.539 347.063 475.093 345.697C475.669 344.332 476.501 343.233 477.589 342.401C478.699 341.569 480.011 341.153 481.525 341.153C482.763 341.153 483.893 341.452 484.917 342.049C485.941 342.647 486.752 343.479 487.349 344.545C487.947 345.591 488.245 346.753 488.245 348.033C488.245 348.567 488.203 349.431 488.117 350.625H476.949ZM485.653 348.257V347.937C485.653 347.105 485.461 346.359 485.077 345.697C484.715 345.015 484.213 344.481 483.573 344.097C482.955 343.713 482.261 343.521 481.493 343.521C480.405 343.521 479.456 343.927 478.645 344.737C477.856 345.548 477.333 346.721 477.077 348.257H485.653ZM498.635 341.153C499.253 341.153 499.989 341.26 500.843 341.473L500.779 344.001C499.925 343.767 499.232 343.649 498.699 343.649C497.696 343.649 496.917 343.884 496.363 344.353C495.723 344.865 495.168 345.548 494.699 346.401V357.729H492.075V346.401C492.075 344.737 491.627 343.521 490.731 342.753L492.491 341.121C492.811 341.313 493.131 341.601 493.451 341.985C493.792 342.369 494.069 342.807 494.283 343.297C494.752 342.7 495.232 342.241 495.723 341.921C496.533 341.409 497.504 341.153 498.635 341.153Z" fill="white"/>
<path d="M524.981 342.697L521.981 339.697L524.981 336.697L527.981 339.697L524.981 342.697ZM529.981 345.697L527.981 343.697L529.981 341.697L531.981 343.697L529.981 345.697ZM522.056 356.697C520.656 356.697 519.343 356.431 518.118 355.897C516.893 355.364 515.826 354.643 514.918 353.735C514.01 352.826 513.289 351.76 512.756 350.535C512.222 349.31 511.956 347.997 511.956 346.597C511.956 344.164 512.731 342.018 514.281 340.16C515.831 338.301 517.806 337.147 520.206 336.697C519.906 338.347 519.997 339.96 520.481 341.535C520.964 343.11 521.797 344.489 522.981 345.672C524.164 346.856 525.543 347.689 527.118 348.172C528.693 348.656 530.306 348.747 531.956 348.447C531.522 350.847 530.372 352.822 528.506 354.372C526.639 355.922 524.489 356.697 522.056 356.697ZM522.056 354.697C523.522 354.697 524.881 354.331 526.131 353.597C527.381 352.864 528.364 351.856 529.081 350.572C527.647 350.439 526.289 350.076 525.006 349.485C523.722 348.893 522.572 348.089 521.556 347.072C520.539 346.056 519.731 344.906 519.131 343.622C518.531 342.339 518.172 340.981 518.056 339.547C516.772 340.264 515.768 341.251 515.043 342.51C514.318 343.768 513.956 345.131 513.956 346.597C513.956 348.847 514.743 350.76 516.318 352.335C517.893 353.91 519.806 354.697 522.056 354.697Z" fill="#D43584"/>
<path d="M553.628 335.585C555.612 335.713 557.372 336.268 558.908 337.249C560.466 338.231 561.671 339.553 562.524 341.217C563.378 342.86 563.804 344.705 563.804 346.753C563.804 348.929 563.324 350.871 562.364 352.577C561.426 354.284 560.114 355.617 558.428 356.577C556.743 357.537 554.823 358.017 552.668 358.017H551.068C550.898 358.017 550.524 358.017 549.948 358.017C549.372 358.017 548.348 357.953 546.876 357.825L545.084 357.665V335.553L553.628 335.585ZM551.644 355.617C554.716 355.617 557.074 354.86 558.716 353.345C560.359 351.831 561.18 349.665 561.18 346.849C561.18 344.204 560.476 342.103 559.068 340.545C557.682 338.988 555.751 338.145 553.276 338.017H547.708V355.457C549.159 355.564 550.471 355.617 551.644 355.617ZM569.262 350.625C569.326 351.948 569.678 353.121 570.318 354.145C570.979 355.169 572.184 355.681 573.934 355.681C574.851 355.681 575.704 355.543 576.494 355.265C577.283 354.967 578.115 354.519 578.99 353.921L580.206 355.905C579.416 356.545 578.446 357.068 577.294 357.473C576.142 357.857 574.979 358.049 573.806 358.049C572.312 358.049 571.022 357.708 569.934 357.025C568.846 356.321 568.014 355.372 567.438 354.177C566.862 352.961 566.574 351.585 566.574 350.049C566.574 348.513 566.851 347.063 567.406 345.697C567.982 344.332 568.814 343.233 569.902 342.401C571.011 341.569 572.323 341.153 573.838 341.153C575.075 341.153 576.206 341.452 577.23 342.049C578.254 342.647 579.064 343.479 579.662 344.545C580.259 345.591 580.558 346.753 580.558 348.033C580.558 348.567 580.515 349.431 580.43 350.625H569.262ZM577.966 348.257V347.937C577.966 347.105 577.774 346.359 577.39 345.697C577.027 345.015 576.526 344.481 575.886 344.097C575.267 343.713 574.574 343.521 573.806 343.521C572.718 343.521 571.768 343.927 570.958 344.737C570.168 345.548 569.646 346.721 569.39 348.257H577.966ZM588.867 358.017C586.521 358.017 584.451 357.121 582.659 355.329L584.163 353.569C584.974 354.273 585.742 354.796 586.467 355.137C587.193 355.457 587.961 355.617 588.771 355.617C589.817 355.617 590.638 355.393 591.235 354.945C591.854 354.476 592.163 353.836 592.163 353.025C592.163 352.535 592.035 352.14 591.779 351.841C591.545 351.543 591.193 351.287 590.723 351.073C590.275 350.839 589.518 350.508 588.451 350.081C587.278 349.612 586.361 349.207 585.699 348.865C585.059 348.503 584.547 348.055 584.163 347.521C583.779 346.967 583.587 346.284 583.587 345.473C583.587 344.151 584.057 343.084 584.995 342.273C585.934 341.463 587.15 341.057 588.643 341.057C589.518 341.057 590.393 341.207 591.267 341.505C592.163 341.783 592.867 342.145 593.379 342.593L592.259 344.481C591.299 343.777 590.179 343.425 588.899 343.425C588.089 343.425 587.438 343.596 586.947 343.937C586.478 344.257 586.243 344.705 586.243 345.281C586.243 345.879 586.478 346.348 586.947 346.689C587.438 347.009 588.27 347.404 589.443 347.873C590.766 348.407 591.801 348.887 592.547 349.313C593.294 349.74 593.859 350.241 594.243 350.817C594.627 351.372 594.819 352.076 594.819 352.929C594.819 354.444 594.265 355.671 593.155 356.609C592.046 357.548 590.617 358.017 588.867 358.017ZM597.944 341.665L600.568 341.697V357.729L597.944 357.697V341.665ZM599.192 338.561C598.766 338.561 598.382 338.391 598.04 338.049C597.699 337.708 597.528 337.324 597.528 336.897C597.528 336.449 597.699 336.055 598.04 335.713C598.382 335.372 598.766 335.201 599.192 335.201C599.64 335.201 600.035 335.372 600.376 335.713C600.739 336.055 600.92 336.449 600.92 336.897C600.92 337.324 600.739 337.708 600.376 338.049C600.035 338.391 599.64 338.561 599.192 338.561ZM612.329 366.209C607.316 366.209 604.809 364.076 604.809 359.809C604.809 359.233 604.841 358.657 604.905 358.081C604.99 357.505 605.044 357.132 605.065 356.961C604.66 356.599 604.318 356.151 604.041 355.617C603.785 355.063 603.657 354.497 603.657 353.921C603.657 353.217 603.86 352.513 604.265 351.809C604.67 351.084 605.236 350.583 605.961 350.305C606.26 350.177 606.697 350.113 607.273 350.113C606.697 349.26 606.409 348.236 606.409 347.041C606.409 345.847 606.686 344.801 607.241 343.905C607.817 342.988 608.574 342.284 609.513 341.793C610.473 341.303 611.508 341.057 612.617 341.057C613.428 341.057 614.174 341.196 614.857 341.473H620.297V343.937L617.993 343.809C618.59 344.748 618.889 345.804 618.889 346.977C618.889 348.151 618.612 349.185 618.057 350.081C617.502 350.956 616.745 351.628 615.785 352.097C614.846 352.567 613.79 352.801 612.617 352.801C611.465 352.801 610.43 352.588 609.513 352.161C609.086 352.119 608.713 352.097 608.393 352.097C608.009 352.097 607.7 352.129 607.465 352.193C607.166 352.279 606.878 352.46 606.601 352.737C606.345 353.015 606.217 353.377 606.217 353.825C606.217 354.359 606.42 354.732 606.825 354.945C607.252 355.137 607.86 355.233 608.649 355.233L610.825 355.169L613.385 355.105C615.582 355.105 617.342 355.553 618.665 356.449C619.988 357.324 620.649 358.657 620.649 360.449C620.649 362.455 619.838 363.916 618.217 364.833C616.596 365.751 614.633 366.209 612.329 366.209ZM612.681 350.433C613.833 350.433 614.729 350.113 615.369 349.473C616.009 348.812 616.329 347.991 616.329 347.009C616.329 345.964 615.977 345.111 615.273 344.449C614.569 343.767 613.673 343.425 612.585 343.425C611.476 343.425 610.59 343.767 609.929 344.449C609.289 345.111 608.969 345.964 608.969 347.009C608.969 348.076 609.31 348.919 609.993 349.537C610.697 350.135 611.593 350.433 612.681 350.433ZM612.361 363.873C614.068 363.873 615.444 363.596 616.489 363.041C617.556 362.487 618.089 361.633 618.089 360.481C618.089 359.244 617.545 358.433 616.457 358.049C615.39 357.665 614.121 357.473 612.649 357.473C612.116 357.473 611.721 357.484 611.465 357.505C611.23 357.505 610.9 357.516 610.473 357.537C610.046 357.537 609.417 357.537 608.585 357.537L607.849 357.505C607.87 357.505 607.646 357.484 607.177 357.441L607.337 359.745C607.401 360.663 607.529 361.388 607.721 361.921C607.913 362.455 608.361 362.913 609.065 363.297C609.79 363.681 610.889 363.873 612.361 363.873ZM623.479 346.369C623.479 345.623 623.373 344.951 623.159 344.353C622.967 343.756 622.594 343.212 622.039 342.721L623.735 341.121C624.61 341.633 625.261 342.487 625.687 343.681C627.074 342.017 628.813 341.185 630.903 341.185C632.589 341.185 633.922 341.644 634.903 342.561C635.906 343.479 636.407 344.812 636.407 346.561V357.729L633.783 357.761V346.913C633.783 345.868 633.559 345.047 633.111 344.449C632.663 343.852 631.874 343.553 630.743 343.553C629.762 343.553 628.93 343.788 628.247 344.257C627.586 344.705 626.871 345.441 626.103 346.465V357.729H623.479V346.369ZM656.38 358.369C655.1 358.369 653.895 358.124 652.764 357.633C651.634 357.143 650.674 356.46 649.884 355.585C649.116 354.711 648.615 353.719 648.38 352.609L650.748 351.617C651.09 352.961 651.804 354.017 652.892 354.785C653.98 355.553 655.143 355.937 656.38 355.937C657.703 355.937 658.823 355.532 659.74 354.721C660.658 353.889 661.116 352.812 661.116 351.489C661.116 350.572 660.85 349.815 660.316 349.217C659.783 348.62 658.844 348.001 657.5 347.361C655.794 346.529 654.492 345.857 653.596 345.345C652.722 344.812 651.986 344.161 651.388 343.393C650.812 342.604 650.524 341.665 650.524 340.577C650.524 339.532 650.802 338.604 651.356 337.793C651.932 336.961 652.69 336.321 653.628 335.873C654.588 335.404 655.612 335.169 656.7 335.169C657.618 335.169 658.471 335.361 659.26 335.745C660.071 336.108 660.711 336.599 661.18 337.217C661.671 337.836 661.916 338.497 661.916 339.201C661.916 339.308 661.895 339.489 661.852 339.745L659.356 339.585C659.442 339.244 659.346 338.924 659.068 338.625C658.812 338.305 658.45 338.06 657.98 337.889C657.511 337.697 657.063 337.601 656.636 337.601C655.698 337.601 654.876 337.889 654.172 338.465C653.49 339.02 653.148 339.692 653.148 340.481C653.148 341.121 653.372 341.697 653.82 342.209C654.29 342.721 654.834 343.169 655.452 343.553C656.071 343.916 656.871 344.343 657.852 344.833L659.004 345.409C660.69 346.327 661.895 347.244 662.62 348.161C663.367 349.079 663.74 350.199 663.74 351.521C663.74 352.844 663.399 354.028 662.716 355.073C662.055 356.119 661.159 356.929 660.028 357.505C658.898 358.081 657.682 358.369 656.38 358.369ZM666.502 363.393C667.846 363.436 668.806 363.255 669.382 362.849C669.638 362.657 669.872 362.412 670.086 362.113C670.299 361.836 670.448 361.537 670.534 361.217L671.59 357.697L664.71 341.313H667.622L672.774 354.177L676.582 341.313H679.43L672.966 362.049C672.795 362.583 672.539 363.095 672.198 363.585C671.856 364.097 671.462 364.503 671.014 364.801C669.947 365.505 668.56 365.836 666.854 365.793L666.502 363.393ZM686.961 358.017C684.614 358.017 682.545 357.121 680.753 355.329L682.257 353.569C683.068 354.273 683.836 354.796 684.561 355.137C685.286 355.457 686.054 355.617 686.865 355.617C687.91 355.617 688.732 355.393 689.329 354.945C689.948 354.476 690.257 353.836 690.257 353.025C690.257 352.535 690.129 352.14 689.873 351.841C689.638 351.543 689.286 351.287 688.817 351.073C688.369 350.839 687.612 350.508 686.545 350.081C685.372 349.612 684.454 349.207 683.793 348.865C683.153 348.503 682.641 348.055 682.257 347.521C681.873 346.967 681.681 346.284 681.681 345.473C681.681 344.151 682.15 343.084 683.089 342.273C684.028 341.463 685.244 341.057 686.737 341.057C687.612 341.057 688.486 341.207 689.361 341.505C690.257 341.783 690.961 342.145 691.473 342.593L690.353 344.481C689.393 343.777 688.273 343.425 686.993 343.425C686.182 343.425 685.532 343.596 685.041 343.937C684.572 344.257 684.337 344.705 684.337 345.281C684.337 345.879 684.572 346.348 685.041 346.689C685.532 347.009 686.364 347.404 687.537 347.873C688.86 348.407 689.894 348.887 690.641 349.313C691.388 349.74 691.953 350.241 692.337 350.817C692.721 351.372 692.913 352.076 692.913 352.929C692.913 354.444 692.358 355.671 691.249 356.609C690.14 357.548 688.71 358.017 686.961 358.017ZM700.614 358.145C699.078 358.145 697.884 357.697 697.03 356.801C696.177 355.884 695.75 354.572 695.75 352.865V337.569H698.374V341.473H703.302V343.841H698.374V352.865C698.374 353.911 698.588 354.636 699.014 355.041C699.462 355.447 699.985 355.649 700.582 355.649C701.009 355.649 701.35 355.607 701.606 355.521C701.884 355.436 702.246 355.276 702.694 355.041L703.91 357.185C703.057 357.825 701.958 358.145 700.614 358.145ZM707.824 350.625C707.888 351.948 708.24 353.121 708.88 354.145C709.542 355.169 710.747 355.681 712.496 355.681C713.414 355.681 714.267 355.543 715.056 355.265C715.846 354.967 716.678 354.519 717.552 353.921L718.768 355.905C717.979 356.545 717.008 357.068 715.856 357.473C714.704 357.857 713.542 358.049 712.368 358.049C710.875 358.049 709.584 357.708 708.496 357.025C707.408 356.321 706.576 355.372 706 354.177C705.424 352.961 705.136 351.585 705.136 350.049C705.136 348.513 705.414 347.063 705.968 345.697C706.544 344.332 707.376 343.233 708.464 342.401C709.574 341.569 710.886 341.153 712.4 341.153C713.638 341.153 714.768 341.452 715.792 342.049C716.816 342.647 717.627 343.479 718.224 344.545C718.822 345.591 719.12 346.753 719.12 348.033C719.12 348.567 719.078 349.431 718.992 350.625H707.824ZM716.528 348.257V347.937C716.528 347.105 716.336 346.359 715.952 345.697C715.59 345.015 715.088 344.481 714.448 344.097C713.83 343.713 713.136 343.521 712.368 343.521C711.28 343.521 710.331 343.927 709.52 344.737C708.731 345.548 708.208 346.721 707.952 348.257H716.528ZM722.918 346.369C722.918 345.623 722.811 344.951 722.598 344.353C722.406 343.756 722.032 343.212 721.478 342.721L723.11 341.121C723.963 341.612 724.592 342.412 724.998 343.521C725.595 342.775 726.299 342.209 727.11 341.825C727.92 341.441 728.763 341.249 729.638 341.249C730.576 341.249 731.43 341.463 732.198 341.889C732.987 342.295 733.606 342.892 734.054 343.681C734.672 342.892 735.408 342.295 736.262 341.889C737.136 341.463 738.022 341.249 738.918 341.249C740.411 341.249 741.638 341.729 742.598 342.689C743.579 343.649 744.059 344.94 744.038 346.561L743.91 357.729H741.446L741.478 346.913C741.478 345.804 741.254 344.983 740.806 344.449C740.379 343.895 739.696 343.617 738.758 343.617C737.862 343.617 737.094 343.852 736.454 344.321C735.814 344.769 735.248 345.463 734.758 346.401V357.729H732.198V346.913C732.198 345.847 731.974 345.036 731.526 344.481C731.078 343.905 730.416 343.617 729.542 343.617C728.667 343.617 727.856 343.873 727.11 344.385C726.363 344.897 725.819 345.537 725.478 346.305V357.729H722.918V346.369ZM763.974 358.369C762.694 358.369 761.489 358.124 760.358 357.633C759.227 357.143 758.267 356.46 757.478 355.585C756.71 354.711 756.209 353.719 755.974 352.609L758.342 351.617C758.683 352.961 759.398 354.017 760.486 354.785C761.574 355.553 762.737 355.937 763.974 355.937C765.297 355.937 766.417 355.532 767.334 354.721C768.251 353.889 768.71 352.812 768.71 351.489C768.71 350.572 768.443 349.815 767.91 349.217C767.377 348.62 766.438 348.001 765.094 347.361C763.387 346.529 762.086 345.857 761.19 345.345C760.315 344.812 759.579 344.161 758.982 343.393C758.406 342.604 758.118 341.665 758.118 340.577C758.118 339.532 758.395 338.604 758.95 337.793C759.526 336.961 760.283 336.321 761.222 335.873C762.182 335.404 763.206 335.169 764.294 335.169C765.211 335.169 766.065 335.361 766.854 335.745C767.665 336.108 768.305 336.599 768.774 337.217C769.265 337.836 769.51 338.497 769.51 339.201C769.51 339.308 769.489 339.489 769.446 339.745L766.95 339.585C767.035 339.244 766.939 338.924 766.662 338.625C766.406 338.305 766.043 338.06 765.574 337.889C765.105 337.697 764.657 337.601 764.23 337.601C763.291 337.601 762.47 337.889 761.766 338.465C761.083 339.02 760.742 339.692 760.742 340.481C760.742 341.121 760.966 341.697 761.414 342.209C761.883 342.721 762.427 343.169 763.046 343.553C763.665 343.916 764.465 344.343 765.446 344.833L766.598 345.409C768.283 346.327 769.489 347.244 770.214 348.161C770.961 349.079 771.334 350.199 771.334 351.521C771.334 352.844 770.993 354.028 770.31 355.073C769.649 356.119 768.753 356.929 767.622 357.505C766.491 358.081 765.275 358.369 763.974 358.369ZM781.263 341.249C782.757 341.249 784.026 341.623 785.071 342.369C786.138 343.116 786.938 344.119 787.471 345.377C788.026 346.615 788.303 347.98 788.303 349.473C788.303 351.116 787.983 352.588 787.343 353.889C786.725 355.169 785.807 356.183 784.591 356.929C783.397 357.655 781.989 358.017 780.367 358.017C779.727 358.017 778.639 357.921 777.103 357.729V366.017H774.575V346.497C774.575 344.833 774.127 343.617 773.231 342.849L774.991 341.217C775.311 341.409 775.631 341.697 775.951 342.081C776.271 342.444 776.538 342.871 776.751 343.361C777.263 342.721 777.935 342.209 778.767 341.825C779.599 341.441 780.431 341.249 781.263 341.249ZM780.207 355.649C781.999 355.649 783.354 355.105 784.271 354.017C785.21 352.929 785.679 351.479 785.679 349.665C785.679 347.959 785.285 346.529 784.495 345.377C783.706 344.204 782.65 343.617 781.327 343.617C780.282 343.617 779.333 343.959 778.479 344.641C777.647 345.303 777.189 346.156 777.103 347.201V355.457C778.383 355.585 779.418 355.649 780.207 355.649ZM793.324 350.625C793.388 351.948 793.74 353.121 794.38 354.145C795.042 355.169 796.247 355.681 797.996 355.681C798.914 355.681 799.767 355.543 800.556 355.265C801.346 354.967 802.178 354.519 803.052 353.921L804.268 355.905C803.479 356.545 802.508 357.068 801.356 357.473C800.204 357.857 799.042 358.049 797.868 358.049C796.375 358.049 795.084 357.708 793.996 357.025C792.908 356.321 792.076 355.372 791.5 354.177C790.924 352.961 790.636 351.585 790.636 350.049C790.636 348.513 790.914 347.063 791.468 345.697C792.044 344.332 792.876 343.233 793.964 342.401C795.074 341.569 796.386 341.153 797.9 341.153C799.138 341.153 800.268 341.452 801.292 342.049C802.316 342.647 803.127 343.479 803.724 344.545C804.322 345.591 804.62 346.753 804.62 348.033C804.62 348.567 804.578 349.431 804.492 350.625H793.324ZM802.028 348.257V347.937C802.028 347.105 801.836 346.359 801.452 345.697C801.09 345.015 800.588 344.481 799.948 344.097C799.33 343.713 798.636 343.521 797.868 343.521C796.78 343.521 795.831 343.927 795.02 344.737C794.231 345.548 793.708 346.721 793.452 348.257H802.028ZM814.938 357.921C813.424 357.921 812.09 357.58 810.938 356.897C809.786 356.215 808.89 355.265 808.25 354.049C807.632 352.812 807.322 351.383 807.322 349.761C807.322 348.097 807.653 346.625 808.314 345.345C808.976 344.044 809.904 343.041 811.098 342.337C812.293 341.612 813.658 341.249 815.194 341.249C816.197 341.249 817.168 341.452 818.106 341.857C819.045 342.241 819.696 342.721 820.058 343.297L818.49 345.057C818 344.524 817.498 344.151 816.986 343.937C816.496 343.724 815.898 343.617 815.194 343.617C813.552 343.617 812.25 344.183 811.29 345.313C810.352 346.423 809.882 347.937 809.882 349.857C809.882 351.628 810.341 353.025 811.258 354.049C812.197 355.052 813.477 355.553 815.098 355.553C815.909 355.553 816.688 355.425 817.434 355.169C818.202 354.892 819.098 354.433 820.122 353.793L821.21 355.809C820.314 356.492 819.322 357.015 818.234 357.377C817.146 357.74 816.048 357.921 814.938 357.921ZM824.007 341.665L826.631 341.697V357.729L824.007 357.697V341.665ZM825.255 338.561C824.828 338.561 824.444 338.391 824.103 338.049C823.762 337.708 823.591 337.324 823.591 336.897C823.591 336.449 823.762 336.055 824.103 335.713C824.444 335.372 824.828 335.201 825.255 335.201C825.703 335.201 826.098 335.372 826.439 335.713C826.802 336.055 826.983 336.449 826.983 336.897C826.983 337.324 826.802 337.708 826.439 338.049C826.098 338.391 825.703 338.561 825.255 338.561ZM842.231 358.113C841.421 357.559 840.845 356.876 840.503 356.065C840.013 356.684 839.351 357.164 838.519 357.505C837.709 357.847 836.791 358.017 835.767 358.017C834.018 358.017 832.61 357.537 831.543 356.577C830.498 355.617 829.975 354.348 829.975 352.769C829.975 351.105 830.605 349.815 831.863 348.897C833.122 347.959 834.882 347.489 837.143 347.489H839.927V346.817C839.927 345.601 839.703 344.748 839.255 344.257C838.829 343.745 838.093 343.489 837.047 343.489C836.151 343.489 835.266 343.649 834.391 343.969C833.538 344.289 832.749 344.748 832.023 345.345L830.743 343.393C831.511 342.689 832.461 342.135 833.591 341.729C834.722 341.324 835.885 341.121 837.079 341.121C838.85 341.121 840.205 341.58 841.143 342.497C842.082 343.415 842.551 344.737 842.551 346.465V352.833C842.551 354.519 843.01 355.745 843.927 356.513L842.231 358.113ZM835.799 355.649C837.037 355.649 838.029 355.297 838.775 354.593C839.543 353.868 839.927 352.94 839.927 351.809V349.857H837.143C835.543 349.857 834.381 350.092 833.655 350.561C832.951 351.009 832.599 351.735 832.599 352.737C832.599 353.655 832.877 354.369 833.431 354.881C834.007 355.393 834.797 355.649 835.799 355.649ZM847.226 334.433H849.786V357.729H847.226V334.433ZM854.507 341.665L857.131 341.697V357.729L854.507 357.697V341.665ZM855.755 338.561C855.328 338.561 854.944 338.391 854.603 338.049C854.262 337.708 854.091 337.324 854.091 336.897C854.091 336.449 854.262 336.055 854.603 335.713C854.944 335.372 855.328 335.201 855.755 335.201C856.203 335.201 856.598 335.372 856.939 335.713C857.302 336.055 857.483 336.449 857.483 336.897C857.483 337.324 857.302 337.708 856.939 338.049C856.598 338.391 856.203 338.561 855.755 338.561ZM866.523 358.017C864.177 358.017 862.107 357.121 860.315 355.329L861.819 353.569C862.63 354.273 863.398 354.796 864.123 355.137C864.849 355.457 865.617 355.617 866.427 355.617C867.473 355.617 868.294 355.393 868.891 354.945C869.51 354.476 869.819 353.836 869.819 353.025C869.819 352.535 869.691 352.14 869.435 351.841C869.201 351.543 868.849 351.287 868.379 351.073C867.931 350.839 867.174 350.508 866.107 350.081C864.934 349.612 864.017 349.207 863.355 348.865C862.715 348.503 862.203 348.055 861.819 347.521C861.435 346.967 861.243 346.284 861.243 345.473C861.243 344.151 861.713 343.084 862.651 342.273C863.59 341.463 864.806 341.057 866.299 341.057C867.174 341.057 868.049 341.207 868.923 341.505C869.819 341.783 870.523 342.145 871.035 342.593L869.915 344.481C868.955 343.777 867.835 343.425 866.555 343.425C865.745 343.425 865.094 343.596 864.603 343.937C864.134 344.257 863.899 344.705 863.899 345.281C863.899 345.879 864.134 346.348 864.603 346.689C865.094 347.009 865.926 347.404 867.099 347.873C868.422 348.407 869.457 348.887 870.203 349.313C870.95 349.74 871.515 350.241 871.899 350.817C872.283 351.372 872.475 352.076 872.475 352.929C872.475 354.444 871.921 355.671 870.811 356.609C869.702 357.548 868.273 358.017 866.523 358.017ZM880.177 358.145C878.641 358.145 877.446 357.697 876.593 356.801C875.739 355.884 875.313 354.572 875.313 352.865V337.569H877.937V341.473H882.865V343.841H877.937V352.865C877.937 353.911 878.15 354.636 878.577 355.041C879.025 355.447 879.547 355.649 880.145 355.649C880.571 355.649 880.913 355.607 881.169 355.521C881.446 355.436 881.809 355.276 882.257 355.041L883.473 357.185C882.619 357.825 881.521 358.145 880.177 358.145Z" fill="white"/>
<path d="M907.981 342.697L904.981 339.697L907.981 336.697L910.981 339.697L907.981 342.697ZM912.981 345.697L910.981 343.697L912.981 341.697L914.981 343.697L912.981 345.697ZM905.056 356.697C903.656 356.697 902.343 356.431 901.118 355.897C899.893 355.364 898.826 354.643 897.918 353.735C897.01 352.826 896.289 351.76 895.756 350.535C895.222 349.31 894.956 347.997 894.956 346.597C894.956 344.164 895.731 342.018 897.281 340.16C898.831 338.301 900.806 337.147 903.206 336.697C902.906 338.347 902.997 339.96 903.481 341.535C903.964 343.11 904.797 344.489 905.981 345.672C907.164 346.856 908.543 347.689 910.118 348.172C911.693 348.656 913.306 348.747 914.956 348.447C914.522 350.847 913.372 352.822 911.506 354.372C909.639 355.922 907.489 356.697 905.056 356.697ZM905.056 354.697C906.522 354.697 907.881 354.331 909.131 353.597C910.381 352.864 911.364 351.856 912.081 350.572C910.647 350.439 909.289 350.076 908.006 349.485C906.722 348.893 905.572 348.089 904.556 347.072C903.539 346.056 902.731 344.906 902.131 343.622C901.531 342.339 901.172 340.981 901.056 339.547C899.772 340.264 898.768 341.251 898.043 342.51C897.318 343.768 896.956 345.131 896.956 346.597C896.956 348.847 897.743 350.76 899.318 352.335C900.893 353.91 902.806 354.697 905.056 354.697Z" fill="#D43584"/>
<path d="M400.208 396.769C400.208 398.561 399.771 400.161 398.896 401.569C398.043 402.977 396.891 404.076 395.44 404.865C394.011 405.655 392.475 406.049 390.832 406.049C388.592 406.049 386.672 405.559 385.072 404.577C383.472 403.575 382.256 402.241 381.424 400.577C380.614 398.913 380.208 397.079 380.208 395.073C380.208 392.94 380.678 390.988 381.616 389.217C382.555 387.447 383.867 386.049 385.552 385.025C387.238 384.001 389.158 383.489 391.312 383.489C392.507 383.489 393.691 383.713 394.864 384.161C396.059 384.609 397.03 385.249 397.776 386.081C398.523 386.913 398.875 387.873 398.832 388.961L396.432 388.993C396.432 388.332 396.166 387.777 395.632 387.329C395.099 386.86 394.427 386.508 393.616 386.273C392.827 386.039 392.038 385.921 391.248 385.921C389.691 385.921 388.262 386.348 386.96 387.201C385.68 388.055 384.667 389.185 383.92 390.593C383.195 392.001 382.832 393.505 382.832 395.105C382.832 396.641 383.12 398.06 383.696 399.361C384.294 400.641 385.19 401.676 386.384 402.465C387.6 403.233 389.104 403.617 390.896 403.617C392.027 403.617 393.115 403.329 394.16 402.753C395.206 402.177 396.048 401.388 396.688 400.385C397.35 399.383 397.68 398.295 397.68 397.121V396.513H390.128V394.081H400.208V396.769ZM410.541 389.153C411.16 389.153 411.896 389.26 412.749 389.473L412.685 392.001C411.832 391.767 411.138 391.649 410.605 391.649C409.602 391.649 408.824 391.884 408.269 392.353C407.629 392.865 407.074 393.548 406.605 394.401V405.729H403.981V394.401C403.981 392.737 403.533 391.521 402.637 390.753L404.397 389.121C404.717 389.313 405.037 389.601 405.357 389.985C405.698 390.369 405.976 390.807 406.189 391.297C406.658 390.7 407.138 390.241 407.629 389.921C408.44 389.409 409.41 389.153 410.541 389.153ZM426.45 406.113C425.64 405.559 425.064 404.876 424.722 404.065C424.232 404.684 423.57 405.164 422.738 405.505C421.928 405.847 421.01 406.017 419.986 406.017C418.237 406.017 416.829 405.537 415.762 404.577C414.717 403.617 414.194 402.348 414.194 400.769C414.194 399.105 414.824 397.815 416.082 396.897C417.341 395.959 419.101 395.489 421.362 395.489H424.146V394.817C424.146 393.601 423.922 392.748 423.474 392.257C423.048 391.745 422.312 391.489 421.266 391.489C420.37 391.489 419.485 391.649 418.61 391.969C417.757 392.289 416.968 392.748 416.242 393.345L414.962 391.393C415.73 390.689 416.68 390.135 417.81 389.729C418.941 389.324 420.104 389.121 421.298 389.121C423.069 389.121 424.424 389.58 425.362 390.497C426.301 391.415 426.77 392.737 426.77 394.465V400.833C426.77 402.519 427.229 403.745 428.146 404.513L426.45 406.113ZM420.018 403.649C421.256 403.649 422.248 403.297 422.994 402.593C423.762 401.868 424.146 400.94 424.146 399.809V397.857H421.362C419.762 397.857 418.6 398.092 417.874 398.561C417.17 399.009 416.818 399.735 416.818 400.737C416.818 401.655 417.096 402.369 417.65 402.881C418.226 403.393 419.016 403.649 420.018 403.649ZM438.045 389.249C439.538 389.249 440.807 389.623 441.853 390.369C442.919 391.116 443.719 392.119 444.253 393.377C444.807 394.615 445.085 395.98 445.085 397.473C445.085 399.116 444.765 400.588 444.125 401.889C443.506 403.169 442.589 404.183 441.373 404.929C440.178 405.655 438.77 406.017 437.149 406.017C436.509 406.017 435.421 405.921 433.885 405.729V414.017H431.357V394.497C431.357 392.833 430.909 391.617 430.013 390.849L431.773 389.217C432.093 389.409 432.413 389.697 432.733 390.081C433.053 390.444 433.319 390.871 433.533 391.361C434.045 390.721 434.717 390.209 435.549 389.825C436.381 389.441 437.213 389.249 438.045 389.249ZM436.989 403.649C438.781 403.649 440.135 403.105 441.053 402.017C441.991 400.929 442.461 399.479 442.461 397.665C442.461 395.959 442.066 394.529 441.277 393.377C440.487 392.204 439.431 391.617 438.109 391.617C437.063 391.617 436.114 391.959 435.261 392.641C434.429 393.303 433.97 394.156 433.885 395.201V403.457C435.165 403.585 436.199 403.649 436.989 403.649ZM451.225 382.433V391.169C452.505 389.825 454.137 389.153 456.121 389.153C457.871 389.153 459.204 389.633 460.121 390.593C461.06 391.553 461.529 392.876 461.529 394.561V405.729H458.905V394.913C458.905 393.825 458.681 392.993 458.233 392.417C457.785 391.82 457.017 391.521 455.929 391.521C454.927 391.521 454.084 391.756 453.401 392.225C452.74 392.695 452.015 393.441 451.225 394.465V405.729H448.601V382.433H451.225ZM465.913 389.665L468.537 389.697V405.729L465.913 405.697V389.665ZM467.161 386.561C466.735 386.561 466.351 386.391 466.009 386.049C465.668 385.708 465.497 385.324 465.497 384.897C465.497 384.449 465.668 384.055 466.009 383.713C466.351 383.372 466.735 383.201 467.161 383.201C467.609 383.201 468.004 383.372 468.345 383.713C468.708 384.055 468.889 384.449 468.889 384.897C468.889 385.324 468.708 385.708 468.345 386.049C468.004 386.391 467.609 386.561 467.161 386.561ZM479.626 405.921C478.111 405.921 476.778 405.58 475.626 404.897C474.474 404.215 473.578 403.265 472.938 402.049C472.319 400.812 472.01 399.383 472.01 397.761C472.01 396.097 472.34 394.625 473.002 393.345C473.663 392.044 474.591 391.041 475.786 390.337C476.98 389.612 478.346 389.249 479.882 389.249C480.884 389.249 481.855 389.452 482.794 389.857C483.732 390.241 484.383 390.721 484.746 391.297L483.178 393.057C482.687 392.524 482.186 392.151 481.674 391.937C481.183 391.724 480.586 391.617 479.882 391.617C478.239 391.617 476.938 392.183 475.978 393.313C475.039 394.423 474.57 395.937 474.57 397.857C474.57 399.628 475.028 401.025 475.946 402.049C476.884 403.052 478.164 403.553 479.786 403.553C480.596 403.553 481.375 403.425 482.122 403.169C482.89 402.892 483.786 402.433 484.81 401.793L485.898 403.809C485.002 404.492 484.01 405.015 482.922 405.377C481.834 405.74 480.735 405.921 479.626 405.921ZM503.83 406.017C502.401 406.017 501.153 405.644 500.086 404.897C499.041 404.129 498.241 403.116 497.686 401.857C497.132 400.577 496.854 399.191 496.854 397.697C496.854 396.097 497.164 394.657 497.782 393.377C498.422 392.076 499.34 391.052 500.534 390.305C501.729 389.559 503.137 389.185 504.758 389.185C505.569 389.185 506.7 389.271 508.15 389.441V382.401H510.614V400.865C510.614 402.508 511.073 403.745 511.99 404.577L510.422 406.081C509.633 405.569 509.036 404.812 508.63 403.809C508.076 404.556 507.372 405.111 506.518 405.473C505.665 405.836 504.769 406.017 503.83 406.017ZM503.926 403.649C504.801 403.649 505.569 403.447 506.23 403.041C506.892 402.615 507.404 402.039 507.766 401.313C508.022 400.801 508.15 400.204 508.15 399.521V391.841C507.148 391.713 506.412 391.639 505.942 391.617C505.494 391.575 505.014 391.553 504.502 391.553C502.924 391.553 501.676 392.129 500.758 393.281C499.841 394.412 499.382 395.852 499.382 397.601C499.382 399.329 499.777 400.769 500.566 401.921C501.377 403.073 502.497 403.649 503.926 403.649ZM516.762 398.625C516.826 399.948 517.178 401.121 517.818 402.145C518.479 403.169 519.684 403.681 521.434 403.681C522.351 403.681 523.204 403.543 523.994 403.265C524.783 402.967 525.615 402.519 526.49 401.921L527.706 403.905C526.916 404.545 525.946 405.068 524.794 405.473C523.642 405.857 522.479 406.049 521.306 406.049C519.812 406.049 518.522 405.708 517.434 405.025C516.346 404.321 515.514 403.372 514.938 402.177C514.362 400.961 514.074 399.585 514.074 398.049C514.074 396.513 514.351 395.063 514.906 393.697C515.482 392.332 516.314 391.233 517.402 390.401C518.511 389.569 519.823 389.153 521.338 389.153C522.575 389.153 523.706 389.452 524.73 390.049C525.754 390.647 526.564 391.479 527.162 392.545C527.759 393.591 528.058 394.753 528.058 396.033C528.058 396.567 528.015 397.431 527.93 398.625H516.762ZM525.466 396.257V395.937C525.466 395.105 525.274 394.359 524.89 393.697C524.527 393.015 524.026 392.481 523.386 392.097C522.767 391.713 522.074 391.521 521.306 391.521C520.218 391.521 519.268 391.927 518.458 392.737C517.668 393.548 517.146 394.721 516.89 396.257H525.466ZM536.367 406.017C534.021 406.017 531.951 405.121 530.159 403.329L531.663 401.569C532.474 402.273 533.242 402.796 533.967 403.137C534.693 403.457 535.461 403.617 536.271 403.617C537.317 403.617 538.138 403.393 538.735 402.945C539.354 402.476 539.663 401.836 539.663 401.025C539.663 400.535 539.535 400.14 539.279 399.841C539.045 399.543 538.693 399.287 538.223 399.073C537.775 398.839 537.018 398.508 535.951 398.081C534.778 397.612 533.861 397.207 533.199 396.865C532.559 396.503 532.047 396.055 531.663 395.521C531.279 394.967 531.087 394.284 531.087 393.473C531.087 392.151 531.557 391.084 532.495 390.273C533.434 389.463 534.65 389.057 536.143 389.057C537.018 389.057 537.893 389.207 538.767 389.505C539.663 389.783 540.367 390.145 540.879 390.593L539.759 392.481C538.799 391.777 537.679 391.425 536.399 391.425C535.589 391.425 534.938 391.596 534.447 391.937C533.978 392.257 533.743 392.705 533.743 393.281C533.743 393.879 533.978 394.348 534.447 394.689C534.938 395.009 535.77 395.404 536.943 395.873C538.266 396.407 539.301 396.887 540.047 397.313C540.794 397.74 541.359 398.241 541.743 398.817C542.127 399.372 542.319 400.076 542.319 400.929C542.319 402.444 541.765 403.671 540.655 404.609C539.546 405.548 538.117 406.017 536.367 406.017ZM545.444 389.665L548.068 389.697V405.729L545.444 405.697V389.665ZM546.692 386.561C546.266 386.561 545.882 386.391 545.54 386.049C545.199 385.708 545.028 385.324 545.028 384.897C545.028 384.449 545.199 384.055 545.54 383.713C545.882 383.372 546.266 383.201 546.692 383.201C547.14 383.201 547.535 383.372 547.876 383.713C548.239 384.055 548.42 384.449 548.42 384.897C548.42 385.324 548.239 385.708 547.876 386.049C547.535 386.391 547.14 386.561 546.692 386.561ZM559.829 414.209C554.816 414.209 552.309 412.076 552.309 407.809C552.309 407.233 552.341 406.657 552.405 406.081C552.49 405.505 552.544 405.132 552.565 404.961C552.16 404.599 551.818 404.151 551.541 403.617C551.285 403.063 551.157 402.497 551.157 401.921C551.157 401.217 551.36 400.513 551.765 399.809C552.17 399.084 552.736 398.583 553.461 398.305C553.76 398.177 554.197 398.113 554.773 398.113C554.197 397.26 553.909 396.236 553.909 395.041C553.909 393.847 554.186 392.801 554.741 391.905C555.317 390.988 556.074 390.284 557.013 389.793C557.973 389.303 559.008 389.057 560.117 389.057C560.928 389.057 561.674 389.196 562.357 389.473H567.797V391.937L565.493 391.809C566.09 392.748 566.389 393.804 566.389 394.977C566.389 396.151 566.112 397.185 565.557 398.081C565.002 398.956 564.245 399.628 563.285 400.097C562.346 400.567 561.29 400.801 560.117 400.801C558.965 400.801 557.93 400.588 557.013 400.161C556.586 400.119 556.213 400.097 555.893 400.097C555.509 400.097 555.2 400.129 554.965 400.193C554.666 400.279 554.378 400.46 554.101 400.737C553.845 401.015 553.717 401.377 553.717 401.825C553.717 402.359 553.92 402.732 554.325 402.945C554.752 403.137 555.36 403.233 556.149 403.233L558.325 403.169L560.885 403.105C563.082 403.105 564.842 403.553 566.165 404.449C567.488 405.324 568.149 406.657 568.149 408.449C568.149 410.455 567.338 411.916 565.717 412.833C564.096 413.751 562.133 414.209 559.829 414.209ZM560.181 398.433C561.333 398.433 562.229 398.113 562.869 397.473C563.509 396.812 563.829 395.991 563.829 395.009C563.829 393.964 563.477 393.111 562.773 392.449C562.069 391.767 561.173 391.425 560.085 391.425C558.976 391.425 558.09 391.767 557.429 392.449C556.789 393.111 556.469 393.964 556.469 395.009C556.469 396.076 556.81 396.919 557.493 397.537C558.197 398.135 559.093 398.433 560.181 398.433ZM559.861 411.873C561.568 411.873 562.944 411.596 563.989 411.041C565.056 410.487 565.589 409.633 565.589 408.481C565.589 407.244 565.045 406.433 563.957 406.049C562.89 405.665 561.621 405.473 560.149 405.473C559.616 405.473 559.221 405.484 558.965 405.505C558.73 405.505 558.4 405.516 557.973 405.537C557.546 405.537 556.917 405.537 556.085 405.537L555.349 405.505C555.37 405.505 555.146 405.484 554.677 405.441L554.837 407.745C554.901 408.663 555.029 409.388 555.221 409.921C555.413 410.455 555.861 410.913 556.565 411.297C557.29 411.681 558.389 411.873 559.861 411.873ZM570.979 394.369C570.979 393.623 570.873 392.951 570.659 392.353C570.467 391.756 570.094 391.212 569.539 390.721L571.235 389.121C572.11 389.633 572.761 390.487 573.187 391.681C574.574 390.017 576.313 389.185 578.403 389.185C580.089 389.185 581.422 389.644 582.403 390.561C583.406 391.479 583.907 392.812 583.907 394.561V405.729L581.283 405.761V394.913C581.283 393.868 581.059 393.047 580.611 392.449C580.163 391.852 579.374 391.553 578.243 391.553C577.262 391.553 576.43 391.788 575.747 392.257C575.086 392.705 574.371 393.441 573.603 394.465V405.729H570.979V394.369ZM589.793 398.625C589.857 399.948 590.209 401.121 590.849 402.145C591.51 403.169 592.716 403.681 594.465 403.681C595.382 403.681 596.236 403.543 597.025 403.265C597.814 402.967 598.646 402.519 599.521 401.921L600.737 403.905C599.948 404.545 598.977 405.068 597.825 405.473C596.673 405.857 595.51 406.049 594.337 406.049C592.844 406.049 591.553 405.708 590.465 405.025C589.377 404.321 588.545 403.372 587.969 402.177C587.393 400.961 587.105 399.585 587.105 398.049C587.105 396.513 587.382 395.063 587.937 393.697C588.513 392.332 589.345 391.233 590.433 390.401C591.542 389.569 592.854 389.153 594.369 389.153C595.606 389.153 596.737 389.452 597.761 390.049C598.785 390.647 599.596 391.479 600.193 392.545C600.79 393.591 601.089 394.753 601.089 396.033C601.089 396.567 601.046 397.431 600.961 398.625H589.793ZM598.497 396.257V395.937C598.497 395.105 598.305 394.359 597.921 393.697C597.558 393.015 597.057 392.481 596.417 392.097C595.798 391.713 595.105 391.521 594.337 391.521C593.249 391.521 592.3 391.927 591.489 392.737C590.7 393.548 590.177 394.721 589.921 396.257H598.497ZM611.478 389.153C612.097 389.153 612.833 389.26 613.686 389.473L613.622 392.001C612.769 391.767 612.076 391.649 611.542 391.649C610.54 391.649 609.761 391.884 609.206 392.353C608.566 392.865 608.012 393.548 607.542 394.401V405.729H604.918V394.401C604.918 392.737 604.47 391.521 603.574 390.753L605.334 389.121C605.654 389.313 605.974 389.601 606.294 389.985C606.636 390.369 606.913 390.807 607.126 391.297C607.596 390.7 608.076 390.241 608.566 389.921C609.377 389.409 610.348 389.153 611.478 389.153ZM632.067 406.017C630.744 406.017 629.56 405.772 628.515 405.281C627.47 404.791 626.648 404.097 626.051 403.201C625.475 402.305 625.187 401.271 625.187 400.097C625.187 398.924 625.475 397.825 626.051 396.801C626.627 395.756 627.416 394.924 628.419 394.305C627.928 393.644 627.576 393.025 627.363 392.449C627.15 391.873 627.043 391.255 627.043 390.593C627.043 389.612 627.288 388.716 627.779 387.905C628.291 387.095 628.974 386.455 629.827 385.985C630.68 385.516 631.619 385.281 632.643 385.281C633.731 385.281 634.734 385.591 635.651 386.209C636.59 386.828 637.176 387.575 637.411 388.449L635.651 389.985C634.99 388.471 633.955 387.713 632.547 387.713C631.672 387.713 630.968 387.959 630.435 388.449C629.923 388.919 629.667 389.559 629.667 390.369C629.667 390.86 629.763 391.329 629.955 391.777C630.147 392.204 630.478 392.684 630.947 393.217L638.051 399.809C638.35 399.169 638.584 398.465 638.755 397.697C638.926 396.929 639.011 396.193 639.011 395.489V394.209H641.411V395.553C641.411 396.577 641.272 397.612 640.995 398.657C640.718 399.681 640.334 400.609 639.843 401.441L642.723 404.129L641.123 405.953L638.339 403.425C636.611 405.153 634.52 406.017 632.067 406.017ZM632.131 403.649C633.838 403.649 635.32 403.041 636.579 401.825L630.179 396.033C629.411 396.417 628.814 396.961 628.387 397.665C627.96 398.369 627.747 399.169 627.747 400.065C627.747 401.175 628.152 402.049 628.963 402.689C629.774 403.329 630.83 403.649 632.131 403.649ZM661.771 406.081C660.15 406.081 658.689 405.772 657.387 405.153C656.086 404.535 655.019 403.756 654.187 402.817L655.659 400.993C656.577 401.889 657.462 402.561 658.315 403.009C659.169 403.436 660.203 403.649 661.419 403.649C662.934 403.649 664.182 403.297 665.163 402.593C666.145 401.889 666.635 400.897 666.635 399.617C666.635 398.764 666.401 398.017 665.931 397.377C665.483 396.737 664.886 396.247 664.139 395.905C663.414 395.564 662.657 395.393 661.867 395.393H658.123V393.025H661.835C662.966 393.025 663.862 392.705 664.523 392.065C665.206 391.425 665.547 390.668 665.547 389.793C665.547 388.855 665.163 388.14 664.395 387.649C663.627 387.137 662.667 386.881 661.515 386.881C660.833 386.881 660.097 387.02 659.307 387.297C658.518 387.553 657.825 387.948 657.227 388.481L655.979 386.497C656.769 385.836 657.633 385.335 658.571 384.993C659.531 384.631 660.502 384.449 661.483 384.449C662.742 384.449 663.873 384.663 664.875 385.089C665.899 385.495 666.699 386.092 667.275 386.881C667.851 387.649 668.139 388.545 668.139 389.569C668.139 390.487 667.905 391.351 667.435 392.161C666.987 392.951 666.315 393.537 665.419 393.921C666.529 394.348 667.446 395.127 668.171 396.257C668.897 397.388 669.259 398.604 669.259 399.905C669.259 401.121 668.939 402.199 668.299 403.137C667.659 404.055 666.763 404.78 665.611 405.313C664.481 405.825 663.201 406.081 661.771 406.081ZM682.222 383.585C684.206 383.713 685.966 384.268 687.502 385.249C689.06 386.231 690.265 387.553 691.118 389.217C691.972 390.86 692.398 392.705 692.398 394.753C692.398 396.929 691.918 398.871 690.958 400.577C690.02 402.284 688.708 403.617 687.022 404.577C685.337 405.537 683.417 406.017 681.262 406.017H679.662C679.492 406.017 679.118 406.017 678.542 406.017C677.966 406.017 676.942 405.953 675.47 405.825L673.678 405.665V383.553L682.222 383.585ZM680.238 403.617C683.31 403.617 685.668 402.86 687.31 401.345C688.953 399.831 689.774 397.665 689.774 394.849C689.774 392.204 689.07 390.103 687.662 388.545C686.276 386.988 684.345 386.145 681.87 386.017H676.302V403.457C677.753 403.564 679.065 403.617 680.238 403.617ZM711.143 406.017C709.713 406.017 708.465 405.644 707.399 404.897C706.353 404.129 705.553 403.116 704.999 401.857C704.444 400.577 704.167 399.191 704.167 397.697C704.167 396.097 704.476 394.657 705.095 393.377C705.735 392.076 706.652 391.052 707.847 390.305C709.041 389.559 710.449 389.185 712.071 389.185C712.881 389.185 714.012 389.271 715.463 389.441V382.401H717.927V400.865C717.927 402.508 718.385 403.745 719.303 404.577L717.735 406.081C716.945 405.569 716.348 404.812 715.943 403.809C715.388 404.556 714.684 405.111 713.831 405.473C712.977 405.836 712.081 406.017 711.143 406.017ZM711.239 403.649C712.113 403.649 712.881 403.447 713.543 403.041C714.204 402.615 714.716 402.039 715.079 401.313C715.335 400.801 715.463 400.204 715.463 399.521V391.841C714.46 391.713 713.724 391.639 713.255 391.617C712.807 391.575 712.327 391.553 711.815 391.553C710.236 391.553 708.988 392.129 708.071 393.281C707.153 394.412 706.695 395.852 706.695 397.601C706.695 399.329 707.089 400.769 707.879 401.921C708.689 403.073 709.809 403.649 711.239 403.649ZM724.074 398.625C724.138 399.948 724.49 401.121 725.13 402.145C725.792 403.169 726.997 403.681 728.746 403.681C729.664 403.681 730.517 403.543 731.306 403.265C732.096 402.967 732.928 402.519 733.802 401.921L735.018 403.905C734.229 404.545 733.258 405.068 732.106 405.473C730.954 405.857 729.792 406.049 728.618 406.049C727.125 406.049 725.834 405.708 724.746 405.025C723.658 404.321 722.826 403.372 722.25 402.177C721.674 400.961 721.386 399.585 721.386 398.049C721.386 396.513 721.664 395.063 722.218 393.697C722.794 392.332 723.626 391.233 724.714 390.401C725.824 389.569 727.136 389.153 728.65 389.153C729.888 389.153 731.018 389.452 732.042 390.049C733.066 390.647 733.877 391.479 734.474 392.545C735.072 393.591 735.37 394.753 735.37 396.033C735.37 396.567 735.328 397.431 735.242 398.625H724.074ZM732.778 396.257V395.937C732.778 395.105 732.586 394.359 732.202 393.697C731.84 393.015 731.338 392.481 730.698 392.097C730.08 391.713 729.386 391.521 728.618 391.521C727.53 391.521 726.581 391.927 725.77 392.737C724.981 393.548 724.458 394.721 724.202 396.257H732.778ZM743.68 406.017C741.333 406.017 739.264 405.121 737.472 403.329L738.976 401.569C739.786 402.273 740.554 402.796 741.28 403.137C742.005 403.457 742.773 403.617 743.584 403.617C744.629 403.617 745.45 403.393 746.048 402.945C746.666 402.476 746.976 401.836 746.976 401.025C746.976 400.535 746.848 400.14 746.592 399.841C746.357 399.543 746.005 399.287 745.536 399.073C745.088 398.839 744.33 398.508 743.264 398.081C742.09 397.612 741.173 397.207 740.512 396.865C739.872 396.503 739.36 396.055 738.976 395.521C738.592 394.967 738.4 394.284 738.4 393.473C738.4 392.151 738.869 391.084 739.808 390.273C740.746 389.463 741.962 389.057 743.456 389.057C744.33 389.057 745.205 389.207 746.08 389.505C746.976 389.783 747.68 390.145 748.192 390.593L747.072 392.481C746.112 391.777 744.992 391.425 743.712 391.425C742.901 391.425 742.25 391.596 741.76 391.937C741.29 392.257 741.056 392.705 741.056 393.281C741.056 393.879 741.29 394.348 741.76 394.689C742.25 395.009 743.082 395.404 744.256 395.873C745.578 396.407 746.613 396.887 747.36 397.313C748.106 397.74 748.672 398.241 749.056 398.817C749.44 399.372 749.632 400.076 749.632 400.929C749.632 402.444 749.077 403.671 747.968 404.609C746.858 405.548 745.429 406.017 743.68 406.017ZM752.757 389.665L755.381 389.697V405.729L752.757 405.697V389.665ZM754.005 386.561C753.578 386.561 753.194 386.391 752.853 386.049C752.512 385.708 752.341 385.324 752.341 384.897C752.341 384.449 752.512 384.055 752.853 383.713C753.194 383.372 753.578 383.201 754.005 383.201C754.453 383.201 754.848 383.372 755.189 383.713C755.552 384.055 755.733 384.449 755.733 384.897C755.733 385.324 755.552 385.708 755.189 386.049C754.848 386.391 754.453 386.561 754.005 386.561ZM767.141 414.209C762.128 414.209 759.621 412.076 759.621 407.809C759.621 407.233 759.653 406.657 759.717 406.081C759.803 405.505 759.856 405.132 759.877 404.961C759.472 404.599 759.131 404.151 758.853 403.617C758.597 403.063 758.469 402.497 758.469 401.921C758.469 401.217 758.672 400.513 759.077 399.809C759.483 399.084 760.048 398.583 760.773 398.305C761.072 398.177 761.509 398.113 762.085 398.113C761.509 397.26 761.221 396.236 761.221 395.041C761.221 393.847 761.499 392.801 762.053 391.905C762.629 390.988 763.387 390.284 764.325 389.793C765.285 389.303 766.32 389.057 767.429 389.057C768.24 389.057 768.987 389.196 769.669 389.473H775.109V391.937L772.805 391.809C773.403 392.748 773.701 393.804 773.701 394.977C773.701 396.151 773.424 397.185 772.869 398.081C772.315 398.956 771.557 399.628 770.597 400.097C769.659 400.567 768.603 400.801 767.429 400.801C766.277 400.801 765.243 400.588 764.325 400.161C763.899 400.119 763.525 400.097 763.205 400.097C762.821 400.097 762.512 400.129 762.277 400.193C761.979 400.279 761.691 400.46 761.413 400.737C761.157 401.015 761.029 401.377 761.029 401.825C761.029 402.359 761.232 402.732 761.637 402.945C762.064 403.137 762.672 403.233 763.461 403.233L765.637 403.169L768.197 403.105C770.395 403.105 772.155 403.553 773.477 404.449C774.8 405.324 775.461 406.657 775.461 408.449C775.461 410.455 774.651 411.916 773.029 412.833C771.408 413.751 769.445 414.209 767.141 414.209ZM767.493 398.433C768.645 398.433 769.541 398.113 770.181 397.473C770.821 396.812 771.141 395.991 771.141 395.009C771.141 393.964 770.789 393.111 770.085 392.449C769.381 391.767 768.485 391.425 767.397 391.425C766.288 391.425 765.403 391.767 764.741 392.449C764.101 393.111 763.781 393.964 763.781 395.009C763.781 396.076 764.123 396.919 764.805 397.537C765.509 398.135 766.405 398.433 767.493 398.433ZM767.173 411.873C768.88 411.873 770.256 411.596 771.301 411.041C772.368 410.487 772.901 409.633 772.901 408.481C772.901 407.244 772.357 406.433 771.269 406.049C770.203 405.665 768.933 405.473 767.461 405.473C766.928 405.473 766.533 405.484 766.277 405.505C766.043 405.505 765.712 405.516 765.285 405.537C764.859 405.537 764.229 405.537 763.397 405.537L762.661 405.505C762.683 405.505 762.459 405.484 761.989 405.441L762.149 407.745C762.213 408.663 762.341 409.388 762.533 409.921C762.725 410.455 763.173 410.913 763.877 411.297C764.603 411.681 765.701 411.873 767.173 411.873ZM778.292 394.369C778.292 393.623 778.185 392.951 777.972 392.353C777.78 391.756 777.407 391.212 776.852 390.721L778.548 389.121C779.423 389.633 780.073 390.487 780.5 391.681C781.887 390.017 783.625 389.185 785.716 389.185C787.401 389.185 788.735 389.644 789.716 390.561C790.719 391.479 791.22 392.812 791.22 394.561V405.729L788.596 405.761V394.913C788.596 393.868 788.372 393.047 787.924 392.449C787.476 391.852 786.687 391.553 785.556 391.553C784.575 391.553 783.743 391.788 783.06 392.257C782.399 392.705 781.684 393.441 780.916 394.465V405.729H778.292V394.369ZM797.105 398.625C797.169 399.948 797.521 401.121 798.161 402.145C798.823 403.169 800.028 403.681 801.777 403.681C802.695 403.681 803.548 403.543 804.337 403.265C805.127 402.967 805.959 402.519 806.833 401.921L808.049 403.905C807.26 404.545 806.289 405.068 805.137 405.473C803.985 405.857 802.823 406.049 801.649 406.049C800.156 406.049 798.865 405.708 797.777 405.025C796.689 404.321 795.857 403.372 795.281 402.177C794.705 400.961 794.417 399.585 794.417 398.049C794.417 396.513 794.695 395.063 795.249 393.697C795.825 392.332 796.657 391.233 797.745 390.401C798.855 389.569 800.167 389.153 801.681 389.153C802.919 389.153 804.049 389.452 805.073 390.049C806.097 390.647 806.908 391.479 807.505 392.545C808.103 393.591 808.401 394.753 808.401 396.033C808.401 396.567 808.359 397.431 808.273 398.625H797.105ZM805.809 396.257V395.937C805.809 395.105 805.617 394.359 805.233 393.697C804.871 393.015 804.369 392.481 803.729 392.097C803.111 391.713 802.417 391.521 801.649 391.521C800.561 391.521 799.612 391.927 798.801 392.737C798.012 393.548 797.489 394.721 797.233 396.257H805.809ZM818.791 389.153C819.41 389.153 820.146 389.26 820.999 389.473L820.935 392.001C820.082 391.767 819.388 391.649 818.855 391.649C817.852 391.649 817.074 391.884 816.519 392.353C815.879 392.865 815.324 393.548 814.855 394.401V405.729H812.231V394.401C812.231 392.737 811.783 391.521 810.887 390.753L812.647 389.121C812.967 389.313 813.287 389.601 813.607 389.985C813.948 390.369 814.226 390.807 814.439 391.297C814.908 390.7 815.388 390.241 815.879 389.921C816.69 389.409 817.66 389.153 818.791 389.153Z" fill="white"/>
<path opacity="0.6" d="M944.094 91.603C927.929 -14.4811 702.514 -73.3046 674 -94.2969L1375.5 -53.2103V873.595C1321.96 817.466 1201.53 699.424 1186.57 551.301C1162.66 314.548 1076.78 373.821 994.947 265.716C939.77 192.828 952.018 143.609 944.094 91.603Z" fill="#E73C91"/>
<path opacity="0.6" d="M1073.42 -51.8627C1057.25 -157.947 966.546 -171.642 938.032 -192.635H1430.06V734.171C1376.51 678.041 1267.26 558.441 1241.13 411.877C1208.46 228.671 1146.83 254.603 1091.6 153.907C1047.64 73.7544 1081.34 0.142929 1073.42 -51.8627Z" fill="#E73C91"/>
</g>
<defs>
<filter id="filter0_f_1482_32857" x="955.695" y="400.158" width="157.992" height="140.283" filterUnits="userSpaceOnUse" color-interpolation-filters="sRGB">
<feFlood flood-opacity="0" result="BackgroundImageFix"/>
<feBlend mode="normal" in="SourceGraphic" in2="BackgroundImageFix" result="shape"/>
<feGaussianBlur stdDeviation="7.70514" result="effect1_foregroundBlur_1482_32857"/>
</filter>
<filter id="filter1_f_1482_32857" x="-28.7622" y="-38.7211" width="187.975" height="213.368" filterUnits="userSpaceOnUse" color-interpolation-filters="sRGB">
<feFlood flood-opacity="0" result="BackgroundImageFix"/>
<feBlend mode="normal" in="SourceGraphic" in2="BackgroundImageFix" result="shape"/>
<feGaussianBlur stdDeviation="7.67503" result="effect1_foregroundBlur_1482_32857"/>
</filter>
<clipPath id="clip0_1482_32857">
<rect width="1200" height="630" fill="white"/>
</clipPath>
</defs>
</svg>
