<svg width="381" height="212" viewBox="0 0 381 212" fill="none" xmlns="http://www.w3.org/2000/svg">
<g clip-path="url(#clip0_1190_10661)">
<rect width="381" height="212" rx="6.31111" fill="url(#paint0_linear_1190_10661)"/>
<g style="mix-blend-mode:overlay" clip-path="url(#clip1_1190_10661)">
<path d="M227.516 149.573H154.953L145.682 172.026L191.235 197.997L236.787 172.026L227.516 149.573ZM211.963 13.2002L272.268 142.982L278.536 43.992L211.963 13.2002ZM170.507 13.2002L103.933 43.992L110.201 142.982L170.507 13.2002ZM167.388 120.46H215.112L191.235 62.4487L167.388 120.46Z" fill="#169898"/>
</g>
<path d="M18.792 96.9166C17.832 96.9166 16.928 96.7326 16.08 96.3646C15.232 95.9966 14.512 95.4846 13.92 94.8286C13.344 94.1726 12.968 93.4286 12.792 92.5966L14.568 91.8526C14.824 92.8606 15.36 93.6526 16.176 94.2286C16.992 94.8046 17.864 95.0926 18.792 95.0926C19.784 95.0926 20.624 94.7886 21.312 94.1806C22 93.5566 22.344 92.7486 22.344 91.7566C22.344 91.0686 22.144 90.5006 21.744 90.0526C21.344 89.6046 20.64 89.1406 19.632 88.6606C18.352 88.0366 17.376 87.5326 16.704 87.1486C16.048 86.7486 15.496 86.2606 15.048 85.6846C14.616 85.0926 14.4 84.3886 14.4 83.5726C14.4 82.7886 14.608 82.0926 15.024 81.4846C15.456 80.8606 16.024 80.3806 16.728 80.0446C17.448 79.6926 18.216 79.5166 19.032 79.5166C19.72 79.5166 20.36 79.6606 20.952 79.9486C21.56 80.2206 22.04 80.5886 22.392 81.0526C22.76 81.5166 22.944 82.0126 22.944 82.5406C22.944 82.6206 22.928 82.7566 22.896 82.9486L21.024 82.8286C21.088 82.5726 21.016 82.3326 20.808 82.1086C20.616 81.8686 20.344 81.6846 19.992 81.5566C19.64 81.4126 19.304 81.3406 18.984 81.3406C18.28 81.3406 17.664 81.5566 17.136 81.9886C16.624 82.4046 16.368 82.9086 16.368 83.5006C16.368 83.9806 16.536 84.4126 16.872 84.7966C17.224 85.1806 17.632 85.5166 18.096 85.8046C18.56 86.0766 19.16 86.3966 19.896 86.7646L20.76 87.1966C22.024 87.8846 22.928 88.5726 23.472 89.2606C24.032 89.9486 24.312 90.7886 24.312 91.7806C24.312 92.7726 24.056 93.6606 23.544 94.4446C23.048 95.2286 22.376 95.8366 21.528 96.2686C20.68 96.7006 19.768 96.9166 18.792 96.9166ZM26.8826 87.9166C26.8826 87.3566 26.8026 86.8526 26.6426 86.4046C26.4986 85.9566 26.2186 85.5486 25.8026 85.1806L27.0266 83.9806C27.6666 84.3486 28.1386 84.9486 28.4426 85.7806C28.8906 85.2206 29.4186 84.7966 30.0266 84.5086C30.6346 84.2206 31.2666 84.0766 31.9226 84.0766C32.6266 84.0766 33.2666 84.2366 33.8426 84.5566C34.4346 84.8606 34.8986 85.3086 35.2346 85.9006C35.6986 85.3086 36.2506 84.8606 36.8906 84.5566C37.5466 84.2366 38.2106 84.0766 38.8826 84.0766C40.0026 84.0766 40.9226 84.4366 41.6426 85.1566C42.3786 85.8766 42.7386 86.8446 42.7226 88.0606L42.6266 96.4366H40.7786L40.8026 88.3246C40.8026 87.4926 40.6346 86.8766 40.2986 86.4766C39.9786 86.0606 39.4666 85.8526 38.7626 85.8526C38.0906 85.8526 37.5146 86.0286 37.0346 86.3806C36.5546 86.7166 36.1306 87.2366 35.7626 87.9406V96.4366H33.8426V88.3246C33.8426 87.5246 33.6746 86.9166 33.3386 86.5006C33.0026 86.0686 32.5066 85.8526 31.8506 85.8526C31.1946 85.8526 30.5866 86.0446 30.0266 86.4286C29.4666 86.8126 29.0586 87.2926 28.8026 87.8686V96.4366H26.8826V87.9166ZM54.3289 96.7246C53.7209 96.3086 53.2889 95.7966 53.0329 95.1886C52.6649 95.6526 52.1689 96.0126 51.5449 96.2686C50.9369 96.5246 50.2489 96.6526 49.4809 96.6526C48.1689 96.6526 47.1129 96.2926 46.3129 95.5726C45.5289 94.8526 45.1369 93.9006 45.1369 92.7166C45.1369 91.4686 45.6089 90.5006 46.5529 89.8126C47.4969 89.1086 48.8169 88.7566 50.5129 88.7566H52.6009V88.2526C52.6009 87.3406 52.4329 86.7006 52.0969 86.3326C51.7769 85.9486 51.2249 85.7566 50.4409 85.7566C49.7689 85.7566 49.1049 85.8766 48.4489 86.1166C47.8089 86.3566 47.2169 86.7006 46.6729 87.1486L45.7129 85.6846C46.2889 85.1566 47.0009 84.7406 47.8489 84.4366C48.6969 84.1326 49.5689 83.9806 50.4649 83.9806C51.7929 83.9806 52.8089 84.3246 53.5129 85.0126C54.2169 85.7006 54.5689 86.6926 54.5689 87.9886V92.7646C54.5689 94.0286 54.9129 94.9486 55.6009 95.5246L54.3289 96.7246ZM49.5049 94.8766C50.4329 94.8766 51.1769 94.6126 51.7369 94.0846C52.3129 93.5406 52.6009 92.8446 52.6009 91.9966V90.5326H50.5129C49.3129 90.5326 48.4409 90.7086 47.8969 91.0606C47.3689 91.3966 47.1049 91.9406 47.1049 92.6926C47.1049 93.3806 47.3129 93.9166 47.7289 94.3006C48.1609 94.6846 48.7529 94.8766 49.5049 94.8766ZM63.0923 84.0046C63.5563 84.0046 64.1083 84.0846 64.7483 84.2446L64.7003 86.1406C64.0603 85.9646 63.5403 85.8766 63.1403 85.8766C62.3883 85.8766 61.8043 86.0526 61.3883 86.4046C60.9083 86.7886 60.4923 87.3006 60.1403 87.9406V96.4366H58.1723V87.9406C58.1723 86.6926 57.8363 85.7806 57.1643 85.2046L58.4843 83.9806C58.7243 84.1246 58.9643 84.3406 59.2043 84.6286C59.4603 84.9166 59.6683 85.2446 59.8283 85.6126C60.1803 85.1646 60.5403 84.8206 60.9083 84.5806C61.5163 84.1966 62.2443 84.0046 63.0923 84.0046ZM70.4597 96.7486C69.3077 96.7486 68.4117 96.4126 67.7717 95.7406C67.1317 95.0526 66.8117 94.0686 66.8117 92.7886V81.3166H68.7797V84.2446H72.4757V86.0206H68.7797V92.7886C68.7797 93.5726 68.9397 94.1166 69.2597 94.4206C69.5957 94.7246 69.9877 94.8766 70.4357 94.8766C70.7557 94.8766 71.0117 94.8446 71.2037 94.7806C71.4117 94.7166 71.6837 94.5966 72.0197 94.4206L72.9317 96.0286C72.2917 96.5086 71.4677 96.7486 70.4597 96.7486ZM75.3714 84.3886L77.3394 84.4126V96.4366L75.3714 96.4126V84.3886ZM76.3074 82.0606C75.9874 82.0606 75.6994 81.9326 75.4434 81.6766C75.1874 81.4206 75.0594 81.1326 75.0594 80.8126C75.0594 80.4766 75.1874 80.1806 75.4434 79.9246C75.6994 79.6686 75.9874 79.5406 76.3074 79.5406C76.6434 79.5406 76.9394 79.6686 77.1954 79.9246C77.4674 80.1806 77.6034 80.4766 77.6034 80.8126C77.6034 81.1326 77.4674 81.4206 77.1954 81.6766C76.9394 81.9326 76.6434 82.0606 76.3074 82.0606ZM82.1953 91.1086C82.2433 92.1006 82.5073 92.9806 82.9873 93.7486C83.4833 94.5166 84.3873 94.9006 85.6993 94.9006C86.3873 94.9006 87.0273 94.7966 87.6193 94.5886C88.2113 94.3646 88.8353 94.0286 89.4913 93.5806L90.4033 95.0686C89.8113 95.5486 89.0833 95.9406 88.2193 96.2446C87.3553 96.5326 86.4833 96.6766 85.6033 96.6766C84.4833 96.6766 83.5153 96.4206 82.6993 95.9086C81.8833 95.3806 81.2593 94.6686 80.8273 93.7726C80.3953 92.8606 80.1793 91.8286 80.1793 90.6766C80.1793 89.5246 80.3873 88.4366 80.8033 87.4126C81.2353 86.3886 81.8593 85.5646 82.6753 84.9406C83.5073 84.3166 84.4913 84.0046 85.6273 84.0046C86.5553 84.0046 87.4033 84.2286 88.1713 84.6766C88.9393 85.1246 89.5473 85.7486 89.9953 86.5486C90.4433 87.3326 90.6673 88.2046 90.6673 89.1646C90.6673 89.5646 90.6353 90.2126 90.5713 91.1086H82.1953ZM88.7233 89.3326V89.0926C88.7233 88.4686 88.5793 87.9086 88.2913 87.4126C88.0193 86.9006 87.6433 86.5006 87.1633 86.2126C86.6993 85.9246 86.1793 85.7806 85.6033 85.7806C84.7873 85.7806 84.0753 86.0846 83.4673 86.6926C82.8753 87.3006 82.4833 88.1806 82.2913 89.3326H88.7233Z" fill="white"/>
<path d="M12.0938 119.587L15.668 110.951H16.5352L20.1094 119.587H19.0078L17.9414 117.009L17.8008 116.634L16.125 112.392H16.0781L14.4023 116.634L14.2617 117.009L13.1953 119.587H12.0938ZM13.7578 117.326V116.365H18.4453V117.326H13.7578ZM21.0415 119.587V113.376H22.0493V114.138H22.2837L21.8501 114.572C21.9555 114.291 22.1118 114.054 22.3188 113.863C22.5259 113.671 22.77 113.527 23.0513 113.429C23.3325 113.332 23.6352 113.283 23.9595 113.283C24.4829 113.283 24.9048 113.398 25.2251 113.628C25.5493 113.859 25.7837 114.152 25.9282 114.507C26.0766 114.863 26.1509 115.228 26.1509 115.603V119.587H25.143V115.814C25.143 115.287 25.0122 114.89 24.7505 114.625C24.4927 114.355 24.1352 114.22 23.6782 114.22C23.3735 114.22 23.0981 114.283 22.852 114.408C22.6059 114.529 22.4106 114.708 22.2661 114.947C22.1216 115.181 22.0493 115.47 22.0493 115.814V119.587H21.0415ZM30.2353 122.142C29.79 122.142 29.3623 122.082 28.9521 121.96C28.542 121.839 28.2158 121.701 27.9736 121.544L28.3603 120.654C28.5556 120.798 28.8212 120.929 29.1572 121.046C29.497 121.167 29.8486 121.228 30.2119 121.228C30.5166 121.228 30.8212 121.169 31.1259 121.052C31.4345 120.935 31.6904 120.746 31.8935 120.484C32.1005 120.222 32.2041 119.876 32.2041 119.447V118.626H32.0283L32.2509 118.076V114.736L31.958 114.162H32.1806V113.376H33.1884V119.4C33.1884 119.884 33.1045 120.298 32.9365 120.642C32.7685 120.99 32.542 121.273 32.2568 121.492C31.9755 121.714 31.6591 121.878 31.3076 121.984C30.9599 122.089 30.6025 122.142 30.2353 122.142ZM30.165 119.611C29.7939 119.611 29.4404 119.537 29.1045 119.388C28.7685 119.24 28.4697 119.027 28.208 118.75C27.9502 118.472 27.747 118.138 27.5986 117.748C27.4502 117.353 27.3759 116.912 27.3759 116.423C27.3759 115.763 27.5068 115.199 27.7685 114.73C28.0341 114.261 28.3818 113.904 28.8115 113.658C29.2412 113.408 29.708 113.283 30.2119 113.283C30.7314 113.283 31.1923 113.414 31.5947 113.675C32.0009 113.937 32.3193 114.302 32.5498 114.771C32.7802 115.24 32.8955 115.783 32.8955 116.4C32.8955 117.021 32.7763 117.574 32.538 118.058C32.2998 118.539 31.9736 118.917 31.5595 119.195C31.1494 119.472 30.6845 119.611 30.165 119.611ZM30.3291 118.673C30.6962 118.673 31.0224 118.578 31.3076 118.386C31.5927 118.191 31.8173 117.923 31.9814 117.583C32.1455 117.24 32.2275 116.845 32.2275 116.4C32.2275 115.958 32.1455 115.576 31.9814 115.251C31.8173 114.923 31.5927 114.669 31.3076 114.49C31.0224 114.31 30.6962 114.22 30.3291 114.22C29.9462 114.22 29.6103 114.314 29.3212 114.501C29.0322 114.685 28.8076 114.943 28.6474 115.275C28.4873 115.607 28.4072 115.99 28.4072 116.423C28.4072 116.861 28.4892 117.25 28.6533 117.589C28.8173 117.925 29.0439 118.191 29.333 118.386C29.622 118.578 29.9541 118.673 30.3291 118.673ZM37.1205 119.681C36.6596 119.681 36.2553 119.583 35.9077 119.388C35.56 119.193 35.2885 118.912 35.0932 118.544C34.8979 118.173 34.8002 117.728 34.8002 117.208V113.376H35.808V117.162C35.808 117.689 35.9526 118.085 36.2416 118.351C36.5346 118.613 36.8862 118.744 37.2963 118.744C37.6166 118.744 37.8959 118.673 38.1342 118.533C38.3764 118.388 38.5639 118.197 38.6967 117.958C38.8334 117.716 38.9018 117.451 38.9018 117.162V113.376H39.9096V117.83C39.9096 118.103 39.9428 118.308 40.0092 118.445C40.0756 118.578 40.2104 118.685 40.4135 118.767L40.0268 119.681C39.7416 119.544 39.5092 119.375 39.3295 119.171C39.1537 118.964 39.0659 118.759 39.0659 118.556L39.5463 118.767H38.7612L39.2885 118.416C39.1323 118.748 38.8745 119.042 38.5151 119.3C38.1557 119.554 37.6909 119.681 37.1205 119.681ZM42.9394 119.681C42.6464 119.681 42.4062 119.621 42.2187 119.5C42.0351 119.375 41.8984 119.195 41.8085 118.96C41.7187 118.722 41.6737 118.435 41.6737 118.099V110.564H42.6816V118.123C42.6816 118.201 42.6874 118.289 42.6991 118.386C42.7148 118.484 42.7538 118.568 42.8163 118.638C42.8788 118.708 42.9862 118.744 43.1386 118.744C43.1855 118.744 43.2323 118.74 43.2792 118.732C43.3261 118.72 43.373 118.708 43.4198 118.697V119.611C43.3612 119.634 43.289 119.652 43.203 119.664C43.1171 119.675 43.0292 119.681 42.9394 119.681ZM46.3793 119.681C45.9965 119.681 45.6508 119.607 45.3422 119.458C45.0336 119.31 44.7895 119.099 44.6098 118.826C44.4301 118.548 44.3402 118.216 44.3402 117.83C44.3402 117.419 44.4516 117.07 44.6742 116.781C44.8969 116.492 45.2191 116.273 45.641 116.125C46.0629 115.972 46.5746 115.896 47.1762 115.896H48.4652V116.705H47.2465C46.6332 116.705 46.1586 116.802 45.8227 116.998C45.4906 117.193 45.3246 117.47 45.3246 117.83C45.3246 118.037 45.3773 118.214 45.4828 118.363C45.5883 118.507 45.7289 118.619 45.9047 118.697C46.0844 118.775 46.2816 118.814 46.4965 118.814C46.7543 118.814 47.0199 118.757 47.2934 118.644C47.5707 118.527 47.8031 118.359 47.9906 118.14C48.182 117.917 48.2777 117.646 48.2777 117.326V116.681L48.2543 116.318V115.626C48.2543 115.525 48.2465 115.396 48.2309 115.24C48.2152 115.08 48.1684 114.921 48.0902 114.765C48.016 114.609 47.8891 114.478 47.7094 114.373C47.5297 114.263 47.2777 114.208 46.9535 114.208C46.7621 114.208 46.5551 114.234 46.3324 114.285C46.1137 114.332 45.8988 114.398 45.6879 114.484C45.4809 114.57 45.2973 114.669 45.1371 114.783L44.7504 113.88C44.9574 113.759 45.1879 113.654 45.4418 113.564C45.6996 113.47 45.9652 113.398 46.2387 113.347C46.516 113.296 46.7855 113.271 47.0473 113.271C47.4691 113.271 47.8188 113.333 48.0961 113.458C48.3773 113.583 48.6 113.755 48.7641 113.974C48.9281 114.193 49.0434 114.443 49.1098 114.724C49.1801 115.001 49.2152 115.294 49.2152 115.603V117.783C49.2152 118.044 49.2426 118.251 49.2973 118.404C49.3559 118.556 49.4574 118.662 49.602 118.72L49.7191 118.767L49.3324 119.681L49.1684 119.611C48.9496 119.517 48.7621 119.378 48.6059 119.195C48.4496 119.011 48.3715 118.83 48.3715 118.65L48.5707 118.72H48.184L48.4418 118.556C48.2895 118.865 48.0297 119.13 47.6625 119.353C47.2992 119.572 46.8715 119.681 46.3793 119.681ZM51.0028 119.587V113.376H52.0106V114.326H52.1747L51.8348 114.712C51.9481 114.455 52.1005 114.218 52.2919 114.003C52.4872 113.785 52.7196 113.611 52.9891 113.482C53.2626 113.349 53.5731 113.283 53.9208 113.283C54.0575 113.283 54.1845 113.292 54.3016 113.312C54.4227 113.328 54.5067 113.345 54.5536 113.365L54.1434 114.337C54.12 114.326 54.0673 114.316 53.9852 114.308C53.9032 114.296 53.8114 114.291 53.7098 114.291C53.5302 114.291 53.3407 114.33 53.1415 114.408C52.9462 114.486 52.7626 114.599 52.5907 114.748C52.4188 114.896 52.2782 115.08 52.1688 115.298C52.0634 115.513 52.0106 115.759 52.0106 116.037V119.587H51.0028ZM58.5858 119.587V110.951H59.4647L62.4647 116.283H62.5116L65.5116 110.951H66.3905V119.587H65.3358V114.912L65.3592 113.189H65.3123L62.6756 117.912H62.3006L59.6639 113.189H59.617L59.6405 114.912V119.587H58.5858ZM69.9827 119.681C69.5999 119.681 69.2542 119.607 68.9456 119.458C68.637 119.31 68.3929 119.099 68.2132 118.826C68.0335 118.548 67.9437 118.216 67.9437 117.83C67.9437 117.419 68.055 117.07 68.2777 116.781C68.5003 116.492 68.8226 116.273 69.2445 116.125C69.6663 115.972 70.178 115.896 70.7796 115.896H72.0687V116.705H70.8499C70.2366 116.705 69.762 116.802 69.4261 116.998C69.0941 117.193 68.928 117.47 68.928 117.83C68.928 118.037 68.9808 118.214 69.0863 118.363C69.1917 118.507 69.3323 118.619 69.5081 118.697C69.6878 118.775 69.8851 118.814 70.0999 118.814C70.3577 118.814 70.6234 118.757 70.8968 118.644C71.1741 118.527 71.4066 118.359 71.5941 118.14C71.7855 117.917 71.8812 117.646 71.8812 117.326V116.681L71.8577 116.318V115.626C71.8577 115.525 71.8499 115.396 71.8343 115.24C71.8187 115.08 71.7718 114.921 71.6937 114.765C71.6195 114.609 71.4925 114.478 71.3128 114.373C71.1331 114.263 70.8812 114.208 70.557 114.208C70.3655 114.208 70.1585 114.234 69.9359 114.285C69.7171 114.332 69.5023 114.398 69.2913 114.484C69.0843 114.57 68.9007 114.669 68.7405 114.783L68.3538 113.88C68.5609 113.759 68.7913 113.654 69.0452 113.564C69.303 113.47 69.5687 113.398 69.8421 113.347C70.1195 113.296 70.389 113.271 70.6507 113.271C71.0726 113.271 71.4222 113.333 71.6995 113.458C71.9808 113.583 72.2034 113.755 72.3675 113.974C72.5316 114.193 72.6468 114.443 72.7132 114.724C72.7835 115.001 72.8187 115.294 72.8187 115.603V117.783C72.8187 118.044 72.846 118.251 72.9007 118.404C72.9593 118.556 73.0609 118.662 73.2054 118.72L73.3226 118.767L72.9359 119.681L72.7718 119.611C72.553 119.517 72.3655 119.378 72.2093 119.195C72.053 119.011 71.9749 118.83 71.9749 118.65L72.1741 118.72H71.7874L72.0452 118.556C71.8929 118.865 71.6331 119.13 71.2659 119.353C70.9027 119.572 70.4749 119.681 69.9827 119.681ZM76.7859 119.681C76.2 119.681 75.7586 119.511 75.4617 119.171C75.1648 118.832 75.0164 118.396 75.0164 117.865V111.384H76.0242V117.759C76.0242 118.08 76.0965 118.324 76.241 118.492C76.3855 118.66 76.575 118.744 76.8094 118.744C76.9109 118.744 77.0027 118.73 77.0848 118.703C77.1668 118.671 77.243 118.638 77.3133 118.603L77.7 119.494C77.5828 119.541 77.45 119.583 77.3016 119.623C77.1531 119.662 76.9813 119.681 76.7859 119.681ZM73.9852 114.291V113.376H77.5594V114.291H73.9852ZM81.2923 119.681C80.7102 119.681 80.1927 119.55 79.7395 119.289C79.2903 119.023 78.9368 118.65 78.679 118.169C78.4212 117.689 78.2923 117.123 78.2923 116.47C78.2923 115.822 78.4173 115.259 78.6673 114.783C78.9173 114.306 79.2571 113.937 79.6868 113.675C80.1204 113.414 80.6087 113.283 81.1516 113.283C81.6868 113.283 82.1595 113.406 82.5696 113.652C82.9798 113.894 83.3001 114.23 83.5305 114.66C83.7649 115.089 83.8821 115.58 83.8821 116.13C83.8821 116.298 83.8723 116.449 83.8528 116.582C83.8372 116.714 83.8235 116.814 83.8118 116.88H79.054V116.06H82.8977C82.8977 115.724 82.8274 115.417 82.6868 115.14C82.5462 114.859 82.345 114.636 82.0833 114.472C81.8216 114.304 81.511 114.22 81.1516 114.22C80.7845 114.22 80.4602 114.314 80.179 114.501C79.8977 114.689 79.677 114.953 79.5169 115.292C79.3567 115.628 79.2766 116.021 79.2766 116.47C79.2766 116.923 79.3606 117.322 79.5286 117.666C79.6966 118.005 79.9348 118.271 80.2434 118.462C80.552 118.65 80.9173 118.744 81.3391 118.744C81.5891 118.744 81.8157 118.712 82.0188 118.65C82.2259 118.583 82.4075 118.503 82.5638 118.41C82.7239 118.312 82.8587 118.216 82.968 118.123L83.3548 119.037C83.1165 119.212 82.8177 119.365 82.4583 119.494C82.1028 119.619 81.7141 119.681 81.2923 119.681ZM85.2361 119.587V113.376H86.2439V114.326H86.408L86.0681 114.712C86.1814 114.455 86.3337 114.218 86.5252 114.003C86.7205 113.785 86.9529 113.611 87.2224 113.482C87.4959 113.349 87.8064 113.283 88.1541 113.283C88.2908 113.283 88.4177 113.292 88.5349 113.312C88.656 113.328 88.74 113.345 88.7869 113.365L88.3767 114.337C88.3533 114.326 88.3005 114.316 88.2185 114.308C88.1365 114.296 88.0447 114.291 87.9431 114.291C87.7634 114.291 87.574 114.33 87.3748 114.408C87.1795 114.486 86.9959 114.599 86.824 114.748C86.6521 114.896 86.5115 115.08 86.4021 115.298C86.2966 115.513 86.2439 115.759 86.2439 116.037V119.587H85.2361ZM89.7073 119.587V113.376H90.7151V119.587H89.7073ZM90.2112 112.38C89.9963 112.38 89.8147 112.306 89.6663 112.158C89.5217 112.009 89.4495 111.83 89.4495 111.619C89.4495 111.408 89.5217 111.228 89.6663 111.08C89.8147 110.931 89.9963 110.857 90.2112 110.857C90.4221 110.857 90.6018 110.931 90.7502 111.08C90.8987 111.228 90.9729 111.408 90.9729 111.619C90.9729 111.83 90.8987 112.009 90.7502 112.158C90.6018 112.306 90.4221 112.38 90.2112 112.38ZM94.1433 119.681C93.7605 119.681 93.4148 119.607 93.1062 119.458C92.7976 119.31 92.5534 119.099 92.3737 118.826C92.1941 118.548 92.1042 118.216 92.1042 117.83C92.1042 117.419 92.2155 117.07 92.4382 116.781C92.6609 116.492 92.9831 116.273 93.405 116.125C93.8269 115.972 94.3386 115.896 94.9402 115.896H96.2292V116.705H95.0105C94.3972 116.705 93.9226 116.802 93.5866 116.998C93.2546 117.193 93.0886 117.47 93.0886 117.83C93.0886 118.037 93.1413 118.214 93.2468 118.363C93.3523 118.507 93.4929 118.619 93.6687 118.697C93.8484 118.775 94.0456 118.814 94.2605 118.814C94.5183 118.814 94.7839 118.757 95.0573 118.644C95.3347 118.527 95.5671 118.359 95.7546 118.14C95.946 117.917 96.0417 117.646 96.0417 117.326V116.681L96.0183 116.318V115.626C96.0183 115.525 96.0105 115.396 95.9948 115.24C95.9792 115.08 95.9323 114.921 95.8542 114.765C95.78 114.609 95.653 114.478 95.4734 114.373C95.2937 114.263 95.0417 114.208 94.7175 114.208C94.5261 114.208 94.3191 114.234 94.0964 114.285C93.8777 114.332 93.6628 114.398 93.4519 114.484C93.2448 114.57 93.0612 114.669 92.9011 114.783L92.5144 113.88C92.7214 113.759 92.9519 113.654 93.2058 113.564C93.4636 113.47 93.7292 113.398 94.0027 113.347C94.28 113.296 94.5495 113.271 94.8112 113.271C95.2331 113.271 95.5827 113.333 95.8601 113.458C96.1413 113.583 96.364 113.755 96.528 113.974C96.6921 114.193 96.8073 114.443 96.8737 114.724C96.9441 115.001 96.9792 115.294 96.9792 115.603V117.783C96.9792 118.044 97.0066 118.251 97.0612 118.404C97.1198 118.556 97.2214 118.662 97.3659 118.72L97.4831 118.767L97.0964 119.681L96.9323 119.611C96.7136 119.517 96.5261 119.378 96.3698 119.195C96.2136 119.011 96.1355 118.83 96.1355 118.65L96.3347 118.72H95.948L96.2058 118.556C96.0534 118.865 95.7937 119.13 95.4265 119.353C95.0632 119.572 94.6355 119.681 94.1433 119.681ZM100.009 119.681C99.716 119.681 99.4758 119.621 99.2883 119.5C99.1047 119.375 98.968 119.195 98.8781 118.96C98.7883 118.722 98.7434 118.435 98.7434 118.099V110.564H99.7512V118.123C99.7512 118.201 99.757 118.289 99.7688 118.386C99.7844 118.484 99.8234 118.568 99.8859 118.638C99.9484 118.708 100.056 118.744 100.208 118.744C100.255 118.744 100.302 118.74 100.349 118.732C100.396 118.72 100.443 118.708 100.489 118.697V119.611C100.431 119.634 100.359 119.652 100.273 119.664C100.187 119.675 100.099 119.681 100.009 119.681ZM104.861 119.587V110.951H107.651C108.233 110.951 108.77 111.048 109.262 111.244C109.754 111.435 110.18 111.714 110.539 112.082C110.902 112.449 111.184 112.894 111.383 113.417C111.582 113.941 111.682 114.533 111.682 115.193C111.682 115.869 111.582 116.478 111.383 117.021C111.184 117.56 110.904 118.021 110.545 118.404C110.19 118.787 109.772 119.08 109.291 119.283C108.811 119.486 108.287 119.587 107.721 119.587H104.861ZM105.916 118.626H107.721C108.127 118.626 108.506 118.548 108.858 118.392C109.209 118.232 109.518 118.001 109.783 117.701C110.049 117.4 110.256 117.039 110.404 116.617C110.553 116.195 110.627 115.72 110.627 115.193C110.627 114.677 110.553 114.216 110.404 113.81C110.256 113.404 110.049 113.06 109.783 112.779C109.518 112.498 109.209 112.283 108.858 112.134C108.506 111.986 108.127 111.912 107.721 111.912H105.916V118.626ZM115.778 119.681C115.196 119.681 114.678 119.55 114.225 119.289C113.776 119.023 113.423 118.65 113.165 118.169C112.907 117.689 112.778 117.123 112.778 116.47C112.778 115.822 112.903 115.259 113.153 114.783C113.403 114.306 113.743 113.937 114.173 113.675C114.606 113.414 115.094 113.283 115.637 113.283C116.173 113.283 116.645 113.406 117.055 113.652C117.465 113.894 117.786 114.23 118.016 114.66C118.251 115.089 118.368 115.58 118.368 116.13C118.368 116.298 118.358 116.449 118.339 116.582C118.323 116.714 118.309 116.814 118.298 116.88H113.54V116.06H117.383C117.383 115.724 117.313 115.417 117.173 115.14C117.032 114.859 116.831 114.636 116.569 114.472C116.307 114.304 115.997 114.22 115.637 114.22C115.27 114.22 114.946 114.314 114.665 114.501C114.383 114.689 114.163 114.953 114.003 115.292C113.842 115.628 113.762 116.021 113.762 116.47C113.762 116.923 113.846 117.322 114.014 117.666C114.182 118.005 114.421 118.271 114.729 118.462C115.038 118.65 115.403 118.744 115.825 118.744C116.075 118.744 116.301 118.712 116.505 118.65C116.712 118.583 116.893 118.503 117.049 118.41C117.21 118.312 117.344 118.216 117.454 118.123L117.84 119.037C117.602 119.212 117.303 119.365 116.944 119.494C116.589 119.619 116.2 119.681 115.778 119.681ZM121.468 119.681C121.101 119.681 120.767 119.613 120.466 119.476C120.169 119.335 119.919 119.156 119.716 118.937C119.513 118.714 119.37 118.482 119.288 118.24L120.202 117.865C120.284 118.099 120.441 118.304 120.671 118.48C120.905 118.656 121.171 118.744 121.468 118.744C121.655 118.744 121.833 118.708 122.001 118.638C122.169 118.564 122.306 118.462 122.411 118.333C122.517 118.201 122.569 118.044 122.569 117.865C122.569 117.689 122.521 117.541 122.423 117.419C122.325 117.294 122.2 117.189 122.048 117.103C121.896 117.017 121.735 116.945 121.567 116.886C121.403 116.828 121.253 116.775 121.116 116.728C120.882 116.65 120.636 116.546 120.378 116.417C120.12 116.285 119.901 116.105 119.722 115.878C119.542 115.648 119.452 115.349 119.452 114.982C119.452 114.619 119.544 114.31 119.728 114.056C119.911 113.802 120.151 113.611 120.448 113.482C120.745 113.349 121.062 113.283 121.398 113.283C121.901 113.283 122.319 113.412 122.651 113.669C122.987 113.923 123.226 114.208 123.366 114.525L122.452 114.912C122.359 114.728 122.228 114.564 122.06 114.419C121.896 114.271 121.675 114.197 121.398 114.197C121.148 114.197 120.925 114.265 120.73 114.402C120.534 114.535 120.437 114.728 120.437 114.982C120.437 115.197 120.505 115.369 120.642 115.498C120.778 115.626 120.942 115.73 121.134 115.808C121.329 115.886 121.515 115.955 121.691 116.013C121.851 116.064 122.036 116.132 122.247 116.218C122.458 116.304 122.663 116.416 122.862 116.552C123.062 116.689 123.226 116.861 123.355 117.068C123.487 117.275 123.554 117.529 123.554 117.83C123.554 118.189 123.456 118.509 123.261 118.791C123.069 119.068 122.816 119.287 122.499 119.447C122.183 119.603 121.839 119.681 121.468 119.681ZM124.955 119.587V113.376H125.963V119.587H124.955ZM125.459 112.38C125.244 112.38 125.062 112.306 124.914 112.158C124.769 112.009 124.697 111.83 124.697 111.619C124.697 111.408 124.769 111.228 124.914 111.08C125.062 110.931 125.244 110.857 125.459 110.857C125.67 110.857 125.849 110.931 125.998 111.08C126.146 111.228 126.22 111.408 126.22 111.619C126.22 111.83 126.146 112.009 125.998 112.158C125.849 112.306 125.67 112.38 125.459 112.38ZM130.164 122.142C129.719 122.142 129.291 122.082 128.881 121.96C128.471 121.839 128.145 121.701 127.902 121.544L128.289 120.654C128.484 120.798 128.75 120.929 129.086 121.046C129.426 121.167 129.777 121.228 130.141 121.228C130.445 121.228 130.75 121.169 131.055 121.052C131.363 120.935 131.619 120.746 131.822 120.484C132.029 120.222 132.133 119.876 132.133 119.447V118.626H131.957L132.18 118.076V114.736L131.887 114.162H132.109V113.376H133.117V119.4C133.117 119.884 133.033 120.298 132.865 120.642C132.697 120.99 132.471 121.273 132.186 121.492C131.904 121.714 131.588 121.878 131.236 121.984C130.889 122.089 130.531 122.142 130.164 122.142ZM130.094 119.611C129.723 119.611 129.369 119.537 129.033 119.388C128.697 119.24 128.399 119.027 128.137 118.75C127.879 118.472 127.676 118.138 127.527 117.748C127.379 117.353 127.305 116.912 127.305 116.423C127.305 115.763 127.436 115.199 127.697 114.73C127.963 114.261 128.311 113.904 128.74 113.658C129.17 113.408 129.637 113.283 130.141 113.283C130.66 113.283 131.121 113.414 131.524 113.675C131.93 113.937 132.248 114.302 132.479 114.771C132.709 115.24 132.824 115.783 132.824 116.4C132.824 117.021 132.705 117.574 132.467 118.058C132.229 118.539 131.902 118.917 131.488 119.195C131.078 119.472 130.613 119.611 130.094 119.611ZM130.258 118.673C130.625 118.673 130.951 118.578 131.236 118.386C131.522 118.191 131.746 117.923 131.91 117.583C132.074 117.24 132.156 116.845 132.156 116.4C132.156 115.958 132.074 115.576 131.91 115.251C131.746 114.923 131.522 114.669 131.236 114.49C130.951 114.31 130.625 114.22 130.258 114.22C129.875 114.22 129.539 114.314 129.25 114.501C128.961 114.685 128.736 114.943 128.576 115.275C128.416 115.607 128.336 115.99 128.336 116.423C128.336 116.861 128.418 117.25 128.582 117.589C128.746 117.925 128.973 118.191 129.262 118.386C129.551 118.578 129.883 118.673 130.258 118.673ZM134.753 119.587V113.376H135.76V114.138H135.995L135.561 114.572C135.667 114.291 135.823 114.054 136.03 113.863C136.237 113.671 136.481 113.527 136.762 113.429C137.044 113.332 137.346 113.283 137.67 113.283C138.194 113.283 138.616 113.398 138.936 113.628C139.26 113.859 139.495 114.152 139.639 114.507C139.788 114.863 139.862 115.228 139.862 115.603V119.587H138.854V115.814C138.854 115.287 138.723 114.89 138.461 114.625C138.204 114.355 137.846 114.22 137.389 114.22C137.085 114.22 136.809 114.283 136.563 114.408C136.317 114.529 136.122 114.708 135.977 114.947C135.833 115.181 135.76 115.47 135.76 115.814V119.587H134.753ZM15.4102 135.681C14.9531 135.681 14.5332 135.587 14.1504 135.4C13.7676 135.212 13.4414 134.968 13.1719 134.667C12.9023 134.367 12.7109 134.048 12.5977 133.712L13.582 133.302C13.6641 133.552 13.7891 133.785 13.957 134C14.1289 134.214 14.3359 134.388 14.5781 134.521C14.8242 134.654 15.0977 134.72 15.3984 134.72C15.6797 134.72 15.9414 134.66 16.1836 134.539C16.4258 134.414 16.6211 134.244 16.7695 134.029C16.918 133.81 16.9922 133.56 16.9922 133.279C16.9922 132.99 16.918 132.746 16.7695 132.546C16.625 132.343 16.4453 132.175 16.2305 132.042C16.0156 131.91 15.8008 131.804 15.5859 131.726C15.375 131.644 15.2031 131.58 15.0703 131.533C14.6914 131.4 14.334 131.226 13.998 131.011C13.6621 130.796 13.3887 130.527 13.1777 130.203C12.9707 129.878 12.8672 129.486 12.8672 129.025C12.8672 128.587 12.9668 128.207 13.166 127.882C13.3652 127.558 13.6445 127.306 14.0039 127.126C14.3633 126.947 14.7812 126.857 15.2578 126.857C15.6992 126.857 16.084 126.929 16.4121 127.074C16.7441 127.218 17.0215 127.408 17.2441 127.642C17.4707 127.876 17.6445 128.126 17.7656 128.392L16.8281 128.767C16.7539 128.63 16.6465 128.49 16.5059 128.345C16.3652 128.197 16.1914 128.072 15.9844 127.97C15.7773 127.869 15.5391 127.818 15.2695 127.818C14.9062 127.818 14.5859 127.921 14.3086 128.128C14.0352 128.335 13.8984 128.642 13.8984 129.048C13.8984 129.298 13.9512 129.513 14.0566 129.693C14.166 129.873 14.3066 130.027 14.4785 130.156C14.6504 130.281 14.8301 130.386 15.0176 130.472C15.209 130.558 15.3867 130.63 15.5508 130.689C15.7344 130.751 15.9629 130.839 16.2363 130.953C16.5137 131.062 16.7871 131.212 17.0566 131.404C17.3301 131.591 17.5586 131.833 17.7422 132.13C17.9297 132.427 18.0234 132.794 18.0234 133.232C18.0234 133.724 17.9004 134.154 17.6543 134.521C17.4121 134.888 17.0918 135.173 16.6934 135.376C16.2949 135.58 15.8672 135.681 15.4102 135.681ZM19.893 138.142C19.6548 138.142 19.4321 138.115 19.2251 138.06C19.018 138.005 18.8735 137.955 18.7915 137.908L19.1782 136.994C19.3032 137.056 19.4321 137.107 19.5649 137.146C19.6977 137.185 19.8188 137.205 19.9282 137.205C20.1665 137.208 20.3618 137.15 20.5141 137.029C20.6704 136.912 20.7915 136.773 20.8774 136.613C20.9634 136.457 21.0259 136.322 21.0649 136.208L21.3813 135.271L21.4048 135.88L18.6977 129.376H19.7993L21.2641 133.162L21.7446 134.439H21.7915L22.2251 133.162L23.561 129.376H24.6274L21.9555 136.455C21.9048 136.595 21.8305 136.759 21.7329 136.947C21.6391 137.138 21.5141 137.324 21.3579 137.503C21.2016 137.687 21.0044 137.839 20.7661 137.96C20.5278 138.082 20.2368 138.142 19.893 138.142ZM27.3056 135.681C26.9384 135.681 26.6045 135.613 26.3037 135.476C26.0068 135.335 25.7568 135.156 25.5537 134.937C25.3505 134.714 25.208 134.482 25.1259 134.24L26.04 133.865C26.122 134.099 26.2783 134.304 26.5087 134.48C26.7431 134.656 27.0087 134.744 27.3056 134.744C27.4931 134.744 27.6709 134.708 27.8388 134.638C28.0068 134.564 28.1435 134.462 28.249 134.333C28.3545 134.201 28.4072 134.044 28.4072 133.865C28.4072 133.689 28.3584 133.541 28.2607 133.419C28.163 133.294 28.038 133.189 27.8857 133.103C27.7334 133.017 27.5732 132.945 27.4052 132.886C27.2412 132.828 27.0908 132.775 26.9541 132.728C26.7197 132.65 26.4736 132.546 26.2158 132.417C25.958 132.285 25.7392 132.105 25.5595 131.878C25.3798 131.648 25.29 131.349 25.29 130.982C25.29 130.619 25.3818 130.31 25.5654 130.056C25.749 129.802 25.9892 129.611 26.2861 129.482C26.583 129.349 26.8994 129.283 27.2353 129.283C27.7392 129.283 28.1572 129.412 28.4892 129.669C28.8252 129.923 29.0634 130.208 29.2041 130.525L28.29 130.912C28.1962 130.728 28.0654 130.564 27.8974 130.419C27.7334 130.271 27.5127 130.197 27.2353 130.197C26.9853 130.197 26.7627 130.265 26.5673 130.402C26.372 130.535 26.2744 130.728 26.2744 130.982C26.2744 131.197 26.3427 131.369 26.4795 131.498C26.6162 131.626 26.7802 131.73 26.9716 131.808C27.167 131.886 27.3525 131.955 27.5283 132.013C27.6884 132.064 27.874 132.132 28.0849 132.218C28.2959 132.304 28.5009 132.416 28.7002 132.552C28.8994 132.689 29.0634 132.861 29.1923 133.068C29.3252 133.275 29.3916 133.529 29.3916 133.83C29.3916 134.189 29.2939 134.509 29.0986 134.791C28.9072 135.068 28.6533 135.287 28.3369 135.447C28.0205 135.603 27.6767 135.681 27.3056 135.681ZM32.9721 135.681C32.3862 135.681 31.9448 135.511 31.6479 135.171C31.351 134.832 31.2026 134.396 31.2026 133.865V127.384H32.2104V133.759C32.2104 134.08 32.2827 134.324 32.4272 134.492C32.5717 134.66 32.7612 134.744 32.9955 134.744C33.0971 134.744 33.1889 134.73 33.2709 134.703C33.353 134.671 33.4291 134.638 33.4995 134.603L33.8862 135.494C33.769 135.541 33.6362 135.583 33.4877 135.623C33.3393 135.662 33.1674 135.681 32.9721 135.681ZM30.1713 130.291V129.376H33.7455V130.291H30.1713ZM37.4784 135.681C36.8964 135.681 36.3788 135.55 35.9257 135.289C35.4765 135.023 35.123 134.65 34.8652 134.169C34.6073 133.689 34.4784 133.123 34.4784 132.47C34.4784 131.822 34.6034 131.259 34.8534 130.783C35.1034 130.306 35.4433 129.937 35.873 129.675C36.3066 129.414 36.7948 129.283 37.3378 129.283C37.873 129.283 38.3456 129.406 38.7558 129.652C39.1659 129.894 39.4862 130.23 39.7167 130.66C39.9511 131.089 40.0683 131.58 40.0683 132.13C40.0683 132.298 40.0585 132.449 40.039 132.582C40.0234 132.714 40.0097 132.814 39.998 132.88H35.2402V132.06H39.0839C39.0839 131.724 39.0136 131.417 38.873 131.14C38.7323 130.859 38.5312 130.636 38.2695 130.472C38.0077 130.304 37.6972 130.22 37.3378 130.22C36.9706 130.22 36.6464 130.314 36.3652 130.501C36.0839 130.689 35.8632 130.953 35.703 131.292C35.5429 131.628 35.4628 132.021 35.4628 132.47C35.4628 132.923 35.5468 133.322 35.7148 133.666C35.8827 134.005 36.121 134.271 36.4296 134.462C36.7382 134.65 37.1034 134.744 37.5253 134.744C37.7753 134.744 38.0019 134.712 38.205 134.65C38.412 134.583 38.5937 134.503 38.7499 134.41C38.9101 134.312 39.0448 134.216 39.1542 134.123L39.5409 135.037C39.3027 135.212 39.0038 135.365 38.6445 135.494C38.289 135.619 37.9003 135.681 37.4784 135.681ZM41.4223 135.587V129.376H42.4301V130.115H42.6176L42.184 130.666C42.3324 130.232 42.5785 129.894 42.9223 129.652C43.2699 129.406 43.6723 129.283 44.1293 129.283C44.598 129.283 44.9926 129.404 45.3129 129.646C45.6371 129.888 45.852 130.197 45.9574 130.572L45.5004 130.162H46.1449L45.5941 130.572C45.766 130.138 46.0434 129.816 46.4262 129.605C46.8129 129.39 47.2309 129.283 47.6801 129.283C48.0277 129.283 48.3344 129.341 48.6 129.458C48.8656 129.572 49.0883 129.732 49.268 129.939C49.4477 130.142 49.5824 130.38 49.6723 130.654C49.766 130.927 49.8129 131.22 49.8129 131.533V135.587H48.8051V131.744C48.8051 131.24 48.6859 130.861 48.4477 130.607C48.2133 130.349 47.9027 130.22 47.516 130.22C47.2699 130.22 47.0414 130.277 46.8305 130.39C46.6195 130.5 46.4477 130.667 46.3148 130.894C46.1859 131.117 46.1215 131.4 46.1215 131.744V135.587H45.1137V131.744C45.1137 131.24 44.9926 130.861 44.7504 130.607C44.5121 130.349 44.1996 130.22 43.8129 130.22C43.4457 130.22 43.1234 130.351 42.8461 130.613C42.5688 130.871 42.4301 131.263 42.4301 131.791V135.587H41.4223ZM53.9623 130.291V129.376H57.5951V130.291H53.9623ZM55.0521 135.587V128.263C55.0521 127.736 55.2084 127.306 55.5209 126.974C55.8373 126.638 56.2826 126.47 56.8568 126.47C57.0521 126.47 57.2181 126.488 57.3548 126.523C57.4955 126.554 57.6302 126.599 57.7591 126.658L57.3841 127.548C57.3138 127.494 57.2318 127.457 57.138 127.437C57.0443 127.417 56.9505 127.408 56.8568 127.408C56.6068 127.408 56.4115 127.492 56.2709 127.66C56.1302 127.828 56.0599 128.064 56.0599 128.369V135.587H55.0521ZM60.9764 135.681C60.3944 135.681 59.8748 135.544 59.4178 135.271C58.9647 134.998 58.6073 134.619 58.3455 134.134C58.0838 133.646 57.953 133.083 57.953 132.447C57.953 131.822 58.0838 131.273 58.3455 130.8C58.6073 130.324 58.9647 129.953 59.4178 129.687C59.8748 129.417 60.3944 129.283 60.9764 129.283C61.5623 129.283 62.0819 129.417 62.535 129.687C62.992 129.953 63.3495 130.324 63.6073 130.8C63.869 131.273 63.9998 131.822 63.9998 132.447C63.9998 133.083 63.867 133.646 63.6014 134.134C63.3397 134.619 62.9803 134.998 62.5233 135.271C62.0702 135.544 61.5545 135.681 60.9764 135.681ZM60.9764 134.744C61.3631 134.744 61.7069 134.648 62.0077 134.457C62.3084 134.265 62.5428 133.998 62.7108 133.654C62.8827 133.31 62.9686 132.908 62.9686 132.447C62.9686 131.998 62.8827 131.607 62.7108 131.275C62.5428 130.939 62.3084 130.679 62.0077 130.496C61.7069 130.312 61.3631 130.22 60.9764 130.22C60.5936 130.22 60.2518 130.312 59.951 130.496C59.6502 130.679 59.4139 130.939 59.242 131.275C59.0702 131.607 58.9842 131.998 58.9842 132.447C58.9842 132.908 59.0682 133.31 59.2362 133.654C59.408 133.998 59.6424 134.265 59.9393 134.457C60.2401 134.648 60.5858 134.744 60.9764 134.744ZM65.307 135.587V129.376H66.3148V130.326H66.4788L66.139 130.712C66.2523 130.455 66.4046 130.218 66.596 130.003C66.7913 129.785 67.0238 129.611 67.2933 129.482C67.5667 129.349 67.8773 129.283 68.2249 129.283C68.3616 129.283 68.4886 129.292 68.6058 129.312C68.7269 129.328 68.8109 129.345 68.8577 129.365L68.4476 130.337C68.4241 130.326 68.3714 130.316 68.2894 130.308C68.2073 130.296 68.1155 130.291 68.014 130.291C67.8343 130.291 67.6448 130.33 67.4456 130.408C67.2503 130.486 67.0667 130.599 66.8948 130.748C66.723 130.896 66.5823 131.08 66.473 131.298C66.3675 131.513 66.3148 131.759 66.3148 132.037V135.587H65.307ZM75.2923 135.681C74.8352 135.681 74.4153 135.587 74.0325 135.4C73.6497 135.212 73.3235 134.968 73.054 134.667C72.7845 134.367 72.593 134.048 72.4798 133.712L73.4641 133.302C73.5462 133.552 73.6712 133.785 73.8391 134C74.011 134.214 74.218 134.388 74.4602 134.521C74.7063 134.654 74.9798 134.72 75.2805 134.72C75.5618 134.72 75.8235 134.66 76.0657 134.539C76.3079 134.414 76.5032 134.244 76.6516 134.029C76.8001 133.81 76.8743 133.56 76.8743 133.279C76.8743 132.99 76.8001 132.746 76.6516 132.546C76.5071 132.343 76.3274 132.175 76.1126 132.042C75.8977 131.91 75.6829 131.804 75.468 131.726C75.2571 131.644 75.0852 131.58 74.9524 131.533C74.5735 131.4 74.2161 131.226 73.8802 131.011C73.5442 130.796 73.2708 130.527 73.0598 130.203C72.8528 129.878 72.7493 129.486 72.7493 129.025C72.7493 128.587 72.8489 128.207 73.0481 127.882C73.2473 127.558 73.5266 127.306 73.886 127.126C74.2454 126.947 74.6634 126.857 75.1399 126.857C75.5813 126.857 75.9661 126.929 76.2942 127.074C76.6263 127.218 76.9036 127.408 77.1263 127.642C77.3528 127.876 77.5266 128.126 77.6477 128.392L76.7102 128.767C76.636 128.63 76.5286 128.49 76.388 128.345C76.2473 128.197 76.0735 128.072 75.8665 127.97C75.6595 127.869 75.4212 127.818 75.1516 127.818C74.7884 127.818 74.468 127.921 74.1907 128.128C73.9173 128.335 73.7805 128.642 73.7805 129.048C73.7805 129.298 73.8333 129.513 73.9388 129.693C74.0481 129.873 74.1888 130.027 74.3606 130.156C74.5325 130.281 74.7122 130.386 74.8997 130.472C75.0911 130.558 75.2688 130.63 75.4329 130.689C75.6165 130.751 75.845 130.839 76.1184 130.953C76.3958 131.062 76.6692 131.212 76.9388 131.404C77.2122 131.591 77.4407 131.833 77.6243 132.13C77.8118 132.427 77.9055 132.794 77.9055 133.232C77.9055 133.724 77.7825 134.154 77.5364 134.521C77.2942 134.888 76.9739 135.173 76.5755 135.376C76.177 135.58 75.7493 135.681 75.2923 135.681ZM79.3884 135.587V129.376H80.3962V130.115H80.5837L80.1502 130.666C80.2986 130.232 80.5447 129.894 80.8884 129.652C81.2361 129.406 81.6384 129.283 82.0955 129.283C82.5642 129.283 82.9587 129.404 83.2791 129.646C83.6033 129.888 83.8181 130.197 83.9236 130.572L83.4666 130.162H84.1111L83.5603 130.572C83.7322 130.138 84.0095 129.816 84.3923 129.605C84.7791 129.39 85.197 129.283 85.6462 129.283C85.9939 129.283 86.3005 129.341 86.5662 129.458C86.8318 129.572 87.0545 129.732 87.2341 129.939C87.4138 130.142 87.5486 130.38 87.6384 130.654C87.7322 130.927 87.7791 131.22 87.7791 131.533V135.587H86.7712V131.744C86.7712 131.24 86.6521 130.861 86.4138 130.607C86.1795 130.349 85.8689 130.22 85.4822 130.22C85.2361 130.22 85.0076 130.277 84.7966 130.39C84.5857 130.5 84.4138 130.667 84.281 130.894C84.1521 131.117 84.0877 131.4 84.0877 131.744V135.587H83.0798V131.744C83.0798 131.24 82.9587 130.861 82.7166 130.607C82.4783 130.349 82.1658 130.22 81.7791 130.22C81.4119 130.22 81.0896 130.351 80.8123 130.613C80.5349 130.871 80.3962 131.263 80.3962 131.791V135.587H79.3884ZM91.137 135.681C90.7541 135.681 90.4084 135.607 90.0998 135.458C89.7913 135.31 89.5471 135.099 89.3674 134.826C89.1877 134.548 89.0979 134.216 89.0979 133.83C89.0979 133.419 89.2092 133.07 89.4319 132.781C89.6545 132.492 89.9768 132.273 90.3987 132.125C90.8205 131.972 91.3323 131.896 91.9338 131.896H93.2229V132.705H92.0041C91.3909 132.705 90.9163 132.802 90.5803 132.998C90.2483 133.193 90.0823 133.47 90.0823 133.83C90.0823 134.037 90.135 134.214 90.2405 134.363C90.3459 134.507 90.4866 134.619 90.6623 134.697C90.842 134.775 91.0393 134.814 91.2541 134.814C91.512 134.814 91.7776 134.757 92.051 134.644C92.3284 134.527 92.5608 134.359 92.7483 134.14C92.9397 133.917 93.0354 133.646 93.0354 133.326V132.681L93.012 132.318V131.626C93.012 131.525 93.0041 131.396 92.9885 131.24C92.9729 131.08 92.926 130.921 92.8479 130.765C92.7737 130.609 92.6467 130.478 92.467 130.373C92.2873 130.263 92.0354 130.208 91.7112 130.208C91.5198 130.208 91.3127 130.234 91.0901 130.285C90.8713 130.332 90.6565 130.398 90.4455 130.484C90.2385 130.57 90.0549 130.669 89.8948 130.783L89.508 129.88C89.7151 129.759 89.9455 129.654 90.1995 129.564C90.4573 129.47 90.7229 129.398 90.9963 129.347C91.2737 129.296 91.5432 129.271 91.8049 129.271C92.2268 129.271 92.5764 129.333 92.8538 129.458C93.135 129.583 93.3577 129.755 93.5217 129.974C93.6858 130.193 93.801 130.443 93.8674 130.724C93.9377 131.001 93.9729 131.294 93.9729 131.603V133.783C93.9729 134.044 94.0002 134.251 94.0549 134.404C94.1135 134.556 94.2151 134.662 94.3596 134.72L94.4768 134.767L94.0901 135.681L93.926 135.611C93.7073 135.517 93.5198 135.378 93.3635 135.195C93.2073 135.011 93.1291 134.83 93.1291 134.65L93.3284 134.72H92.9416L93.1995 134.556C93.0471 134.865 92.7873 135.13 92.4202 135.353C92.0569 135.572 91.6291 135.681 91.137 135.681ZM95.7605 135.587V129.376H96.7683V130.326H96.9323L96.5925 130.712C96.7058 130.455 96.8581 130.218 97.0495 130.003C97.2448 129.785 97.4773 129.611 97.7468 129.482C98.0202 129.349 98.3308 129.283 98.6784 129.283C98.8152 129.283 98.9421 129.292 99.0593 129.312C99.1804 129.328 99.2644 129.345 99.3112 129.365L98.9011 130.337C98.8777 130.326 98.8249 130.316 98.7429 130.308C98.6609 130.296 98.5691 130.291 98.4675 130.291C98.2878 130.291 98.0984 130.33 97.8991 130.408C97.7038 130.486 97.5202 130.599 97.3484 130.748C97.1765 130.896 97.0359 131.08 96.9265 131.298C96.821 131.513 96.7683 131.759 96.7683 132.037V135.587H95.7605ZM102.599 135.681C102.013 135.681 101.571 135.511 101.275 135.171C100.978 134.832 100.829 134.396 100.829 133.865V127.384H101.837V133.759C101.837 134.08 101.909 134.324 102.054 134.492C102.198 134.66 102.388 134.744 102.622 134.744C102.724 134.744 102.816 134.73 102.898 134.703C102.98 134.671 103.056 134.638 103.126 134.603L103.513 135.494C103.396 135.541 103.263 135.583 103.114 135.623C102.966 135.662 102.794 135.681 102.599 135.681ZM99.798 130.291V129.376H103.372V130.291H99.798ZM108.611 132.154V131.193H110.311C110.662 131.193 110.967 131.125 111.225 130.988C111.486 130.847 111.688 130.652 111.828 130.402C111.973 130.148 112.045 129.853 112.045 129.517C112.045 129.013 111.881 128.621 111.553 128.339C111.229 128.054 110.791 127.912 110.24 127.912H108.611V126.951H110.311C110.873 126.951 111.363 127.056 111.781 127.267C112.199 127.474 112.524 127.769 112.754 128.152C112.985 128.531 113.1 128.978 113.1 129.494C113.1 130.005 112.988 130.462 112.766 130.865C112.543 131.263 112.229 131.578 111.822 131.808C111.416 132.039 110.936 132.154 110.381 132.154H108.611ZM107.838 135.587V126.951H108.893V135.587H107.838ZM115.837 135.681C115.454 135.681 115.108 135.607 114.799 135.458C114.491 135.31 114.247 135.099 114.067 134.826C113.887 134.548 113.798 134.216 113.798 133.83C113.798 133.419 113.909 133.07 114.131 132.781C114.354 132.492 114.676 132.273 115.098 132.125C115.52 131.972 116.032 131.896 116.633 131.896H117.923V132.705H116.704C116.09 132.705 115.616 132.802 115.28 132.998C114.948 133.193 114.782 133.47 114.782 133.83C114.782 134.037 114.835 134.214 114.94 134.363C115.046 134.507 115.186 134.619 115.362 134.697C115.542 134.775 115.739 134.814 115.954 134.814C116.212 134.814 116.477 134.757 116.751 134.644C117.028 134.527 117.26 134.359 117.448 134.14C117.639 133.917 117.735 133.646 117.735 133.326V132.681L117.712 132.318V131.626C117.712 131.525 117.704 131.396 117.688 131.24C117.673 131.08 117.626 130.921 117.548 130.765C117.473 130.609 117.346 130.478 117.167 130.373C116.987 130.263 116.735 130.208 116.411 130.208C116.219 130.208 116.012 130.234 115.79 130.285C115.571 130.332 115.356 130.398 115.145 130.484C114.938 130.57 114.755 130.669 114.594 130.783L114.208 129.88C114.415 129.759 114.645 129.654 114.899 129.564C115.157 129.47 115.423 129.398 115.696 129.347C115.973 129.296 116.243 129.271 116.505 129.271C116.926 129.271 117.276 129.333 117.553 129.458C117.835 129.583 118.057 129.755 118.221 129.974C118.385 130.193 118.501 130.443 118.567 130.724C118.637 131.001 118.673 131.294 118.673 131.603V133.783C118.673 134.044 118.7 134.251 118.755 134.404C118.813 134.556 118.915 134.662 119.059 134.72L119.176 134.767L118.79 135.681L118.626 135.611C118.407 135.517 118.219 135.378 118.063 135.195C117.907 135.011 117.829 134.83 117.829 134.65L118.028 134.72H117.641L117.899 134.556C117.747 134.865 117.487 135.13 117.12 135.353C116.756 135.572 116.329 135.681 115.837 135.681ZM120.894 138.142C120.655 138.142 120.433 138.115 120.226 138.06C120.019 138.005 119.874 137.955 119.792 137.908L120.179 136.994C120.304 137.056 120.433 137.107 120.566 137.146C120.698 137.185 120.819 137.205 120.929 137.205C121.167 137.208 121.362 137.15 121.515 137.029C121.671 136.912 121.792 136.773 121.878 136.613C121.964 136.457 122.026 136.322 122.066 136.208L122.382 135.271L122.405 135.88L119.698 129.376H120.8L122.265 133.162L122.745 134.439H122.792L123.226 133.162L124.562 129.376H125.628L122.956 136.455C122.905 136.595 122.831 136.759 122.734 136.947C122.64 137.138 122.515 137.324 122.359 137.503C122.202 137.687 122.005 137.839 121.767 137.96C121.528 138.082 121.237 138.142 120.894 138.142Z" fill="white"/>
<mask id="path-7-outside-1_1190_10661" maskUnits="userSpaceOnUse" x="12" y="12" width="118" height="30" fill="black">
<rect fill="white" x="12" y="12" width="118" height="30"/>
<path d="M13 19C13 15.6863 15.6863 13 19 13H123C126.314 13 129 15.6863 129 19V35C129 38.3137 126.314 41 123 41H19C15.6863 41 13 38.3137 13 35V19Z"/>
</mask>
<path d="M13 19C13 15.6863 15.6863 13 19 13H123C126.314 13 129 15.6863 129 19V35C129 38.3137 126.314 41 123 41H19C15.6863 41 13 38.3137 13 35V19Z" fill="#272B3A"/>
<path d="M19 13V14H123V13V12H19V13ZM129 19H128V35H129H130V19H129ZM123 41V40H19V41V42H123V41ZM13 35H14V19H13H12V35H13ZM19 41V40C16.2386 40 14 37.7614 14 35H13H12C12 38.866 15.134 42 19 42V41ZM129 35H128C128 37.7614 125.761 40 123 40V41V42C126.866 42 130 38.866 130 35H129ZM123 13V14C125.761 14 128 16.2386 128 19H129H130C130 15.134 126.866 12 123 12V13ZM19 13V12C15.134 12 12 15.134 12 19H13H14C14 16.2386 16.2386 14 19 14V13Z" fill="white" mask="url(#path-7-outside-1_1190_10661)"/>
<path d="M24.0498 23.373L21.0762 32H19.2783L23.0244 22.0469H24.1729L24.0498 23.373ZM26.5381 32L23.5576 23.373L23.4277 22.0469H24.583L28.3428 32H26.5381ZM26.3945 28.3086V29.6689H20.9805V28.3086H26.3945ZM30.8037 26.1826V32H29.1562V24.6035H30.708L30.8037 26.1826ZM30.5098 28.0283L29.9766 28.0215C29.9811 27.4974 30.054 27.0166 30.1953 26.5791C30.3411 26.1416 30.5417 25.7656 30.7969 25.4512C31.0566 25.1367 31.3665 24.8952 31.7266 24.7266C32.0866 24.5534 32.4876 24.4668 32.9297 24.4668C33.2852 24.4668 33.6064 24.5169 33.8936 24.6172C34.1852 24.7129 34.4336 24.8701 34.6387 25.0889C34.8483 25.3076 35.0078 25.5924 35.1172 25.9434C35.2266 26.2897 35.2812 26.7158 35.2812 27.2217V32H33.627V27.2148C33.627 26.8594 33.5745 26.5791 33.4697 26.374C33.3695 26.1644 33.2214 26.0163 33.0254 25.9297C32.834 25.8385 32.5947 25.793 32.3076 25.793C32.0251 25.793 31.7721 25.8522 31.5488 25.9707C31.3255 26.0892 31.1364 26.251 30.9814 26.4561C30.8311 26.6611 30.7148 26.8981 30.6328 27.167C30.5508 27.4359 30.5098 27.723 30.5098 28.0283ZM41.7002 24.6035H43.1973V31.7949C43.1973 32.4603 43.056 33.0254 42.7734 33.4902C42.4909 33.9551 42.0967 34.3083 41.5908 34.5498C41.085 34.7959 40.4993 34.9189 39.834 34.9189C39.5514 34.9189 39.237 34.8779 38.8906 34.7959C38.5488 34.7139 38.2161 34.5817 37.8926 34.3994C37.5736 34.2217 37.307 33.987 37.0928 33.6953L37.8652 32.7246C38.1296 33.0391 38.4212 33.2692 38.7402 33.415C39.0592 33.5609 39.3942 33.6338 39.7451 33.6338C40.1234 33.6338 40.4447 33.5632 40.709 33.4219C40.9779 33.2852 41.1852 33.0824 41.3311 32.8135C41.4769 32.5446 41.5498 32.2165 41.5498 31.8291V26.2783L41.7002 24.6035ZM36.6758 28.3838V28.2402C36.6758 27.6797 36.7441 27.1693 36.8809 26.709C37.0176 26.2441 37.2135 25.8454 37.4688 25.5127C37.724 25.1755 38.0339 24.918 38.3984 24.7402C38.763 24.5579 39.1755 24.4668 39.6357 24.4668C40.1143 24.4668 40.5221 24.5534 40.8594 24.7266C41.2012 24.8997 41.486 25.1481 41.7139 25.4717C41.9417 25.7907 42.1195 26.1735 42.2471 26.6201C42.3792 27.0622 42.4772 27.5544 42.541 28.0967V28.5547C42.4818 29.0833 42.3815 29.5664 42.2402 30.0039C42.099 30.4414 41.9121 30.8197 41.6797 31.1387C41.4473 31.4577 41.1602 31.7038 40.8184 31.877C40.4811 32.0501 40.0824 32.1367 39.6221 32.1367C39.1709 32.1367 38.763 32.0433 38.3984 31.8564C38.0384 31.6696 37.7285 31.4076 37.4688 31.0703C37.2135 30.7331 37.0176 30.3366 36.8809 29.8809C36.7441 29.4206 36.6758 28.9215 36.6758 28.3838ZM38.3232 28.2402V28.3838C38.3232 28.721 38.3551 29.0355 38.4189 29.3271C38.4873 29.6188 38.5898 29.8763 38.7266 30.0996C38.8678 30.3184 39.0456 30.4915 39.2598 30.6191C39.4785 30.7422 39.736 30.8037 40.0322 30.8037C40.4196 30.8037 40.7363 30.7217 40.9824 30.5576C41.2331 30.3936 41.4245 30.1725 41.5566 29.8945C41.6934 29.612 41.7891 29.2975 41.8438 28.9512V27.7139C41.8164 27.445 41.7594 27.1943 41.6729 26.9619C41.5908 26.7295 41.4792 26.5267 41.3379 26.3535C41.1966 26.1758 41.0189 26.0391 40.8047 25.9434C40.5905 25.8431 40.3376 25.793 40.0459 25.793C39.7497 25.793 39.4922 25.8568 39.2734 25.9844C39.0547 26.112 38.8747 26.2874 38.7334 26.5107C38.5967 26.734 38.4941 26.9938 38.4258 27.29C38.3574 27.5863 38.3232 27.903 38.3232 28.2402ZM49.3564 30.2568V24.6035H51.0107V32H49.4521L49.3564 30.2568ZM49.5889 28.7188L50.1426 28.7051C50.1426 29.2018 50.0879 29.6598 49.9785 30.0791C49.8691 30.4938 49.7005 30.8561 49.4727 31.166C49.2448 31.4714 48.9531 31.7106 48.5977 31.8838C48.2422 32.0524 47.8161 32.1367 47.3193 32.1367C46.9593 32.1367 46.6289 32.0843 46.3281 31.9795C46.0273 31.8747 45.7676 31.7129 45.5488 31.4941C45.3346 31.2754 45.1683 30.9906 45.0498 30.6396C44.9313 30.2887 44.8721 29.8695 44.8721 29.3818V24.6035H46.5195V29.3955C46.5195 29.6644 46.5514 29.89 46.6152 30.0723C46.679 30.25 46.7656 30.3936 46.875 30.5029C46.9844 30.6123 47.112 30.6898 47.2578 30.7354C47.4036 30.7809 47.5586 30.8037 47.7227 30.8037C48.1921 30.8037 48.5612 30.7126 48.8301 30.5303C49.1035 30.3434 49.2972 30.0928 49.4111 29.7783C49.5296 29.4639 49.5889 29.1107 49.5889 28.7188ZM54.4629 21.5V32H52.8086V21.5H54.4629ZM60.4375 30.5166V26.9893C60.4375 26.7249 60.3896 26.4971 60.2939 26.3057C60.1982 26.1143 60.0524 25.9661 59.8564 25.8613C59.665 25.7565 59.4235 25.7041 59.1318 25.7041C58.863 25.7041 58.6305 25.7497 58.4346 25.8408C58.2386 25.932 58.0859 26.055 57.9766 26.21C57.8672 26.3649 57.8125 26.5404 57.8125 26.7363H56.1719C56.1719 26.4447 56.2425 26.1621 56.3838 25.8887C56.5251 25.6152 56.7301 25.3714 56.999 25.1572C57.2679 24.943 57.5892 24.7744 57.9629 24.6514C58.3366 24.5283 58.7559 24.4668 59.2207 24.4668C59.7767 24.4668 60.2689 24.5602 60.6973 24.7471C61.1302 24.9339 61.4697 25.2165 61.7158 25.5947C61.9665 25.9684 62.0918 26.4378 62.0918 27.0029V30.291C62.0918 30.6283 62.1146 30.9313 62.1602 31.2002C62.2103 31.4645 62.2809 31.6947 62.3721 31.8906V32H60.6836C60.6061 31.8223 60.5446 31.5967 60.499 31.3232C60.458 31.0452 60.4375 30.7764 60.4375 30.5166ZM60.6768 27.502L60.6904 28.5205H59.5078C59.2025 28.5205 58.9336 28.5501 58.7012 28.6094C58.4688 28.6641 58.2751 28.7461 58.1201 28.8555C57.9652 28.9648 57.849 29.097 57.7715 29.252C57.694 29.4069 57.6553 29.5824 57.6553 29.7783C57.6553 29.9743 57.7008 30.1543 57.792 30.3184C57.8831 30.4779 58.0153 30.6032 58.1885 30.6943C58.3662 30.7855 58.5804 30.8311 58.8311 30.8311C59.1683 30.8311 59.4622 30.7627 59.7129 30.626C59.9681 30.4847 60.1686 30.3138 60.3145 30.1133C60.4603 29.9082 60.5378 29.7145 60.5469 29.5322L61.0801 30.2637C61.0254 30.4505 60.932 30.651 60.7998 30.8652C60.6676 31.0794 60.4945 31.2845 60.2803 31.4805C60.0706 31.6719 59.8177 31.8291 59.5215 31.9521C59.2298 32.0752 58.8926 32.1367 58.5098 32.1367C58.0267 32.1367 57.596 32.041 57.2178 31.8496C56.8395 31.6536 56.5433 31.3916 56.3291 31.0635C56.1149 30.7308 56.0078 30.3548 56.0078 29.9355C56.0078 29.5436 56.0807 29.1973 56.2266 28.8965C56.377 28.5911 56.5957 28.3359 56.8828 28.1309C57.1745 27.9258 57.5299 27.7708 57.9492 27.666C58.3685 27.5566 58.847 27.502 59.3848 27.502H60.6768ZM65.4688 26.0117V32H63.8213V24.6035H65.3936L65.4688 26.0117ZM67.7314 24.5557L67.7178 26.0869C67.6175 26.0687 67.5081 26.055 67.3896 26.0459C67.2757 26.0368 67.1618 26.0322 67.0479 26.0322C66.7653 26.0322 66.5169 26.0732 66.3027 26.1553C66.0885 26.2327 65.9085 26.3467 65.7627 26.4971C65.6214 26.6429 65.512 26.8206 65.4346 27.0303C65.3571 27.2399 65.3115 27.4746 65.2979 27.7344L64.9219 27.7617C64.9219 27.2969 64.9674 26.8662 65.0586 26.4697C65.1497 26.0732 65.2865 25.7246 65.4688 25.4238C65.6556 25.123 65.888 24.8883 66.166 24.7197C66.4486 24.5511 66.7744 24.4668 67.1436 24.4668C67.2438 24.4668 67.3509 24.4759 67.4648 24.4941C67.5833 24.5124 67.6722 24.5329 67.7314 24.5557ZM73.1113 22.0469H74.6426L77.5205 29.7236L80.3916 22.0469H81.9229L78.1221 32H76.9053L73.1113 22.0469ZM72.4141 22.0469H73.8701L74.123 28.6914V32H72.4141V22.0469ZM81.1641 22.0469H82.627V32H80.9111V28.6914L81.1641 22.0469ZM88.6699 30.5166V26.9893C88.6699 26.7249 88.6221 26.4971 88.5264 26.3057C88.4307 26.1143 88.2848 25.9661 88.0889 25.8613C87.8975 25.7565 87.6559 25.7041 87.3643 25.7041C87.0954 25.7041 86.863 25.7497 86.667 25.8408C86.471 25.932 86.3184 26.055 86.209 26.21C86.0996 26.3649 86.0449 26.5404 86.0449 26.7363H84.4043C84.4043 26.4447 84.4749 26.1621 84.6162 25.8887C84.7575 25.6152 84.9626 25.3714 85.2314 25.1572C85.5003 24.943 85.8216 24.7744 86.1953 24.6514C86.569 24.5283 86.9883 24.4668 87.4531 24.4668C88.0091 24.4668 88.5013 24.5602 88.9297 24.7471C89.3626 24.9339 89.7021 25.2165 89.9482 25.5947C90.1989 25.9684 90.3242 26.4378 90.3242 27.0029V30.291C90.3242 30.6283 90.347 30.9313 90.3926 31.2002C90.4427 31.4645 90.5133 31.6947 90.6045 31.8906V32H88.916C88.8385 31.8223 88.777 31.5967 88.7314 31.3232C88.6904 31.0452 88.6699 30.7764 88.6699 30.5166ZM88.9092 27.502L88.9229 28.5205H87.7402C87.4349 28.5205 87.166 28.5501 86.9336 28.6094C86.7012 28.6641 86.5075 28.7461 86.3525 28.8555C86.1976 28.9648 86.0814 29.097 86.0039 29.252C85.9264 29.4069 85.8877 29.5824 85.8877 29.7783C85.8877 29.9743 85.9333 30.1543 86.0244 30.3184C86.1156 30.4779 86.2477 30.6032 86.4209 30.6943C86.5986 30.7855 86.8128 30.8311 87.0635 30.8311C87.4007 30.8311 87.6947 30.7627 87.9453 30.626C88.2005 30.4847 88.401 30.3138 88.5469 30.1133C88.6927 29.9082 88.7702 29.7145 88.7793 29.5322L89.3125 30.2637C89.2578 30.4505 89.1644 30.651 89.0322 30.8652C88.9001 31.0794 88.7269 31.2845 88.5127 31.4805C88.3031 31.6719 88.0501 31.8291 87.7539 31.9521C87.4622 32.0752 87.125 32.1367 86.7422 32.1367C86.2591 32.1367 85.8285 32.041 85.4502 31.8496C85.0719 31.6536 84.7757 31.3916 84.5615 31.0635C84.3473 30.7308 84.2402 30.3548 84.2402 29.9355C84.2402 29.5436 84.3132 29.1973 84.459 28.8965C84.6094 28.5911 84.8281 28.3359 85.1152 28.1309C85.4069 27.9258 85.7624 27.7708 86.1816 27.666C86.6009 27.5566 87.0794 27.502 87.6172 27.502H88.9092ZM95.4375 24.6035V25.8066H91.2676V24.6035H95.4375ZM92.4707 22.792H94.1182V29.9561C94.1182 30.1839 94.1501 30.3594 94.2139 30.4824C94.2822 30.6009 94.3757 30.6807 94.4941 30.7217C94.6126 30.7627 94.7516 30.7832 94.9111 30.7832C95.0251 30.7832 95.1344 30.7764 95.2393 30.7627C95.3441 30.749 95.4284 30.7354 95.4922 30.7217L95.499 31.9795C95.3623 32.0205 95.2028 32.057 95.0205 32.0889C94.8428 32.1208 94.6377 32.1367 94.4053 32.1367C94.027 32.1367 93.6921 32.0706 93.4004 31.9385C93.1087 31.8018 92.8809 31.5807 92.7168 31.2754C92.5527 30.9701 92.4707 30.5645 92.4707 30.0586V22.792ZM99.9697 32.1367C99.4229 32.1367 98.9284 32.0479 98.4863 31.8701C98.0488 31.6878 97.6751 31.4349 97.3652 31.1113C97.0599 30.7878 96.8252 30.4072 96.6611 29.9697C96.4971 29.5322 96.415 29.0605 96.415 28.5547V28.2812C96.415 27.7025 96.4993 27.1784 96.668 26.709C96.8366 26.2396 97.0713 25.8385 97.3721 25.5059C97.6729 25.1686 98.0283 24.9111 98.4385 24.7334C98.8486 24.5557 99.293 24.4668 99.7715 24.4668C100.3 24.4668 100.763 24.5557 101.159 24.7334C101.556 24.9111 101.884 25.1618 102.144 25.4854C102.408 25.8044 102.604 26.1849 102.731 26.627C102.864 27.069 102.93 27.5566 102.93 28.0898V28.7939H97.2148V27.6113H101.303V27.4814C101.294 27.1852 101.234 26.9072 101.125 26.6475C101.02 26.3877 100.858 26.1781 100.64 26.0186C100.421 25.859 100.129 25.7793 99.7646 25.7793C99.4912 25.7793 99.2474 25.8385 99.0332 25.957C98.8236 26.071 98.6481 26.2373 98.5068 26.4561C98.3656 26.6748 98.2562 26.9391 98.1787 27.249C98.1058 27.5544 98.0693 27.8984 98.0693 28.2812V28.5547C98.0693 28.8783 98.1126 29.179 98.1992 29.457C98.2904 29.7305 98.4225 29.9697 98.5957 30.1748C98.7689 30.3799 98.9785 30.5417 99.2246 30.6602C99.4707 30.7741 99.751 30.8311 100.065 30.8311C100.462 30.8311 100.815 30.7513 101.125 30.5918C101.435 30.4323 101.704 30.2067 101.932 29.915L102.8 30.7559C102.64 30.9883 102.433 31.2116 102.178 31.4258C101.923 31.6354 101.61 31.8063 101.241 31.9385C100.877 32.0706 100.453 32.1367 99.9697 32.1367ZM105.869 26.0117V32H104.222V24.6035H105.794L105.869 26.0117ZM108.132 24.5557L108.118 26.0869C108.018 26.0687 107.909 26.055 107.79 26.0459C107.676 26.0368 107.562 26.0322 107.448 26.0322C107.166 26.0322 106.917 26.0732 106.703 26.1553C106.489 26.2327 106.309 26.3467 106.163 26.4971C106.022 26.6429 105.912 26.8206 105.835 27.0303C105.757 27.2399 105.712 27.4746 105.698 27.7344L105.322 27.7617C105.322 27.2969 105.368 26.8662 105.459 26.4697C105.55 26.0732 105.687 25.7246 105.869 25.4238C106.056 25.123 106.288 24.8883 106.566 24.7197C106.849 24.5511 107.175 24.4668 107.544 24.4668C107.644 24.4668 107.751 24.4759 107.865 24.4941C107.984 24.5124 108.073 24.5329 108.132 24.5557ZM110.928 24.6035V32H109.273V24.6035H110.928ZM109.164 22.6621C109.164 22.4115 109.246 22.2041 109.41 22.04C109.579 21.8714 109.811 21.7871 110.107 21.7871C110.399 21.7871 110.629 21.8714 110.798 22.04C110.966 22.2041 111.051 22.4115 111.051 22.6621C111.051 22.9082 110.966 23.1133 110.798 23.2773C110.629 23.4414 110.399 23.5234 110.107 23.5234C109.811 23.5234 109.579 23.4414 109.41 23.2773C109.246 23.1133 109.164 22.9082 109.164 22.6621ZM116.902 30.5166V26.9893C116.902 26.7249 116.854 26.4971 116.759 26.3057C116.663 26.1143 116.517 25.9661 116.321 25.8613C116.13 25.7565 115.888 25.7041 115.597 25.7041C115.328 25.7041 115.095 25.7497 114.899 25.8408C114.703 25.932 114.551 26.055 114.441 26.21C114.332 26.3649 114.277 26.5404 114.277 26.7363H112.637C112.637 26.4447 112.707 26.1621 112.849 25.8887C112.99 25.6152 113.195 25.3714 113.464 25.1572C113.733 24.943 114.054 24.7744 114.428 24.6514C114.801 24.5283 115.221 24.4668 115.686 24.4668C116.242 24.4668 116.734 24.5602 117.162 24.7471C117.595 24.9339 117.935 25.2165 118.181 25.5947C118.431 25.9684 118.557 26.4378 118.557 27.0029V30.291C118.557 30.6283 118.579 30.9313 118.625 31.2002C118.675 31.4645 118.746 31.6947 118.837 31.8906V32H117.148C117.071 31.8223 117.009 31.5967 116.964 31.3232C116.923 31.0452 116.902 30.7764 116.902 30.5166ZM117.142 27.502L117.155 28.5205H115.973C115.667 28.5205 115.398 28.5501 115.166 28.6094C114.934 28.6641 114.74 28.7461 114.585 28.8555C114.43 28.9648 114.314 29.097 114.236 29.252C114.159 29.4069 114.12 29.5824 114.12 29.7783C114.12 29.9743 114.166 30.1543 114.257 30.3184C114.348 30.4779 114.48 30.6032 114.653 30.6943C114.831 30.7855 115.045 30.8311 115.296 30.8311C115.633 30.8311 115.927 30.7627 116.178 30.626C116.433 30.4847 116.633 30.3138 116.779 30.1133C116.925 29.9082 117.003 29.7145 117.012 29.5322L117.545 30.2637C117.49 30.4505 117.397 30.651 117.265 30.8652C117.132 31.0794 116.959 31.2845 116.745 31.4805C116.535 31.6719 116.283 31.8291 115.986 31.9521C115.695 32.0752 115.357 32.1367 114.975 32.1367C114.492 32.1367 114.061 32.041 113.683 31.8496C113.304 31.6536 113.008 31.3916 112.794 31.0635C112.58 30.7308 112.473 30.3548 112.473 29.9355C112.473 29.5436 112.546 29.1973 112.691 28.8965C112.842 28.5911 113.061 28.3359 113.348 28.1309C113.639 27.9258 113.995 27.7708 114.414 27.666C114.833 27.5566 115.312 27.502 115.85 27.502H117.142ZM122.043 21.5V32H120.389V21.5H122.043Z" fill="white"/>
</g>
<defs>
<linearGradient id="paint0_linear_1190_10661" x1="381" y1="208.908" x2="-22.5651" y2="31.7659" gradientUnits="userSpaceOnUse">
<stop stop-color="#169898"/>
<stop offset="1" stop-color="#1482B8"/>
</linearGradient>
<clipPath id="clip0_1190_10661">
<path d="M0 12C0 5.37259 5.37258 0 12 0H369C375.627 0 381 5.37258 381 12V200C381 206.627 375.627 212 369 212H12C5.37258 212 0 206.627 0 200V12Z" fill="white"/>
</clipPath>
<clipPath id="clip1_1190_10661">
<rect width="184.797" height="184.797" fill="white" transform="translate(98.8362 13.2002)"/>
</clipPath>
</defs>
</svg>
