<svg width="20" height="20" viewBox="0 0 20 20" fill="none" xmlns="http://www.w3.org/2000/svg">
<path d="M12.7449 16.875V14.5719L12.7384 14.4336C12.7106 14.1117 12.5867 13.8043 12.3803 13.553C12.1884 13.3194 12.1378 13.0002 12.2485 12.7189C12.3594 12.4375 12.6144 12.238 12.9142 12.1981C13.9246 12.0635 14.6913 11.7644 15.2034 11.2728C15.6937 10.8019 16.0554 10.0529 16.0554 8.78009C16.0554 8.36375 15.863 7.79205 15.6103 7.25258C15.4912 6.99841 15.3714 6.77735 15.2815 6.62026C15.2368 6.54219 15.1999 6.48042 15.1749 6.43959C15.1625 6.4193 15.1524 6.40432 15.1464 6.39483C15.1435 6.3901 15.1419 6.38607 15.1407 6.38426L15.1399 6.38344C14.9867 6.14529 14.965 5.84538 15.0821 5.58754C15.2055 5.31581 15.2847 4.88107 15.2791 4.46287C15.2783 4.40638 15.2753 4.35269 15.2717 4.30255C15.2395 4.31247 15.2058 4.32134 15.1717 4.33266C14.7168 4.48366 14.1102 4.75912 13.5123 5.25551C13.2993 5.43235 13.0123 5.49179 12.7465 5.4142C11.5244 5.05729 10.2714 5.09086 9.05268 5.41909C8.79138 5.48935 8.51218 5.42834 8.30398 5.25551C7.70603 4.75906 7.0993 4.48364 6.64463 4.33266C6.60998 4.32116 6.5756 4.31261 6.54291 4.30255C6.53936 4.35249 6.53797 4.40579 6.53721 4.46206C6.53159 4.88003 6.61109 5.31521 6.73497 5.58754C6.85227 5.84543 6.83047 6.1452 6.67719 6.38344V6.38263C6.6771 6.38277 6.67688 6.38346 6.67637 6.38426C6.67522 6.38607 6.67365 6.3901 6.67068 6.39483C6.66472 6.40432 6.65461 6.41928 6.64219 6.43959C6.61724 6.48042 6.58028 6.54217 6.53559 6.62026C6.44567 6.77735 6.32588 6.9984 6.20681 7.25258C5.95412 7.79205 5.76166 8.36374 5.76166 8.78009C5.76168 10.0526 6.12265 10.8019 6.6129 11.2728C7.12495 11.7646 7.89207 12.0635 8.90294 12.1981C9.20282 12.238 9.45778 12.4374 9.56863 12.7189C9.67933 13.0003 9.62876 13.3194 9.43679 13.553C9.20078 13.84 9.07147 14.2003 9.07139 14.5719V16.875C9.07139 17.3352 8.6983 17.7083 8.23806 17.7083C7.77791 17.7082 7.40473 17.3352 7.40473 16.875V16.853C7.10279 16.9433 6.79086 17.0001 6.47455 17.019C5.9017 17.0532 5.32807 16.9668 4.79079 16.7651C4.25265 16.5632 3.76684 16.2472 3.37478 15.839V15.8382C2.98155 15.4302 2.69229 14.9394 2.53412 14.4018C2.40422 13.9603 2.6566 13.4974 3.09809 13.3675C3.51204 13.2457 3.94523 13.4598 4.10476 13.8509L4.13243 13.9315L4.16579 14.0332C4.23888 14.2347 4.35062 14.4263 4.49864 14.5988L4.57595 14.6826L4.57676 14.6842C4.79075 14.907 5.06355 15.0878 5.37592 15.2051C5.69468 15.3247 6.03539 15.3759 6.37527 15.3556C6.71511 15.3353 7.04712 15.2437 7.34939 15.0871L7.40473 15.061V14.5719C7.40476 14.2464 7.45598 13.9259 7.54958 13.619C6.77373 13.398 6.04858 13.041 5.45893 12.4747C4.56667 11.6177 4.09501 10.3908 4.09499 8.78009C4.09499 7.97699 4.42665 7.12471 4.69802 6.54539C4.82735 6.26932 4.95623 6.02845 5.05853 5.84715C4.92177 5.38836 4.8646 4.88462 4.87055 4.44008C4.87459 4.13962 4.90717 3.82981 4.98285 3.54978C5.05133 3.29643 5.18761 2.94309 5.48659 2.69366C5.65607 2.55233 5.87472 2.4836 6.0945 2.50323L6.02045 3.33331C6.09367 2.51745 6.095 2.50344 6.09532 2.50323H6.09776C6.09853 2.50331 6.09931 2.50396 6.1002 2.50405C6.10246 2.50426 6.10538 2.50456 6.10834 2.50486C6.11426 2.50546 6.12164 2.50632 6.13031 2.5073C6.14757 2.50925 6.17024 2.51164 6.19786 2.51544C6.25345 2.5231 6.32998 2.53486 6.42328 2.55288C6.60963 2.58886 6.86683 2.64984 7.17035 2.75063C7.68965 2.92309 8.35189 3.21627 9.02826 3.70929C10.2458 3.43787 11.52 3.40741 12.7929 3.70522C13.4677 3.21437 14.1286 2.92264 14.6468 2.75063C14.9503 2.64986 15.2074 2.58884 15.3938 2.55288C15.4872 2.53486 15.5636 2.5231 15.6192 2.51544C15.6469 2.51164 15.6695 2.50925 15.6868 2.5073C15.6955 2.50632 15.7028 2.50546 15.7088 2.50486C15.7117 2.50456 15.7146 2.50426 15.7169 2.50405C15.7178 2.50396 15.7186 2.50331 15.7193 2.50323H15.7218C15.7221 2.50349 15.7232 2.51745 15.7836 3.1909L15.7226 2.50323C15.9429 2.48357 16.1617 2.55255 16.3313 2.69448C16.6296 2.94414 16.7653 3.29764 16.8334 3.5506C16.9088 3.83037 16.9417 4.13974 16.9457 4.44008C16.9518 4.88455 16.8943 5.38829 16.7578 5.84715C16.8601 6.02849 16.9897 6.26914 17.1191 6.54539C17.3905 7.12471 17.7221 7.97699 17.7221 8.78009C17.7221 10.3912 17.2506 11.6178 16.3582 12.4747C15.7683 13.0412 15.0427 13.398 14.2667 13.619C14.3602 13.9259 14.4116 14.2463 14.4116 14.5719V16.875C14.4116 17.3352 14.0384 17.7082 13.5782 17.7083C13.118 17.7083 12.7449 17.3352 12.7449 16.875Z" fill="white"/>
</svg>
