<svg width="20" height="20" viewBox="0 0 20 20" fill="none" xmlns="http://www.w3.org/2000/svg">
<path d="M5.97751 7.19265C6.41712 7.19265 6.77351 7.54916 6.77361 7.98875V16.0337C6.77361 16.4734 6.41718 16.8298 5.97751 16.8298H3.2961C2.85643 16.8298 2.5 16.4734 2.5 16.0337V7.98875L2.50389 7.9079C2.54448 7.50627 2.88378 7.19265 3.2961 7.19265H5.97751ZM15.9078 11.3411C15.9078 10.4854 15.5683 9.66434 14.9632 9.05929C14.3582 8.4543 13.537 8.1147 12.6814 8.1147C11.8259 8.11479 11.0053 8.45441 10.4004 9.05929C9.79533 9.66434 9.45579 10.4854 9.45579 11.3411V15.2376H10.545V11.3411C10.545 10.7743 10.7701 10.2305 11.1708 9.82974C11.5715 9.42916 12.1148 9.20398 12.6814 9.2039C13.2481 9.2039 13.792 9.42905 14.1928 9.82974C14.5935 10.2305 14.8186 10.7743 14.8186 11.3411V15.2376H15.9078V11.3411ZM4.0922 15.2376H5.1814V8.78486H4.0922V15.2376ZM5.1814 4.63719C5.1814 4.33646 4.93789 4.09236 4.63719 4.0922C4.33636 4.0922 4.0922 4.33636 4.0922 4.63719C4.09236 4.93789 4.33646 5.1814 4.63719 5.1814C4.9378 5.18125 5.18125 4.9378 5.1814 4.63719ZM17.5 16.0337C17.5 16.4734 17.1436 16.8298 16.7039 16.8298H14.0225C13.5828 16.8298 13.2264 16.4734 13.2264 16.0337V11.3411C13.2264 11.1966 13.1692 11.0576 13.067 10.9555C12.9649 10.8534 12.8258 10.7961 12.6814 10.7961C12.5371 10.7962 12.3986 10.8535 12.2966 10.9555C12.1944 11.0576 12.1372 11.1966 12.1372 11.3411V16.0337C12.1372 16.4734 11.7807 16.8298 11.3411 16.8298H8.65969C8.22001 16.8298 7.86358 16.4734 7.86358 16.0337V11.3411C7.86358 10.0631 8.371 8.8372 9.27464 7.93355C10.1782 7.03008 11.4036 6.52258 12.6814 6.52249C13.9593 6.52249 15.1853 7.02996 16.0889 7.93355C16.9926 8.8372 17.5 10.0631 17.5 11.3411V16.0337ZM6.77361 4.63719C6.77345 5.81715 5.81715 6.77345 4.63719 6.77361C3.45711 6.77361 2.50015 5.81724 2.5 4.63719C2.5 3.45701 3.45701 2.5 4.63719 2.5C5.81724 2.50015 6.77361 3.45711 6.77361 4.63719Z" fill="white"/>
</svg>
