<svg width="60" height="60" viewBox="0 0 60 60" fill="none" xmlns="http://www.w3.org/2000/svg">
<path d="M0 30C0 13.4315 13.4315 0 30 0V0C46.5685 0 60 13.4315 60 30V30C60 46.5685 46.5685 60 30 60V60C13.4315 60 0 46.5685 0 30V30Z" fill="#D43584"/>
<path d="M28.5 37.5H31.5V28.5H28.5V37.5ZM30 25.5C30.425 25.5 30.7813 25.3563 31.0688 25.0688C31.3563 24.7813 31.5 24.425 31.5 24C31.5 23.575 31.3563 23.2187 31.0688 22.9312C30.7813 22.6437 30.425 22.5 30 22.5C29.575 22.5 29.2188 22.6437 28.9313 22.9312C28.6438 23.2187 28.5 23.575 28.5 24C28.5 24.425 28.6438 24.7813 28.9313 25.0688C29.2188 25.3563 29.575 25.5 30 25.5ZM30 45C27.925 45 25.975 44.6062 24.15 43.8187C22.325 43.0312 20.7375 41.9625 19.3875 40.6125C18.0375 39.2625 16.9688 37.675 16.1813 35.85C15.3937 34.025 15 32.075 15 30C15 27.925 15.3937 25.975 16.1813 24.15C16.9688 22.325 18.0375 20.7375 19.3875 19.3875C20.7375 18.0375 22.325 16.9688 24.15 16.1813C25.975 15.3937 27.925 15 30 15C32.075 15 34.025 15.3937 35.85 16.1813C37.675 16.9688 39.2625 18.0375 40.6125 19.3875C41.9625 20.7375 43.0312 22.325 43.8187 24.15C44.6062 25.975 45 27.925 45 30C45 32.075 44.6062 34.025 43.8187 35.85C43.0312 37.675 41.9625 39.2625 40.6125 40.6125C39.2625 41.9625 37.675 43.0312 35.85 43.8187C34.025 44.6062 32.075 45 30 45ZM30 42C33.35 42 36.1875 40.8375 38.5125 38.5125C40.8375 36.1875 42 33.35 42 30C42 26.65 40.8375 23.8125 38.5125 21.4875C36.1875 19.1625 33.35 18 30 18C26.65 18 23.8125 19.1625 21.4875 21.4875C19.1625 23.8125 18 26.65 18 30C18 33.35 19.1625 36.1875 21.4875 38.5125C23.8125 40.8375 26.65 42 30 42Z" fill="white"/>
</svg>
