<svg width="338" height="279" viewBox="0 0 338 279" fill="none" xmlns="http://www.w3.org/2000/svg">
<path d="M164.564 128.183C166.711 126.299 169.921 126.299 172.067 128.183L175.858 131.512C177.088 132.591 177.793 134.148 177.793 135.784V140.261L177.871 140.278C177.846 140.394 177.819 140.51 177.793 140.625V147.635C177.793 147.702 177.788 147.769 177.786 147.836L177.871 147.854C177.839 148.005 177.805 148.155 177.77 148.304C177.767 148.421 177.767 148.538 177.772 148.655C177.786 148.944 177.793 149.237 177.793 149.53C177.793 154.086 176.152 158.106 173.653 160.495C173.027 161.094 172.49 161.807 172.188 162.599C172.216 162.741 172.216 162.892 172.181 163.042C172.127 163.268 172.042 163.477 171.937 163.672C171.93 163.746 171.926 163.821 171.925 163.896L171.153 200.933L171.232 200.952C171.208 201.055 171.179 201.158 171.147 201.261L170.25 244.303C170.228 245.355 169.368 246.197 168.315 246.197C167.262 246.197 166.402 245.356 166.38 244.303L165.482 201.26C165.451 201.157 165.422 201.054 165.397 200.952L165.476 200.933L164.705 163.896C164.704 163.82 164.699 163.746 164.692 163.672C164.587 163.478 164.504 163.268 164.45 163.042C164.415 162.891 164.414 162.74 164.442 162.598C164.14 161.806 163.604 161.093 162.978 160.494C160.479 158.105 158.839 154.086 158.839 149.53C158.839 149.237 158.845 148.944 158.858 148.655C158.864 148.543 158.864 148.43 158.861 148.317C158.825 148.164 158.791 148.009 158.758 147.854L158.844 147.836C158.841 147.769 158.839 147.702 158.839 147.635V140.638C158.811 140.518 158.783 140.399 158.758 140.278L158.839 140.261V135.784C158.839 134.148 159.544 132.591 160.773 131.512L164.564 128.183ZM168.998 203.57C168.786 203.625 168.558 203.656 168.315 203.656C168.072 203.656 167.844 203.625 167.632 203.57L168.315 236.357L168.998 203.57ZM72.1495 133.665C72.7113 133.665 73.1741 134.111 73.2051 134.672C75.7714 181.332 111.918 219.045 157.888 224.05C158.425 224.108 158.839 224.56 158.839 225.101C158.839 225.721 158.3 226.206 157.684 226.14C110.68 221.034 73.7185 182.474 71.1065 134.765C71.074 134.168 71.5516 133.665 72.1495 133.665ZM264.481 133.665C265.08 133.665 265.558 134.168 265.525 134.766C262.913 182.474 225.951 221.035 178.948 226.141C178.331 226.208 177.793 225.721 177.793 225.101C177.793 224.56 178.206 224.108 178.743 224.05C224.713 219.045 260.86 181.333 263.427 134.673C263.458 134.112 263.92 133.665 264.481 133.665ZM151.434 212.047C151.682 211.523 152.308 211.299 152.832 211.547C153.356 211.795 153.58 212.421 153.332 212.945C153.084 213.469 152.458 213.693 151.934 213.445C151.41 213.197 151.186 212.571 151.434 212.047ZM189.182 211.209C189.761 211.209 190.231 211.679 190.231 212.259C190.231 212.839 189.762 213.31 189.182 213.31C188.602 213.31 188.132 212.839 188.132 212.259C188.132 211.679 188.602 211.209 189.182 211.209ZM147.066 211.52C147.314 210.995 147.941 210.772 148.465 211.02C148.989 211.268 149.213 211.894 148.965 212.418C148.717 212.942 148.091 213.166 147.566 212.918C147.042 212.67 146.819 212.044 147.066 211.52ZM148.41 135.648C148.687 135.139 149.326 134.95 149.835 135.228C150.344 135.505 150.532 136.143 150.255 136.652C148.833 139.266 146.626 142.558 142.618 144.797C138.6 147.041 132.913 148.148 124.68 146.679C109.828 144.028 100.766 146.135 95.75 149.447C90.7132 152.774 89.7687 157.246 90.7286 159.72C90.8816 160.114 90.7784 160.544 90.502 160.829C92.8682 167.12 95.9745 173.058 99.7188 178.532C99.5159 175.704 100.235 172.389 102.455 169.222C106.361 163.65 114.79 158.66 130.659 157.193C138.647 156.455 143.289 154.146 146.094 151.469C148.902 148.788 149.995 145.619 150.656 142.887C150.793 142.323 151.36 141.977 151.924 142.113C152.487 142.25 152.833 142.817 152.697 143.381C151.999 146.266 150.781 149.897 147.544 152.987C144.304 156.081 139.165 158.516 130.853 159.284C115.292 160.722 107.582 165.566 104.175 170.427C100.755 175.305 101.549 180.328 103.198 182.586C103.391 182.85 103.442 183.173 103.366 183.467C108.315 189.674 114.135 195.164 120.648 199.751C119.88 197.642 119.616 195.065 120.193 192.116C121.447 185.721 126.623 177.657 138.932 168.591C149.451 160.843 152.807 154.762 153 149.213C153.02 148.634 153.507 148.18 154.086 148.2C154.666 148.22 155.119 148.707 155.099 149.286C154.873 155.791 150.892 162.39 140.178 170.281C128.069 179.2 123.363 186.86 122.254 192.521C121.281 197.486 123.049 200.974 125.134 202.7C129.911 205.623 135.008 208.082 140.366 210.009C140.554 210.076 140.721 210.193 140.847 210.348C141.528 211.184 140.717 212.367 139.701 212.002C134.653 210.19 129.831 207.918 125.281 205.239C125.157 205.219 125.033 205.177 124.918 205.109C124.578 204.91 124.245 204.679 123.92 204.42C102.612 191.332 87.5615 169.201 83.9346 143.563C83.7836 142.496 85.104 141.94 85.7852 142.776C85.9112 142.931 85.9925 143.118 86.0205 143.315C86.602 147.408 87.4843 151.409 88.6407 155.295C89.3785 152.642 91.297 149.872 94.5928 147.695C100.231 143.972 109.914 141.91 125.049 144.611C132.93 146.018 138.098 144.916 141.594 142.963C145.1 141.004 147.07 138.111 148.41 135.648ZM187.661 134.445C188.18 134.186 188.811 134.396 189.07 134.915C190.324 137.423 192.192 140.383 195.629 142.462C199.055 144.535 204.181 145.816 212.106 144.684C227.325 142.51 237.022 144.847 242.623 148.692C245.714 150.815 247.57 153.429 248.349 155.952C249.533 152.321 250.476 148.58 251.157 144.748C251.192 144.552 251.28 144.368 251.411 144.218C252.121 143.406 253.422 144.006 253.234 145.068C247.671 176.481 224.963 201.972 195.125 211.527C194.097 211.856 193.328 210.647 194.038 209.835C194.169 209.685 194.34 209.574 194.529 209.513C199.476 207.926 204.22 205.888 208.717 203.45C208.785 203.384 208.863 203.326 208.95 203.278C211.418 201.942 214.004 198.295 213.142 192.642C212.274 186.957 207.886 179.148 196.096 169.814C185.662 161.555 181.912 154.823 181.912 148.313C181.912 147.734 182.382 147.263 182.962 147.263C183.542 147.263 184.012 147.734 184.012 148.313C184.012 153.866 187.155 160.058 197.398 168.167C209.386 177.656 214.235 185.892 215.217 192.325C215.681 195.369 215.272 197.986 214.365 200.092C221.18 195.67 227.31 190.282 232.559 184.119C232.582 183.937 232.653 183.758 232.774 183.603C234.495 181.411 235.436 176.368 232.147 171.313C228.872 166.282 221.295 161.122 205.798 159.146C197.517 158.089 192.466 155.477 189.335 152.272C186.208 149.072 185.117 145.401 184.519 142.493C184.402 141.925 184.768 141.37 185.336 141.253C185.904 141.136 186.458 141.503 186.575 142.07C187.141 144.824 188.124 148.028 190.837 150.805C193.547 153.578 198.106 156.047 206.064 157.062C221.876 159.08 230.161 164.413 233.906 170.167C235.934 173.283 236.597 176.488 236.407 179.242C240.378 173.811 243.71 167.883 246.288 161.567C246.176 161.311 246.164 161.011 246.283 160.733C247.318 158.318 246.464 153.877 241.435 150.424C236.432 146.989 227.339 144.629 212.403 146.763C204.124 147.945 198.48 146.641 194.542 144.259C190.614 141.882 188.522 138.516 187.191 135.854C186.932 135.336 187.143 134.705 187.661 134.445ZM167.576 200.884C167.662 201.084 167.763 201.237 167.865 201.344C168.015 201.5 168.16 201.556 168.315 201.556C168.471 201.556 168.615 201.5 168.765 201.344C168.867 201.237 168.968 201.083 169.054 200.883L169.792 165.428C169.301 165.624 168.784 165.746 168.315 165.746C167.847 165.746 167.329 165.624 166.837 165.427L167.576 200.884ZM174.796 154.813C173.16 156.863 170.985 158.164 168.314 158.164C165.645 158.164 163.472 156.864 161.836 154.816C162.462 156.539 163.372 157.966 164.429 158.977C165.404 159.909 166.386 161.238 166.7 162.886C166.808 163.002 166.962 163.131 167.175 163.26C167.617 163.526 168.077 163.646 168.315 163.646C168.554 163.645 169.014 163.526 169.456 163.26C169.669 163.132 169.822 163.001 169.93 162.886C170.244 161.238 171.227 159.909 172.202 158.977C173.259 157.966 174.17 156.537 174.796 154.813ZM175.693 145.954C173.992 148.73 171.507 150.588 168.314 150.588C165.123 150.588 162.64 148.731 160.939 145.957V147.635C160.939 147.705 160.94 147.775 160.944 147.844C160.948 147.901 160.948 147.961 160.951 148.024C162.169 153.011 164.938 156.063 168.314 156.063C171.693 156.063 174.462 153.008 175.679 148.017C175.681 147.956 175.683 147.898 175.687 147.844C175.69 147.775 175.693 147.705 175.693 147.635V145.954ZM170.682 129.761C169.328 128.573 167.303 128.572 165.949 129.761L162.158 133.09C161.383 133.771 160.939 134.752 160.939 135.784V140.395C162.15 145.413 164.925 148.487 168.314 148.487C171.705 148.487 174.483 145.41 175.693 140.387V135.784C175.693 134.752 175.248 133.771 174.473 133.09L170.682 129.761ZM64.626 105.021C71.0536 104.025 79.7709 105.231 89.5118 107.42C98.1488 109.361 107.714 112.104 117.382 114.877C118.652 115.241 119.923 115.605 121.194 115.969C132.166 119.105 143.135 122.15 152.996 124.02C154.32 124.271 155.168 125.281 155.234 126.42C155.303 127.59 154.532 128.676 153.174 128.969C149.434 129.774 144.563 130.477 139.407 130.367C137.585 130.329 135.826 130.281 134.124 130.227C134.057 130.242 133.987 130.25 133.915 130.252C133.482 130.262 133.064 130.234 132.662 130.176C130.726 130.108 128.867 130.032 127.078 129.948C126.978 129.983 126.871 130.004 126.759 130.007C126.21 130.019 125.675 129.964 125.154 129.854C122.796 129.734 120.563 129.602 118.439 129.464C118.283 129.529 118.109 129.558 117.929 129.539C117.476 129.492 117.032 129.423 116.598 129.341C112.45 129.057 108.727 128.755 105.302 128.476C101.19 128.141 97.5053 127.841 94.0274 127.65C83.166 127.055 74.1008 127.501 59.7168 131.231C56.7919 131.99 54.4801 132.483 52.6807 132.741C50.9066 132.996 49.5344 133.037 48.5371 132.822C48.0286 132.713 47.5494 132.523 47.1641 132.2C46.7594 131.861 46.5146 131.421 46.4219 130.932C46.2545 130.047 46.6047 129.099 47 128.296C47.4199 127.443 48.0276 126.492 48.6719 125.521C48.8545 125.246 49.0409 124.969 49.2286 124.689C49.7169 123.961 50.2166 123.215 50.7002 122.445C52.0575 120.286 53.1165 118.189 53.2344 116.362C53.4523 112.986 54.6128 110.366 56.6397 108.47C58.6452 106.593 61.3963 105.522 64.626 105.021ZM247.674 107.42C257.415 105.231 266.132 104.025 272.56 105.021C275.789 105.522 278.54 106.593 280.546 108.47C282.573 110.366 283.733 112.986 283.951 116.362C284.069 118.189 285.128 120.286 286.485 122.445C286.969 123.215 287.47 123.961 287.958 124.689C288.146 124.969 288.331 125.247 288.514 125.521C289.158 126.492 289.766 127.443 290.186 128.296C290.581 129.099 290.931 130.047 290.764 130.932C290.671 131.421 290.426 131.861 290.022 132.2C289.636 132.523 289.158 132.713 288.649 132.822C287.652 133.037 286.279 132.996 284.505 132.741C282.706 132.483 280.394 131.99 277.469 131.231C263.085 127.501 254.02 127.055 243.158 127.65C239.68 127.841 235.997 128.141 231.885 128.476C228.459 128.755 224.736 129.057 220.587 129.341C220.153 129.423 219.71 129.492 219.257 129.539C219.076 129.558 218.902 129.529 218.745 129.464C216.622 129.602 214.389 129.734 212.03 129.854C211.51 129.964 210.975 130.019 210.427 130.007C210.315 130.004 210.207 129.983 210.106 129.948C208.317 130.032 206.457 130.108 204.521 130.176C204.119 130.234 203.702 130.262 203.27 130.252C203.198 130.25 203.128 130.242 203.061 130.227C201.359 130.281 199.6 130.329 197.778 130.367C192.622 130.477 187.752 129.774 184.012 128.969C182.654 128.676 181.883 127.59 181.951 126.42C182.018 125.281 182.865 124.271 184.189 124.02C194.051 122.15 205.02 119.105 215.991 115.969C217.263 115.605 218.534 115.241 219.804 114.877C229.471 112.104 239.037 109.361 247.674 107.42ZM89.0508 109.47C79.3235 107.284 70.9491 106.166 64.9483 107.097C61.9639 107.559 59.6665 108.515 58.0752 110.004C56.5053 111.473 55.52 113.556 55.3301 116.498C55.1746 118.905 53.8366 121.402 52.4786 123.562C51.9771 124.36 51.4501 125.146 50.9561 125.883C50.7723 126.157 50.5926 126.425 50.4209 126.684C49.7743 127.658 49.2369 128.505 48.8838 129.223C48.5063 129.99 48.4562 130.387 48.4854 130.541C48.491 130.571 48.4933 130.574 48.5137 130.591C48.5538 130.624 48.6783 130.705 48.9786 130.77C49.5988 130.903 50.6673 130.908 52.3828 130.662C54.0735 130.42 56.3016 129.947 59.1905 129.198C73.8022 125.409 83.0853 124.948 94.1426 125.554C97.707 125.749 101.434 126.052 105.572 126.39C107.123 126.516 108.731 126.645 110.41 126.776C107.719 124.969 105.685 122.546 104.378 120.241C103.219 118.197 102.557 116.118 102.591 114.522C102.602 114.001 102.691 113.457 102.917 112.976C98.1175 111.664 93.4612 110.461 89.0508 109.47ZM272.237 107.097C266.236 106.166 257.862 107.284 248.135 109.47C243.724 110.461 239.067 111.664 234.268 112.976C234.494 113.457 234.584 114 234.595 114.522C234.629 116.118 233.967 118.197 232.808 120.241C231.501 122.546 229.466 124.969 226.775 126.776C228.455 126.645 230.063 126.516 231.613 126.39C235.752 126.052 239.48 125.749 243.044 125.554C254.101 124.948 263.384 125.409 277.996 129.198C280.885 129.947 283.112 130.42 284.803 130.662C286.518 130.908 287.587 130.903 288.207 130.77C288.507 130.705 288.632 130.624 288.672 130.591C288.692 130.574 288.696 130.571 288.701 130.541C288.73 130.387 288.679 129.99 288.302 129.223C287.949 128.505 287.411 127.658 286.765 126.684C286.593 126.425 286.413 126.157 286.23 125.883C285.736 125.146 285.208 124.36 284.707 123.562C283.349 121.402 282.011 118.905 281.856 116.498C281.666 113.557 280.681 111.473 279.111 110.004C277.52 108.515 275.222 107.56 272.237 107.097ZM136.798 122.453C136.653 122.511 136.493 122.538 136.327 122.525C135.852 122.488 135.562 122.559 135.394 122.639C135.238 122.712 135.135 122.817 135.061 122.964C134.886 123.307 134.841 123.949 135.086 124.812C135.321 125.641 135.779 126.496 136.338 127.143C136.917 127.811 137.479 128.118 137.894 128.151C138.015 128.161 138.13 128.192 138.235 128.238C138.638 128.248 139.043 128.259 139.452 128.268C144.401 128.373 149.103 127.698 152.732 126.916C152.952 126.869 153.044 126.783 153.081 126.735C153.121 126.683 153.142 126.618 153.138 126.542C153.13 126.412 153.031 126.164 152.606 126.083C147.564 125.127 142.244 123.869 136.798 122.453ZM200.388 122.452C194.942 123.868 189.622 125.127 184.58 126.083C184.155 126.164 184.055 126.412 184.048 126.542C184.043 126.618 184.065 126.683 184.106 126.735C184.142 126.783 184.234 126.869 184.454 126.916C188.084 127.698 192.785 128.373 197.733 128.268C198.142 128.259 198.547 128.248 198.949 128.238C199.055 128.191 199.17 128.161 199.292 128.151C199.707 128.118 200.269 127.811 200.848 127.143C201.407 126.496 201.864 125.641 202.1 124.812C202.345 123.949 202.3 123.307 202.125 122.964C202.05 122.817 201.948 122.712 201.793 122.639C201.625 122.559 201.335 122.488 200.859 122.525C200.693 122.539 200.533 122.51 200.388 122.452ZM129.893 120.6C129.826 120.632 129.754 120.66 129.679 120.678C128.944 120.855 128.545 121.3 128.363 121.921C128.166 122.596 128.229 123.524 128.617 124.504C129.292 126.205 130.809 127.739 132.872 128.082C133.39 128.1 133.913 128.118 134.442 128.135C133.824 127.319 133.34 126.347 133.066 125.386C132.759 124.303 132.666 123.039 133.189 122.011C133.268 121.856 133.361 121.71 133.466 121.572C132.279 121.254 131.087 120.929 129.893 120.6ZM207.291 120.6C206.097 120.929 204.906 121.254 203.719 121.572C203.824 121.71 203.917 121.856 203.996 122.011C204.519 123.039 204.428 124.303 204.12 125.386C203.847 126.348 203.361 127.318 202.742 128.135C203.271 128.118 203.794 128.1 204.312 128.082C206.375 127.74 207.894 126.205 208.568 124.504C208.957 123.524 209.018 122.596 208.821 121.921C208.64 121.3 208.24 120.855 207.506 120.678C207.43 120.659 207.358 120.632 207.291 120.6ZM216.568 117.988C214.39 118.611 212.208 119.228 210.031 119.837C210.406 120.266 210.675 120.776 210.838 121.333C211.199 122.572 211.031 123.99 210.52 125.278C210.152 126.204 209.583 127.117 208.835 127.904C209.821 127.861 210.785 127.814 211.729 127.767C213.835 127.26 215.849 125.435 217.327 123.15C218.189 121.819 218.802 120.426 219.099 119.248C219.247 118.659 219.309 118.153 219.298 117.753C219.292 117.522 219.259 117.351 219.223 117.228C218.339 117.481 217.454 117.735 216.568 117.988ZM117.962 117.228C117.925 117.351 117.894 117.522 117.888 117.753C117.877 118.153 117.938 118.659 118.087 119.248C118.384 120.426 118.997 121.819 119.858 123.15C121.337 125.435 123.35 127.26 125.457 127.767C126.4 127.814 127.364 127.86 128.349 127.903C127.601 127.116 127.032 126.203 126.665 125.278C126.154 123.99 125.986 122.572 126.348 121.333C126.51 120.776 126.778 120.266 127.152 119.837C124.977 119.228 122.795 118.611 120.617 117.988C119.731 117.735 118.846 117.481 117.962 117.228ZM105.362 113.725C104.981 113.647 104.899 113.745 104.891 113.755V113.756C104.835 113.813 104.702 114.027 104.69 114.567C104.668 115.636 105.142 117.332 106.205 119.206C108.157 122.647 111.838 126.256 116.879 127.256C118.15 127.343 119.461 127.427 120.816 127.509C119.75 126.556 118.83 125.426 118.096 124.291C117.13 122.798 116.412 121.196 116.051 119.762C115.87 119.045 115.77 118.34 115.788 117.695C115.798 117.346 115.844 116.99 115.943 116.649C112.487 115.658 109.056 114.677 105.685 113.738C105.58 113.75 105.471 113.747 105.362 113.725ZM232.295 113.755C232.287 113.745 232.205 113.647 231.823 113.725C231.714 113.747 231.605 113.75 231.5 113.738C228.129 114.677 224.698 115.658 221.241 116.649C221.34 116.99 221.388 117.346 221.397 117.695C221.415 118.34 221.316 119.045 221.135 119.762C220.773 121.196 220.057 122.798 219.091 124.291C218.356 125.426 217.435 126.556 216.368 127.509C217.723 127.427 219.034 127.343 220.305 127.256C225.347 126.257 229.029 122.648 230.981 119.206C232.043 117.332 232.518 115.636 232.495 114.567C232.483 114.027 232.35 113.813 232.295 113.756V113.755ZM59.126 117.574C60.9219 116.944 62.8885 117.89 63.5186 119.686C64.5997 122.767 61.0568 124.323 58.4971 125.17C58.3241 125.227 58.1555 125.281 57.9932 125.332C57.7672 125.403 57.5527 125.468 57.3555 125.528C57.0262 125.629 56.7434 125.715 56.5293 125.79C55.7 126.081 55.875 125.671 56.2412 124.968C56.2644 124.923 56.2881 124.878 56.3125 124.831C56.4581 124.553 56.6237 124.237 56.7657 123.906C56.8288 123.759 56.8875 123.608 56.9375 123.456C57.1042 122.95 57.1769 122.43 57.0147 121.968C56.3846 120.172 57.33 118.204 59.126 117.574ZM273.729 119.686C274.359 117.89 276.325 116.944 278.121 117.574C279.917 118.204 280.863 120.172 280.232 121.968C280.07 122.43 280.143 122.95 280.31 123.456C280.36 123.608 280.418 123.759 280.481 123.906C280.623 124.237 280.789 124.553 280.935 124.831C280.959 124.878 280.983 124.923 281.006 124.968C281.372 125.671 281.547 126.081 280.718 125.79C280.504 125.715 280.221 125.629 279.892 125.528C279.694 125.468 279.48 125.403 279.254 125.332C279.092 125.281 278.923 125.227 278.75 125.17C276.19 124.323 272.647 122.767 273.729 119.686ZM67.9434 109.371C71.2941 108.773 74.1105 109.822 77.0762 111.405C78.1241 111.965 79.1761 112.581 80.2842 113.229C82.3857 114.459 84.6885 115.806 87.544 117.111C91.5087 118.924 94.2675 119.56 96.2217 119.917C96.6806 120.001 97.1129 120.161 97.4571 120.424C97.7978 120.684 98.1323 121.117 98.1338 121.699C98.1352 122.296 97.7862 122.736 97.4151 122.99C97.0506 123.24 96.6016 123.369 96.1387 123.418C92.1317 123.839 85.6652 123.848 81.7647 122.697C79.421 122.006 77.9112 122.347 76.5703 122.951C76.0377 123.191 75.5468 123.465 75.0127 123.763C74.8224 123.869 74.6263 123.979 74.4209 124.091C73.6668 124.502 72.8302 124.922 71.8643 125.199C69.9304 125.755 68.1716 125.537 66.962 124.985C66.3741 124.717 65.8246 124.328 65.4971 123.815C65.3284 123.551 65.1931 123.211 65.1993 122.82C65.2059 122.41 65.3691 122.039 65.6377 121.751C65.8951 121.475 66.2201 121.241 66.4424 121.082C66.4751 121.059 66.5056 121.037 66.5332 121.017C66.8028 120.821 66.9218 120.712 66.9825 120.625L66.9844 120.623C67.0078 120.589 67.0277 120.56 67.0088 120.446C66.9806 120.276 66.8595 119.938 66.4512 119.369C65.9999 118.741 65.4216 117.932 64.917 117.065C64.4179 116.208 63.9483 115.225 63.7569 114.235C63.562 113.228 63.6404 112.11 64.3887 111.158C65.114 110.236 66.3208 109.661 67.9434 109.371ZM260.17 111.403C263.136 109.82 265.952 108.77 269.303 109.368C270.926 109.658 272.132 110.233 272.857 111.155C273.606 112.107 273.685 113.225 273.49 114.232C273.299 115.222 272.828 116.206 272.329 117.063C271.825 117.93 271.247 118.738 270.796 119.366C270.387 119.935 270.266 120.274 270.237 120.444C270.219 120.558 270.238 120.587 270.262 120.62L270.264 120.623C270.324 120.71 270.444 120.818 270.713 121.014C270.741 121.034 270.772 121.057 270.805 121.08C271.027 121.239 271.352 121.472 271.609 121.748C271.878 122.036 272.041 122.407 272.048 122.817C272.054 123.208 271.918 123.548 271.749 123.812C271.422 124.325 270.872 124.715 270.284 124.983C269.075 125.535 267.316 125.752 265.382 125.196C264.416 124.919 263.579 124.499 262.825 124.088C262.62 123.976 262.424 123.866 262.233 123.76C261.699 123.462 261.209 123.188 260.677 122.948C259.336 122.344 257.826 122.003 255.482 122.694C251.599 123.84 245.292 123.836 241.352 123.42C240.887 123.371 240.437 123.24 240.071 122.987C239.698 122.729 239.356 122.288 239.356 121.695C239.357 121.119 239.684 120.684 240.023 120.419C240.366 120.152 240.798 119.985 241.258 119.897C243.136 119.538 245.796 118.894 249.702 117.108C252.558 115.803 254.86 114.456 256.962 113.227C258.07 112.578 259.122 111.963 260.17 111.403ZM45.8164 48.1836C49.4174 48.1836 53.0768 48.6738 56.7842 49.5742C57.4767 49.5732 58.1997 49.7012 58.9434 49.9668C59.12 50.0299 59.2683 50.1362 59.3828 50.2686C63.9387 51.5973 68.5619 53.5128 73.2334 55.8711C80.8761 59.7294 88.692 64.7967 96.6026 70.4912C96.7687 70.5646 96.9293 70.653 97.0821 70.7549C97.2033 70.8357 97.3018 70.9381 97.377 71.0527C98.9286 72.1767 100.485 73.323 102.043 74.4893C105.791 77.2946 109.553 80.2072 113.324 83.1689C113.367 83.1953 113.41 83.2219 113.452 83.25C113.53 83.3016 113.596 83.3632 113.655 83.4297C116.547 85.7024 119.445 88.0021 122.346 90.3057C135.342 100.627 148.405 111.001 161.337 119.12C162.473 119.833 162.889 121.076 162.543 122.156C162.189 123.262 161.094 124.008 159.729 123.812C155.102 123.151 148.836 121.788 142.61 119.124C140.587 118.258 138.629 117.412 136.732 116.587C136.697 116.578 136.661 116.567 136.625 116.554C136.342 116.448 136.073 116.323 135.814 116.188C129.213 113.31 123.362 110.685 118.057 108.304C114.371 106.65 110.948 105.114 107.72 103.693C107.569 103.696 107.415 103.668 107.269 103.603C106.689 103.342 106.129 103.06 105.588 102.76C85.394 93.9679 72.6049 89.916 49.1123 89.916C47.4835 89.916 45.9519 89.5932 44.5274 89.0137C44.4776 88.9999 44.4276 88.9845 44.3789 88.9629C44.3398 88.9455 44.3026 88.9248 44.2666 88.9033C41.6477 87.7698 39.3996 85.7641 37.5889 83.2939C34.7427 79.4112 32.8871 74.281 32.2481 69.1807C31.6104 64.0902 32.1694 58.8969 34.3067 54.9287C36.4792 50.8953 40.2637 48.1836 45.8164 48.1836ZM291.37 48.1836C296.923 48.1837 300.707 50.8954 302.879 54.9287C305.016 58.8969 305.576 64.0901 304.939 69.1807C304.3 74.281 302.443 79.4112 299.597 83.2939C297.786 85.7634 295.539 87.7677 292.921 88.9014C292.884 88.9233 292.847 88.9451 292.807 88.9629C292.757 88.9849 292.706 89.0008 292.655 89.0146C291.232 89.5934 289.701 89.916 288.073 89.916C264.582 89.916 251.793 93.9668 231.601 102.758C231.059 103.058 230.499 103.341 229.918 103.603C229.771 103.669 229.616 103.697 229.465 103.693C226.237 105.114 222.815 106.65 219.13 108.304C213.825 110.684 207.975 113.309 201.376 116.187C201.116 116.323 200.846 116.447 200.563 116.554C200.526 116.567 200.489 116.578 200.452 116.587C198.556 117.412 196.599 118.258 194.575 119.124C188.35 121.788 182.084 123.151 177.457 123.812C176.092 124.008 174.998 123.262 174.644 122.156C174.298 121.076 174.713 119.833 175.849 119.12C188.781 111.001 201.843 100.627 214.84 90.3057C217.741 88.0015 220.64 85.7001 223.532 83.4268C223.591 83.3611 223.658 83.301 223.734 83.25C223.775 83.2231 223.816 83.1971 223.856 83.1719C227.63 80.2089 231.393 77.2957 235.143 74.4893C236.701 73.3227 238.258 72.176 239.81 71.0518C239.885 70.9373 239.984 70.8356 240.106 70.7549C240.257 70.6542 240.415 70.566 240.579 70.4932C248.491 64.7976 256.308 59.7299 263.952 55.8711C268.623 53.5129 273.246 51.5973 277.802 50.2686C277.916 50.136 278.065 50.03 278.242 49.9668C278.985 49.7014 279.708 49.5734 280.4 49.5742C284.108 48.6736 287.769 48.1836 291.37 48.1836ZM76.087 113.258C73.2527 111.744 70.9589 110.966 68.3125 111.438C66.9369 111.684 66.3147 112.107 66.0401 112.456C65.7888 112.776 65.6963 113.206 65.8184 113.837C65.944 114.486 66.2794 115.231 66.7325 116.009C67.1801 116.777 67.7016 117.511 68.1563 118.144C68.6535 118.836 68.977 119.481 69.0801 120.104C69.192 120.78 69.0311 121.355 68.708 121.821C68.4215 122.235 68.0285 122.526 67.7686 122.715C67.7283 122.744 67.6908 122.772 67.6553 122.798C67.6036 122.835 67.5565 122.869 67.5137 122.9C67.5958 122.955 67.7015 123.015 67.834 123.075C68.5632 123.408 69.8046 123.606 71.2842 123.181C72.0252 122.968 72.7005 122.637 73.4161 122.247C73.5816 122.157 73.7529 122.061 73.9287 121.963C74.4834 121.653 75.0852 121.317 75.7071 121.037C77.4494 120.252 79.476 119.833 82.3584 120.684C85.2307 121.531 89.8747 121.699 93.6143 121.506C91.793 121.053 89.5193 120.324 86.6709 119.021C83.7345 117.679 81.2344 116.219 79.0743 114.957C77.9982 114.329 77.0063 113.749 76.087 113.258ZM268.934 111.436C266.287 110.963 263.994 111.742 261.159 113.256C260.24 113.747 259.248 114.326 258.172 114.954C256.012 116.216 253.512 117.676 250.575 119.019C247.733 120.318 245.501 121.047 243.727 121.5C247.406 121.698 252 121.533 254.888 120.681C257.77 119.83 259.797 120.249 261.539 121.034C262.161 121.315 262.764 121.65 263.318 121.96C263.494 122.058 263.666 122.154 263.831 122.244C264.546 122.634 265.221 122.965 265.962 123.178C267.442 123.603 268.684 123.405 269.413 123.072C269.546 123.012 269.65 122.952 269.732 122.897C269.69 122.866 269.643 122.832 269.592 122.795C269.556 122.769 269.518 122.742 269.478 122.713C269.218 122.524 268.825 122.233 268.538 121.819C268.215 121.353 268.054 120.777 268.166 120.101C268.269 119.478 268.593 118.833 269.09 118.141C269.545 117.508 270.067 116.774 270.515 116.006C270.968 115.228 271.302 114.483 271.428 113.834C271.55 113.203 271.458 112.773 271.206 112.453C270.931 112.104 270.309 111.681 268.934 111.436ZM61.5371 120.381C61.291 119.679 60.5229 119.311 59.8213 119.557C59.1197 119.803 58.75 120.571 58.9961 121.272C59.1669 121.759 59.2182 122.236 59.2032 122.675C59.5453 122.531 59.8864 122.37 60.2178 122.188C60.9303 121.794 61.3263 121.429 61.502 121.149C61.6098 120.978 61.6821 120.794 61.5371 120.381ZM277.427 119.557C276.725 119.311 275.956 119.679 275.71 120.381C275.565 120.794 275.637 120.978 275.745 121.149C275.921 121.429 276.318 121.794 277.03 122.188C277.362 122.37 277.702 122.531 278.044 122.675C278.029 122.236 278.08 121.759 278.251 121.272C278.497 120.571 278.128 119.803 277.427 119.557ZM141.407 108.459C141.174 108.477 140.983 108.566 140.808 108.731C140.411 109.105 140.075 109.898 139.977 111.032C139.881 112.129 140.026 113.354 140.381 114.382C140.747 115.443 141.266 116.105 141.77 116.356C141.902 116.423 142.014 116.514 142.104 116.62C142.545 116.81 142.989 117.002 143.437 117.193C149.445 119.764 155.521 121.09 160.025 121.733C160.244 121.765 160.36 121.717 160.414 121.684C160.473 121.647 160.519 121.591 160.543 121.516C160.584 121.386 160.577 121.123 160.22 120.898C154.435 117.267 148.609 113.173 142.774 108.837C142.7 108.819 142.625 108.794 142.554 108.758C142.029 108.495 141.656 108.439 141.407 108.459ZM195.779 108.459C195.531 108.439 195.157 108.495 194.632 108.758C194.56 108.794 194.486 108.819 194.411 108.837C188.577 113.173 182.751 117.267 176.966 120.898C176.608 121.123 176.601 121.386 176.643 121.516C176.667 121.591 176.712 121.647 176.772 121.684C176.826 121.717 176.942 121.765 177.16 121.733C181.665 121.09 187.741 119.764 193.749 117.193C194.196 117.002 194.64 116.81 195.081 116.62C195.171 116.513 195.283 116.423 195.416 116.356C195.92 116.105 196.439 115.443 196.805 114.382C197.159 113.354 197.304 112.129 197.209 111.032C197.11 109.898 196.775 109.105 196.378 108.731C196.202 108.566 196.012 108.478 195.779 108.459ZM168.315 99.2012C171.646 99.2012 174.347 101.902 174.347 105.232C174.347 108.563 171.646 118.156 168.315 118.156C164.985 118.156 162.284 108.563 162.284 105.232C162.284 101.902 164.985 99.2012 168.315 99.2012ZM168.315 101.302C166.144 101.302 164.385 103.061 164.385 105.232C164.385 106.549 164.973 109.511 166.009 112.184C166.521 113.503 167.087 114.605 167.642 115.336C167.982 115.785 168.21 115.959 168.315 116.023C168.421 115.959 168.65 115.785 168.99 115.336C169.545 114.605 170.11 113.503 170.622 112.184C171.658 109.511 172.246 106.549 172.246 105.232C172.246 103.061 170.486 101.302 168.315 101.302ZM134.51 103.151C134.335 103.169 134.14 103.258 133.926 103.518C133.453 104.091 133.089 105.279 133.089 106.847C133.089 108.372 133.436 110.065 134.161 111.503C134.77 112.711 135.623 113.695 136.722 114.292C137.269 114.531 137.822 114.77 138.379 115.012C137.939 113.71 137.766 112.212 137.885 110.851C138.002 109.508 138.42 108.093 139.369 107.201C139.556 107.026 139.761 106.872 139.984 106.746C138.646 105.735 137.306 104.713 135.968 103.683C135.823 103.66 135.679 103.607 135.549 103.521C135.036 103.179 134.7 103.132 134.51 103.151ZM202.677 103.151C202.487 103.132 202.15 103.179 201.638 103.521C201.507 103.608 201.363 103.66 201.217 103.683C199.878 104.713 198.539 105.735 197.2 106.746C197.424 106.872 197.63 107.025 197.816 107.201C198.766 108.093 199.184 109.508 199.301 110.851C199.419 112.212 199.246 113.709 198.807 115.011C199.366 114.768 199.921 114.529 200.471 114.289C201.567 113.691 202.417 112.709 203.025 111.503C203.751 110.065 204.098 108.372 204.098 106.847C204.098 105.279 203.734 104.091 203.261 103.518C203.047 103.258 202.851 103.169 202.677 103.151ZM124.574 95.2168C124.545 95.2287 124.359 95.3364 124.17 95.8643C123.798 96.9044 123.718 98.7588 124.032 100.947C124.342 103.101 125.012 105.42 125.999 107.333C127 109.273 128.242 110.635 129.607 111.147C129.682 111.175 129.752 111.211 129.816 111.253C130.607 111.604 131.409 111.959 132.223 112.317C131.378 110.583 130.989 108.615 130.989 106.847C130.989 105.076 131.38 103.303 132.307 102.181C132.535 101.904 132.803 101.662 133.109 101.472C130.629 99.5413 128.15 97.5885 125.676 95.6299C125.514 95.6119 125.354 95.5572 125.21 95.4609C124.966 95.2986 124.798 95.2376 124.698 95.2178C124.613 95.2008 124.582 95.2135 124.574 95.2168ZM212.488 95.2178C212.389 95.2377 212.22 95.2986 211.977 95.4609C211.832 95.5576 211.671 95.6122 211.509 95.6299C209.035 97.5882 206.557 99.5406 204.076 101.471C204.383 101.661 204.653 101.904 204.881 102.181C205.807 103.303 206.197 105.076 206.197 106.847C206.197 108.615 205.809 110.583 204.964 112.317C205.779 111.958 206.582 111.602 207.374 111.251C207.437 111.21 207.506 111.175 207.579 111.147C208.945 110.635 210.187 109.273 211.188 107.333C212.174 105.42 212.845 103.101 213.154 100.947C213.469 98.7587 213.388 96.9044 213.017 95.8643C212.828 95.3364 212.642 95.2287 212.613 95.2168L212.58 95.209C212.561 95.2075 212.531 95.2092 212.488 95.2178ZM111.756 84.8135C111.666 84.8661 111.427 85.1062 111.23 85.8184C110.848 87.1929 110.845 89.537 111.421 92.3125C112.57 97.8507 115.895 104.51 121.98 107.755C121.983 107.757 121.987 107.76 121.99 107.762C122.794 108.122 123.611 108.489 124.439 108.859C124.334 108.673 124.231 108.486 124.133 108.296C123.02 106.138 122.29 103.587 121.953 101.247C121.622 98.9423 121.649 96.6795 122.192 95.1572C122.389 94.6082 122.694 94.0426 123.17 93.6426C122.413 93.0423 121.657 92.4426 120.901 91.8428C117.966 89.5119 115.038 87.1892 112.125 84.9004C111.988 84.8276 111.896 84.8048 111.847 84.7988C111.796 84.7928 111.778 84.8007 111.756 84.8135ZM225.34 84.7988C225.29 84.8048 225.196 84.8266 225.059 84.9004C222.146 87.1889 219.219 89.5122 216.284 91.8428C215.529 92.4426 214.771 93.0413 214.015 93.6416C214.492 94.0417 214.798 94.6075 214.994 95.1572C215.538 96.6795 215.565 98.9423 215.233 101.247C214.897 103.587 214.167 106.138 213.054 108.296C212.956 108.486 212.852 108.673 212.747 108.858C213.577 108.487 214.395 108.12 215.2 107.759C215.203 107.758 215.205 107.756 215.207 107.755C221.292 104.51 224.616 97.8507 225.766 92.3125C226.342 89.537 226.338 87.1929 225.957 85.8184C225.76 85.1062 225.521 84.8661 225.431 84.8135C225.409 84.8007 225.39 84.7928 225.34 84.7988ZM95.6133 72.374C95.605 72.3741 95.5627 72.3749 95.4737 72.4512C95.2401 72.6515 94.9173 73.1811 94.6641 74.1875C94.1731 76.1394 94.1031 79.2381 94.7325 82.752C95.9051 89.299 99.4195 96.8749 106.493 100.859C109.171 102.025 111.974 103.273 114.942 104.602C111.931 100.968 110.155 96.5469 109.364 92.7393C108.756 89.8064 108.699 87.0877 109.206 85.2578C109.396 84.5732 109.701 83.8838 110.196 83.3887C107.04 80.9223 103.901 78.503 100.784 76.1699C99.0574 74.8774 97.3359 73.6112 95.6221 72.375C95.6184 72.3748 95.615 72.374 95.6133 72.374ZM241.562 72.376C239.848 73.6118 238.128 74.8778 236.401 76.1699C233.284 78.5031 230.146 80.9222 226.989 83.3887C227.485 83.8839 227.791 84.5729 227.981 85.2578C228.488 87.0877 228.431 89.8064 227.822 92.7393C227.032 96.5467 225.255 100.967 222.244 104.601C225.213 103.271 228.017 102.024 230.696 100.857C237.768 96.8725 241.282 89.2981 242.454 82.752C243.083 79.2382 243.014 76.1394 242.523 74.1875C242.27 73.1813 241.947 72.6516 241.714 72.4512C241.624 72.3744 241.581 72.3741 241.573 72.374L241.562 72.376ZM77.6426 95.7559C78.3734 95.7559 78.8795 96.4869 78.6328 97.1748C78.2753 98.1711 77.9334 99.1752 77.6084 100.187C77.4674 100.625 77.0606 100.926 76.5996 100.926C75.8917 100.926 75.3844 100.241 75.6006 99.5674C75.9376 98.5177 76.2928 97.4752 76.6641 96.4414C76.8124 96.0291 77.2045 95.7559 77.6426 95.7559ZM258.989 95.7559C259.427 95.7559 259.82 96.0292 259.968 96.4414C260.339 97.4752 260.693 98.5177 261.03 99.5674C261.247 100.241 260.74 100.926 260.032 100.926C259.571 100.926 259.165 100.625 259.023 100.187C258.698 99.1752 258.357 98.1711 257.999 97.1748C257.752 96.4869 258.258 95.7559 258.989 95.7559ZM219.937 68.9893C220.443 68.7069 221.082 68.8882 221.364 69.3945C221.647 69.901 221.465 70.5408 220.959 70.8232C205.731 79.3163 192.999 93.7049 188.558 99.8164C188.217 100.286 187.56 100.39 187.091 100.049C186.622 99.708 186.518 99.0511 186.858 98.582C191.405 92.3253 204.351 77.6816 219.937 68.9893ZM114.843 67.6719C115.125 67.1654 115.765 66.9841 116.272 67.2666C131.857 75.9589 144.802 90.6027 149.349 96.8594C149.689 97.3285 149.585 97.9853 149.116 98.3262C148.647 98.6669 147.99 98.5628 147.649 98.0938C143.209 91.9822 130.476 77.5936 115.248 69.1006C114.742 68.8181 114.56 68.1783 114.843 67.6719ZM78.96 61.4385C77.775 61.0739 76.851 61.1773 76.1289 61.5449C75.39 61.9212 74.7346 62.6396 74.2315 63.7285C73.2139 65.9313 72.9459 69.3998 73.7295 73.3701C75.2896 81.2744 80.9082 90.6247 91.7071 94.7783C91.8364 94.8281 91.9504 94.9012 92.0459 94.9902C94.4895 95.8815 96.9815 96.8598 99.5694 97.9229C95.6542 93.5295 93.5358 87.9784 92.6661 83.1221C92.0031 79.4205 92.0411 76.0038 92.627 73.6748C92.8776 72.6787 93.2615 71.7454 93.8496 71.1055C88.8674 67.5659 83.9448 64.307 79.0977 61.4688C79.0519 61.4611 79.0056 61.4525 78.96 61.4385ZM261.058 61.5449C260.336 61.1775 259.412 61.074 258.228 61.4385C258.181 61.4528 258.134 61.4621 258.087 61.4697C253.24 64.3078 248.318 67.5662 243.336 71.1055C243.925 71.7454 244.309 72.6784 244.56 73.6748C245.146 76.0038 245.184 79.4205 244.522 83.1221C243.652 87.9779 241.533 93.5278 237.618 97.9209C240.206 96.8579 242.698 95.8804 245.142 94.9893C245.237 94.9006 245.351 94.8279 245.48 94.7783C256.279 90.6247 261.898 81.2745 263.458 73.3701C264.242 69.3998 263.974 65.9313 262.956 63.7285C262.453 62.6395 261.797 61.9212 261.058 61.5449ZM130.457 62.3535C130.825 61.9054 131.486 61.8404 131.935 62.208C144.302 72.349 153.411 87.3675 156.438 93.6338C156.69 94.1559 156.471 94.7838 155.949 95.0361C155.427 95.2882 154.799 95.0697 154.547 94.5479C151.598 88.4424 142.653 73.7129 130.603 63.832C130.154 63.4643 130.089 62.8019 130.457 62.3535ZM204.273 62.208C204.722 61.8404 205.383 61.9053 205.751 62.3535C206.119 62.8019 206.053 63.4643 205.605 63.832C193.554 73.7129 184.61 88.4424 181.661 94.5479C181.409 95.0698 180.781 95.2883 180.259 95.0361C179.737 94.7839 179.517 94.156 179.77 93.6338C182.796 87.3676 191.905 72.3491 204.273 62.208ZM56.5557 51.6807C56.0501 51.7176 55.5999 51.8708 55.1963 52.1113C54.3522 52.6145 53.5847 53.5765 52.9903 55.0068C51.7991 57.8731 51.461 62.2594 52.3008 67.0361C52.7962 69.8534 53.6897 72.754 55.0205 75.5068C55.0218 75.5081 55.0231 75.5094 55.0245 75.5107C55.1928 75.6791 55.2912 75.8904 55.3213 76.1094C58.5523 82.4313 64.1432 87.871 72.5811 89.5586C72.7136 89.5851 72.8352 89.6352 72.9424 89.7041C76.2555 90.3012 79.4425 91.0425 82.6104 91.9297C76.3686 86.8652 72.8794 79.909 71.669 73.7764C70.8372 69.562 71.0543 65.5988 72.3252 62.8477C72.9664 61.46 73.9058 60.3206 75.1758 59.6738C75.3126 59.6042 75.4523 59.5421 75.5938 59.4854C74.4872 58.8811 73.3852 58.2994 72.2871 57.7451C66.9096 55.0304 61.6593 52.9474 56.5557 51.6807ZM280.629 51.6807C275.526 52.9475 270.276 55.0306 264.898 57.7451C263.8 58.2995 262.698 58.88 261.591 59.4844C261.733 59.5413 261.873 59.6038 262.011 59.6738C263.281 60.3206 264.221 61.4599 264.862 62.8477C266.133 65.5988 266.349 69.5619 265.518 73.7764C264.307 79.9093 260.818 86.8651 254.575 91.9297C257.743 91.0425 260.929 90.3011 264.242 89.7041C264.35 89.635 264.472 89.5852 264.605 89.5586C273.042 87.871 278.633 82.4312 281.864 76.1094C281.894 75.8904 281.993 75.6791 282.161 75.5107C282.162 75.5096 282.163 75.508 282.164 75.5068C283.495 72.7539 284.389 69.8536 284.885 67.0361C285.725 62.2594 285.387 57.8731 284.195 55.0068C283.601 53.5765 282.833 52.6145 281.989 52.1113C281.585 51.8706 281.135 51.7174 280.629 51.6807ZM56.9864 82.7148C56.0606 81.7891 54.1545 81.3304 51.9346 82.1025C49.9799 82.7826 47.8529 84.4143 46.2657 87.3994C47.1795 87.6715 48.1296 87.8154 49.1123 87.8154C54.5142 87.8154 59.3675 88.03 63.8789 88.4639C61.3456 86.9579 59.1877 85.0753 57.378 82.96C57.2353 82.9094 57.1006 82.829 56.9864 82.7148ZM285.251 82.1025C283.031 81.3304 281.125 81.7891 280.199 82.7148C280.084 82.8295 279.949 82.9105 279.806 82.9609C277.996 85.0758 275.839 86.9582 273.306 88.4639C277.817 88.0299 282.671 87.8154 288.073 87.8154C289.056 87.8154 290.005 87.6713 290.919 87.3994C289.332 84.4145 287.206 82.7825 285.251 82.1025ZM51.2139 76.0029C50.1294 75.8357 48.8203 75.8914 47.4385 76.25C44.6854 76.9646 41.6991 78.8668 39.6924 82.4785C39.6805 82.5 39.6656 82.5197 39.6524 82.54C41.0213 84.2932 42.5874 85.6855 44.3155 86.5986C46.1303 83.0873 48.6891 81.0082 51.2452 80.1191C52.4948 79.6845 53.7651 79.5326 54.9346 79.6543C54.3455 78.729 53.8107 77.7778 53.3272 76.8105C52.867 76.4521 52.1557 76.1483 51.2139 76.0029ZM289.748 76.25C288.366 75.8913 287.056 75.8356 285.972 76.0029C285.029 76.1483 284.318 76.4519 283.857 76.8105C283.374 77.7778 282.839 78.729 282.25 79.6543C283.42 79.5324 284.69 79.6844 285.94 80.1191C288.496 81.0082 291.054 83.0875 292.869 86.5986C294.597 85.6856 296.163 84.2933 297.532 82.54C297.519 82.5199 297.506 82.4998 297.494 82.4785C295.488 78.8667 292.501 76.9647 289.748 76.25ZM43.794 69.6631C40.6883 69.8573 37.4942 71.1683 35.5411 74.4531C36.2428 76.6797 37.1844 78.7905 38.336 80.6484C40.6238 77.0206 43.853 75.0114 46.9102 74.2178C48.5433 73.7939 50.142 73.713 51.5342 73.9277C51.7227 73.9568 51.9094 73.9916 52.0928 74.0322C51.7948 73.2702 51.5293 72.5029 51.2901 71.7363C51.1688 71.6852 51.055 71.6105 50.9561 71.5117C50.4854 71.041 49.5436 70.5146 48.2305 70.1357C46.9423 69.7641 45.3929 69.5631 43.794 69.6631ZM293.393 69.6631C291.794 69.5632 290.245 69.7642 288.957 70.1357C287.644 70.5146 286.702 71.0409 286.231 71.5117C286.132 71.6112 286.017 71.6851 285.895 71.7363C285.655 72.503 285.39 73.2702 285.092 74.0322C285.276 73.9915 285.463 73.9569 285.651 73.9277C287.044 73.7129 288.642 73.7938 290.275 74.2178C293.333 75.0114 296.561 77.0209 298.849 80.6484C300.001 78.7902 300.942 76.6791 301.644 74.4521C299.69 71.1685 296.498 69.8572 293.393 69.6631ZM42.7364 62.5537C39.4564 62.1437 36.2857 62.7953 34.459 65.3525C34.3633 65.4866 34.2412 65.5905 34.1055 65.6641C34.1206 66.7347 34.194 67.8242 34.3311 68.9189C34.4528 69.8903 34.6232 70.8604 34.836 71.8193C37.2315 68.939 40.5653 67.7611 43.6631 67.5674C45.5104 67.4519 47.3007 67.6811 48.8125 68.1172C49.4093 68.2893 49.9784 68.5004 50.5 68.7422C50.4023 68.2922 50.3108 67.8447 50.2325 67.3994C50.111 66.7084 50.0142 66.0209 49.9375 65.3408C49.3933 64.8571 48.4645 64.2843 47.25 63.7705C45.9311 63.2125 44.3551 62.7561 42.7364 62.5537ZM302.727 65.3525C300.9 62.7954 297.729 62.1437 294.449 62.5537C292.831 62.7561 291.255 63.2126 289.937 63.7705C288.722 64.2845 287.791 64.857 287.247 65.3408C287.17 66.0209 287.075 66.7084 286.953 67.3994C286.875 67.845 286.783 68.2929 286.686 68.7432C287.208 68.5011 287.778 68.2895 288.375 68.1172C289.887 67.6812 291.676 67.452 293.523 67.5674C296.621 67.761 299.953 68.9392 302.349 71.8184C302.561 70.8596 302.733 69.89 302.855 68.9189C302.992 67.8242 303.065 66.7347 303.08 65.6641C302.945 65.5905 302.822 65.4865 302.727 65.3525ZM168.315 32C195.533 32 220.142 43.1692 237.81 61.1738C237.998 61.3658 238.103 61.6246 238.103 61.8936C238.102 62.8316 236.944 63.2905 236.287 62.6211C219.003 45.0187 194.934 34.1006 168.315 34.1006C140.81 34.1007 116.028 45.7576 98.6397 64.4014C97.9914 65.0964 96.8058 64.6447 96.8057 63.6943C96.8057 63.435 96.9034 63.1849 97.0801 62.9951C114.853 43.9257 140.192 32.0001 168.315 32ZM42.9405 55.5596C39.7184 55.4556 36.755 56.309 35.3399 58.4316C35.2478 58.5696 35.1276 58.6769 34.9932 58.7549C34.6351 59.936 34.3877 61.2004 34.2452 62.5186C36.7139 60.4638 40.0367 60.0997 42.9971 60.4697C44.8244 60.6982 46.5875 61.2104 48.0684 61.8369C48.6679 62.0906 49.234 62.3703 49.7481 62.6641C49.7005 60.9082 49.8087 59.235 50.0703 57.708C49.5892 57.2397 48.6518 56.7213 47.3516 56.3047C46.059 55.8906 44.5134 55.6103 42.9405 55.5596ZM294.245 55.5596C292.672 55.6104 291.127 55.8906 289.834 56.3047C288.533 56.7214 287.596 57.2405 287.115 57.709C287.377 59.2358 287.485 60.9085 287.438 62.6641C287.952 62.3702 288.519 62.0906 289.118 61.8369C290.599 61.2104 292.362 60.6981 294.189 60.4697C297.15 60.0997 300.472 60.4645 302.94 62.5195C302.798 61.201 302.551 59.9362 302.192 58.7549C302.058 58.6769 301.938 58.5696 301.846 58.4316C300.431 56.309 297.467 55.4556 294.245 55.5596ZM216.8 59.2988C217.379 59.299 217.849 59.769 217.85 60.3486C217.85 60.9284 217.38 61.3992 216.8 61.3994C216.22 61.3994 215.749 60.9285 215.749 60.3486C215.749 59.7689 216.22 59.2988 216.8 59.2988ZM210.5 55.0977C211.08 55.0979 211.55 55.5679 211.55 56.1475C211.55 56.7272 211.08 57.198 210.5 57.1982C209.92 57.1982 209.449 56.7274 209.449 56.1475C209.449 55.5678 209.92 55.0977 210.5 55.0977ZM45.8164 50.2842C41.8126 50.2842 38.9761 51.8894 37.0899 54.4424C38.925 53.6512 41.0432 53.3976 43.0078 53.4609C44.7731 53.5179 46.5118 53.8304 47.9922 54.3047C48.9549 54.6131 49.8574 55.0058 50.5948 55.4736C50.7309 55.0297 50.8831 54.6048 51.0508 54.2012C51.586 52.9134 52.3049 51.7895 53.2256 50.9688C50.7177 50.5207 48.2474 50.2842 45.8164 50.2842ZM291.37 50.2842C288.939 50.2842 286.467 50.5205 283.959 50.9688C284.88 51.7895 285.599 52.9131 286.135 54.2012C286.303 54.6047 286.454 55.0297 286.59 55.4736C287.327 55.0055 288.23 54.6132 289.193 54.3047C290.674 53.8304 292.412 53.5179 294.178 53.4609C296.142 53.3976 298.26 53.6515 300.095 54.4424C298.209 51.8898 295.373 50.2843 291.37 50.2842ZM134.899 50.9023C135.479 50.9023 135.95 51.3725 135.95 51.9521C135.95 52.532 135.479 53.0029 134.899 53.0029C134.32 53.0028 133.85 52.5319 133.85 51.9521C133.85 51.3726 134.32 50.9025 134.899 50.9023ZM139.103 48.874C157.173 42.6243 176.995 42.5657 195.194 48.874C196.374 49.2829 196.067 50.8994 194.818 50.8994C194.69 50.8994 194.563 50.8778 194.441 50.8359C176.727 44.7122 157.443 44.7688 139.855 50.8359C139.734 50.8777 139.606 50.8994 139.479 50.8994C138.23 50.8994 137.923 49.2824 139.103 48.874Z" fill="url(#paint0_linear_1460_16507)"/>
<defs>
<linearGradient id="paint0_linear_1460_16507" x1="32" y1="56.1497" x2="320.748" y2="224.151" gradientUnits="userSpaceOnUse">
<stop stop-color="#DAC98B"/>
<stop offset="1" stop-color="#F3EDD8"/>
</linearGradient>
</defs>
</svg>
