<svg width="159" height="208" viewBox="0 0 159 208" fill="none" xmlns="http://www.w3.org/2000/svg">
<path d="M77.2266 56.0088C78.4631 54.9232 80.3132 54.9232 81.5498 56.0088L83.7344 57.9268C84.4428 58.5488 84.8486 59.4459 84.8486 60.3887V62.9688L84.8945 62.9785C84.8802 63.0461 84.8641 63.1135 84.8486 63.1807V67.2168C84.8486 67.256 84.8461 67.2951 84.8447 67.334L84.8945 67.3447C84.8758 67.4328 84.8555 67.5202 84.835 67.6074C84.8336 67.6734 84.8339 67.7398 84.8369 67.8057C84.8446 67.9719 84.8486 68.1396 84.8486 68.3086C84.8486 70.9338 83.9038 73.2504 82.4639 74.627C82.1023 74.9727 81.7925 75.3842 81.6182 75.8418C81.634 75.9234 81.6346 76.0095 81.6143 76.0957C81.5837 76.2251 81.5347 76.3447 81.4746 76.4561C81.471 76.4994 81.4687 76.543 81.4678 76.5869L81.0225 97.9268L81.0693 97.9385C81.0553 97.9979 81.0371 98.0576 81.0186 98.1172L80.5029 122.916C80.4903 123.523 79.9945 124.008 79.3877 124.008C78.781 124.008 78.2861 123.523 78.2734 122.916L77.7559 98.1152C77.7376 98.0564 77.7209 97.9972 77.707 97.9385L77.752 97.9277L77.3076 76.5869C77.3067 76.5431 77.3034 76.4993 77.2998 76.4561C77.2398 76.3447 77.1907 76.2251 77.1602 76.0957C77.1396 76.0085 77.1398 75.9213 77.1562 75.8389C76.9819 75.3826 76.6732 74.9719 76.3125 74.627C74.8728 73.2504 73.9277 70.9336 73.9277 68.3086C73.9277 68.1396 73.9317 67.9719 73.9395 67.8057C73.9425 67.7411 73.9417 67.676 73.9404 67.6113C73.9196 67.5229 73.8998 67.434 73.8809 67.3447L73.9307 67.334C73.9293 67.2951 73.9277 67.256 73.9277 67.2168V63.1846C73.912 63.1162 73.8955 63.0474 73.8809 62.9785L73.9277 62.9678V60.3887C73.9278 59.4459 74.3336 58.5488 75.042 57.9268L77.2266 56.0088ZM79.3877 118.338L79.7803 99.4463C79.6581 99.4777 79.5274 99.4971 79.3877 99.4971C79.2474 99.497 79.1168 99.477 78.9941 99.4453L79.3877 118.338ZM23.9785 59.168C24.3023 59.1681 24.5682 59.4257 24.5859 59.749C26.0647 86.6342 46.8927 108.363 73.3799 111.247C73.6894 111.281 73.9276 111.541 73.9277 111.853C73.9277 112.21 73.6172 112.49 73.2617 112.451C46.179 109.509 24.8819 87.2911 23.377 59.8018C23.3583 59.4578 23.634 59.168 23.9785 59.168ZM134.798 59.168C135.142 59.168 135.418 59.4586 135.399 59.8027C133.894 87.2918 112.597 109.51 85.5146 112.451C85.1592 112.49 84.8486 112.21 84.8486 111.853C84.8488 111.541 85.0871 111.281 85.3965 111.247C111.884 108.363 132.712 86.6342 134.19 59.749C134.208 59.4258 134.474 59.1682 134.798 59.168ZM69.6611 104.328C69.8041 104.026 70.1648 103.897 70.4668 104.04C70.7688 104.183 70.8977 104.544 70.7549 104.846C70.612 105.148 70.2513 105.277 69.9492 105.134C69.6472 104.991 69.5182 104.63 69.6611 104.328ZM91.4111 103.849C91.7452 103.849 92.0165 104.119 92.0166 104.453C92.0166 104.787 91.7453 105.059 91.4111 105.059C91.077 105.059 90.8057 104.787 90.8057 104.453C90.8057 104.119 91.077 103.849 91.4111 103.849ZM67.1445 104.027C67.2874 103.725 67.6482 103.596 67.9502 103.739C68.2522 103.882 68.3812 104.243 68.2383 104.545C68.0954 104.847 67.7346 104.976 67.4326 104.833C67.1308 104.69 67.0017 104.329 67.1445 104.027ZM67.9189 60.3105C68.0786 60.0172 68.4458 59.9089 68.7393 60.0684C69.0327 60.2281 69.1412 60.5952 68.9814 60.8887C68.162 62.3945 66.8904 64.2922 64.5811 65.582C62.2657 66.8751 58.9898 67.5127 54.2461 66.666C45.6887 65.1386 40.4673 66.353 37.5771 68.2617C34.675 70.1784 34.1307 72.7543 34.6836 74.1797C34.7717 74.4069 34.7116 74.6539 34.5527 74.8184C35.9162 78.4436 37.7057 81.8651 39.8633 85.0195C39.7458 83.3895 40.1595 81.4783 41.4395 79.6523C43.69 76.4417 48.5468 73.5666 57.6904 72.7217C62.2928 72.2964 64.9679 70.9666 66.584 69.4238C68.2022 67.8789 68.8317 66.0527 69.2129 64.4785C69.2917 64.154 69.6188 63.9546 69.9434 64.0332C70.2679 64.112 70.4673 64.439 70.3887 64.7637C69.9861 66.4261 69.2848 68.5184 67.4199 70.2988C65.5528 72.0814 62.5913 73.4842 57.8018 73.9268C48.8362 74.7553 44.3939 77.5462 42.4307 80.3467C40.4604 83.1575 40.9178 86.0527 41.8682 87.3535C41.9788 87.5053 42.0051 87.6905 41.9619 87.8594C44.8144 91.4376 48.169 94.6032 51.9238 97.2471C51.4803 96.0311 51.327 94.5453 51.6602 92.8447C52.3823 89.1595 55.3654 84.5133 62.458 79.2891C68.519 74.8247 70.4523 71.3215 70.5635 68.124C70.5751 67.7901 70.8555 67.5284 71.1895 67.54C71.5234 67.5517 71.785 67.8321 71.7734 68.166C71.6432 71.9142 69.3492 75.7165 63.1758 80.2637C56.1988 85.4027 53.4868 89.8154 52.8477 93.0771C52.284 95.9537 53.3185 97.9682 54.5283 98.957C57.2747 100.636 60.2045 102.049 63.2842 103.156C63.3922 103.195 63.488 103.263 63.5605 103.352C63.9532 103.833 63.4864 104.514 62.9014 104.305C59.9893 103.259 57.2071 101.948 54.583 100.402C54.5145 100.39 54.4464 100.368 54.3828 100.331C54.1913 100.219 54.0035 100.088 53.8203 99.9434C41.5363 92.4034 32.859 79.6484 30.7686 64.8711C30.6815 64.2558 31.4424 63.9363 31.835 64.418C31.9075 64.507 31.9546 64.6148 31.9707 64.7285C32.3058 67.0869 32.8142 69.3919 33.4805 71.6309C33.9056 70.102 35.011 68.5062 36.9102 67.252C40.1588 65.1065 45.7374 63.9181 54.458 65.4746C58.999 66.2852 61.9768 65.6505 63.9912 64.5254C66.0117 63.3969 67.1466 61.7297 67.9189 60.3105ZM90.5352 59.6162C90.834 59.4668 91.1973 59.5879 91.3467 59.8867C92.0693 61.3318 93.146 63.0374 95.126 64.2354C97.1001 65.4296 100.054 66.167 104.62 65.5146C113.389 64.262 118.976 65.6093 122.203 67.8252C123.984 69.0481 125.054 70.5538 125.502 72.0078C126.184 69.9157 126.729 67.761 127.121 65.5537C127.141 65.4406 127.192 65.3346 127.268 65.248C127.677 64.7805 128.426 65.1265 128.317 65.7383C125.112 83.8382 112.027 98.5258 94.835 104.031C94.243 104.22 93.7998 103.524 94.209 103.056C94.2845 102.969 94.3829 102.905 94.4922 102.87C97.3445 101.955 100.08 100.78 102.673 99.374C102.711 99.3377 102.753 99.3046 102.802 99.2783C104.223 98.5084 105.714 96.4066 105.217 93.1494C104.717 89.8737 102.188 85.374 95.3945 79.9961C89.3828 75.2373 87.2227 71.3579 87.2227 67.6074C87.2227 67.2734 87.4932 67.0031 87.8271 67.0029C88.1612 67.0029 88.4326 67.2733 88.4326 67.6074C88.4326 70.8069 90.2431 74.3756 96.1455 79.0479C103.053 84.5155 105.846 89.2599 106.412 92.9668C106.68 94.7207 106.444 96.229 105.921 97.4424C109.848 94.8941 113.382 91.7899 116.406 88.2383C116.42 88.1339 116.459 88.0312 116.528 87.9424C117.52 86.6798 118.063 83.7739 116.167 80.8613C114.28 77.9625 109.914 74.9897 100.985 73.8506C96.214 73.2419 93.3031 71.7369 91.499 69.8906C89.6972 68.0465 89.0692 65.9312 88.7246 64.2559C88.6573 63.9286 88.868 63.6083 89.1953 63.541C89.5223 63.474 89.8418 63.6848 89.9092 64.0117C90.2354 65.5982 90.8017 67.4447 92.3652 69.0449C93.9267 70.6428 96.5531 72.0655 101.138 72.6504C110.249 73.8127 115.023 76.8858 117.181 80.2012C118.349 81.996 118.731 83.8424 118.622 85.4287C120.91 82.2989 122.83 78.8828 124.315 75.2432C124.251 75.0954 124.244 74.9227 124.312 74.7627C124.909 73.371 124.416 70.8119 121.519 68.8223C118.636 66.8431 113.397 65.4835 104.791 66.7129C100.02 67.3944 96.7682 66.6434 94.499 65.2705C92.236 63.9013 91.0313 61.961 90.2646 60.4277C90.1152 60.1289 90.2363 59.7656 90.5352 59.6162ZM80.2383 77.4697C79.9552 77.5831 79.6574 77.6533 79.3877 77.6533C79.1177 77.6533 78.8195 77.5833 78.5361 77.4697L78.9609 97.8926C79.0109 98.0109 79.0692 98.1016 79.1289 98.1641C79.215 98.254 79.2981 98.287 79.3877 98.2871C79.4774 98.2871 79.5613 98.2541 79.6475 98.1641C79.7069 98.1019 79.7637 98.0111 79.8135 97.8936L80.2383 77.4697ZM83.1182 71.3574C82.1758 72.5361 80.9246 73.2842 79.3877 73.2842C77.852 73.2842 76.6013 72.5375 75.6592 71.3604C76.0197 72.3499 76.541 73.1711 77.1484 73.752C77.7104 74.2893 78.276 75.0554 78.457 76.0049C78.5192 76.0717 78.6075 76.1466 78.7305 76.2207C78.9853 76.3742 79.2505 76.4434 79.3877 76.4434C79.5249 76.4433 79.7902 76.3742 80.0449 76.2207C80.1685 76.1462 80.2562 76.07 80.3184 76.0029C80.4999 75.0544 81.0663 74.2889 81.6279 73.752C82.236 73.1706 82.7576 72.3483 83.1182 71.3574ZM83.6387 66.249C82.6582 67.8483 81.227 68.9189 79.3877 68.9189C77.5489 68.9189 76.1182 67.8486 75.1377 66.25V67.2168C75.1377 67.2572 75.1384 67.2973 75.1406 67.3369C75.1423 67.3656 75.1431 67.3963 75.1445 67.4277C75.8446 70.3093 77.4388 72.0742 79.3877 72.0742C81.3377 72.0742 82.9324 70.3072 83.6318 67.4229C83.6332 67.3931 83.6342 67.3642 83.6357 67.3369C83.638 67.2973 83.6387 67.2572 83.6387 67.2168V66.249ZM80.752 56.918C79.972 56.2332 78.8043 56.2332 78.0244 56.918L75.8408 58.8359C75.394 59.2282 75.1378 59.7941 75.1377 60.3887V63.0332C75.8341 65.9318 77.4323 67.709 79.3877 67.709C81.344 67.709 82.9428 65.9302 83.6387 63.0293V60.3887C83.6386 59.7941 83.3824 59.2282 82.9355 58.8359L80.752 56.918ZM19.6436 42.667C23.347 42.0928 28.3692 42.7888 33.9814 44.0498C38.9579 45.1679 44.4698 46.7482 50.04 48.3457C50.7717 48.5555 51.5047 48.7662 52.2373 48.9756C58.559 50.7826 64.8797 52.537 70.5615 53.6143C71.3242 53.759 71.8123 54.3409 71.8506 54.9971C71.8897 55.6709 71.4463 56.2972 70.6641 56.4658C68.509 56.9299 65.7023 57.3345 62.7314 57.2715C61.6692 57.2489 60.6436 57.2203 59.6523 57.1885C59.6245 57.1931 59.5965 57.1995 59.5674 57.2002C59.335 57.2055 59.1104 57.191 58.8936 57.1621C57.7547 57.1225 56.662 57.0757 55.6113 57.0264C55.5579 57.0433 55.5022 57.0563 55.4434 57.0576C55.1386 57.0646 54.8408 57.0345 54.5508 56.9756C53.1749 56.9056 51.873 56.8285 50.6357 56.748C50.5491 56.7816 50.4542 56.7984 50.3555 56.7881C50.1088 56.7622 49.8671 56.7255 49.6299 56.6816C47.2234 56.517 45.0651 56.3433 43.0801 56.1816C40.7108 55.9887 38.5879 55.8159 36.584 55.7061C30.3258 55.363 25.1024 55.6202 16.8145 57.7695C15.1293 58.2065 13.7975 58.4899 12.7607 58.6387C11.7383 58.7853 10.9468 58.8092 10.3721 58.6855C10.0792 58.6225 9.80392 58.5132 9.58203 58.3271C9.34885 58.1316 9.20776 57.8786 9.1543 57.5967C9.0578 57.0869 9.2595 56.5401 9.4873 56.0771C9.72921 55.5856 10.0791 55.0385 10.4502 54.4795C10.5554 54.3211 10.6624 54.1612 10.7705 54C11.0519 53.5804 11.3405 53.1504 11.6191 52.707C12.4011 51.4628 13.011 50.2543 13.0791 49.2021C13.2047 47.257 13.8741 45.747 15.042 44.6543C16.1976 43.5732 17.7827 42.9556 19.6436 42.667ZM125.113 44.0498C130.726 42.7888 135.749 42.0927 139.452 42.667C141.313 42.9556 142.898 43.5732 144.054 44.6543C145.222 45.747 145.891 47.257 146.017 49.2021C146.085 50.2543 146.695 51.4628 147.477 52.707C147.755 53.1504 148.044 53.5804 148.325 54C148.433 54.1612 148.54 54.3211 148.646 54.4795C149.017 55.0385 149.367 55.5856 149.608 56.0771C149.836 56.5401 150.038 57.0869 149.941 57.5967C149.888 57.8786 149.747 58.1316 149.514 58.3271C149.292 58.5133 149.016 58.6225 148.723 58.6855C148.148 58.8092 147.357 58.7853 146.335 58.6387C145.298 58.4899 143.966 58.2065 142.281 57.7695C133.993 55.6202 128.77 55.363 122.512 55.7061C120.508 55.8159 118.385 55.9887 116.016 56.1816C114.03 56.3433 111.872 56.518 109.465 56.6826C109.228 56.7264 108.987 56.7622 108.74 56.7881C108.641 56.7985 108.546 56.7818 108.459 56.748C107.222 56.8285 105.92 56.9056 104.544 56.9756C104.254 57.0344 103.957 57.0646 103.652 57.0576C103.593 57.0563 103.537 57.0434 103.483 57.0264C102.433 57.0757 101.34 57.1225 100.201 57.1621C99.9846 57.1909 99.7603 57.2055 99.5283 57.2002C99.4989 57.1995 99.4705 57.1932 99.4424 57.1885C98.4514 57.2203 97.4262 57.2489 96.3643 57.2715C93.3934 57.3345 90.5867 56.9299 88.4316 56.4658C87.6493 56.2972 87.206 55.6709 87.2451 54.9971C87.2834 54.3408 87.7714 53.759 88.5342 53.6143C94.216 52.537 100.537 50.7826 106.858 48.9756C107.591 48.7662 108.324 48.5555 109.056 48.3457C114.626 46.7483 120.137 45.1679 125.113 44.0498ZM33.7168 45.2305C28.1119 43.9711 23.2858 43.3271 19.8281 43.8633C18.1088 44.13 16.785 44.6803 15.8682 45.5381C14.9637 46.3843 14.3966 47.5847 14.2871 49.2793C14.1976 50.6662 13.4261 52.1054 12.6436 53.3506C12.3547 53.8103 12.0512 54.2631 11.7666 54.6875C11.6607 54.8455 11.5569 54.9994 11.458 55.1484C11.0854 55.7097 10.7757 56.1979 10.5723 56.6113C10.3549 57.0532 10.3261 57.2822 10.3428 57.3711C10.346 57.3882 10.3476 57.3905 10.3594 57.4004C10.3827 57.4198 10.4546 57.4658 10.627 57.5029C10.9843 57.5799 11.6004 57.5832 12.5889 57.4414C13.563 57.3017 14.8463 57.0293 16.5107 56.5977C24.93 54.4143 30.2792 54.1488 36.6504 54.498C38.7039 54.6106 40.851 54.7852 43.2354 54.9795C44.1311 55.0525 45.0609 55.125 46.0312 55.2012C44.4771 54.1591 43.3021 52.7607 42.5479 51.4307C41.8799 50.2528 41.4988 49.0551 41.5186 48.1357C41.525 47.8367 41.5752 47.5255 41.7041 47.249C38.9395 46.4934 36.2573 45.8013 33.7168 45.2305ZM139.267 43.8633C135.809 43.3272 130.984 43.9712 125.379 45.2305C122.838 45.8013 120.156 46.4933 117.391 47.249C117.52 47.5256 117.571 47.8366 117.577 48.1357C117.597 49.055 117.216 50.2528 116.548 51.4307C115.794 52.7608 114.618 54.1591 113.063 55.2012C114.034 55.125 114.964 55.0525 115.859 54.9795C118.244 54.7851 120.392 54.6106 122.445 54.498C128.817 54.1488 134.166 54.4143 142.585 56.5977C144.249 57.0293 145.533 57.3017 146.507 57.4414C147.495 57.5832 148.111 57.5799 148.469 57.5029C148.641 57.4658 148.713 57.4198 148.736 57.4004C148.748 57.3905 148.75 57.3882 148.753 57.3711C148.77 57.2822 148.74 57.0531 148.522 56.6113C148.319 56.198 148.01 55.7095 147.638 55.1484C147.539 54.9994 147.435 54.8455 147.329 54.6875C147.045 54.2631 146.741 53.8103 146.452 53.3506C145.67 52.1054 144.898 50.6662 144.809 49.2793C144.699 47.5847 144.132 46.3843 143.228 45.5381C142.311 44.6803 140.986 44.13 139.267 43.8633ZM61.2168 52.708C61.1362 52.7384 61.0486 52.7543 60.957 52.7471C60.6834 52.7254 60.516 52.7655 60.4189 52.8115C60.3295 52.854 60.2706 52.9145 60.2275 52.999C60.1269 53.1968 60.1009 53.5673 60.2422 54.0645C60.3779 54.542 60.6407 55.0348 60.9629 55.4072C61.2962 55.7925 61.6203 55.9692 61.8594 55.9883C61.9341 55.9942 62.0043 56.0149 62.0684 56.0449C62.2961 56.0503 62.5256 56.0566 62.7568 56.0615C65.6082 56.122 68.3177 55.7326 70.4092 55.2822C70.5353 55.255 70.588 55.206 70.6094 55.1787C70.6326 55.1488 70.6451 55.1111 70.6426 55.0674C70.6382 54.9926 70.5811 54.8493 70.3359 54.8027C67.4275 54.2513 64.3584 53.5248 61.2168 52.708ZM97.8789 52.707C94.7372 53.5239 91.6683 54.2513 88.7598 54.8027C88.5146 54.8492 88.4575 54.9926 88.4531 55.0674C88.4506 55.1111 88.4631 55.1488 88.4863 55.1787C88.5077 55.2061 88.5604 55.255 88.6865 55.2822C90.778 55.7326 93.4875 56.122 96.3389 56.0615C96.5698 56.0566 96.799 56.0503 97.0264 56.0449C97.0907 56.0145 97.1612 55.9942 97.2363 55.9883C97.4754 55.9694 97.7993 55.7927 98.1328 55.4072C98.4551 55.0347 98.7187 54.5421 98.8545 54.0645C98.9957 53.5673 98.9698 53.1968 98.8691 52.999C98.8261 52.9144 98.7672 52.854 98.6777 52.8115C98.5807 52.7655 98.4135 52.7255 98.1396 52.7471C98.0477 52.7543 97.9598 52.7377 97.8789 52.707ZM57.2441 51.6406C57.207 51.6582 57.1675 51.6736 57.126 51.6836C56.703 51.7858 56.4725 52.0416 56.3682 52.3994C56.2547 52.7885 56.2907 53.323 56.5146 53.8877C56.9064 54.875 57.7906 55.7656 58.9932 55.9541C59.284 55.9641 59.5779 55.976 59.875 55.9854C59.5167 55.5138 59.2362 54.9511 59.0781 54.3945C58.9009 53.7706 58.8479 53.0425 59.1494 52.4502C59.1938 52.363 59.2458 52.2802 59.3047 52.2021C58.62 52.0184 57.933 51.8304 57.2441 51.6406ZM101.851 51.6406C101.162 51.8304 100.475 52.0184 99.79 52.2021C99.8492 52.2804 99.9027 52.3626 99.9473 52.4502C100.249 53.0425 100.196 53.7707 100.019 54.3945C99.8604 54.9511 99.5791 55.5137 99.2207 55.9854C99.5175 55.9761 99.811 55.9641 100.102 55.9541C101.305 55.7659 102.189 54.8752 102.581 53.8877C102.805 53.3231 102.841 52.7885 102.728 52.3994C102.623 52.0414 102.392 51.7857 101.969 51.6836C101.927 51.6735 101.888 51.6584 101.851 51.6406ZM50.373 49.6992C50.3526 49.77 50.3356 49.867 50.332 49.9971C50.3257 50.2276 50.3607 50.519 50.4463 50.8584C50.6174 51.5371 50.9715 52.3393 51.4678 53.1064C52.3285 54.4369 53.5045 55.4951 54.7324 55.7734C55.2655 55.8003 55.8099 55.826 56.3662 55.8506C55.9331 55.3959 55.602 54.8691 55.3896 54.334C55.0952 53.5916 54.9989 52.7742 55.207 52.0605C55.3002 51.7412 55.4532 51.4486 55.667 51.2021C54.4145 50.8517 53.1579 50.497 51.9043 50.1387C51.3933 49.9926 50.883 49.8454 50.373 49.6992ZM107.191 50.1387C105.938 50.4971 104.68 50.8516 103.428 51.2021C103.642 51.4487 103.795 51.741 103.889 52.0605C104.097 52.7742 104.001 53.5916 103.706 54.334C103.494 54.8693 103.162 55.3958 102.729 55.8506C103.284 55.826 103.829 55.8003 104.361 55.7734C105.59 55.4957 106.767 54.4376 107.628 53.1064C108.124 52.3393 108.477 51.537 108.648 50.8584C108.734 50.5189 108.77 50.2276 108.764 49.9971C108.76 49.8669 108.742 49.77 108.722 49.6992C108.212 49.8453 107.702 49.9927 107.191 50.1387ZM43.1152 47.6758C42.8962 47.6313 42.8486 47.6875 42.8438 47.6934H42.8428C42.811 47.7261 42.7342 47.8505 42.7275 48.1621C42.7145 48.7779 42.9883 49.7542 43.6006 50.834C44.73 52.8256 46.8653 54.9155 49.79 55.4805C50.5129 55.5298 51.2582 55.5775 52.0283 55.624C51.4106 55.0735 50.8761 54.4205 50.4512 53.7637C49.8948 52.9036 49.4817 51.9804 49.2734 51.1543C49.1693 50.7414 49.1119 50.3355 49.1221 49.9639C49.1276 49.7645 49.1531 49.561 49.209 49.3662C47.2098 48.793 45.2251 48.2261 43.2754 47.6836C43.2229 47.687 43.1693 47.6867 43.1152 47.6758ZM115.98 47.6758C115.926 47.6868 115.872 47.6871 115.819 47.6836C113.869 48.2262 111.884 48.7929 109.885 49.3662C109.941 49.5611 109.968 49.7643 109.974 49.9639C109.984 50.3355 109.926 50.7414 109.822 51.1543C109.614 51.9805 109.2 52.9035 108.644 53.7637C108.219 54.4207 107.684 55.0734 107.066 55.624C107.836 55.5775 108.581 55.5298 109.304 55.4805C112.229 54.916 114.365 52.8261 115.495 50.834C116.107 49.7542 116.381 48.7779 116.368 48.1621C116.361 47.8503 116.284 47.726 116.252 47.6934L116.238 47.6816C116.213 47.6654 116.145 47.6425 115.98 47.6758ZM16.4746 49.8965C17.5093 49.5337 18.6419 50.0786 19.0049 51.1133C19.6277 52.889 17.5862 53.7847 16.1113 54.2725C16.0118 54.3054 15.9147 54.3369 15.8213 54.3662C15.6911 54.4071 15.5677 54.4449 15.4541 54.4795C15.2646 54.5373 15.1018 54.5866 14.9785 54.6299C14.5004 54.7976 14.6014 54.5613 14.8125 54.1562C14.8258 54.1307 14.8394 54.104 14.8535 54.0771C14.9374 53.9173 15.0325 53.7356 15.1143 53.5449C15.1507 53.4599 15.184 53.3727 15.2129 53.2852C15.3089 52.9936 15.3513 52.6943 15.2578 52.4277C14.8948 51.3929 15.4398 50.2595 16.4746 49.8965ZM140.126 51.1133C140.489 50.0785 141.622 49.5336 142.657 49.8965C143.692 50.2595 144.237 51.3929 143.874 52.4277C143.781 52.6943 143.822 52.9937 143.918 53.2852C143.947 53.3728 143.981 53.4599 144.018 53.5449C144.099 53.7357 144.194 53.9173 144.278 54.0771C144.292 54.104 144.306 54.1307 144.319 54.1562C144.53 54.5613 144.631 54.7976 144.153 54.6299C144.03 54.5866 143.867 54.5374 143.677 54.4795C143.563 54.4449 143.44 54.407 143.311 54.3662C143.217 54.3368 143.119 54.3054 143.02 54.2725C141.545 53.7847 139.503 52.8887 140.126 51.1133ZM21.5547 45.1689C23.4854 44.8241 25.1085 45.4283 26.8174 46.3408C27.421 46.6631 28.0268 47.0182 28.665 47.3916C29.8759 48.1 31.2033 48.8767 32.8486 49.6289C35.1329 50.6732 36.7227 51.0394 37.8486 51.2451C38.113 51.2934 38.3623 51.3858 38.5605 51.5371C38.7569 51.687 38.9493 51.9373 38.9502 52.2725C38.9509 52.6162 38.7498 52.869 38.5361 53.0156C38.326 53.1597 38.0666 53.2347 37.7998 53.2627C35.4909 53.5051 31.7649 53.5107 29.5176 52.8477C28.1675 52.4494 27.2979 52.645 26.5254 52.9932C26.2185 53.1315 25.9357 53.2892 25.6279 53.4609C25.5182 53.5221 25.4055 53.5858 25.2871 53.6504C24.8526 53.8874 24.3701 54.1291 23.8135 54.2891C22.6993 54.6091 21.6862 54.4838 20.9893 54.166C20.6504 54.0115 20.3342 53.7865 20.1455 53.4912C20.0483 53.339 19.97 53.1432 19.9736 52.918C19.9775 52.6814 20.0709 52.4677 20.2256 52.3018C20.3738 52.1429 20.5614 52.0088 20.6895 51.917C20.7084 51.9034 20.7262 51.8905 20.7422 51.8789C20.8975 51.766 20.966 51.7037 21.001 51.6533L21.002 51.6523C21.0154 51.633 21.0264 51.6163 21.0156 51.5508C20.9994 51.4526 20.9298 51.2576 20.6943 50.9297C20.4343 50.5676 20.1013 50.1017 19.8105 49.6025C19.523 49.1088 19.2529 48.5417 19.1426 47.9717C19.0303 47.3913 19.0755 46.7469 19.5068 46.1982C19.9248 45.6667 20.6198 45.3359 21.5547 45.1689ZM132.313 46.3408C134.022 45.4283 135.645 44.8232 137.576 45.168C138.511 45.3349 139.206 45.6658 139.624 46.1973C140.055 46.7459 140.101 47.3904 139.988 47.9707C139.878 48.5408 139.607 49.1077 139.319 49.6016C139.029 50.1007 138.697 50.5666 138.437 50.9287C138.201 51.2566 138.132 51.4516 138.115 51.5498C138.104 51.6155 138.115 51.632 138.129 51.6514L138.13 51.6523C138.165 51.7027 138.233 51.765 138.389 51.8779C138.405 51.8896 138.422 51.9025 138.441 51.916C138.569 52.0078 138.757 52.1419 138.905 52.3008C139.06 52.4667 139.153 52.6805 139.157 52.917C139.161 53.1423 139.083 53.339 138.985 53.4912C138.797 53.7863 138.48 54.0106 138.142 54.165C137.445 54.4829 136.431 54.6083 135.316 54.2881C134.76 54.1281 134.278 53.8864 133.844 53.6494C133.725 53.5849 133.613 53.5221 133.503 53.4609C133.195 53.2892 132.912 53.1315 132.605 52.9932C131.833 52.6449 130.963 52.4482 129.612 52.8467C127.374 53.5068 123.741 53.5042 121.471 53.2646C121.203 53.2364 120.944 53.1614 120.733 53.0156C120.518 52.8666 120.321 52.6121 120.321 52.2705C120.322 51.9382 120.51 51.6878 120.706 51.5352C120.903 51.3813 121.152 51.286 121.417 51.2354C122.499 51.0283 124.031 50.6569 126.282 49.6279C127.928 48.8757 129.255 48.1 130.466 47.3916C131.104 47.0182 131.71 46.6631 132.313 46.3408ZM8.80566 9.91406C10.8788 9.9141 12.9857 10.1959 15.1201 10.7139C15.5205 10.7127 15.939 10.7868 16.3691 10.9404C16.4701 10.9765 16.5534 11.0388 16.6191 11.1143C19.2451 11.8799 21.9098 12.9844 24.6025 14.3438C29.0106 16.5691 33.5184 19.4932 38.0811 22.7783C38.1719 22.8194 38.2599 22.8679 38.3438 22.9238C38.4106 22.9684 38.4652 23.0243 38.5078 23.0869C39.4038 23.7359 40.3024 24.3978 41.2021 25.0713C43.3644 26.6897 45.534 28.3713 47.71 30.0801C47.7317 30.0936 47.7549 30.1058 47.7764 30.1201C47.8198 30.1491 47.8564 30.1845 47.8896 30.2217C49.5567 31.5318 51.2283 32.8566 52.9004 34.1846C60.3889 40.1318 67.9158 46.1092 75.3672 50.7871C76.0216 51.198 76.261 51.9145 76.0615 52.5371C75.8571 53.1742 75.227 53.6026 74.4404 53.4902C71.7746 53.1093 68.1642 52.3239 64.5771 50.7891C63.4105 50.2898 62.2827 49.8007 61.1895 49.3252C61.1692 49.3199 61.148 49.3171 61.1279 49.3096C60.9572 49.2455 60.7944 49.1707 60.6387 49.0879C56.8448 47.4335 53.4808 45.9238 50.4297 44.5547C48.3072 43.6022 46.3355 42.7184 44.4766 41.9004C44.3888 41.9026 44.2993 41.888 44.2139 41.8496C43.8792 41.699 43.5562 41.5363 43.2441 41.3633C31.6086 36.2975 24.2411 33.96 10.7051 33.96C9.74916 33.96 8.85126 33.7665 8.01758 33.4209C8.00452 33.4161 7.99044 33.4139 7.97754 33.4082C7.96763 33.4038 7.95877 33.3965 7.94922 33.3916C6.42459 32.7414 5.1162 31.5793 4.06445 30.1445C2.42456 27.9074 1.35551 24.9513 0.987305 22.0127C0.619859 19.0796 0.942349 16.0872 2.17383 13.8008C3.4256 11.4768 5.60623 9.91406 8.80566 9.91406ZM150.291 9.91406C153.49 9.9141 155.671 11.4768 156.923 13.8008C158.154 16.0872 158.476 19.0797 158.108 22.0127C157.74 24.9514 156.671 27.9074 155.031 30.1445C153.98 31.5785 152.673 32.7402 151.149 33.3906C151.139 33.3959 151.13 33.4034 151.119 33.4082C151.105 33.4146 151.089 33.4167 151.074 33.4219C150.242 33.7664 149.346 33.9599 148.392 33.96C134.854 33.96 127.487 36.2977 115.85 41.3643C115.538 41.5367 115.217 41.6994 114.883 41.8496C114.797 41.8883 114.706 41.9028 114.618 41.9004C112.76 42.7182 110.789 43.6025 108.667 44.5547C105.616 45.9239 102.251 47.4333 98.457 49.0879C98.3015 49.1705 98.1392 49.2456 97.9688 49.3096C97.948 49.3173 97.9262 49.3208 97.9053 49.3262C96.8125 49.8015 95.6847 50.2901 94.5186 50.7891C90.9315 52.3239 87.3211 53.1093 84.6553 53.4902C83.8687 53.6025 83.2385 53.1742 83.0342 52.5371C82.8347 51.9146 83.0743 51.198 83.7285 50.7871C91.1799 46.1092 98.7068 40.1318 106.195 34.1846C107.867 32.8568 109.538 31.5317 111.205 30.2217C111.239 30.1841 111.276 30.1493 111.32 30.1201C111.341 30.106 111.363 30.0934 111.385 30.0801C113.561 28.3711 115.731 26.6899 117.894 25.0713C118.793 24.3977 119.692 23.735 120.588 23.0859C120.63 23.0236 120.685 22.9683 120.752 22.9238C120.835 22.8683 120.923 22.8192 121.013 22.7783C125.576 19.4927 130.085 16.5693 134.493 14.3438C137.186 12.9846 139.85 11.8799 142.476 11.1143C142.541 11.0386 142.625 10.9766 142.727 10.9404C143.157 10.7868 143.575 10.7127 143.976 10.7139C146.11 10.1958 148.218 9.91406 150.291 9.91406ZM26.2471 47.4082C24.614 46.5362 23.2924 46.088 21.7676 46.3604C20.9748 46.5019 20.6163 46.745 20.458 46.9463C20.3132 47.1306 20.2597 47.3785 20.3301 47.7422C20.4025 48.116 20.5955 48.5452 20.8564 48.9932C21.1144 49.4361 21.4157 49.8588 21.6777 50.2236C21.9641 50.6224 22.1505 50.9939 22.21 51.3525C22.2744 51.7421 22.1813 52.0742 21.9951 52.3428C21.8301 52.5808 21.6038 52.7485 21.4541 52.8574C21.4309 52.8743 21.4091 52.8905 21.3887 52.9053C21.3589 52.9269 21.3313 52.9458 21.3066 52.9639C21.3539 52.9952 21.4149 53.0297 21.4912 53.0645C21.9113 53.256 22.6268 53.3709 23.4795 53.126C23.9064 53.0033 24.2957 52.8127 24.708 52.5879C24.8034 52.5359 24.9016 52.4804 25.0029 52.4238C25.3226 52.2454 25.6699 52.0522 26.0283 51.8906C27.0322 51.4381 28.1998 51.1966 29.8604 51.6865C31.5152 52.1748 34.191 52.2726 36.3457 52.1611C35.2964 51.9002 33.9866 51.4797 32.3457 50.7295C30.6538 49.956 29.2124 49.1147 27.9678 48.3877C27.3478 48.0256 26.7768 47.6911 26.2471 47.4082ZM137.363 46.3594C135.838 46.0871 134.517 46.5362 132.884 47.4082C132.354 47.6911 131.782 48.0246 131.162 48.3867C129.918 49.1136 128.477 49.9551 126.785 50.7285C125.148 51.4771 123.861 51.897 122.839 52.1582C124.959 52.2725 127.607 52.1775 129.271 51.6865C130.931 51.1966 132.099 51.4372 133.103 51.8896C133.461 52.0512 133.808 52.2454 134.128 52.4238C134.229 52.4803 134.328 52.535 134.423 52.5869C134.835 52.8118 135.224 53.0023 135.651 53.125C136.504 53.37 137.22 53.256 137.64 53.0645C137.716 53.0296 137.777 52.9952 137.824 52.9639C137.8 52.9458 137.772 52.9259 137.742 52.9043C137.722 52.8895 137.7 52.8733 137.677 52.8564C137.527 52.7475 137.301 52.5798 137.136 52.3418C136.95 52.0733 136.857 51.7419 136.921 51.3525C136.98 50.9938 137.167 50.6216 137.453 50.2227C137.715 49.8579 138.016 49.436 138.274 48.9932C138.535 48.5449 138.728 48.1152 138.801 47.7412C138.871 47.3775 138.818 47.1296 138.673 46.9453C138.515 46.7441 138.156 46.5009 137.363 46.3594ZM17.8633 51.5137C17.7215 51.1095 17.2792 50.8965 16.875 51.0381C16.4707 51.1799 16.2576 51.6231 16.3994 52.0273C16.4978 52.3077 16.5272 52.5823 16.5186 52.835C16.7157 52.7521 16.9125 52.6601 17.1035 52.5547C17.5142 52.3279 17.7426 52.1172 17.8438 51.9561C17.9058 51.8572 17.9467 51.7516 17.8633 51.5137ZM142.257 51.0381C141.853 50.8963 141.41 51.1095 141.269 51.5137C141.185 51.7517 141.226 51.8571 141.288 51.9561C141.389 52.1172 141.618 52.3279 142.028 52.5547C142.219 52.66 142.415 52.7521 142.612 52.835C142.604 52.5823 142.634 52.3077 142.732 52.0273C142.874 51.6231 142.661 51.1799 142.257 51.0381ZM63.8838 44.6416C63.7496 44.6522 63.6393 44.7036 63.5381 44.7988C63.3095 45.014 63.1164 45.4717 63.0596 46.125C63.0047 46.7566 63.0888 47.4626 63.293 48.0547C63.5038 48.6659 63.8027 49.0473 64.0928 49.1924C64.1697 49.2308 64.2344 49.2837 64.2861 49.3457C64.5401 49.4548 64.7951 49.5665 65.0527 49.6768C68.5147 51.1581 72.0158 51.9221 74.6113 52.293C74.7371 52.3109 74.8048 52.2838 74.8359 52.2646C74.8701 52.2437 74.8953 52.2103 74.9092 52.167C74.9329 52.0925 74.9295 51.9408 74.7236 51.8115C71.3885 49.7178 68.0297 47.3582 64.666 44.8584C64.6249 44.8479 64.5844 44.8332 64.5449 44.8135C64.2424 44.6622 64.0269 44.6303 63.8838 44.6416ZM95.2119 44.6416C95.0688 44.6303 94.8534 44.6622 94.5508 44.8135C94.511 44.8333 94.4701 44.8479 94.4287 44.8584C91.0653 47.358 87.7069 49.7179 84.3721 51.8115C84.1664 51.9407 84.1628 52.0925 84.1865 52.167C84.2004 52.2103 84.2266 52.2437 84.2607 52.2646C84.292 52.2838 84.3591 52.3109 84.4844 52.293C87.0799 51.9221 90.5809 51.1582 94.043 49.6768C94.3003 49.5666 94.5549 49.4547 94.8086 49.3457C94.8604 49.2835 94.9258 49.2309 95.0029 49.1924C95.293 49.0473 95.5919 48.666 95.8027 48.0547C96.0069 47.4626 96.091 46.7566 96.0361 46.125C95.9793 45.4714 95.7854 45.0138 95.5566 44.7988C95.4554 44.7038 95.346 44.6522 95.2119 44.6416ZM79.3877 39.3096C81.3069 39.3096 82.8633 40.865 82.8633 42.7842C82.8633 44.7034 81.3069 50.2305 79.3877 50.2305C77.4687 50.2296 75.9131 44.7032 75.9131 42.7842C75.9131 40.8652 77.4687 39.3098 79.3877 39.3096ZM79.3877 40.5195C78.137 40.5198 77.123 41.5334 77.123 42.7842C77.1231 43.5427 77.4624 45.2501 78.0596 46.79C78.3544 47.5502 78.6805 48.1842 79 48.6055C79.196 48.8639 79.327 48.9645 79.3877 49.002C79.4483 48.9646 79.5802 48.8642 79.7764 48.6055C80.0958 48.1842 80.422 47.5502 80.7168 46.79C81.314 45.2501 81.6533 43.5427 81.6533 42.7842C81.6533 41.5333 80.6386 40.5195 79.3877 40.5195ZM59.9092 41.5869C59.8087 41.5974 59.6964 41.6487 59.5732 41.7979C59.3005 42.1283 59.0908 42.8135 59.0908 43.7168C59.0908 44.5956 59.2912 45.5707 59.709 46.3994C60.0586 47.0928 60.5474 47.6574 61.1768 48.002C61.4941 48.1404 61.8153 48.2776 62.1387 48.418C61.8853 47.6677 61.7863 46.8042 61.8545 46.0195C61.9218 45.246 62.1631 44.4311 62.71 43.917C62.8169 43.8165 62.9338 43.7276 63.0615 43.6553C62.2908 43.0731 61.5197 42.4849 60.749 41.8916C60.6657 41.8783 60.5836 41.8496 60.5088 41.7998C60.2134 41.6029 60.0185 41.5756 59.9092 41.5869ZM99.1875 41.5869C99.0781 41.5756 98.8833 41.6029 98.5879 41.7998C98.5128 41.8498 98.4303 41.8784 98.3467 41.8916C97.5756 42.4852 96.8043 43.0738 96.0332 43.6562C96.161 43.7286 96.2787 43.8164 96.3857 43.917C96.9326 44.4311 97.1739 45.246 97.2412 46.0195C97.3095 46.8044 97.2086 47.6676 96.9551 48.418C97.2803 48.2768 97.6037 48.1392 97.9229 48C98.5507 47.6552 99.0387 47.0917 99.3877 46.3994C99.8055 45.5707 100.006 44.5956 100.006 43.7168C100.006 42.8135 99.7962 42.1283 99.5234 41.7979C99.4003 41.6487 99.2879 41.5974 99.1875 41.5869ZM54.1846 37.0137C54.1679 37.0205 54.0608 37.0827 53.9521 37.3867C53.738 37.9861 53.6917 39.0553 53.873 40.3164C54.0515 41.5571 54.4373 42.8932 55.0059 43.9951C55.5826 45.1129 56.2979 45.8982 57.085 46.1934C57.1281 46.2096 57.1681 46.2306 57.2051 46.2549C57.6606 46.4568 58.1232 46.6595 58.5918 46.8662C58.1055 45.8675 57.8809 44.7352 57.8809 43.7168C57.8809 42.6965 58.1057 41.6742 58.6396 41.0273C58.772 40.867 58.9283 40.7262 59.1064 40.6162C57.6751 39.5024 56.243 38.3781 54.8154 37.248C54.7241 37.2372 54.6335 37.2088 54.5518 37.1543C54.4117 37.0609 54.3141 37.0262 54.2568 37.0146C54.2325 37.0098 54.2153 37.009 54.2041 37.0098L54.1846 37.0137ZM104.84 37.0146C104.783 37.0262 104.685 37.0609 104.545 37.1543C104.463 37.2092 104.371 37.2384 104.279 37.249C102.852 38.3788 101.42 39.5027 99.9893 40.6162C100.168 40.7263 100.324 40.8668 100.457 41.0273C100.991 41.6742 101.216 42.6965 101.216 43.7168C101.216 44.7354 100.99 45.8674 100.504 46.8662C100.973 46.6594 101.436 46.456 101.892 46.2539C101.928 46.2297 101.969 46.2095 102.012 46.1934C102.799 45.8982 103.514 45.1129 104.091 43.9951C104.659 42.8932 105.045 41.5571 105.224 40.3164C105.405 39.0553 105.359 37.9861 105.145 37.3867C105.036 37.0827 104.929 37.0205 104.912 37.0137L104.893 37.0098C104.881 37.009 104.864 37.0098 104.84 37.0146ZM46.7988 31.0205C46.747 31.0508 46.6089 31.1891 46.4951 31.5996C46.2756 32.3915 46.2737 33.7418 46.6055 35.3408C47.2677 38.5319 49.1835 42.3694 52.6895 44.2393H52.6904C53.1568 44.4484 53.6295 44.6619 54.1104 44.877C54.049 44.7688 53.9877 44.6604 53.9307 44.5498C53.2892 43.3066 52.8687 41.8365 52.6748 40.4883C52.4838 39.1603 52.4992 37.8566 52.8125 36.9795C52.9255 36.6632 53.1018 36.3379 53.376 36.1074C52.9402 35.7616 52.5045 35.4159 52.0693 35.0703C50.3768 33.7264 48.6876 32.388 47.0078 31.0684C46.9314 31.0281 46.8798 31.0152 46.8516 31.0117C46.8225 31.0082 46.8114 31.0132 46.7988 31.0205ZM112.245 31.0117C112.217 31.0151 112.164 31.028 112.086 31.0693C110.407 32.3885 108.719 33.7269 107.027 35.0703C106.592 35.4161 106.155 35.7604 105.719 36.1064C105.994 36.337 106.171 36.6626 106.284 36.9795C106.598 37.8566 106.613 39.1603 106.422 40.4883C106.228 41.8365 105.807 43.3066 105.166 44.5498C105.109 44.6603 105.047 44.7679 104.985 44.876C105.468 44.6599 105.944 44.4455 106.412 44.2354C109.914 42.3644 111.828 38.5302 112.49 35.3408C112.822 33.7417 112.82 32.3915 112.601 31.5996C112.487 31.1899 112.35 31.0511 112.298 31.0205C112.285 31.0131 112.274 31.0083 112.245 31.0117ZM37.498 23.8555C37.4934 23.8555 37.4685 23.8562 37.417 23.9004C37.2824 24.0158 37.0961 24.3207 36.9502 24.9004C36.6673 26.0251 36.6276 27.8112 36.9902 29.8359C37.6661 33.6096 39.6929 37.9754 43.7715 40.2705C45.3125 40.9415 46.9262 41.6563 48.6338 42.4209C46.8995 40.3272 45.8761 37.7805 45.4209 35.5869C45.0702 33.8971 45.0368 32.3307 45.3291 31.2764C45.4385 30.8817 45.6155 30.4855 45.9014 30.2002C44.0825 28.7788 42.2739 27.3846 40.4775 26.04C39.4845 25.2967 38.4944 24.5684 37.5088 23.8574L37.498 23.8555ZM121.586 23.8574C120.601 24.5682 119.611 25.297 118.618 26.04C116.822 27.3846 115.012 28.7778 113.193 30.1992C113.48 30.4846 113.657 30.8812 113.767 31.2764C114.059 32.3307 114.026 33.8971 113.676 35.5869C113.221 37.7805 112.196 40.3272 110.462 42.4209C112.17 41.6561 113.784 40.9406 115.325 40.2695C119.403 37.9743 121.43 33.6093 122.105 29.8359C122.468 27.8112 122.428 26.0251 122.146 24.9004C122 24.3207 121.813 24.0158 121.679 23.9004C121.628 23.8573 121.604 23.8556 121.599 23.8555C121.597 23.8554 121.592 23.8567 121.586 23.8574ZM27.1436 37.3252C27.5645 37.3254 27.8561 37.7473 27.7139 38.1436C27.5079 38.7174 27.3102 39.2954 27.123 39.8779C27.0418 40.1309 26.8077 40.3037 26.542 40.3037C26.1341 40.3037 25.8421 39.9099 25.9668 39.5215C26.161 38.9167 26.3652 38.3163 26.5791 37.7207C26.6645 37.483 26.891 37.3252 27.1436 37.3252ZM131.634 37.3252C131.886 37.3254 132.112 37.4831 132.197 37.7207C132.411 38.3164 132.615 38.9167 132.81 39.5215C132.934 39.9099 132.642 40.3037 132.234 40.3037C131.969 40.3036 131.735 40.1308 131.653 39.8779C131.466 39.2955 131.269 38.7173 131.063 38.1436C130.921 37.7472 131.213 37.3252 131.634 37.3252ZM109.132 21.9023C109.424 21.7397 109.791 21.844 109.954 22.1357C110.117 22.4276 110.013 22.7962 109.721 22.959C100.947 27.8524 93.6108 36.1425 91.0518 39.6641C90.8553 39.9344 90.4764 39.9943 90.2061 39.7979C89.9361 39.6014 89.8761 39.2233 90.0723 38.9531C92.6919 35.348 100.152 26.9108 109.132 21.9023ZM48.5771 21.1426C48.7399 20.851 49.1087 20.7467 49.4004 20.9092C58.3806 25.9176 65.8403 34.3558 68.46 37.9609C68.6559 38.2311 68.5961 38.6093 68.3262 38.8057C68.0559 39.0021 67.6769 38.9422 67.4805 38.6719C64.9216 35.1504 57.5857 26.8594 48.8115 21.9658C48.5197 21.8031 48.4144 21.4344 48.5771 21.1426ZM27.9023 17.5498C27.2197 17.3397 26.6875 17.3996 26.2715 17.6113C25.8458 17.8281 25.4676 18.2418 25.1777 18.8691C24.5914 20.1384 24.4372 22.1371 24.8887 24.4248C25.7876 28.9792 29.0249 34.3665 35.2471 36.7598C35.3224 36.7888 35.3889 36.8317 35.4443 36.8838C36.8495 37.3964 38.2825 37.9592 39.7705 38.5703C37.5186 36.04 36.3005 32.8444 35.7998 30.0488C35.4178 27.916 35.4398 25.9474 35.7773 24.6055C35.922 24.0305 36.1434 23.4918 36.4834 23.123C33.6095 21.0813 30.7704 19.2012 27.9746 17.5645C27.9507 17.5602 27.9262 17.5571 27.9023 17.5498ZM132.825 17.6113C132.409 17.3996 131.877 17.3397 131.194 17.5498C131.17 17.5572 131.145 17.5601 131.121 17.5645C128.325 19.2013 125.485 21.0811 122.611 23.123C122.952 23.4918 123.175 24.0301 123.319 24.6055C123.657 25.9474 123.679 27.9161 123.297 30.0488C122.796 32.8446 121.576 36.0399 119.324 38.5703C120.813 37.959 122.246 37.3965 123.651 36.8838C123.707 36.8315 123.774 36.7888 123.85 36.7598C130.072 34.3665 133.309 28.9792 134.208 24.4248C134.66 22.1371 134.505 20.1384 133.919 18.8691C133.629 18.2418 133.251 17.8281 132.825 17.6113ZM57.5742 18.0762C57.7861 17.818 58.1675 17.7804 58.4258 17.9922C65.552 23.8353 70.8003 32.489 72.5439 36.0996C72.6892 36.4005 72.5636 36.7629 72.2627 36.9082C71.9618 37.0535 71.5994 36.9269 71.4541 36.626C69.7551 33.1079 64.6016 24.6209 57.6582 18.9277C57.4 18.7158 57.3624 18.3345 57.5742 18.0762ZM100.106 17.9922C100.365 17.7804 100.746 17.8179 100.958 18.0762C101.17 18.3345 101.132 18.7158 100.874 18.9277C93.9305 24.621 88.776 33.1081 87.0771 36.626C86.9318 36.9268 86.5704 37.0534 86.2695 36.9082C85.9686 36.7629 85.843 36.4005 85.9883 36.0996C87.732 32.489 92.9802 23.8353 100.106 17.9922ZM14.9893 11.9287C14.6995 11.9505 14.4415 12.0388 14.21 12.1768C13.7236 12.4667 13.281 13.0206 12.9385 13.8447C12.2522 15.4962 12.0581 18.0233 12.542 20.7754C12.8281 22.4026 13.3463 24.0774 14.1162 25.667C14.2078 25.761 14.261 25.8772 14.2793 25.998C16.1405 29.643 19.3623 32.78 24.2266 33.7529C24.305 33.7686 24.3765 33.7995 24.4395 33.8408C26.3496 34.1852 28.1872 34.6113 30.0137 35.123C26.4129 32.2045 24.399 28.195 23.7012 24.6592C23.2219 22.2309 23.3469 19.9475 24.0791 18.3623C24.4485 17.5627 24.99 16.9059 25.7217 16.5332C25.7999 16.4934 25.88 16.4573 25.9609 16.4248C25.324 16.077 24.6896 15.7429 24.0576 15.4238C20.9577 13.8589 17.9312 12.6585 14.9893 11.9287ZM143.799 12.0059C140.954 12.7418 138.03 13.9134 135.038 15.4238C134.406 15.7429 133.772 16.077 133.135 16.4248C133.216 16.4574 133.296 16.4932 133.375 16.5332C134.107 16.9059 134.648 17.5627 135.018 18.3623C135.75 19.9475 135.875 22.2309 135.396 24.6592C134.698 28.1952 132.683 32.2044 129.082 35.123C130.908 34.6113 132.746 34.1852 134.655 33.8408C134.718 33.7993 134.79 33.7687 134.869 33.7529C139.733 32.78 142.954 29.6428 144.815 25.998C144.834 25.8774 144.887 25.7609 144.979 25.667C145.749 24.0773 146.268 22.4027 146.554 20.7754C147.038 18.0233 146.843 15.4962 146.157 13.8447C145.815 13.0207 145.372 12.4667 144.886 12.1768C144.654 12.0386 144.396 11.9504 144.105 11.9287L143.799 12.0059ZM15.2412 29.8076C14.7077 29.2744 13.6098 29.0104 12.3311 29.4551C11.2044 29.847 9.98014 30.7888 9.06543 32.5098C9.59171 32.6664 10.1391 32.75 10.7051 32.75C13.8217 32.75 16.6212 32.8743 19.2236 33.125C17.7591 32.2558 16.5112 31.1705 15.4658 29.9482C15.3841 29.9191 15.3066 29.873 15.2412 29.8076ZM146.766 29.4551C145.487 29.0102 144.388 29.2743 143.854 29.8076C143.789 29.8734 143.711 29.9191 143.629 29.9482C142.583 31.1705 141.336 32.2559 139.871 33.125C142.474 32.8742 145.274 32.75 148.392 32.75C148.957 32.75 149.504 32.6663 150.03 32.5098C149.116 30.7891 147.892 29.847 146.766 29.4551ZM11.916 25.9443C11.2911 25.8479 10.5365 25.8803 9.74023 26.0869C8.1539 26.4987 6.43257 27.5946 5.27637 29.6758C5.26996 29.6873 5.26094 29.6971 5.25391 29.708C6.04287 30.7187 6.94434 31.5225 7.94043 32.0488C8.98621 30.0242 10.4602 28.825 11.9336 28.3125C12.6534 28.0622 13.385 27.9759 14.0586 28.0459C13.7202 27.5144 13.4137 26.9676 13.1357 26.4121C12.8707 26.2047 12.4604 26.0284 11.916 25.9443ZM149.356 26.0869C148.56 25.8802 147.806 25.848 147.181 25.9443C146.636 26.0285 146.224 26.2044 145.959 26.4121C145.681 26.9677 145.375 27.5144 145.036 28.0459C145.71 27.9756 146.443 28.0619 147.163 28.3125C148.636 28.825 150.109 30.0247 151.154 32.0488C152.151 31.5226 153.053 30.719 153.842 29.708C153.835 29.6971 153.826 29.6873 153.819 29.6758C152.663 27.5948 150.943 26.4987 149.356 26.0869ZM7.64062 22.2891C5.85019 22.401 4.011 23.1589 2.88574 25.0537C3.29012 26.3359 3.8328 27.5512 4.49609 28.6211C5.81427 26.5311 7.67419 25.3733 9.43555 24.916C10.3766 24.6717 11.2983 24.6252 12.1006 24.749C12.2094 24.7658 12.317 24.7861 12.4229 24.8096C12.2505 24.3691 12.0972 23.9256 11.959 23.4824C11.8894 23.4529 11.8234 23.4112 11.7666 23.3545C11.4953 23.0833 10.9529 22.7798 10.1963 22.5615C9.45412 22.3474 8.56182 22.2315 7.64062 22.2891ZM151.456 22.2891C150.535 22.2315 149.643 22.3474 148.9 22.5615C148.144 22.7798 147.601 23.0833 147.33 23.3545C147.273 23.4118 147.206 23.4539 147.136 23.4834C146.998 23.9262 146.844 24.3694 146.672 24.8096C146.778 24.786 146.887 24.7659 146.996 24.749C147.798 24.6253 148.719 24.6718 149.66 24.916C151.421 25.3732 153.281 26.5306 154.6 28.6201C155.263 27.5502 155.805 26.3349 156.209 25.0527C155.084 23.1591 153.246 22.4009 151.456 22.2891ZM7.03027 18.1924C5.14038 17.9562 3.31323 18.3322 2.26074 19.8057C2.20589 19.8823 2.13519 19.9401 2.05762 19.9824C2.06621 20.6006 2.10831 21.2302 2.1875 21.8623C2.25758 22.4216 2.356 22.98 2.47852 23.5322C3.85874 21.8725 5.77953 21.1937 7.56445 21.082C8.62872 21.0155 9.66018 21.1482 10.5312 21.3994C10.8746 21.4985 11.2028 21.6188 11.5029 21.7578C11.4467 21.499 11.3947 21.2415 11.3496 20.9854C11.2796 20.5871 11.2239 20.1908 11.1797 19.7988C10.8661 19.5201 10.3308 19.1897 9.63086 18.8936C8.87088 18.572 7.96296 18.309 7.03027 18.1924ZM156.835 19.8057C155.782 18.3322 153.955 17.9562 152.065 18.1924C151.133 18.309 150.225 18.5721 149.465 18.8936C148.765 19.1898 148.229 19.52 147.915 19.7988C147.871 20.1908 147.816 20.5871 147.746 20.9854C147.701 21.242 147.647 21.4995 147.591 21.7588C147.892 21.6192 148.221 21.4988 148.565 21.3994C149.436 21.1482 150.468 21.0155 151.532 21.082C153.317 21.1937 155.237 21.8723 156.617 23.5312C156.74 22.9793 156.838 22.4213 156.908 21.8623C156.987 21.2302 157.029 20.6006 157.038 19.9824C156.96 19.9401 156.89 19.8823 156.835 19.8057ZM79.3887 0.589844C95.071 0.589939 109.25 7.02555 119.43 17.3994C119.538 17.51 119.599 17.6595 119.599 17.8145C119.598 18.3548 118.931 18.6191 118.553 18.2334C108.594 8.0912 94.7259 1.7999 79.3887 1.7998C63.5405 1.7998 49.2612 8.51739 39.2422 19.2598C38.8686 19.6603 38.1846 19.3992 38.1846 18.8516C38.1846 18.7023 38.2411 18.5585 38.3428 18.4492C48.5833 7.46156 63.1839 0.589844 79.3887 0.589844ZM7.14746 14.1621C5.29108 14.1023 3.58385 14.5944 2.76855 15.8174C2.71605 15.8961 2.64679 15.9561 2.57031 16.001C2.36367 16.6815 2.22202 17.4103 2.13965 18.1699C3.5619 16.9876 5.47581 16.7781 7.18066 16.9912C8.23351 17.1228 9.24925 17.4183 10.1025 17.7793C10.4479 17.9254 10.7741 18.0866 11.0703 18.2559C11.043 17.2446 11.1052 16.2809 11.2559 15.4014C10.9787 15.1315 10.4389 14.8319 9.68945 14.5918C8.94467 14.3532 8.05376 14.1913 7.14746 14.1621ZM151.947 14.1621C151.041 14.1914 150.15 14.3532 149.405 14.5918C148.656 14.832 148.116 15.1314 147.839 15.4014C147.99 16.2809 148.052 17.2445 148.024 18.2559C148.321 18.0865 148.648 17.9255 148.993 17.7793C149.846 17.4183 150.862 17.1228 151.915 16.9912C153.62 16.7781 155.534 16.9882 156.956 18.1709C156.874 17.4108 156.731 16.6819 156.524 16.001C156.448 15.9562 156.38 15.8958 156.327 15.8174C155.512 14.5943 153.804 14.1022 151.947 14.1621ZM107.324 16.3213C107.658 16.3214 107.929 16.5917 107.929 16.9258C107.929 17.2599 107.658 17.5312 107.324 17.5312C106.99 17.5312 106.719 17.2599 106.719 16.9258C106.719 16.5917 106.99 16.3213 107.324 16.3213ZM103.694 13.9014C104.028 13.9014 104.299 14.1727 104.299 14.5068C104.299 14.8409 104.028 15.1113 103.694 15.1113C103.36 15.1113 103.089 14.8409 103.089 14.5068C103.089 14.1727 103.36 13.9014 103.694 13.9014ZM8.80566 11.124C6.50202 11.124 4.87102 12.0483 3.78418 13.5156C4.8398 13.0622 6.05716 12.9167 7.18652 12.9531C8.2036 12.9859 9.20565 13.1662 10.0586 13.4395C10.6138 13.6173 11.1335 13.8453 11.5586 14.1152C11.6371 13.8589 11.7244 13.6129 11.8213 13.3799C12.1295 12.6384 12.5432 11.9913 13.0732 11.5186C11.6287 11.2606 10.2058 11.1241 8.80566 11.124ZM150.291 11.124C148.89 11.124 147.467 11.2604 146.021 11.5186C146.552 11.9913 146.966 12.6382 147.274 13.3799C147.371 13.6128 147.458 13.8589 147.536 14.1152C147.961 13.8452 148.481 13.6174 149.036 13.4395C149.889 13.1662 150.892 12.9859 151.909 12.9531C153.038 12.9168 154.255 13.0625 155.311 13.5156C154.224 12.0487 152.594 11.1241 150.291 11.124ZM60.1338 11.4785C60.4678 11.4785 60.7391 11.749 60.7393 12.083C60.7393 12.4171 60.4679 12.6885 60.1338 12.6885C59.7998 12.6883 59.5293 12.417 59.5293 12.083C59.5295 11.7492 59.7999 11.4787 60.1338 11.4785ZM62.5557 10.3115C72.9675 6.71049 84.3894 6.67666 94.876 10.3115C95.5554 10.5472 95.3783 11.4783 94.6592 11.4785C94.5853 11.4785 94.5112 11.4665 94.4414 11.4424C84.2348 7.91403 73.1232 7.94661 62.9893 11.4424C62.9196 11.4664 62.8462 11.4785 62.7725 11.4785C62.053 11.4785 61.8759 10.5469 62.5557 10.3115Z" fill="white"/>
<path d="M42.5993 182.562C42.5993 183.385 42.7365 184.146 43.0109 184.845C43.2852 185.518 43.6594 186.117 44.1333 186.64C44.6072 187.139 45.1684 187.538 45.817 187.838C46.4904 188.112 47.2263 188.249 48.0244 188.249C48.8725 188.249 49.6333 188.1 50.3067 187.8C50.9802 187.501 51.5539 187.102 52.0278 186.603C52.5267 186.079 52.9008 185.481 53.1502 184.807C53.4246 184.109 53.5618 183.36 53.5618 182.562V169.841C53.5618 168.968 53.3872 168.145 53.038 167.372C52.6888 166.599 52.2149 165.85 51.6162 165.127C51.0425 164.404 50.3815 163.705 49.6333 163.032C48.885 162.358 48.1242 161.697 47.351 161.049C46.4281 160.276 45.5052 159.49 44.5823 158.692C43.6843 157.894 42.8737 157.046 42.1503 156.148C41.4519 155.25 40.8782 154.289 40.4293 153.267C40.0052 152.244 39.7932 151.109 39.7932 149.862V145.297C39.7932 144.1 40.0052 143.003 40.4293 142.005C40.8782 140.982 41.4769 140.122 42.2252 139.423C42.9735 138.7 43.8465 138.139 44.8442 137.74C45.8669 137.341 46.9394 137.141 48.0618 137.141C49.2591 137.141 50.3566 137.353 51.3543 137.777C52.377 138.201 53.2625 138.787 54.0108 139.536C54.7591 140.259 55.3327 141.119 55.7318 142.117C56.1559 143.09 56.3679 144.15 56.3679 145.297V152.967H53.5618V145.335C53.5618 144.512 53.4246 143.763 53.1502 143.09C52.8759 142.391 52.5017 141.793 52.0278 141.294C51.5539 140.77 50.9802 140.371 50.3067 140.097C49.6333 139.797 48.9099 139.648 48.1367 139.648C47.2886 139.648 46.5154 139.797 45.817 140.097C45.1435 140.396 44.5698 140.808 44.0959 141.331C43.622 141.83 43.2478 142.429 42.9735 143.127C42.724 143.801 42.5993 144.537 42.5993 145.335V149.862C42.5993 150.785 42.7864 151.658 43.1605 152.481C43.5347 153.279 44.0211 154.052 44.6197 154.801C45.2433 155.524 45.9417 156.222 46.7149 156.896C47.4882 157.569 48.2739 158.243 49.072 158.916C49.97 159.665 50.8555 160.438 51.7285 161.236C52.6015 162.034 53.3747 162.882 54.0482 163.78C54.7466 164.678 55.3078 165.626 55.7318 166.624C56.1559 167.621 56.3679 168.694 56.3679 169.841V182.6C56.3679 183.797 56.1434 184.894 55.6944 185.892C55.2704 186.89 54.6842 187.75 53.9359 188.474C53.1876 189.197 52.3022 189.758 51.2795 190.157C50.2818 190.557 49.2092 190.756 48.0618 190.756C46.8646 190.756 45.7546 190.544 44.7319 190.12C43.7342 189.696 42.8612 189.122 42.1129 188.399C41.3896 187.676 40.8159 186.815 40.3918 185.817C39.9928 184.82 39.7932 183.747 39.7932 182.6V174.518H42.5993V182.562ZM78.218 180.205C78.218 181.577 78.0933 182.899 77.8439 184.171C77.5944 185.443 77.1455 186.566 76.4969 187.538C75.8734 188.511 75.0128 189.297 73.9153 189.896C72.8428 190.469 71.4834 190.756 69.8371 190.756C68.2907 190.756 66.9936 190.482 65.946 189.933C64.8984 189.359 64.0504 188.599 63.4018 187.651C62.7783 186.703 62.3293 185.593 62.0549 184.321C61.7805 183.024 61.6433 181.652 61.6433 180.205V137.889H64.4494V181.44C64.4494 182.338 64.5367 183.198 64.7113 184.021C64.9109 184.82 65.2227 185.543 65.6467 186.192C66.0957 186.815 66.6694 187.314 67.3678 187.688C68.0662 188.062 68.9392 188.249 69.9868 188.249C70.9845 188.249 71.8201 188.075 72.4936 187.726C73.192 187.351 73.7532 186.853 74.1772 186.229C74.6013 185.605 74.9131 184.882 75.1126 184.059C75.3122 183.236 75.4119 182.363 75.4119 181.44V137.889H78.218V180.205ZM100.854 153.828C100.854 155.973 100.48 157.707 99.7314 159.029C99.0081 160.326 98.1475 161.273 97.1498 161.872C97.5988 162.196 98.0478 162.57 98.4967 162.994C98.9457 163.418 99.3448 163.942 99.694 164.566C100.043 165.189 100.318 165.938 100.517 166.811C100.742 167.659 100.854 168.669 100.854 169.841V179.12C100.854 179.943 100.841 180.791 100.816 181.664C100.792 182.512 100.679 183.348 100.48 184.171C100.305 184.969 100.018 185.73 99.6192 186.453C99.245 187.152 98.6963 187.763 97.9729 188.287C97.2496 188.811 96.3392 189.235 95.2417 189.559C94.1442 189.858 92.7848 190.008 91.1635 190.008H84.2418V148.777C84.2418 147.954 84.2542 147.106 84.2792 146.233C84.3291 145.36 84.4413 144.524 84.6159 143.726C84.7905 142.928 85.0774 142.179 85.4765 141.481C85.8755 140.758 86.4243 140.134 87.1227 139.61C87.846 139.062 88.7565 138.638 89.854 138.338C90.9764 138.039 92.3483 137.889 93.9696 137.889H100.854V153.828ZM87.0479 163.032V187.501H90.3404C91.6873 187.501 92.8347 187.389 93.7825 187.164C94.7553 186.94 95.5535 186.553 96.177 186.004C96.8256 185.456 97.2995 184.72 97.5988 183.797C97.8981 182.874 98.0478 181.714 98.0478 180.317V170.215C98.0478 167.621 97.5738 165.776 96.626 164.678C95.7031 163.581 94.3063 163.032 92.4356 163.032H87.0479ZM92.4356 160.525C94.3811 160.525 95.8029 159.914 96.7008 158.692C97.5988 157.47 98.0478 155.686 98.0478 153.341V140.396H94.7553C93.4333 140.396 92.2859 140.508 91.3131 140.733C90.3404 140.957 89.5297 141.344 88.8812 141.893C88.2576 142.416 87.7962 143.14 87.4968 144.063C87.1975 144.986 87.0479 146.145 87.0479 147.542V160.525H92.4356ZM120.571 137.889V140.396H113.65V190.008H110.844V140.396H103.884V137.889H120.571Z" fill="white"/>
</svg>
