<svg width="52" height="52" viewBox="0 0 52 52" fill="none" xmlns="http://www.w3.org/2000/svg">
<circle cx="26" cy="26" r="24" fill="#F3A0C9"/>
<g opacity="0.6" filter="url(#filter0_f_21555_98)">
<path fill-rule="evenodd" clip-rule="evenodd" d="M37.4014 12.2927C39.5971 15.0762 38.5473 19.0129 38.7616 22.5327C38.9634 25.848 40.3978 29.4689 38.6158 32.2421C36.8465 34.9955 32.9561 35.0325 29.9281 36.2792C26.9784 37.4937 24.343 39.5641 21.1389 39.438C17.5515 39.2969 12.8319 38.8316 11.3284 35.5474C9.72412 32.0427 14.0054 28.613 14.4422 24.809C14.733 22.2764 12.6844 19.8304 13.4128 17.3937C14.235 14.6432 16.1952 12.3561 18.619 10.8362C21.3184 9.14346 24.4613 8.21164 27.6599 8.45968C31.2124 8.73516 35.1797 9.4764 37.4014 12.2927Z" fill="#EE77B2"/>
</g>
<path opacity="0.5" fill-rule="evenodd" clip-rule="evenodd" d="M15.5084 12.6584C16.5787 12.1555 17.0039 10.735 18.1392 10.4093C19.4866 10.0227 21.0903 9.92118 22.2093 10.7359C23.335 11.5554 23.8191 13.1035 23.7577 14.4996C23.7034 15.7367 22.4786 16.5387 21.9058 17.6459C21.4295 18.5663 21.4718 19.7336 20.6929 20.4226C19.8633 21.1564 18.7063 21.2484 17.6179 21.4386C16.2247 21.6821 14.752 22.2939 13.492 21.6809C12.1521 21.0292 11.3555 19.6016 10.9207 18.1807C10.4777 16.7333 10.08 14.915 11.0604 13.7349C12.0603 12.5313 14.0909 13.3243 15.5084 12.6584Z" fill="#F9D2E5"/>
<path opacity="0.9" fill-rule="evenodd" clip-rule="evenodd" d="M35.1996 23.0146C37.3155 23.143 38.6544 25.1853 40.3103 26.4951C41.8701 27.7288 44.0568 28.5325 44.585 30.438C45.1095 32.3299 43.5776 34.0867 42.9288 35.9404C42.2968 37.7463 42.1717 39.7532 40.8403 41.1376C39.3495 42.6875 37.2635 44.6151 35.1996 43.9766C32.9971 43.2953 33.1706 40.0085 31.647 38.2937C30.6326 37.1521 28.7258 37.0925 27.9283 35.7932C27.0282 34.3266 26.7878 32.5355 27.0742 30.8431C27.3932 28.9583 28.2283 27.1789 29.612 25.8457C31.1488 24.365 33.0586 22.8846 35.1996 23.0146Z" fill="#EE77B2"/>
<defs>
<filter id="filter0_f_21555_98" x="7.03197" y="4.48168" width="36.4047" height="38.9002" filterUnits="userSpaceOnUse" color-interpolation-filters="sRGB">
<feFlood flood-opacity="0" result="BackgroundImageFix"/>
<feBlend mode="normal" in="SourceGraphic" in2="BackgroundImageFix" result="shape"/>
<feGaussianBlur stdDeviation="1.96918" result="effect1_foregroundBlur_21555_98"/>
</filter>
</defs>
</svg>
