<svg width="314" height="169" viewBox="0 0 314 169" fill="none" xmlns="http://www.w3.org/2000/svg">
<path d="M0 20C0 8.95429 8.95431 0 20 0H293.662C304.708 0 313.662 8.95431 313.662 20V148.789C313.662 159.835 304.708 168.789 293.662 168.789H20C8.95433 168.789 0 159.835 0 148.789V20Z" fill="white"/>
<circle cx="106.5" cy="80.5" r="32.5" fill="#D3F8F8"/>
<path d="M104.915 79.5742C105.862 78.7423 107.281 78.7425 108.228 79.5742L109.903 81.0449C110.446 81.5217 110.758 82.2092 110.758 82.9316V84.9062L110.792 84.9141C110.782 84.9622 110.768 85.0098 110.758 85.0576V88.165C110.758 88.1945 110.755 88.2237 110.754 88.2529L110.792 88.2617C110.778 88.3244 110.761 88.3861 110.747 88.4482C110.745 88.5042 110.745 88.5603 110.748 88.6162C110.754 88.7437 110.758 88.8723 110.758 89.002C110.758 91.014 110.033 92.7897 108.929 93.8447C108.652 94.1097 108.416 94.4256 108.282 94.7764C108.294 94.838 108.293 94.9028 108.278 94.9678C108.255 95.0637 108.218 95.1524 108.175 95.2354C108.171 95.2723 108.167 95.3092 108.166 95.3467L107.824 111.701L107.86 111.71C107.85 111.753 107.834 111.795 107.821 111.838L107.426 130.856C107.416 131.321 107.036 131.693 106.571 131.693C106.106 131.693 105.726 131.321 105.717 130.856L105.32 111.837C105.307 111.794 105.293 111.752 105.283 111.71L105.317 111.701L104.977 95.3467C104.977 95.3096 104.97 95.2729 104.967 95.2363C104.923 95.1533 104.888 95.0637 104.865 94.9678C104.85 94.9025 104.848 94.8373 104.86 94.7754C104.727 94.425 104.491 94.1085 104.214 93.8438C103.11 92.7886 102.386 91.0136 102.386 89.002C102.386 88.8723 102.389 88.7437 102.395 88.6162C102.398 88.5616 102.398 88.5068 102.396 88.4521C102.381 88.3888 102.365 88.3257 102.351 88.2617L102.388 88.2529C102.387 88.2237 102.386 88.1945 102.386 88.165V85.0615C102.375 85.0124 102.362 84.9635 102.351 84.9141L102.386 84.9062V82.9316C102.386 82.209 102.698 81.5217 103.241 81.0449L104.915 79.5742ZM106.873 112.865C106.779 112.889 106.678 112.904 106.571 112.904C106.464 112.904 106.363 112.89 106.269 112.865L106.571 127.347L106.873 112.865ZM64.1023 81.9951C64.3505 81.9951 64.5545 82.1926 64.5681 82.4404C65.7016 103.047 81.6653 119.701 101.967 121.911C102.204 121.937 102.386 122.137 102.386 122.376C102.386 122.65 102.148 122.865 101.876 122.835C81.1181 120.58 64.7949 103.55 63.6414 82.4805C63.6272 82.2169 63.8383 81.9952 64.1023 81.9951ZM149.041 81.9951C149.305 81.9951 149.516 82.2177 149.502 82.4814C148.348 103.551 132.025 120.58 111.267 122.835C110.995 122.864 110.758 122.65 110.758 122.376C110.758 122.137 110.939 121.937 111.177 121.911C131.478 119.701 147.441 103.047 148.575 82.4404C148.589 82.1927 148.793 81.9954 149.041 81.9951ZM99.116 116.609C99.2255 116.378 99.5027 116.279 99.7341 116.389C99.9655 116.498 100.064 116.775 99.9548 117.007C99.8453 117.238 99.5689 117.337 99.3376 117.228C99.1061 117.118 99.0064 116.841 99.116 116.609ZM115.787 116.239C116.043 116.239 116.251 116.447 116.251 116.703C116.251 116.959 116.043 117.167 115.787 117.167C115.531 117.167 115.323 116.959 115.323 116.703C115.323 116.447 115.531 116.239 115.787 116.239ZM97.1873 116.378C97.2968 116.146 97.5739 116.048 97.8054 116.157C98.0367 116.267 98.1355 116.543 98.0261 116.774C97.9166 117.006 97.6404 117.104 97.4089 116.995C97.1775 116.886 97.0779 116.609 97.1873 116.378ZM97.781 82.8711C97.9035 82.6464 98.1851 82.5634 98.4099 82.6855C98.6348 82.8079 98.7177 83.0895 98.5955 83.3145C97.9674 84.4686 96.9933 85.9235 95.2234 86.9121C93.4488 87.9033 90.9375 88.3921 87.3015 87.7432C80.7426 86.5724 76.7403 87.5029 74.5251 88.9658C72.3007 90.4349 71.8835 92.4095 72.3074 93.502C72.375 93.6762 72.3287 93.8652 72.2068 93.9912C73.2516 96.7694 74.6238 99.3911 76.2771 101.809C76.1875 100.56 76.5057 99.096 77.4861 97.6973C79.211 95.2364 82.9338 93.0324 89.9421 92.3848C93.4694 92.0588 95.519 91.0389 96.7576 89.8564C97.9979 88.6723 98.481 87.2729 98.7732 86.0664C98.8337 85.8178 99.084 85.6654 99.3328 85.7256C99.5815 85.786 99.7348 86.0364 99.6746 86.2852C99.366 87.5593 98.8276 89.1627 97.3982 90.5273C95.9671 91.8936 93.6981 92.9694 90.0271 93.3086C83.155 93.9436 79.7505 96.0829 78.2458 98.2295C76.7358 100.384 77.0858 102.602 77.8142 103.599C77.8993 103.715 77.9197 103.858 77.8865 103.987C80.0728 106.73 82.6444 109.155 85.5222 111.182C85.1823 110.25 85.0647 109.111 85.3201 107.808C85.8737 104.983 88.1595 101.422 93.5955 97.418C98.2408 93.9962 99.7232 91.3111 99.8083 88.8604C99.8174 88.6045 100.032 88.4042 100.288 88.4131C100.544 88.4221 100.744 88.6368 100.735 88.8926C100.635 91.7655 98.8769 94.6798 94.1453 98.165C88.7977 102.104 86.7191 105.486 86.2292 107.986C85.7976 110.19 86.5889 111.734 87.5154 112.492C89.6208 113.779 91.8673 114.862 94.2283 115.711C94.3109 115.741 94.3846 115.792 94.4402 115.86C94.7411 116.23 94.3836 116.752 93.9353 116.592C91.7031 115.791 89.5698 114.786 87.5583 113.601C87.5062 113.591 87.4544 113.574 87.406 113.546C87.2657 113.463 87.1294 113.367 86.9949 113.262C77.5689 107.484 70.9098 97.7015 69.3064 86.3672C69.2397 85.8957 69.8229 85.6506 70.1238 86.0195C70.1794 86.0878 70.2159 86.1706 70.2283 86.2578C70.4851 88.0653 70.8748 89.8319 71.3855 91.5479C71.7114 90.3761 72.5589 89.1527 74.0144 88.1914C76.5044 86.5472 80.7801 85.6372 87.4636 86.8301C90.9441 87.4513 93.2263 86.9639 94.7703 86.1016C96.3189 85.2366 97.189 83.9589 97.781 82.8711ZM115.115 82.3398C115.344 82.2254 115.622 82.3181 115.737 82.5469C116.291 83.6545 117.116 84.9616 118.634 85.8799C120.147 86.7954 122.411 87.3613 125.911 86.8613C132.632 85.9012 136.915 86.9334 139.388 88.6318C140.753 89.5691 141.573 90.7235 141.917 91.8379C142.44 90.2343 142.856 88.5825 143.157 86.8906C143.172 86.8039 143.211 86.7226 143.269 86.6562C143.583 86.2978 144.157 86.5626 144.074 87.0312C141.617 100.904 131.588 112.162 118.411 116.382C117.957 116.527 117.618 115.992 117.931 115.634C117.989 115.568 118.065 115.519 118.148 115.492C120.333 114.791 122.429 113.89 124.416 112.813C124.446 112.785 124.479 112.758 124.517 112.737C125.607 112.147 126.749 110.536 126.368 108.04C125.985 105.529 124.047 102.08 118.84 97.958C114.232 94.3107 112.576 91.3374 112.576 88.4629C112.576 88.207 112.784 87.9991 113.04 87.999C113.296 87.999 113.504 88.2069 113.504 88.4629C113.504 90.9151 114.892 93.6503 119.416 97.2314C124.71 101.422 126.851 105.058 127.285 107.899C127.49 109.244 127.308 110.401 126.907 111.331C129.917 109.378 132.626 106.999 134.944 104.276C134.954 104.196 134.985 104.117 135.039 104.049C135.799 103.081 136.214 100.853 134.761 98.6211C133.315 96.3992 129.969 94.1201 123.125 93.2471C119.468 92.7806 117.237 91.627 115.854 90.2119C114.473 88.7985 113.991 87.1776 113.727 85.8936C113.676 85.6427 113.838 85.3973 114.089 85.3457C114.339 85.2944 114.584 85.4563 114.635 85.707C114.886 86.9229 115.319 88.3381 116.517 89.5645C117.714 90.7893 119.728 91.8788 123.242 92.3271C130.226 93.218 133.885 95.5741 135.539 98.1152C136.434 99.4913 136.726 100.907 136.642 102.123C138.396 99.7241 139.868 97.1062 141.007 94.3164C140.957 94.2033 140.952 94.0715 141.005 93.9492C141.462 92.8826 141.084 90.9214 138.863 89.3965C136.654 87.8795 132.638 86.837 126.042 87.7793C122.385 88.3016 119.893 87.726 118.154 86.6738C116.419 85.6243 115.496 84.1372 114.908 82.9619C114.793 82.7329 114.886 82.4545 115.115 82.3398ZM107.224 96.0215C107.007 96.1086 106.778 96.1621 106.571 96.1621C106.364 96.162 106.135 96.1087 105.918 96.0215L106.244 111.674C106.282 111.765 106.327 111.835 106.373 111.883C106.439 111.952 106.502 111.976 106.571 111.977C106.64 111.977 106.704 111.952 106.77 111.883C106.816 111.835 106.859 111.765 106.897 111.675L107.224 96.0215ZM109.43 91.3379C108.708 92.2412 107.749 92.8145 106.571 92.8145C105.394 92.8143 104.435 92.2416 103.713 91.3389C103.989 92.0983 104.389 92.7283 104.855 93.1738C105.285 93.5851 105.718 94.1713 105.857 94.8975C105.905 94.949 105.973 95.0072 106.068 95.0645C106.263 95.1819 106.466 95.2352 106.571 95.2354C106.676 95.2354 106.88 95.1821 107.075 95.0645C107.17 95.0074 107.237 94.9489 107.285 94.8975C107.424 94.1712 107.858 93.585 108.288 93.1738C108.754 92.7281 109.154 92.0977 109.43 91.3379ZM109.83 87.4189C109.078 88.6456 107.981 89.4668 106.571 89.4668C105.162 89.4667 104.066 88.6475 103.314 87.4229V88.165C103.314 88.1961 103.314 88.2274 103.316 88.2578C103.317 88.2786 103.317 88.3005 103.318 88.3232C103.854 90.5332 105.077 91.8865 106.571 91.8867C108.065 91.8867 109.288 90.5332 109.824 88.3232C109.825 88.3005 109.826 88.2787 109.827 88.2578C109.829 88.2274 109.83 88.1961 109.83 88.165V87.4189ZM107.617 80.2715C107.019 79.7467 106.125 79.7469 105.527 80.2715L103.852 81.7412C103.51 82.0419 103.314 82.4759 103.314 82.9316V84.9551C103.848 87.1771 105.072 88.5398 106.571 88.54C108.071 88.54 109.297 87.1758 109.83 84.9512V82.9316C109.83 82.4759 109.633 82.0419 109.291 81.7412L107.617 80.2715ZM60.78 69.3467C63.6186 68.9065 67.4685 69.4397 71.7703 70.4062C75.5845 71.2633 79.8086 72.4748 84.0779 73.6992C84.6386 73.86 85.2001 74.0212 85.7615 74.1816C90.6068 75.5666 95.4515 76.9106 99.8064 77.7363C100.391 77.8472 100.765 78.2938 100.795 78.7969C100.825 79.3134 100.484 79.7927 99.8845 79.9219C98.2328 80.2775 96.0822 80.5883 93.8054 80.54C92.9975 80.5229 92.217 80.5017 91.4626 80.4775C91.4357 80.4831 91.4081 80.4876 91.3796 80.4883C91.1879 80.4927 91.0029 80.48 90.825 80.4541C89.9683 80.4241 89.1457 80.3897 88.3542 80.3525C88.3115 80.3667 88.2668 80.3778 88.2195 80.3789C87.9856 80.3843 87.7574 80.3587 87.5349 80.3135C86.4817 80.2599 85.4851 80.2003 84.5378 80.1387C84.4705 80.1655 84.3972 80.1799 84.3201 80.1719C84.1231 80.1512 83.93 80.1215 83.741 80.0859C81.9054 79.9602 80.2582 79.8275 78.7429 79.7041C76.9271 79.5562 75.3002 79.424 73.7644 79.3398C68.9677 79.0769 64.9644 79.2745 58.6121 80.9219C57.3203 81.2569 56.2993 81.4739 55.5046 81.5879C54.7211 81.7003 54.115 81.7188 53.6746 81.624C53.45 81.5757 53.2383 81.4922 53.0681 81.3496C52.8893 81.1997 52.7809 81.0053 52.74 80.7891C52.666 80.3984 52.8212 79.9799 52.9958 79.625C53.1812 79.2482 53.4496 78.8289 53.7341 78.4004C53.8148 78.2789 53.8964 78.1558 53.9792 78.0322C54.195 77.7105 54.416 77.3809 54.6296 77.041C55.229 76.0872 55.6967 75.161 55.7488 74.3545C55.8451 72.8638 56.3576 71.7066 57.2527 70.8691C58.1384 70.0405 59.3537 69.5679 60.78 69.3467ZM141.619 70.4062C145.92 69.4398 149.77 68.9066 152.608 69.3467C154.034 69.5679 155.25 70.0405 156.135 70.8691C157.031 71.7066 157.543 72.8638 157.639 74.3545C157.691 75.161 158.159 76.0873 158.759 77.041C158.972 77.3809 159.193 77.7105 159.409 78.0322C159.492 78.1559 159.573 78.2789 159.654 78.4004C159.939 78.8289 160.207 79.2482 160.392 79.625C160.567 79.9799 160.722 80.3984 160.648 80.7891C160.607 81.0053 160.499 81.1997 160.32 81.3496C160.15 81.4922 159.938 81.5757 159.714 81.624C159.273 81.7187 158.667 81.7003 157.884 81.5879C157.089 81.4739 156.068 81.2569 154.776 80.9219C148.424 79.2746 144.42 79.0769 139.624 79.3398C138.088 79.424 136.461 79.5562 134.645 79.7041C133.129 79.8275 131.482 79.9612 129.645 80.0869C129.457 80.1223 129.265 80.1513 129.069 80.1719C128.991 80.18 128.917 80.1658 128.849 80.1387C127.902 80.2003 126.906 80.2599 125.852 80.3135C125.63 80.3586 125.402 80.3842 125.169 80.3789C125.121 80.3778 125.076 80.3669 125.033 80.3525C124.242 80.3897 123.419 80.4241 122.562 80.4541C122.385 80.4799 122.2 80.4926 122.009 80.4883C121.98 80.4876 121.952 80.4831 121.925 80.4775C121.171 80.5017 120.39 80.5229 119.583 80.54C117.306 80.5883 115.155 80.2776 113.504 79.9219C112.904 79.7927 112.564 79.3134 112.594 78.7969C112.623 78.2939 112.997 77.8472 113.582 77.7363C117.937 76.9106 122.781 75.5666 127.627 74.1816C128.188 74.0212 128.75 73.86 129.31 73.6992C133.58 72.4748 137.805 71.2633 141.619 70.4062ZM71.5662 71.3105C67.2704 70.3454 63.5717 69.8517 60.9216 70.2627C59.6038 70.4671 58.5892 70.8894 57.8865 71.5469C57.1932 72.1956 56.7584 73.116 56.6746 74.415C56.6058 75.4779 56.0145 76.5809 55.4148 77.5352C55.1934 77.8874 54.961 78.2344 54.7429 78.5596C54.6617 78.6806 54.5824 78.7989 54.5066 78.9131C54.2211 79.3432 53.9838 79.7173 53.8279 80.0342C53.6614 80.3725 53.6384 80.5479 53.6511 80.6162C53.6536 80.6293 53.6549 80.6312 53.6638 80.6387C53.6815 80.6535 53.7373 80.6892 53.8699 80.7178C54.1439 80.7766 54.6156 80.7785 55.3728 80.6699C56.1194 80.5628 57.103 80.3542 58.3787 80.0234C64.8317 78.35 68.9319 78.1464 73.8152 78.4141C75.3893 78.5003 77.0354 78.6342 78.863 78.7832C79.5474 78.839 80.2576 78.8939 80.9988 78.9521C79.8108 78.154 78.9128 77.0839 78.3357 76.0664C77.8237 75.1636 77.5305 74.2447 77.5457 73.54C77.5506 73.31 77.5905 73.0708 77.6902 72.8584C75.5706 72.2791 73.5139 71.7482 71.5662 71.3105ZM152.467 70.2627C149.816 69.8517 146.118 70.3454 141.822 71.3105C139.874 71.7482 137.817 72.279 135.697 72.8584C135.797 73.0709 135.838 73.3098 135.843 73.54C135.858 74.2447 135.565 75.1636 135.053 76.0664C134.476 77.0842 133.577 78.1539 132.388 78.9521C133.13 78.8939 133.841 78.839 134.526 78.7832C136.354 78.6343 137.999 78.5003 139.573 78.4141C144.456 78.1464 148.557 78.35 155.01 80.0234C156.285 80.3542 157.269 80.5628 158.015 80.6699C158.773 80.7786 159.245 80.7767 159.519 80.7178C159.652 80.6892 159.707 80.6535 159.724 80.6387C159.733 80.6311 159.735 80.6293 159.737 80.6162C159.75 80.548 159.727 80.3725 159.56 80.0342C159.404 79.7173 159.167 79.3432 158.882 78.9131C158.806 78.7989 158.726 78.6806 158.645 78.5596C158.427 78.2344 158.195 77.8874 157.973 77.5352C157.374 76.5809 156.782 75.4779 156.714 74.415C156.63 73.116 156.195 72.1956 155.502 71.5469C154.799 70.8894 153.784 70.4671 152.467 70.2627ZM92.6482 77.043C92.5853 77.0674 92.5168 77.0808 92.4451 77.0752C92.2351 77.0586 92.1064 77.0897 92.032 77.125C91.9636 77.1576 91.9185 77.2038 91.8855 77.2686C91.8085 77.4202 91.7891 77.7034 91.8972 78.084C92.0012 78.4502 92.2029 78.8287 92.45 79.1143C92.7053 79.4092 92.9533 79.544 93.1365 79.5586C93.1893 79.5628 93.2389 79.5776 93.2849 79.5977C93.4635 79.6019 93.6435 79.6085 93.825 79.6123C96.0104 79.6587 98.0871 79.3608 99.6902 79.0156C99.7871 78.9947 99.8273 78.9564 99.8435 78.9355C99.8613 78.9126 99.8708 78.8841 99.8689 78.8506C99.8656 78.7933 99.8215 78.6831 99.6335 78.6475C97.4056 78.225 95.0547 77.6686 92.6482 77.043ZM120.739 77.043C118.333 77.6685 115.982 78.2251 113.755 78.6475C113.567 78.6831 113.523 78.7933 113.519 78.8506C113.517 78.884 113.527 78.9126 113.545 78.9355C113.561 78.9565 113.602 78.9947 113.699 79.0156C115.302 79.3608 117.378 79.6587 119.563 79.6123C119.745 79.6085 119.925 79.6019 120.103 79.5977C120.149 79.5776 120.199 79.5628 120.252 79.5586C120.435 79.544 120.683 79.4093 120.938 79.1143C121.185 78.8287 121.388 78.4502 121.492 78.084C121.6 77.7034 121.58 77.4202 121.503 77.2686C121.47 77.2037 121.425 77.1576 121.356 77.125C121.282 77.0897 121.154 77.0587 120.944 77.0752C120.872 77.0809 120.802 77.0678 120.739 77.043ZM89.6023 76.2246C89.5728 76.2389 89.5417 76.2518 89.5085 76.2598C89.1844 76.3381 89.0075 76.5343 88.9275 76.8086C88.8405 77.1068 88.8681 77.5164 89.0398 77.9492C89.3383 78.7018 90.0106 79.3797 90.9246 79.5293C91.1516 79.5372 91.381 79.5464 91.613 79.5537C91.3396 79.193 91.1255 78.7631 91.0046 78.3379C90.8688 77.8597 90.8283 77.3017 91.0593 76.8477C91.0939 76.7797 91.1343 76.715 91.1804 76.6543C90.6561 76.5136 90.1299 76.37 89.6023 76.2246ZM123.785 76.2246C123.257 76.37 122.731 76.5136 122.207 76.6543C122.253 76.7151 122.294 76.7795 122.329 76.8477C122.56 77.3017 122.519 77.8597 122.384 78.3379C122.263 78.7633 122.048 79.1929 121.774 79.5537C122.006 79.5464 122.236 79.5372 122.463 79.5293C123.377 79.3799 124.05 78.702 124.348 77.9492C124.52 77.5165 124.547 77.1068 124.46 76.8086C124.38 76.5343 124.203 76.338 123.879 76.2598C123.845 76.2517 123.814 76.239 123.785 76.2246ZM84.3328 74.7363C84.3168 74.7907 84.3043 74.8659 84.3015 74.9668C84.2967 75.1434 84.3239 75.3669 84.3894 75.627C84.5206 76.1471 84.7913 76.7626 85.1716 77.3506C85.8275 78.3644 86.7227 79.1716 87.658 79.3906C88.0705 79.4115 88.4919 79.4311 88.9226 79.4502C88.5923 79.1024 88.3396 78.6998 88.1775 78.291C87.9519 77.7221 87.8783 77.0957 88.0378 76.5488C88.1098 76.3023 88.2304 76.0784 88.3962 75.8887C87.4345 75.6196 86.4692 75.3484 85.5066 75.0732C85.1149 74.9613 84.7237 74.8484 84.3328 74.7363ZM127.882 75.0732C126.918 75.3486 125.952 75.6194 124.99 75.8887C125.156 76.0786 125.278 76.3019 125.35 76.5488C125.51 77.0957 125.436 77.7221 125.211 78.291C125.048 78.6999 124.795 79.1024 124.465 79.4502C124.895 79.4311 125.317 79.4115 125.729 79.3906C126.665 79.172 127.56 78.3648 128.217 77.3506C128.597 76.7626 128.868 76.1471 128.999 75.627C129.064 75.3669 129.092 75.1434 129.087 74.9668C129.084 74.8657 129.07 74.7907 129.054 74.7363C128.664 74.8483 128.273 74.9614 127.882 75.0732ZM78.7703 73.1875C78.6019 73.1533 78.5648 73.1969 78.5613 73.2012C78.5369 73.2262 78.4785 73.3216 78.4734 73.5605C78.4633 74.0325 78.673 74.7807 79.1423 75.6084C80.0056 77.1308 81.6356 78.7279 83.8679 79.166C84.4263 79.2042 85.0022 79.2414 85.5974 79.2773C85.1256 78.8561 84.7181 78.3565 84.3933 77.8545C83.9669 77.1953 83.6497 76.4877 83.49 75.8545C83.4102 75.538 83.3669 75.2263 83.3748 74.9414C83.379 74.7878 83.3989 74.6314 83.4421 74.4814C81.9118 74.0426 80.3927 73.6077 78.9001 73.1924C78.8576 73.1959 78.8142 73.1964 78.7703 73.1875ZM134.619 73.1875C134.574 73.1965 134.53 73.196 134.487 73.1924C132.995 73.6076 131.476 74.0418 129.946 74.4805C129.99 74.6307 130.01 74.7875 130.014 74.9414C130.022 75.2263 129.978 75.538 129.898 75.8545C129.739 76.4876 129.421 77.1953 128.995 77.8545C128.67 78.3567 128.262 78.856 127.79 79.2773C128.385 79.2414 128.961 79.2042 129.519 79.166C131.752 78.7282 133.382 77.131 134.246 75.6084C134.715 74.7807 134.925 74.0325 134.915 73.5605C134.91 73.3216 134.851 73.2262 134.827 73.2012C134.823 73.197 134.787 73.1535 134.619 73.1875ZM58.3503 74.8896C59.1435 74.6114 60.0125 75.0291 60.2908 75.8223C60.768 77.1832 59.2034 77.8703 58.073 78.2441C57.9966 78.2694 57.922 78.2929 57.8503 78.3154C57.7506 78.3468 57.6562 78.3758 57.5691 78.4023C57.4236 78.4467 57.2984 78.4844 57.2039 78.5176C56.8376 78.646 56.9152 78.4647 57.0769 78.1543C57.087 78.1349 57.0975 78.1151 57.1082 78.0947C57.1724 77.9722 57.2457 77.8327 57.3083 77.6865C57.3363 77.6213 57.3624 77.5544 57.3845 77.4873C57.4581 77.264 57.4902 77.0343 57.4187 76.8301C57.1405 76.037 57.5573 75.168 58.3503 74.8896ZM153.125 75.8223C153.403 75.0291 154.272 74.6114 155.065 74.8896C155.858 75.168 156.275 76.037 155.997 76.8301C155.925 77.0343 155.957 77.264 156.031 77.4873C156.053 77.5544 156.079 77.6213 156.107 77.6865C156.17 77.8327 156.243 77.9722 156.307 78.0947C156.318 78.1151 156.329 78.1349 156.339 78.1543C156.5 78.4647 156.578 78.646 156.212 78.5176C156.117 78.4844 155.992 78.4467 155.846 78.4023C155.759 78.3758 155.665 78.3468 155.565 78.3154C155.494 78.2929 155.419 78.2694 155.343 78.2441C154.212 77.8703 152.647 77.1832 153.125 75.8223ZM62.2449 71.2656C63.7246 71.0014 64.9683 71.4647 66.2781 72.1641C66.7408 72.4112 67.2057 72.6834 67.6951 72.9697C68.6231 73.5127 69.6401 74.1071 70.9011 74.6836C72.652 75.4841 73.8701 75.7652 74.7332 75.9229C74.9359 75.9599 75.127 76.0314 75.2791 76.1475C75.4294 76.2623 75.5772 76.4533 75.5779 76.71C75.5786 76.9736 75.4243 77.1679 75.2605 77.2803C75.0995 77.3907 74.9006 77.4473 74.696 77.4688C72.9264 77.6545 70.0709 77.6596 68.3484 77.1514C67.3134 76.846 66.6466 76.9958 66.0544 77.2627C65.8193 77.3687 65.6028 77.4895 65.3669 77.6211C65.2829 77.668 65.196 77.7171 65.1052 77.7666C64.7722 77.9482 64.4028 78.1333 63.9763 78.2559C63.1222 78.5012 62.3455 78.4057 61.8113 78.1621C61.5516 78.0437 61.3094 77.8708 61.1648 77.6445C61.0903 77.5279 61.0302 77.3777 61.033 77.2051C61.0359 77.0237 61.1077 76.8596 61.2263 76.7324C61.3399 76.6107 61.4837 76.5078 61.5818 76.4375C61.5961 76.4272 61.6097 76.418 61.6218 76.4092C61.7404 76.323 61.7932 76.2749 61.8201 76.2363L61.8337 76.209C61.8361 76.1977 61.8359 76.1821 61.8318 76.1572C61.8193 76.082 61.7662 75.932 61.5857 75.6807C61.3864 75.4031 61.1308 75.0466 60.908 74.6641C60.6876 74.2856 60.4808 73.8509 60.3962 73.4141C60.3102 72.9692 60.3449 72.4752 60.6755 72.0547C60.9959 71.6474 61.5284 71.3936 62.2449 71.2656ZM147.137 72.1641C148.447 71.4648 149.691 71.0014 151.171 71.2656C151.887 71.3936 152.42 71.6473 152.74 72.0547C153.071 72.4752 153.105 72.9692 153.019 73.4141C152.935 73.851 152.727 74.2856 152.507 74.6641C152.284 75.0465 152.029 75.4032 151.83 75.6807C151.649 75.932 151.596 76.082 151.584 76.1572C151.576 76.2069 151.583 76.2197 151.594 76.2344L151.594 76.2354C151.621 76.2739 151.674 76.3219 151.793 76.4082C151.805 76.4171 151.819 76.4271 151.834 76.4375C151.932 76.5078 152.076 76.6106 152.189 76.7324C152.308 76.8596 152.38 77.0237 152.383 77.2051C152.385 77.3777 152.325 77.5279 152.251 77.6445C152.106 77.8708 151.863 78.0427 151.603 78.1611C151.069 78.4046 150.293 78.5011 149.439 78.2559C149.013 78.1333 148.642 77.9473 148.309 77.7656C148.219 77.7162 148.132 77.6679 148.049 77.6211C147.813 77.4895 147.596 77.3687 147.361 77.2627C146.769 76.9957 146.102 76.846 145.067 77.1514C143.352 77.6574 140.567 77.6553 138.827 77.4717C138.622 77.45 138.422 77.3921 138.26 77.2803C138.096 77.166 137.945 76.9707 137.945 76.709C137.946 76.4544 138.09 76.2625 138.24 76.1455C138.391 76.0276 138.582 75.9549 138.785 75.916C139.614 75.7573 140.789 75.4723 142.514 74.6836C143.775 74.1071 144.792 73.5127 145.72 72.9697C146.21 72.6834 146.675 72.4112 147.137 72.1641ZM52.4724 44.2451C54.0568 44.2451 55.6665 44.4626 57.2976 44.8574C57.6092 44.8545 57.935 44.9115 58.2703 45.0312C58.348 45.059 58.4122 45.1069 58.4626 45.165C60.4751 45.7518 62.5173 46.5979 64.5808 47.6396C67.9548 49.3429 71.4031 51.583 74.8953 54.0967C74.9705 54.1295 75.0439 54.1678 75.113 54.2139C75.1677 54.2503 75.2114 54.2967 75.2449 54.3486C75.9291 54.8443 76.6164 55.348 77.3035 55.8623C78.9588 57.1013 80.6201 58.3882 82.2859 59.6963C82.3046 59.7078 82.3241 59.7182 82.3425 59.7305C82.3771 59.7535 82.4062 59.7818 82.4324 59.8115C83.7092 60.815 84.9896 61.8296 86.2703 62.8467C92.0099 67.405 97.7788 71.9868 103.49 75.5723C103.991 75.8872 104.175 76.436 104.022 76.9131C103.866 77.4016 103.382 77.7307 102.779 77.6445C100.736 77.3525 97.9687 76.7506 95.2195 75.5742C94.3197 75.1892 93.45 74.812 92.6072 74.4453C92.597 74.4423 92.586 74.4413 92.5759 74.4375C92.4543 74.3919 92.338 74.3393 92.2263 74.2812C89.308 73.0088 86.7212 71.8474 84.3757 70.7949C82.7474 70.0643 81.2352 69.3862 79.8093 68.7588C79.7433 68.7599 79.6762 68.7486 79.6121 68.7197C79.3615 68.607 79.1195 68.4856 78.8855 68.3564C69.9576 64.4686 64.3099 62.6748 53.9285 62.6748C53.2081 62.6748 52.532 62.5291 51.9021 62.2725C51.8808 62.2665 51.8585 62.2612 51.8376 62.252C51.8262 62.2469 51.8162 62.2393 51.8054 62.2334C50.642 61.7341 49.643 60.8468 48.8396 59.751C47.5826 58.0362 46.7624 55.7701 46.4802 53.5176C46.1986 51.2696 46.4456 48.9761 47.3894 47.2236C48.3488 45.4425 50.0204 44.2452 52.4724 44.2451ZM160.916 44.2451C163.368 44.2452 165.039 45.4424 165.999 47.2236C166.943 48.9761 167.19 51.2695 166.908 53.5176C166.626 55.7701 165.806 58.0362 164.549 59.751C163.745 60.8474 162.745 61.7343 161.581 62.2334C161.57 62.239 161.561 62.2471 161.551 62.252C161.53 62.2609 161.509 62.2656 161.488 62.2715C160.858 62.5286 160.181 62.6748 159.46 62.6748C149.077 62.6748 143.43 64.469 134.501 68.3574C134.268 68.486 134.027 68.6074 133.777 68.7197C133.713 68.7487 133.645 68.7599 133.579 68.7588C132.153 69.3862 130.641 70.0643 129.012 70.7949C126.667 71.8475 124.08 73.0086 121.161 74.2812C121.05 74.3391 120.933 74.392 120.812 74.4375C120.802 74.4414 120.791 74.4422 120.78 74.4453C119.937 74.8118 119.068 75.1893 118.169 75.5742C115.419 76.7506 112.652 77.3526 110.609 77.6445C110.006 77.7307 109.522 77.4016 109.366 76.9131C109.213 76.436 109.397 75.8872 109.898 75.5723C115.609 71.9868 121.378 67.405 127.118 62.8467C128.399 61.8294 129.679 60.8142 130.956 59.8105C130.982 59.7809 131.012 59.7534 131.047 59.7305C131.064 59.719 131.082 59.709 131.099 59.6982C132.766 58.3894 134.428 57.102 136.085 55.8623C136.772 55.348 137.459 54.8443 138.143 54.3486C138.177 54.2966 138.221 54.2504 138.276 54.2139C138.345 54.1682 138.417 54.1303 138.492 54.0977C141.985 51.5836 145.433 49.3431 148.807 47.6396C150.871 46.5979 152.913 45.7518 154.926 45.165C154.976 45.1069 155.04 45.059 155.118 45.0312C155.453 44.9117 155.778 44.8547 156.09 44.8574C157.721 44.4624 159.331 44.2451 160.916 44.2451ZM65.8416 72.9824C64.5898 72.314 63.5767 71.97 62.408 72.1787C61.8004 72.2872 61.5253 72.4736 61.4041 72.6279C61.293 72.7692 61.2525 72.9595 61.3064 73.2383C61.3619 73.5248 61.5097 73.8539 61.7097 74.1973C61.9074 74.5366 62.1379 74.8601 62.3386 75.1396C62.5582 75.4454 62.7013 75.7309 62.7468 76.0059C62.7962 76.3043 62.7254 76.5589 62.5828 76.7646C62.4562 76.9471 62.2825 77.0757 62.1677 77.1592C62.15 77.1721 62.1326 77.184 62.1169 77.1953C62.0944 77.2116 62.0741 77.2266 62.0554 77.2402C62.0916 77.2642 62.1377 77.2908 62.196 77.3174C62.5181 77.4642 63.0668 77.5521 63.7205 77.3643C64.0476 77.2702 64.3459 77.1245 64.6619 76.9521C64.7349 76.9123 64.8099 76.8695 64.8875 76.8262C65.1324 76.6894 65.3989 76.5418 65.6736 76.418C66.443 76.0711 67.3382 75.8861 68.6111 76.2617C69.8796 76.6359 71.9304 76.7105 73.5818 76.625C72.7774 76.425 71.7734 76.1025 70.5154 75.5273C69.2187 74.9345 68.1148 74.2896 67.1609 73.7324C66.6857 73.4549 66.2475 73.1992 65.8416 72.9824ZM151.008 72.1787C149.839 71.97 148.826 72.314 147.574 72.9824C147.168 73.1992 146.73 73.4549 146.255 73.7324C145.301 74.2896 144.197 74.9345 142.9 75.5273C141.645 76.1012 140.658 76.4229 139.875 76.623C141.5 76.7106 143.529 76.638 144.804 76.2617C146.077 75.8861 146.972 76.0711 147.742 76.418C148.016 76.5417 148.282 76.6895 148.527 76.8262C148.605 76.8695 148.681 76.9123 148.754 76.9521C149.07 77.1245 149.368 77.2702 149.695 77.3643C150.349 77.552 150.897 77.4642 151.219 77.3174C151.278 77.2908 151.324 77.2642 151.36 77.2402C151.341 77.2264 151.32 77.2118 151.298 77.1953C151.282 77.184 151.265 77.172 151.248 77.1592C151.133 77.0758 150.959 76.947 150.833 76.7646C150.69 76.5589 150.619 76.3043 150.669 76.0059C150.714 75.7309 150.856 75.4454 151.076 75.1396C151.277 74.8601 151.508 74.5367 151.706 74.1973C151.906 73.8537 152.054 73.524 152.109 73.2373C152.163 72.9589 152.122 72.7691 152.011 72.6279C151.89 72.4737 151.615 72.2872 151.008 72.1787ZM59.4158 76.1289C59.3071 75.8192 58.9677 75.6562 58.658 75.7646C58.3482 75.8733 58.1851 76.2127 58.2937 76.5225C58.3691 76.7375 58.3912 76.9488 58.3845 77.1426C58.5356 77.079 58.6864 77.0076 58.8328 76.9268C59.1473 76.7531 59.3225 76.5922 59.4001 76.4688C59.4478 76.3929 59.4798 76.3114 59.4158 76.1289ZM154.758 75.7646C154.448 75.6562 154.108 75.8192 154 76.1289C153.936 76.3114 153.968 76.3929 154.015 76.4688C154.093 76.5922 154.268 76.7531 154.583 76.9268C154.729 77.0076 154.88 77.079 155.031 77.1426C155.024 76.9488 155.046 76.7375 155.122 76.5225C155.23 76.2127 155.067 75.8733 154.758 75.7646ZM94.6882 70.8623C94.5855 70.8705 94.5012 70.9096 94.4236 70.9824C94.2483 71.1472 94.1 71.4981 94.0564 71.999C94.0143 72.4832 94.0786 73.0246 94.2351 73.4785C94.3967 73.947 94.626 74.2394 94.8484 74.3506C94.9069 74.3798 94.9563 74.4197 94.9958 74.4668C95.1909 74.5506 95.3868 74.637 95.5847 74.7217C98.2382 75.857 100.922 76.4423 102.911 76.7266C103.007 76.7403 103.059 76.7188 103.083 76.7041C103.109 76.688 103.129 76.6629 103.139 76.6299C103.157 76.5727 103.154 76.4563 102.997 76.3574C100.44 74.7524 97.8653 72.9436 95.2869 71.0273C95.2558 71.0193 95.2249 71.009 95.1951 70.9941C94.9631 70.8782 94.7979 70.8536 94.6882 70.8623ZM118.7 70.8623C118.59 70.8537 118.426 70.8784 118.194 70.9941C118.164 71.0093 118.132 71.0193 118.1 71.0273C115.522 72.9434 112.948 74.7526 110.391 76.3574C110.234 76.4564 110.232 76.5728 110.25 76.6299C110.26 76.6631 110.28 76.688 110.306 76.7041C110.33 76.7187 110.381 76.7402 110.477 76.7266C112.467 76.4423 115.15 75.857 117.803 74.7217C118.001 74.6371 118.197 74.5505 118.391 74.4668C118.431 74.4195 118.481 74.38 118.54 74.3506C118.762 74.2394 118.991 73.947 119.153 73.4785C119.31 73.0246 119.374 72.4832 119.332 71.999C119.288 71.4981 119.14 71.1472 118.965 70.9824C118.887 70.9096 118.803 70.8704 118.7 70.8623ZM106.572 66.7744C108.043 66.7746 109.235 67.9676 109.235 69.4385C109.235 70.9097 108.043 75.145 106.572 75.1455C105.101 75.1455 103.908 70.9098 103.908 69.4385C103.908 67.9675 105.101 66.7744 106.572 66.7744ZM106.572 67.7021C105.613 67.7021 104.836 68.4797 104.836 69.4385C104.836 70.02 105.096 71.3278 105.553 72.5078C105.779 73.0906 106.029 73.5775 106.274 73.9004C106.424 74.0984 106.526 74.1745 106.572 74.2031C106.619 74.1743 106.72 74.0981 106.87 73.9004C107.115 73.5775 107.365 73.0906 107.591 72.5078C108.048 71.3278 108.307 70.02 108.307 69.4385C108.307 68.4798 107.531 67.7023 106.572 67.7021ZM91.6423 68.5186C91.5653 68.5265 91.479 68.5662 91.3845 68.6807C91.1755 68.934 91.0144 69.459 91.0144 70.1514C91.0144 70.8247 91.168 71.572 91.488 72.207C91.7597 72.7458 92.1415 73.1833 92.6335 73.4463C92.87 73.5494 93.1095 73.6513 93.3503 73.7559C93.1564 73.1811 93.0804 72.52 93.1326 71.9189C93.1841 71.326 93.3696 70.7007 93.7888 70.3066C93.8708 70.2297 93.9605 70.1618 94.0583 70.1064C93.4667 69.6596 92.8745 69.2084 92.283 68.7529C92.2199 68.7425 92.158 68.7194 92.1013 68.6816C91.8752 68.5309 91.7262 68.51 91.6423 68.5186ZM121.747 68.5186C121.663 68.5099 121.514 68.5309 121.288 68.6816C121.231 68.7197 121.168 68.7427 121.104 68.7529C120.513 69.2084 119.921 69.6596 119.329 70.1064C119.427 70.162 119.518 70.2293 119.6 70.3066C120.02 70.7007 120.204 71.326 120.256 71.9189C120.308 72.5201 120.231 73.1811 120.037 73.7559C120.278 73.6511 120.518 73.5486 120.755 73.4453C121.247 73.1823 121.628 72.7459 121.9 72.207C122.22 71.5719 122.374 70.8248 122.374 70.1514C122.374 69.4591 122.214 68.934 122.005 68.6807C121.91 68.5662 121.824 68.5265 121.747 68.5186ZM87.2537 65.0146C87.2397 65.0207 87.1584 65.0699 87.0759 65.3008C86.912 65.7602 86.8765 66.5788 87.0154 67.5449C87.1521 68.496 87.4477 69.5206 87.8835 70.3652C88.3256 71.222 88.874 71.8236 89.4773 72.0498C89.5104 72.0622 89.5407 72.079 89.5691 72.0977C89.9185 72.2526 90.2731 72.4088 90.6326 72.5674C90.2592 71.8015 90.0877 70.9326 90.0876 70.1514C90.0876 69.3693 90.2595 68.5856 90.6687 68.0898C90.7698 67.9673 90.8892 67.8596 91.0251 67.7754C89.9281 66.9217 88.8302 66.0605 87.7361 65.1943C87.6666 65.1858 87.5972 65.1636 87.5349 65.1221C87.4275 65.0505 87.3532 65.0234 87.3093 65.0146C87.2714 65.0071 87.257 65.0133 87.2537 65.0146ZM126.08 65.0146C126.036 65.0234 125.961 65.0503 125.853 65.1221C125.791 65.1639 125.721 65.186 125.651 65.1943C124.557 66.0603 123.46 66.9219 122.363 67.7754C122.499 67.8595 122.618 67.9673 122.719 68.0898C123.129 68.5856 123.302 69.3693 123.302 70.1514C123.301 70.9328 123.128 71.8013 122.755 72.5674C123.114 72.4088 123.469 72.2526 123.818 72.0977C123.847 72.0787 123.878 72.0624 123.912 72.0498C124.515 71.8235 125.064 71.2219 125.506 70.3652C125.941 69.5206 126.237 68.4959 126.374 67.5449C126.513 66.5789 126.477 65.7602 126.313 65.3008C126.23 65.0677 126.147 65.0199 126.135 65.0146C126.131 65.0133 126.118 65.0071 126.08 65.0146ZM81.5935 60.4209C81.5538 60.4441 81.4483 60.5506 81.3611 60.8652C81.1929 61.4722 81.1908 62.507 81.4451 63.7324C81.952 66.1752 83.4177 69.1117 86.0984 70.5469C86.4582 70.7082 86.824 70.8711 87.1951 71.0371C87.1488 70.9555 87.1024 70.8735 87.0593 70.79C86.5679 69.8374 86.246 68.7109 86.0974 67.6777C85.951 66.6599 85.9627 65.6605 86.2029 64.9883C86.2894 64.7461 86.4239 64.4969 86.6335 64.3203C86.2998 64.0555 85.9659 63.791 85.6326 63.5264C84.3394 62.4996 83.0488 61.4771 81.7654 60.4688C81.6991 60.432 81.6568 60.4178 81.6335 60.415C81.6114 60.4124 81.6031 60.4153 81.5935 60.4209ZM131.755 60.415C131.731 60.4179 131.688 60.4317 131.622 60.4688C130.339 61.4769 129.048 62.4997 127.756 63.5264C127.422 63.7912 127.088 64.0553 126.754 64.3203C126.964 64.497 127.1 64.7457 127.186 64.9883C127.426 65.6605 127.438 66.6599 127.292 67.6777C127.143 68.7109 126.821 69.8374 126.33 70.79C126.287 70.8737 126.239 70.9553 126.192 71.0371C126.563 70.8711 126.929 70.7082 127.289 70.5469C129.97 69.112 131.436 66.1756 131.943 63.7324C132.197 62.507 132.196 61.4723 132.028 60.8652C131.941 60.551 131.835 60.4443 131.796 60.4209C131.786 60.4152 131.777 60.4123 131.755 60.415ZM74.4636 54.9287C74.4583 54.9289 74.4399 54.9314 74.4031 54.9629C74.2999 55.0514 74.1565 55.285 74.0447 55.7295C73.8279 56.5915 73.798 57.9601 74.0759 59.5117C74.5949 62.4091 76.1518 65.7629 79.2888 67.5195C80.4653 68.0319 81.6975 68.5767 83.0007 69.1602C81.6709 67.5552 80.8868 65.6025 80.5378 63.9209C80.2691 62.6257 80.2435 61.4253 80.4675 60.6172C80.5512 60.3153 80.6857 60.0116 80.9041 59.793C79.5102 58.7038 78.1244 57.6348 76.7478 56.6045C75.9842 56.033 75.2214 55.4753 74.4636 54.9287ZM138.248 55.416C137.713 55.8061 137.178 56.2024 136.64 56.6045C135.264 57.635 133.877 58.7036 132.483 59.793C132.702 60.0116 132.838 60.3149 132.922 60.6172C133.146 61.4253 133.12 62.6257 132.851 63.9209C132.502 65.6028 131.717 67.5551 130.386 69.1602C131.69 68.5767 132.922 68.0319 134.098 67.5195C137.236 65.763 138.794 62.4094 139.313 59.5117C139.591 57.96 139.56 56.5915 139.344 55.7295C139.232 55.2852 139.089 55.0514 138.986 54.9629C138.948 54.9299 138.929 54.9288 138.925 54.9287L138.248 55.416ZM66.5281 65.2539C66.8507 65.2539 67.0743 65.5762 66.9656 65.8799C66.8077 66.3198 66.6569 66.7634 66.5134 67.21C66.4511 67.4038 66.2708 67.5361 66.0671 67.5361C65.7546 67.536 65.5312 67.2342 65.6267 66.9365C65.7755 66.4731 65.9315 66.013 66.0955 65.5566C66.1609 65.3745 66.3345 65.2539 66.5281 65.2539ZM146.615 65.2539C146.809 65.2539 146.982 65.3745 147.048 65.5566C147.212 66.0131 147.369 66.473 147.517 66.9365C147.613 67.2342 147.389 67.5361 147.076 67.5361C146.872 67.536 146.693 67.4037 146.631 67.21C146.487 66.7634 146.336 66.3198 146.178 65.8799C146.07 65.5763 146.293 65.2542 146.615 65.2539ZM129.369 53.4326C129.593 53.3081 129.875 53.3887 130 53.6123C130.124 53.8359 130.044 54.1185 129.82 54.2432C123.095 57.9938 117.473 64.3477 115.511 67.0469C115.361 67.2541 115.07 67.3 114.863 67.1494C114.656 66.9988 114.61 66.709 114.76 66.502C116.768 63.7388 122.486 57.2714 129.369 53.4326ZM82.9568 52.8516C83.0815 52.6279 83.364 52.5472 83.5876 52.6719C90.4704 56.5105 96.1871 62.9779 98.1951 65.7412C98.3456 65.9484 98.2997 66.2381 98.0925 66.3887C97.8854 66.5392 97.5956 66.4933 97.4451 66.2861C95.4837 63.587 89.8604 57.233 83.1355 53.4824C82.912 53.3577 82.8322 53.0752 82.9568 52.8516ZM67.1101 50.0977C66.5867 49.9366 66.178 49.9831 65.8591 50.1455C65.533 50.3118 65.2433 50.6286 65.0212 51.1094C64.5719 52.0822 64.4536 53.6139 64.7996 55.3672C65.4885 58.858 67.9708 62.988 72.74 64.8223C72.7964 64.8441 72.8456 64.8763 72.8875 64.915C73.9671 65.3088 75.0682 65.7412 76.2117 66.2109C74.4828 64.2708 73.5469 61.8194 73.1628 59.6748C72.8701 58.0402 72.8875 56.5314 73.1462 55.5029C73.257 55.0629 73.4253 54.6498 73.6853 54.3672C71.4831 52.8027 69.3072 51.3626 67.1648 50.1084C67.1467 50.1051 67.1281 50.1032 67.1101 50.0977ZM147.529 50.1455C147.21 49.9831 146.802 49.9367 146.279 50.0977C146.26 50.1034 146.241 50.1051 146.222 50.1084C144.08 51.3626 141.904 52.8027 139.702 54.3672C139.962 54.6498 140.132 55.0624 140.243 55.5029C140.502 56.5314 140.519 58.0402 140.226 59.6748C139.842 61.8191 138.906 64.2699 137.177 66.21C138.321 65.7404 139.421 65.3077 140.501 64.9141C140.543 64.8753 140.593 64.844 140.649 64.8223C145.418 62.988 147.9 58.858 148.589 55.3672C148.935 53.6138 148.816 52.0822 148.367 51.1094C148.145 50.6285 147.855 50.3117 147.529 50.1455ZM89.8523 50.501C90.0147 50.3032 90.3067 50.2744 90.5046 50.4365C95.9667 54.9151 99.9895 61.5481 101.326 64.3154C101.437 64.546 101.341 64.8232 101.11 64.9346C100.879 65.0459 100.602 64.9494 100.491 64.7188C99.1889 62.0224 95.2386 55.518 89.9167 51.1543C89.7187 50.9919 89.6899 50.699 89.8523 50.501ZM122.452 50.4365C122.65 50.2745 122.942 50.3032 123.104 50.501C123.267 50.699 123.238 50.9919 123.04 51.1543C117.718 55.5179 113.768 62.0224 112.466 64.7188C112.354 64.9493 112.077 65.0458 111.846 64.9346C111.616 64.8232 111.519 64.546 111.631 64.3154C112.967 61.5481 116.99 54.915 122.452 50.4365ZM57.2058 45.7891C56.9867 45.8066 56.7915 45.874 56.616 45.9785C56.2432 46.2007 55.9039 46.6253 55.6414 47.2568C55.1153 48.5226 54.9658 50.4599 55.3367 52.5693C55.5558 53.8155 55.9525 55.098 56.5417 56.3154C56.6131 56.3879 56.6547 56.4777 56.6687 56.5713C58.0952 59.3653 60.5642 61.7699 64.2927 62.5156C64.3527 62.5276 64.4076 62.5514 64.4558 62.583C65.92 62.847 67.3282 63.1751 68.7283 63.5674C65.9683 61.3304 64.4253 58.257 63.8904 55.5469C63.523 53.6857 63.6182 51.9357 64.1794 50.7207C64.4626 50.1078 64.8782 49.604 65.4392 49.3184C65.4993 49.2878 65.5606 49.2603 65.6228 49.2354C65.1343 48.9686 64.6475 48.7125 64.1628 48.4678C61.7847 47.2672 59.4626 46.3483 57.2058 45.7891ZM156.181 45.7891C153.925 46.3483 151.603 47.2674 149.225 48.4678C148.74 48.7127 148.253 48.9694 147.764 49.2363C147.827 49.2614 147.889 49.2875 147.95 49.3184C148.511 49.604 148.926 50.1078 149.209 50.7207C149.77 51.9357 149.866 53.6857 149.499 55.5469C148.964 58.2571 147.42 61.3304 144.66 63.5674C146.06 63.1751 147.468 62.847 148.931 62.583C148.98 62.5511 149.035 62.5277 149.095 62.5156C152.824 61.7699 155.292 59.3651 156.719 56.5713C156.733 56.4766 156.776 56.3854 156.848 56.3125H156.847C157.436 55.0959 157.833 53.8145 158.052 52.5693C158.422 50.4599 158.273 48.5226 157.747 47.2568C157.484 46.6255 157.146 46.2007 156.773 45.9785C156.597 45.8737 156.401 45.8065 156.181 45.7891ZM57.406 59.4932C56.9972 59.0843 56.1549 58.8817 55.1746 59.2227C54.3111 59.5231 53.3726 60.2447 52.6716 61.5635C53.0751 61.6836 53.4946 61.7471 53.9285 61.7471C56.3173 61.7471 58.4631 61.843 60.4578 62.0352C59.335 61.3688 58.3782 60.5367 57.5769 59.5996C57.5147 59.5772 57.4558 59.5429 57.406 59.4932ZM158.214 59.2227C157.233 58.8817 156.391 59.0843 155.982 59.4932C155.932 59.5432 155.873 59.5773 155.81 59.5996C155.009 60.5367 154.052 61.3689 152.929 62.0352C154.924 61.8429 157.07 61.7471 159.46 61.7471C159.893 61.7471 160.312 61.6834 160.716 61.5635C160.015 60.2449 159.077 59.523 158.214 59.2227ZM54.8572 56.5293C54.3782 56.4554 53.7996 56.4803 53.1892 56.6387C51.9733 56.9543 50.6545 57.7945 49.7683 59.3896C49.7632 59.3989 49.7554 59.4063 49.7498 59.415C50.3545 60.1901 51.0457 60.8064 51.8093 61.21C52.6108 59.6585 53.7408 58.7395 54.8699 58.3467C55.4218 58.1547 55.9832 58.0888 56.4998 58.1426C56.2394 57.7337 56.0035 57.3132 55.7898 56.8857C55.5866 56.7276 55.2728 56.5935 54.8572 56.5293ZM160.199 56.6387C159.589 56.4803 159.011 56.4555 158.532 56.5293C158.115 56.5936 157.801 56.7281 157.597 56.8867C157.384 57.3139 157.148 57.7339 156.887 58.1426C157.404 58.0886 157.966 58.1546 158.518 58.3467C159.647 58.7395 160.776 59.6587 161.578 61.21C162.342 60.8065 163.033 60.1901 163.637 59.415C163.632 59.4065 163.625 59.3987 163.62 59.3896C162.734 57.7945 161.415 56.9543 160.199 56.6387ZM51.5798 53.7295C50.2078 53.8153 48.7988 54.396 47.9363 55.8477C48.2461 56.8301 48.6616 57.7612 49.1697 58.5811C50.18 56.9791 51.6058 56.0917 52.9558 55.7412C53.677 55.554 54.383 55.5185 54.9978 55.6133C55.0811 55.6261 55.1638 55.6412 55.2449 55.6592C55.113 55.3221 54.9952 54.9827 54.8894 54.6436C54.8363 54.621 54.7862 54.5892 54.7429 54.5459C54.535 54.338 54.1188 54.1058 53.5388 53.9385C52.9699 53.7744 52.286 53.6854 51.5798 53.7295ZM161.809 53.7295C161.103 53.6854 160.419 53.7744 159.85 53.9385C159.27 54.1058 158.854 54.338 158.646 54.5459C158.602 54.5899 158.551 54.6219 158.497 54.6445C158.391 54.9832 158.275 55.3225 158.143 55.6592C158.224 55.6412 158.307 55.6261 158.39 55.6133C159.005 55.5184 159.711 55.554 160.432 55.7412C161.782 56.0917 163.207 56.9794 164.218 58.5811C164.726 57.7608 165.142 56.8296 165.452 55.8467C164.589 54.3959 163.181 53.8153 161.809 53.7295ZM51.113 50.5908C49.6645 50.4098 48.2635 50.6978 47.4568 51.8271C47.4147 51.8859 47.3601 51.9295 47.3005 51.9619C47.3071 52.4357 47.3404 52.9179 47.4011 53.4023C47.455 53.8321 47.5296 54.2613 47.6238 54.6855C48.6819 53.412 50.1534 52.8893 51.5222 52.8037C52.3378 52.7528 53.1281 52.8544 53.7957 53.0469C54.0591 53.1229 54.3105 53.2165 54.5408 53.3232C54.4976 53.1246 54.4581 52.927 54.4236 52.7305C54.3699 52.4254 54.3266 52.1216 54.2927 51.8213C54.0524 51.6077 53.6423 51.3548 53.1062 51.1279C52.5238 50.8815 51.8278 50.6802 51.113 50.5908ZM165.931 51.8271C165.125 50.6979 163.725 50.4098 162.276 50.5908C161.561 50.6802 160.865 50.8815 160.282 51.1279C159.745 51.355 159.335 51.6076 159.094 51.8213C159.061 52.1215 159.019 52.4254 158.966 52.7305C158.931 52.9271 158.89 53.1245 158.846 53.3232C159.077 53.2163 159.329 53.123 159.593 53.0469C160.26 52.8543 161.051 52.7527 161.867 52.8037C163.235 52.8893 164.705 53.4121 165.763 54.6846C165.858 54.2605 165.933 53.8319 165.987 53.4023C166.048 52.9179 166.08 52.4357 166.087 51.9619C166.027 51.9295 165.973 51.8857 165.931 51.8271ZM106.572 37.0977C118.592 37.0977 129.46 42.0302 137.262 49.9814C137.345 50.0662 137.391 50.1802 137.391 50.2988C137.391 50.7132 136.88 50.9158 136.59 50.6201C128.956 42.8466 118.327 38.0245 106.572 38.0244C94.4252 38.0244 83.4806 43.1729 75.8015 51.4062C75.5152 51.7132 74.991 51.5135 74.991 51.0938C74.9911 50.9794 75.0341 50.8689 75.1121 50.7852C82.961 42.3636 94.1518 37.0977 106.572 37.0977ZM51.2029 47.502C49.7801 47.4561 48.4715 47.8324 47.8464 48.7695C47.806 48.8303 47.7522 48.8767 47.6931 48.9111C47.5347 49.4332 47.4261 49.9924 47.363 50.5752C48.4532 49.6679 49.92 49.5066 51.2273 49.6699C52.0343 49.7708 52.8135 49.9977 53.4675 50.2744C53.7324 50.3865 53.9826 50.5098 54.2097 50.6396C54.1887 49.864 54.2357 49.1248 54.3513 48.4502C54.1388 48.2435 53.7249 48.0149 53.1511 47.8311C52.5803 47.6482 51.8976 47.5244 51.2029 47.502ZM162.185 47.502C161.491 47.5244 160.808 47.6482 160.237 47.8311C159.663 48.0151 159.248 48.2434 159.036 48.4502C159.151 49.1245 159.199 49.8633 159.178 50.6387C159.405 50.5089 159.656 50.3864 159.921 50.2744C160.575 49.9977 161.354 49.7708 162.161 49.6699C163.468 49.5066 164.934 49.6684 166.024 50.5752C165.961 49.9923 165.853 49.4333 165.694 48.9111C165.635 48.8767 165.582 48.83 165.542 48.7695C164.917 47.8325 163.608 47.4561 162.185 47.502ZM127.983 49.1533C128.239 49.1533 128.447 49.3612 128.447 49.6172C128.447 49.8733 128.239 50.0811 127.983 50.0811C127.727 50.0809 127.52 49.8732 127.52 49.6172C127.52 49.3613 127.727 49.1535 127.983 49.1533ZM125.201 47.2988C125.457 47.2988 125.665 47.5066 125.665 47.7627C125.665 48.0188 125.457 48.2266 125.201 48.2266C124.945 48.2264 124.738 48.0187 124.738 47.7627C124.738 47.5067 124.945 47.299 125.201 47.2988ZM52.4724 45.1729C50.7066 45.1729 49.4567 45.8809 48.6238 47.0059C49.433 46.6581 50.3664 46.5473 51.2322 46.5752C52.0118 46.6003 52.7805 46.7378 53.4343 46.9473C53.8595 47.0835 54.2572 47.2582 54.5828 47.4648C54.643 47.2682 54.7106 47.0801 54.7849 46.9014C55.0208 46.3338 55.3375 45.8388 55.7429 45.4766C54.6359 45.2789 53.5455 45.1729 52.4724 45.1729ZM160.916 45.1729C159.843 45.1729 158.752 45.2789 157.645 45.4766C158.051 45.8388 158.367 46.3338 158.603 46.9014C158.678 47.08 158.744 47.2683 158.804 47.4648C159.13 47.258 159.528 47.0836 159.954 46.9473C160.608 46.7378 161.376 46.6003 162.156 46.5752C163.022 46.5473 163.955 46.659 164.764 47.0068C163.931 45.8816 162.682 45.1729 160.916 45.1729ZM91.8142 45.4443C92.0703 45.4443 92.2781 45.6521 92.2781 45.9082C92.2779 46.1641 92.0702 46.3711 91.8142 46.3711C91.5583 46.371 91.3506 46.1641 91.3503 45.9082C91.3503 45.6521 91.5582 45.4444 91.8142 45.4443ZM93.6707 44.5498C101.651 41.7898 110.405 41.7638 118.442 44.5498C118.963 44.7304 118.827 45.4443 118.276 45.4443C118.22 45.4443 118.164 45.4344 118.11 45.416C110.287 42.7116 101.77 42.7367 94.0027 45.416C93.9493 45.4344 93.8931 45.4443 93.8367 45.4443C93.2851 45.4443 93.1494 44.7301 93.6707 44.5498Z" fill="url(#paint0_linear_1465_17765)"/>
<path d="M181.794 104.581C181.794 105.478 181.943 106.306 182.242 107.067C182.541 107.801 182.948 108.453 183.465 109.023C183.981 109.567 184.592 110.002 185.299 110.328C186.032 110.626 186.834 110.776 187.703 110.776C188.627 110.776 189.456 110.613 190.189 110.287C190.923 109.961 191.548 109.526 192.064 108.983C192.608 108.412 193.015 107.76 193.287 107.026C193.586 106.266 193.735 105.451 193.735 104.581V90.7242C193.735 89.7732 193.545 88.8766 193.165 88.0343C192.784 87.192 192.268 86.3769 191.616 85.589C190.991 84.801 190.271 84.0403 189.456 83.3067C188.641 82.5731 187.812 81.8531 186.97 81.1466C185.964 80.3043 184.959 79.4485 183.954 78.579C182.976 77.7096 182.093 76.7858 181.305 75.8077C180.544 74.8295 179.919 73.7835 179.43 72.6695C178.968 71.5555 178.737 70.3192 178.737 68.9607V63.9886C178.737 62.6844 178.968 61.4889 179.43 60.4021C179.919 59.2881 180.571 58.3507 181.386 57.5899C182.201 56.802 183.152 56.1907 184.239 55.7559C185.353 55.3212 186.521 55.1038 187.744 55.1038C189.048 55.1038 190.244 55.3348 191.331 55.7967C192.445 56.2586 193.409 56.8971 194.224 57.7122C195.039 58.5001 195.664 59.4375 196.099 60.5243C196.561 61.584 196.792 62.7387 196.792 63.9886V72.3434H193.735V64.0293C193.735 63.1327 193.586 62.3176 193.287 61.584C192.988 60.8232 192.58 60.1711 192.064 59.6277C191.548 59.0571 190.923 58.6224 190.189 58.3235C189.456 57.9975 188.668 57.8345 187.826 57.8345C186.902 57.8345 186.059 57.9975 185.299 58.3235C184.565 58.6496 183.94 59.0979 183.424 59.6685C182.908 60.2119 182.5 60.864 182.201 61.6247C181.93 62.3583 181.794 63.1599 181.794 64.0293V68.9607C181.794 69.966 181.998 70.917 182.405 71.8136C182.813 72.6831 183.342 73.5253 183.995 74.3405C184.674 75.1284 185.435 75.8892 186.277 76.6228C187.119 77.3564 187.975 78.09 188.844 78.8236C189.823 79.6387 190.787 80.481 191.738 81.3504C192.689 82.2199 193.531 83.1437 194.265 84.1218C195.026 85.0999 195.637 86.1324 196.099 87.2192C196.561 88.306 196.792 89.4743 196.792 90.7242V104.622C196.792 105.926 196.547 107.121 196.058 108.208C195.596 109.295 194.958 110.232 194.143 111.02C193.328 111.808 192.363 112.42 191.249 112.854C190.162 113.289 188.994 113.507 187.744 113.507C186.44 113.507 185.231 113.276 184.117 112.814C183.03 112.352 182.079 111.727 181.264 110.939C180.476 110.151 179.851 109.214 179.389 108.127C178.954 107.04 178.737 105.872 178.737 104.622V95.8186H181.794V104.581ZM220.593 102.013C220.593 103.508 220.457 104.948 220.185 106.334C219.914 107.719 219.425 108.942 218.718 110.002C218.039 111.061 217.102 111.917 215.906 112.569C214.738 113.194 213.257 113.507 211.464 113.507C209.779 113.507 208.366 113.208 207.225 112.61C206.084 111.985 205.16 111.156 204.454 110.124C203.775 109.091 203.285 107.882 202.987 106.497C202.688 105.084 202.538 103.589 202.538 102.013V55.919H205.595V103.358C205.595 104.337 205.69 105.274 205.88 106.171C206.098 107.04 206.437 107.828 206.899 108.534C207.388 109.214 208.013 109.757 208.774 110.165C209.535 110.572 210.486 110.776 211.627 110.776C212.714 110.776 213.624 110.586 214.357 110.205C215.118 109.798 215.73 109.254 216.191 108.575C216.653 107.896 216.993 107.108 217.21 106.211C217.428 105.315 217.536 104.364 217.536 103.358V55.919H220.593V102.013ZM245.25 73.2808C245.25 75.6175 244.843 77.5058 244.027 78.9458C243.239 80.3587 242.302 81.3912 241.215 82.0433C241.704 82.3965 242.193 82.804 242.683 83.2659C243.172 83.7278 243.606 84.2984 243.987 84.9776C244.367 85.6569 244.666 86.472 244.883 87.423C245.128 88.3468 245.25 89.4472 245.25 90.7242V100.832C245.25 101.728 245.237 102.652 245.209 103.603C245.182 104.527 245.06 105.437 244.843 106.334C244.652 107.203 244.34 108.032 243.905 108.82C243.498 109.58 242.9 110.246 242.112 110.817C241.324 111.387 240.332 111.849 239.137 112.202C237.941 112.528 236.46 112.691 234.694 112.691H227.155V67.7788C227.155 66.8822 227.168 65.9584 227.195 65.0074C227.25 64.0565 227.372 63.1463 227.562 62.2768C227.752 61.4074 228.065 60.5923 228.5 59.8315C228.934 59.0435 229.532 58.3643 230.293 57.7937C231.081 57.196 232.072 56.7341 233.268 56.408C234.491 56.082 235.985 55.919 237.751 55.919H245.25V73.2808ZM230.211 83.3067V109.961H233.798C235.265 109.961 236.515 109.839 237.547 109.594C238.607 109.349 239.476 108.928 240.156 108.331C240.862 107.733 241.378 106.931 241.704 105.926C242.03 104.921 242.193 103.657 242.193 102.136V91.1317C242.193 88.306 241.677 86.2954 240.645 85.0999C239.639 83.9044 238.118 83.3067 236.08 83.3067H230.211ZM236.08 80.5761C238.199 80.5761 239.748 79.9104 240.726 78.579C241.704 77.2477 242.193 75.305 242.193 72.751V58.6496H238.607C237.167 58.6496 235.917 58.7718 234.857 59.0164C233.798 59.2609 232.915 59.6821 232.208 60.2798C231.529 60.8504 231.026 61.6383 230.7 62.6436C230.374 63.6489 230.211 64.9123 230.211 66.4339V80.5761H236.08ZM266.728 55.919V58.6496H259.188V112.691H256.132V58.6496H248.551V55.919H266.728Z" fill="#333333"/>
<defs>
<linearGradient id="paint0_linear_1465_17765" x1="46.3709" y1="47.7629" x2="173.89" y2="121.957" gradientUnits="userSpaceOnUse">
<stop stop-color="#0E8B84"/>
<stop offset="1" stop-color="#052E2C"/>
</linearGradient>
</defs>
</svg>
