<svg width="110" height="64" viewBox="0 0 110 64" fill="none" xmlns="http://www.w3.org/2000/svg">
<g clip-path="url(#clip0_1071_8020)">
<path fill-rule="evenodd" clip-rule="evenodd" d="M16.8343 34.6597L11.8374 33.3304L22.0647 29.4141L18.1133 39.6242L16.8343 34.6597ZM20.8559 30.7197L17.7803 33.8042L18.3216 36.512L20.8559 30.7197Z" fill="white"/>
<path fill-rule="evenodd" clip-rule="evenodd" d="M17.8837 21L16.4245 22.4634L14.9653 21L3 33L14.9653 45L16.4245 43.5366L17.8837 45L29.8489 33L17.8837 21ZM17.8837 23.0488L27.8061 33L17.8837 42.9512L7.96127 33.0001L17.8837 23.0488Z" fill="white"/>
<path d="M35.4331 32.7905C35.4331 33.577 35.5603 34.3211 35.8359 35.0013C36.1114 35.6815 36.4717 36.2768 36.9169 36.7657C37.362 37.2547 37.8707 37.6373 38.443 37.9137C39.0153 38.19 39.6088 38.3389 40.2235 38.3389C40.7534 38.3389 41.2198 38.2538 41.6013 38.0838C41.9829 37.9137 42.3008 37.7224 42.5551 37.5098C42.8519 37.2547 43.1062 36.9783 43.297 36.6594H43.509V37.9349H45.5226V27.731H43.509V29.0065H43.297C43.1062 28.6877 42.8519 28.4113 42.5551 28.1562C42.3008 27.9436 41.9829 27.7523 41.6013 27.5822C41.2198 27.4122 40.7534 27.3271 40.2235 27.3271C39.6088 27.3271 39.0153 27.4759 38.443 27.7523C37.8707 28.0286 37.362 28.4113 36.9169 28.9002C36.4717 29.3892 36.1114 29.9844 35.8359 30.6647C35.5603 31.3449 35.4331 32.0889 35.4331 32.8755V32.7905ZM43.4878 31.4937V34.2573C43.2547 34.7037 43.0003 35.0863 42.7035 35.4265C42.4491 35.7241 42.1312 36.0004 41.7497 36.2343C41.3681 36.4681 40.923 36.5957 40.4355 36.5957C40.0327 36.5957 39.6512 36.5106 39.2909 36.3406C38.9305 36.1705 38.6126 35.9366 38.337 35.6178C38.0615 35.2989 37.8495 34.9163 37.6799 34.4486C37.5104 33.9809 37.4256 33.4707 37.4256 32.8968C37.4256 32.3228 37.5104 31.8126 37.6799 31.3449C37.8495 30.8773 38.0615 30.4946 38.337 30.1758C38.6126 29.8569 38.9305 29.623 39.2909 29.453C39.6512 29.2829 40.0327 29.1979 40.4355 29.1979C40.923 29.1979 41.3681 29.3254 41.7497 29.5805C42.1312 29.8356 42.4491 30.112 42.7035 30.3883C43.0003 30.7497 43.2547 31.1323 43.4878 31.5575V31.4937Z" fill="white"/>
<path d="M53.5656 29.4951V27.4756H53.2476C52.7601 27.4756 52.3362 27.5607 51.9758 27.7095C51.6155 27.8583 51.2975 28.0283 51.0432 28.2196C50.7464 28.4535 50.4921 28.7086 50.2801 28.9849H50.0682V27.7095H48.0544V37.9133H50.0682V31.4296C50.3013 31.0682 50.5557 30.7493 50.8524 30.473C51.1068 30.2391 51.4035 30.0266 51.7639 29.8352C52.1242 29.6439 52.5057 29.5376 52.9297 29.5376L53.5656 29.4951Z" fill="white"/>
<path d="M63.3177 37.8924V31.515C63.3177 30.771 63.5296 30.1758 63.9323 29.7293C64.3351 29.2829 64.8438 29.0703 65.4374 29.0703C66.0306 29.0703 66.5394 29.2829 66.9421 29.7293C67.3448 30.1758 67.557 30.771 67.557 31.515V37.8924H69.5705V31.515C69.5705 30.856 69.4644 30.2608 69.2739 29.7293C69.0834 29.1979 68.8073 28.7514 68.4685 28.3901C68.1291 28.0287 67.7475 27.7524 67.3237 27.561C66.8999 27.3697 66.4333 27.2847 65.9462 27.2847C65.3524 27.2847 64.865 27.3697 64.4623 27.5398C64.0595 27.7098 63.7416 27.9012 63.4872 28.1137C63.1905 28.3688 62.9573 28.6452 62.7666 28.964H62.5546C62.3638 28.6452 62.1306 28.3688 61.8551 28.1137C61.6219 27.9012 61.3252 27.7098 60.9648 27.5398C60.6045 27.3697 60.1806 27.2847 59.693 27.2847C59.2691 27.2847 58.9088 27.3697 58.5908 27.5398C58.2729 27.7098 58.0185 27.9012 57.8277 28.1137C57.5946 28.3688 57.4038 28.6452 57.2555 28.964H57.0435V27.6886H55.0298V37.8924H57.0435V31.3025C57.2131 30.8986 57.425 30.5372 57.6581 30.2183C57.8489 29.9419 58.0821 29.6868 58.3788 29.453C58.6756 29.2191 58.9935 29.1128 59.3539 29.1128C59.587 29.1128 59.8202 29.1766 60.0534 29.2829C60.2866 29.3892 60.4985 29.5593 60.6893 29.7718C60.8801 29.9844 61.0284 30.2395 61.1344 30.5372C61.2404 30.8348 61.2828 31.1749 61.2828 31.5363V37.9137L63.3177 37.8924Z" fill="white"/>
<path d="M71.3679 32.7905C71.3679 33.577 71.4951 34.3211 71.7706 35.0013C72.0461 35.6815 72.4066 36.2768 72.8521 36.7657C73.297 37.2547 73.8058 37.6373 74.3779 37.9137C74.9506 38.19 75.5438 38.3389 76.1587 38.3389C76.6886 38.3389 77.1545 38.2538 77.5361 38.0838C77.9177 37.9137 78.236 37.7224 78.4904 37.5098C78.787 37.2547 79.0414 36.9783 79.2319 36.6594H79.4441V37.9349H81.4576V27.731H79.4441V29.0065H79.2319C79.0414 28.6877 78.787 28.4113 78.4904 28.1562C78.236 27.9436 77.9177 27.7523 77.5361 27.5822C77.1545 27.4122 76.6886 27.3271 76.1587 27.3271C75.5438 27.3271 74.9506 27.4759 74.3779 27.7523C73.8058 28.0286 73.297 28.4113 72.8521 28.9002C72.4066 29.3892 72.0461 29.9844 71.7706 30.6647C71.4951 31.3449 71.3679 32.0889 71.3679 32.8755V32.7905ZM79.423 31.4937V34.2573C79.1897 34.7037 78.9353 35.0863 78.6387 35.4265C78.3843 35.7241 78.066 36.0004 77.6844 36.2343C77.3035 36.4681 76.8579 36.5957 76.3702 36.5957C75.9676 36.5957 75.586 36.5106 75.2261 36.3406C74.8656 36.1705 74.5479 35.9366 74.2718 35.6178C73.9963 35.2989 73.7847 34.9163 73.6147 34.4486C73.4453 33.9809 73.3609 33.4707 73.3609 32.8968C73.3609 32.3228 73.4453 31.8126 73.6147 31.3449C73.7847 30.8773 73.9963 30.4946 74.2718 30.1758C74.5479 29.8569 74.8656 29.623 75.2261 29.453C75.586 29.2829 75.9676 29.1979 76.3702 29.1979C76.8579 29.1979 77.3035 29.3254 77.6844 29.5805C78.066 29.8356 78.3843 30.112 78.6387 30.3883C78.9353 30.7497 79.1897 31.1323 79.423 31.5575V31.4937Z" fill="white"/>
<path d="M83.3531 32.5779C83.3531 33.3219 83.4803 34.0235 83.7558 34.6612C84.0313 35.2989 84.3918 35.8516 84.8373 36.3193C85.2822 36.787 85.791 37.1696 86.3631 37.446C86.9358 37.7224 87.529 37.8712 88.1439 37.8712C88.6738 37.8712 89.1397 37.7861 89.5213 37.6161C89.9029 37.446 90.2212 37.2547 90.475 37.0421C90.7722 36.787 91.0266 36.5106 91.2171 36.1917H91.4293V37.6798C91.4293 38.5939 91.1749 39.3167 90.6661 39.8481C90.1573 40.3796 89.5002 40.6559 88.6949 40.6559C87.9528 40.6559 87.3807 40.5071 86.978 40.1883C86.5753 39.8694 86.257 39.508 86.0454 39.0829L84.0313 39.4017C84.1585 39.8056 84.3496 40.1883 84.604 40.5497C84.8584 40.911 85.1761 41.2512 85.5577 41.5488C85.9393 41.8464 86.3842 42.0803 86.893 42.2503C87.4018 42.4204 87.9956 42.5054 88.6527 42.5054C89.352 42.5054 89.9879 42.3779 90.56 42.144C91.1321 41.9102 91.6409 41.5701 92.0653 41.1449C92.4891 40.7197 92.8279 40.2095 93.0612 39.6355C93.2945 39.0616 93.4217 38.4239 93.4217 37.7224V27.731H91.4082V29.0065H91.196C91.0055 28.6877 90.7511 28.4113 90.4539 28.1562C90.1995 27.9436 89.8818 27.7523 89.5002 27.5822C89.1187 27.4122 88.6527 27.3271 88.1228 27.3271C87.5079 27.3271 86.9141 27.4759 86.342 27.7523C85.7699 28.0286 85.2611 28.4113 84.8156 28.879C84.3707 29.3467 84.0102 29.9207 83.7347 30.5797C83.4592 31.2386 83.332 31.9401 83.332 32.6842L83.3531 32.5779ZM91.3865 31.515V33.8534C91.1538 34.2998 90.8994 34.6825 90.6022 35.0226C90.3484 35.3202 90.0301 35.5965 89.6485 35.8303C89.2669 36.0642 88.8221 36.1917 88.3344 36.1917C87.9317 36.1917 87.5501 36.1067 87.1896 35.9366C86.8297 35.7666 86.5114 35.5327 86.2359 35.2139C85.9604 34.895 85.7482 34.5337 85.5788 34.1085C85.4094 33.6833 85.3244 33.1944 85.3244 32.6629C85.3244 32.1315 85.4094 31.6638 85.5788 31.2386C85.7482 30.8135 85.9604 30.4521 86.2359 30.1332C86.5114 29.8144 86.8297 29.5805 87.1896 29.4105C87.5501 29.2404 87.9317 29.1554 88.3344 29.1554C88.8221 29.1554 89.2669 29.2829 89.6485 29.538C90.0301 29.7931 90.3484 30.0695 90.6022 30.3458C90.8994 30.7072 91.1538 31.0898 91.3865 31.515Z" fill="white"/>
<path d="M95.3384 32.7905C95.3384 33.577 95.4656 34.3211 95.7411 35.0013C96.0166 35.6815 96.3771 36.2768 96.8219 36.7657C97.2675 37.2547 97.7763 37.6373 98.3483 37.9137C98.9204 38.19 99.5142 38.3389 100.129 38.3389C100.659 38.3389 101.125 38.2538 101.507 38.0838C101.888 37.9137 102.206 37.7224 102.46 37.5098C102.757 37.2547 103.012 36.9783 103.202 36.6594H103.415V37.9349H105.428V27.731H103.415V29.0065H103.202C103.012 28.6877 102.757 28.4113 102.46 28.1562C102.206 27.9436 101.888 27.7523 101.507 27.5822C101.125 27.4122 100.659 27.3271 100.129 27.3271C99.5142 27.3271 98.9204 27.4759 98.3483 27.7523C97.7763 28.0286 97.2675 28.4113 96.8219 28.9002C96.3771 29.3892 96.0166 29.9844 95.7411 30.6647C95.4656 31.3449 95.3384 32.0889 95.3384 32.8755V32.7905ZM103.393 31.4937V34.2573C103.16 34.7037 102.906 35.0863 102.609 35.4265C102.355 35.7241 102.036 36.0004 101.655 36.2343C101.273 36.4681 100.828 36.5957 100.341 36.5957C99.938 36.5957 99.5564 36.5106 99.1965 36.3406C98.836 36.1705 98.5177 35.9366 98.2422 35.6178C97.9667 35.2989 97.7552 34.9163 97.5851 34.4486C97.4158 33.9809 97.3307 33.4707 97.3307 32.8968C97.3307 32.3228 97.4158 31.8126 97.5851 31.3449C97.7552 30.8773 97.9667 30.4946 98.2422 30.1758C98.5177 29.8569 98.836 29.623 99.1965 29.453C99.5564 29.2829 99.938 29.1979 100.341 29.1979C100.828 29.1979 101.273 29.3254 101.655 29.5805C102.036 29.8356 102.355 30.112 102.609 30.3883C102.906 30.7497 103.16 31.1323 103.393 31.5575V31.4937Z" fill="white"/>
</g>
<defs>
<clipPath id="clip0_1071_8020">
<rect width="103" height="24" fill="white" transform="translate(3 21)"/>
</clipPath>
</defs>
</svg>
