<svg width="110" height="64" viewBox="0 0 110 64" fill="none" xmlns="http://www.w3.org/2000/svg">
<path fill-rule="evenodd" clip-rule="evenodd" d="M32.3749 35.0687C32.3748 41.1848 27.1908 46.1429 20.7958 46.1429H4V27.783C4 21.8278 9.04792 17 15.2747 17H32.3749V35.0687ZM15.4051 22.7084C12.2078 22.7086 9.61615 25.1881 9.61615 28.246V40.4345H20.9698C24.1672 40.4344 26.7588 37.9549 26.7588 34.8968V22.7084H15.4051Z" fill="white"/>
<path d="M41.5381 31.7474V34.9458C41.8308 35.355 42.2137 35.6781 42.6866 35.915C43.1595 36.1519 43.6737 36.2704 44.2292 36.2704C45.0775 36.2704 45.7831 35.994 46.3461 35.4412C46.9091 34.8884 47.1906 34.192 47.1906 33.352C47.1906 32.5551 46.9204 31.8694 46.3799 31.2951C45.8469 30.7136 45.1563 30.4228 44.3081 30.4228C43.7451 30.4228 43.2196 30.5412 42.7316 30.7782C42.2512 31.0151 41.8534 31.3382 41.5381 31.7474ZM41.4255 38.6934H38.5429V23.0352H41.5381V28.7643C42.4239 28.1038 43.4748 27.7736 44.6909 27.7736C45.6893 27.7736 46.6089 28.0177 47.4496 28.5059C48.2904 28.9941 48.9547 29.6654 49.4427 30.5197C49.9381 31.3741 50.1858 32.3181 50.1858 33.352C50.1858 34.8022 49.7092 36.055 48.7558 37.1104C48.2529 37.6632 47.626 38.1011 46.8754 38.4242C46.1322 38.7473 45.3515 38.9088 44.5333 38.9088C43.3397 38.9088 42.3038 38.5499 41.4255 37.8319V38.6934Z" fill="white"/>
<path d="M60.6551 35.3658L62.3553 36.9919C61.8223 37.6022 61.1467 38.076 60.3285 38.4135C59.5103 38.7437 58.6583 38.9088 57.7725 38.9088C56.0759 38.9088 54.6759 38.3955 53.5724 37.3688C52.4689 36.3422 51.9172 35.0032 51.9172 33.352C51.9172 32.6125 52.0448 31.9053 52.3 31.2305C52.5628 30.5556 52.9231 29.9633 53.381 29.4536C53.8464 28.9367 54.4207 28.5274 55.1038 28.2259C55.7944 27.9244 56.5451 27.7736 57.3558 27.7736C58.3617 27.7736 59.2701 28.0249 60.0808 28.5274C60.8915 29.0228 61.5183 29.6869 61.9612 30.5197C62.4116 31.3525 62.6368 32.2607 62.6368 33.2443C62.6368 33.5458 62.6143 33.8186 62.5693 34.0627H54.8223C54.8974 34.8094 55.2202 35.4196 55.7907 35.8935C56.3612 36.3601 57.0443 36.5935 57.84 36.5935C58.418 36.5935 58.951 36.4714 59.439 36.2273C59.9344 35.9832 60.3398 35.6961 60.6551 35.3658ZM54.9574 31.9628H59.5741C59.529 31.4674 59.2963 31.033 58.8759 30.6597C58.4556 30.2792 57.9489 30.0889 57.3558 30.0889C56.7478 30.0889 56.2111 30.2756 55.7456 30.6489C55.2877 31.0223 55.025 31.4602 54.9574 31.9628Z" fill="white"/>
<path d="M68.0615 23.0352V38.6934H65.0663V23.0352H68.0615Z" fill="white"/>
<path d="M79.2288 35.3658L80.9291 36.9919C80.3961 37.6022 79.7205 38.076 78.9023 38.4135C78.0841 38.7437 77.232 38.9088 76.3463 38.9088C74.6497 38.9088 73.2497 38.3955 72.1462 37.3688C71.0427 36.3422 70.491 35.0032 70.491 33.352C70.491 32.6125 70.6186 31.9053 70.8738 31.2305C71.1366 30.5556 71.4969 29.9633 71.9548 29.4536C72.4202 28.9367 72.9945 28.5274 73.6776 28.2259C74.3682 27.9244 75.1189 27.7736 75.9296 27.7736C76.9355 27.7736 77.8438 28.0249 78.6546 28.5274C79.4653 29.0228 80.0921 29.6869 80.535 30.5197C80.9854 31.3525 81.2106 32.2607 81.2106 33.2443C81.2106 33.5458 81.1881 33.8186 81.1431 34.0627H73.3961C73.4712 34.8094 73.794 35.4196 74.3645 35.8935C74.935 36.3601 75.6181 36.5935 76.4138 36.5935C76.9918 36.5935 77.5248 36.4714 78.0128 36.2273C78.5082 35.9832 78.9136 35.6961 79.2288 35.3658ZM73.5312 31.9628H78.1479C78.1028 31.4674 77.8701 31.033 77.4497 30.6597C77.0294 30.2792 76.5227 30.0889 75.9296 30.0889C75.3216 30.0889 74.7848 30.2756 74.3194 30.6489C73.8615 31.0223 73.5988 31.4602 73.5312 31.9628Z" fill="white"/>
<path d="M91.5897 34.9458V31.7474C91.2745 31.3382 90.8729 31.0151 90.3849 30.7782C89.9045 30.5412 89.3828 30.4228 88.8198 30.4228C87.9715 30.4228 87.2771 30.7136 86.7366 31.2951C86.2037 31.8694 85.9372 32.5551 85.9372 33.352C85.9372 34.192 86.2149 34.8884 86.7704 35.4412C87.3334 35.994 88.0391 36.2704 88.8873 36.2704C89.4428 36.2704 89.957 36.1519 90.43 35.915C90.9104 35.6709 91.297 35.3478 91.5897 34.9458ZM94.5849 27.9997V38.6934H91.7024V37.8319C90.8241 38.5499 89.7844 38.9088 88.5833 38.9088C87.7651 38.9088 86.9844 38.7473 86.2412 38.4242C85.498 38.1011 84.875 37.6632 84.372 37.1104C83.4187 36.055 82.942 34.8022 82.942 33.352C82.942 31.7797 83.475 30.4587 84.5409 29.389C85.6069 28.312 86.9018 27.7736 88.4257 27.7736C89.6718 27.7736 90.764 28.1362 91.7024 28.8613V27.9997H94.5849Z" fill="white"/>
<path d="M106 23.0137L105.538 25.4582C105.253 25.3864 104.957 25.3505 104.649 25.3505C103.883 25.3505 103.32 25.5552 102.96 25.9644C102.682 26.3018 102.543 26.869 102.543 27.6659V27.9997H106V30.4228H102.543V38.6934H99.548V30.4228H96.6654V27.9997H99.548V27.5582C99.548 25.9716 99.9458 24.8085 100.742 24.069C101.642 23.229 102.806 22.809 104.232 22.809C104.848 22.809 105.437 22.8772 106 23.0137Z" fill="white"/>
</svg>
