<svg width="1109" height="443" viewBox="0 0 1109 443" fill="none" xmlns="http://www.w3.org/2000/svg">
<g clip-path="url(#clip0_1152_8237)">
<g filter="url(#filter0_g_1152_8237)">
<circle cx="557.313" cy="583.162" r="511.046" transform="rotate(45 557.313 583.162)" fill="#C2C6D6"/>
</g>
<path opacity="0.3" fill-rule="evenodd" clip-rule="evenodd" d="M558.963 190.359C582.648 198.903 610.439 183.916 632.438 196.105C658.547 210.573 684.221 233.19 688.804 262.307C693.414 291.595 677.393 322.192 655.447 342.291C636.003 360.099 605.486 353.734 580.19 361.778C559.161 368.466 542.222 386.679 520.119 385.325C496.58 383.883 477.774 367.848 458.523 354.324C433.879 337.012 402.493 324.05 392.75 295.849C382.389 265.86 391.889 232.372 406.736 204.43C421.861 175.967 443.251 142.601 475.78 139.595C508.957 136.528 527.592 179.042 558.963 190.359Z" fill="#E0E2EB"/>
<path opacity="0.8" fill-rule="evenodd" clip-rule="evenodd" d="M686.836 364.4C709.66 333.236 754.157 332.845 790.552 320.374C824.833 308.628 858.704 283.036 893.115 293.721C927.28 304.329 939.107 345.122 961.124 373.336C982.572 400.822 1012.1 422.518 1020.19 456.569C1029.26 494.694 1038.24 545.663 1008.11 571.003C975.961 598.043 927.296 562.99 885.998 569.441C858.502 573.735 838.795 602.373 811.022 601.789C779.672 601.13 749.851 587.161 726.737 566.092C700.994 542.626 681.952 512.289 675.157 477.942C667.61 439.794 663.743 395.933 686.836 364.4Z" fill="#A3A9C2"/>
<path opacity="0.8" fill-rule="evenodd" clip-rule="evenodd" d="M345.601 220.783C354.08 230.357 351.079 244.781 352.556 257.432C353.947 269.349 359.846 282.105 353.971 292.487C348.138 302.795 334.109 303.755 323.433 308.895C313.033 313.902 303.939 321.93 292.353 322.156C279.382 322.408 262.261 321.732 256.18 310.204C249.691 297.903 264.452 284.622 265.268 270.807C265.81 261.61 257.93 253.221 260.071 244.277C262.488 234.18 269.103 225.514 277.544 219.517C286.945 212.837 298.098 208.809 309.688 209.024C322.56 209.264 337.023 211.095 345.601 220.783Z" fill="#A3A9C2"/>
<path opacity="0.3" fill-rule="evenodd" clip-rule="evenodd" d="M797.355 209.652C799.361 215.691 806.682 218.866 807.7 225.14C808.909 232.587 808.432 241.221 803.367 246.683C798.272 252.177 789.691 253.779 782.269 252.563C775.693 251.486 772.186 244.431 766.634 240.666C762.019 237.536 755.754 237.02 752.567 232.419C749.174 227.519 749.418 221.278 749.094 215.341C748.679 207.741 746.346 199.482 750.422 193.139C754.757 186.393 762.892 183.044 770.762 181.624C778.779 180.178 788.748 179.209 794.43 185.198C800.226 191.306 794.697 201.653 797.355 209.652Z" fill="#E0E2EB"/>
</g>
<defs>
<filter id="filter0_g_1152_8237" x="28.7874" y="54.6351" width="1057.05" height="1057.05" filterUnits="userSpaceOnUse" color-interpolation-filters="sRGB">
<feFlood flood-opacity="0" result="BackgroundImageFix"/>
<feBlend mode="normal" in="SourceGraphic" in2="BackgroundImageFix" result="shape"/>
<feTurbulence type="fractalNoise" baseFrequency="0.038138452917337418 0.038138452917337418" numOctaves="3" seed="4051" />
<feDisplacementMap in="shape" scale="34.960342407226562" xChannelSelector="R" yChannelSelector="G" result="displacedImage" width="100%" height="100%" />
<feMerge result="effect1_texture_1152_8237">
<feMergeNode in="displacedImage"/>
</feMerge>
</filter>
<clipPath id="clip0_1152_8237">
<rect width="1109" height="443" fill="white"/>
</clipPath>
</defs>
</svg>
