<svg width="20" height="20" viewBox="0 0 20 20" fill="none" xmlns="http://www.w3.org/2000/svg">
<path d="M9.99996 18.3334C8.84718 18.3334 7.76385 18.1146 6.74996 17.6771C5.73607 17.2396 4.85413 16.6459 4.10413 15.8959C3.35413 15.1459 2.76038 14.2639 2.32288 13.25C1.88538 12.2361 1.66663 11.1528 1.66663 10C1.66663 8.84724 1.88538 7.76391 2.32288 6.75002C2.76038 5.73613 3.35413 4.85419 4.10413 4.10419C4.85413 3.35419 5.73607 2.76044 6.74996 2.32294C7.76385 1.88544 8.84718 1.66669 9.99996 1.66669C11.1527 1.66669 12.2361 1.88544 13.25 2.32294C14.2638 2.76044 15.1458 3.35419 15.8958 4.10419C16.6458 4.85419 17.2395 5.73613 17.677 6.75002C18.1145 7.76391 18.3333 8.84724 18.3333 10V11.2084C18.3333 12.0278 18.052 12.7257 17.4895 13.3021C16.927 13.8785 16.2361 14.1667 15.4166 14.1667C14.9305 14.1667 14.4722 14.0625 14.0416 13.8542C13.6111 13.6459 13.25 13.3472 12.9583 12.9584C12.5555 13.3611 12.1007 13.6632 11.5937 13.8646C11.0868 14.066 10.5555 14.1667 9.99996 14.1667C8.84718 14.1667 7.86454 13.7604 7.05204 12.9479C6.23954 12.1354 5.83329 11.1528 5.83329 10C5.83329 8.84724 6.23954 7.8646 7.05204 7.0521C7.86454 6.2396 8.84718 5.83335 9.99996 5.83335C11.1527 5.83335 12.1354 6.2396 12.9479 7.0521C13.7604 7.8646 14.1666 8.84724 14.1666 10V11.2084C14.1666 11.5695 14.2847 11.875 14.5208 12.125C14.7569 12.375 15.0555 12.5 15.4166 12.5C15.7777 12.5 16.0763 12.375 16.3125 12.125C16.5486 11.875 16.6666 11.5695 16.6666 11.2084V10C16.6666 8.13891 16.0208 6.56252 14.7291 5.27085C13.4375 3.97919 11.8611 3.33335 9.99996 3.33335C8.13885 3.33335 6.56246 3.97919 5.27079 5.27085C3.97913 6.56252 3.33329 8.13891 3.33329 10C3.33329 11.8611 3.97913 13.4375 5.27079 14.7292C6.56246 16.0209 8.13885 16.6667 9.99996 16.6667H14.1666V18.3334H9.99996ZM9.99996 12.5C10.6944 12.5 11.2847 12.257 11.7708 11.7709C12.2569 11.2847 12.5 10.6945 12.5 10C12.5 9.30558 12.2569 8.7153 11.7708 8.22919C11.2847 7.74308 10.6944 7.50002 9.99996 7.50002C9.30552 7.50002 8.71524 7.74308 8.22913 8.22919C7.74302 8.7153 7.49996 9.30558 7.49996 10C7.49996 10.6945 7.74302 11.2847 8.22913 11.7709C8.71524 12.257 9.30552 12.5 9.99996 12.5Z" fill="white"/>
</svg>
