<svg width="184" height="183" viewBox="0 0 184 183" fill="none" xmlns="http://www.w3.org/2000/svg">
<g filter="url(#filter0_g_1295_9036)">
<circle cx="91.5784" cy="91.7969" r="88.3594" fill="#C2C6D6"/>
</g>
<path opacity="0.3" fill-rule="evenodd" clip-rule="evenodd" d="M43.7565 43.5716C47.6968 41.7204 49.2621 36.4905 53.442 35.2913C58.4028 33.868 64.3068 33.4943 68.4268 36.4937C72.5712 39.5109 74.3532 45.2104 74.1274 50.3506C73.9273 54.905 69.4183 57.8578 67.3091 61.9339C65.5557 65.3225 65.7115 69.6201 62.8437 72.1568C59.7896 74.8583 55.5301 75.1971 51.5229 75.8974C46.3935 76.7937 40.9716 79.0462 36.3326 76.7895C31.3996 74.3899 28.4668 69.1342 26.8659 63.9029C25.2352 58.5739 23.7711 51.8796 27.3804 47.5351C31.0616 43.104 38.5376 46.0235 43.7565 43.5716Z" fill="#E0E2EB"/>
<path opacity="0.8" fill-rule="evenodd" clip-rule="evenodd" d="M80.6677 49.2167C79.6479 42.6162 85.0402 37.1283 87.9652 31.1541C90.7203 25.5268 91.7325 18.257 97.2457 15.3563C102.72 12.4763 109.153 16.0177 115.294 16.7753C121.277 17.5135 127.539 16.5561 132.692 19.7296C138.461 23.2826 145.79 28.4159 145.205 35.1972C144.58 42.4336 134.345 44.0977 130.085 49.9355C127.248 53.8221 128.34 59.7326 124.873 63.0567C120.96 66.8089 115.606 68.747 110.204 68.997C104.188 69.2754 98.1512 67.8945 93.1211 64.526C87.5346 60.7848 81.6995 55.8952 80.6677 49.2167Z" fill="#A3A9C2"/>
<g opacity="0.8" filter="url(#filter1_f_1295_9036)">
<path fill-rule="evenodd" clip-rule="evenodd" d="M160.594 109.219C161.999 118.906 152.691 127.25 147.503 136.197C142.616 144.624 140.579 155.392 131.189 159.926C121.866 164.428 111.231 159.505 100.957 158.673C90.948 157.862 80.3906 159.565 71.8883 155.125C62.369 150.153 50.3034 142.924 51.6012 132.896C52.9862 122.195 70.2459 119.264 77.6693 110.457C82.6117 104.593 81.0537 95.9274 87.0283 90.8638C93.7723 85.1483 102.85 82.0411 111.929 81.4212C122.042 80.7309 132.112 82.4866 140.399 87.2205C149.604 92.4781 159.172 99.4178 160.594 109.219Z" fill="#A3A9C2"/>
</g>
<path opacity="0.8" fill-rule="evenodd" clip-rule="evenodd" d="M21.3909 73.3794C23.598 73.5134 24.9946 75.6437 26.7218 77.0098C28.3488 78.2967 30.6296 79.1351 31.1806 81.1226C31.7277 83.096 30.1298 84.9285 29.4531 86.8621C28.7938 88.7457 28.6634 90.8391 27.2746 92.2831C25.7196 93.8998 23.5437 95.9104 21.3909 95.2444C19.0936 94.5338 19.2746 91.1054 17.6853 89.3168C16.6272 88.1259 14.6383 88.0638 13.8065 86.7085C12.8676 85.1787 12.6168 83.3104 12.9156 81.5452C13.2483 79.5792 14.1193 77.7232 15.5627 76.3325C17.1657 74.7881 19.1577 73.2439 21.3909 73.3794Z" fill="#A3A9C2"/>
<path opacity="0.3" fill-rule="evenodd" clip-rule="evenodd" d="M75.2606 16.7862C76.2442 17.2792 77.5275 16.7724 78.419 17.4149C79.4772 18.1775 80.4744 19.2914 80.523 20.5784C80.5717 21.8731 79.7186 23.118 78.6626 23.8767C77.7269 24.549 76.4357 24.1153 75.2965 24.3337C74.3495 24.5153 73.5205 25.2181 72.5685 25.0452C71.5546 24.8611 70.8214 24.0683 70.0559 23.382C69.076 22.5036 67.781 21.7791 67.5039 20.5052C67.2092 19.1505 67.7943 17.7464 68.5828 16.6107C69.3861 15.4538 70.4865 14.1165 71.9134 14.154C73.3688 14.1922 73.9579 16.1332 75.2606 16.7862Z" fill="#E0E2EB"/>
<path opacity="0.3" fill-rule="evenodd" clip-rule="evenodd" d="M67.8288 151.708C68.8123 152.201 70.0956 151.694 70.9872 152.337C72.0453 153.099 73.0426 154.213 73.0911 155.5C73.1399 156.795 72.2867 158.04 71.2307 158.799C70.2951 159.471 69.0038 159.037 67.8647 159.256C66.9177 159.437 66.0886 160.14 65.1366 159.967C64.1227 159.783 63.3895 158.99 62.624 158.304C61.6441 157.425 60.3492 156.701 60.072 155.427C59.7773 154.072 60.3624 152.668 61.1509 151.533C61.9542 150.376 63.0546 149.038 64.4815 149.076C65.9369 149.114 66.526 151.055 67.8288 151.708Z" fill="#858DAD"/>
<defs>
<filter id="filter0_g_1295_9036" x="0.496117" y="0.714623" width="182.165" height="182.165" filterUnits="userSpaceOnUse" color-interpolation-filters="sRGB">
<feFlood flood-opacity="0" result="BackgroundImageFix"/>
<feBlend mode="normal" in="SourceGraphic" in2="BackgroundImageFix" result="shape"/>
<feTurbulence type="fractalNoise" baseFrequency="0.24483908712863922 0.24483908712863922" numOctaves="3" seed="4051" />
<feDisplacementMap in="shape" scale="5.4457540512084961" xChannelSelector="R" yChannelSelector="G" result="displacedImage" width="100%" height="100%" />
<feMerge result="effect1_texture_1295_9036">
<feMergeNode in="displacedImage"/>
</feMerge>
</filter>
<filter id="filter1_f_1295_9036" x="30.3603" y="60.1327" width="151.521" height="122.809" filterUnits="userSpaceOnUse" color-interpolation-filters="sRGB">
<feFlood flood-opacity="0" result="BackgroundImageFix"/>
<feBlend mode="normal" in="SourceGraphic" in2="BackgroundImageFix" result="shape"/>
<feGaussianBlur stdDeviation="10.5723" result="effect1_foregroundBlur_1295_9036"/>
</filter>
</defs>
</svg>
