<svg width="800" height="146" viewBox="0 0 800 146" fill="none" xmlns="http://www.w3.org/2000/svg">
<path d="M0 12C0 5.37259 5.37258 0 12 0H51.7995C58.4269 0 63.7995 5.37258 63.7995 12V51.7995C63.7995 58.4269 58.4269 63.7995 51.7995 63.7995H12C5.37259 63.7995 0 58.4269 0 51.7995V12Z" fill="#072C2C"/>
<path d="M81.8003 12C81.8003 5.37259 87.1729 0 93.8003 0H133.6C140.227 0 145.6 5.37258 145.6 12V51.7995C145.6 58.4269 140.227 63.7995 133.6 63.7995H93.8003C87.1729 63.7995 81.8003 58.4269 81.8003 51.7995V12Z" fill="#0E5858"/>
<path d="M163.601 12C163.601 5.37259 168.973 0 175.601 0H215.4C222.027 0 227.4 5.37258 227.4 12V51.7995C227.4 58.4269 222.027 63.7995 215.4 63.7995H175.601C168.973 63.7995 163.601 58.4269 163.601 51.7995V12Z" fill="#168383"/>
<path d="M245.4 12C245.4 5.37259 250.773 0 257.4 0H297.2C303.827 0 309.2 5.37258 309.2 12V51.7995C309.2 58.4269 303.827 63.7995 297.2 63.7995H257.4C250.773 63.7995 245.4 58.4269 245.4 51.7995V12Z" fill="#1DAFAF"/>
<path d="M327.2 12C327.2 5.37259 332.573 0 339.2 0H379C385.627 0 391 5.37258 391 12V51.7995C391 58.4269 385.627 63.7995 379 63.7995H339.2C332.573 63.7995 327.2 58.4269 327.2 51.7995V12Z" fill="#24DBDB"/>
<path d="M409 12C409 5.37259 414.373 0 421 0H460.799C467.427 0 472.799 5.37258 472.799 12V51.7995C472.799 58.4269 467.427 63.7995 460.799 63.7995H421C414.373 63.7995 409 58.4269 409 51.7995V12Z" fill="#50E2E2"/>
<path d="M490.801 12C490.801 5.37259 496.173 0 502.801 0H542.6C549.228 0 554.6 5.37258 554.6 12V51.7995C554.6 58.4269 549.228 63.7995 542.6 63.7995H502.801C496.173 63.7995 490.801 58.4269 490.801 51.7995V12Z" fill="#7CE9E9"/>
<path d="M572.601 12C572.601 5.37259 577.973 0 584.601 0H624.4C631.027 0 636.4 5.37258 636.4 12V51.7995C636.4 58.4269 631.027 63.7995 624.4 63.7995H584.601C577.973 63.7995 572.601 58.4269 572.601 51.7995V12Z" fill="#A7F1F1"/>
<path d="M654.4 12C654.4 5.37259 659.773 0 666.4 0H706.2C712.827 0 718.2 5.37258 718.2 12V51.7995C718.2 58.4269 712.827 63.7995 706.2 63.7995H666.4C659.773 63.7995 654.4 58.4269 654.4 51.7995V12Z" fill="#D3F8F8"/>
<path d="M736.2 12C736.2 5.37259 741.573 0 748.2 0H788C794.627 0 800 5.37258 800 12V51.7995C800 58.4269 794.627 63.7995 788 63.7995H748.2C741.573 63.7995 736.2 58.4269 736.2 51.7995V12Z" fill="white"/>
<path d="M0 93.8008C0 87.1734 5.37258 81.8008 12 81.8008H51.7995C58.4269 81.8008 63.7995 87.1734 63.7995 93.8008V133.6C63.7995 140.228 58.4269 145.6 51.7995 145.6H12C5.37259 145.6 0 140.228 0 133.6V93.8008Z" fill="#291F0A"/>
<path d="M81.7998 93.8008C81.7998 87.1734 87.1724 81.8008 93.7998 81.8008H133.599C140.227 81.8008 145.599 87.1734 145.599 93.8008V133.6C145.599 140.228 140.227 145.6 133.599 145.6H93.7998C87.1724 145.6 81.7998 140.228 81.7998 133.6V93.8008Z" fill="#533E13"/>
<path d="M163.6 93.8008C163.6 87.1734 168.972 81.8008 175.6 81.8008H215.399C222.027 81.8008 227.399 87.1734 227.399 93.8008V133.6C227.399 140.228 222.027 145.6 215.399 145.6H175.6C168.972 145.6 163.6 140.228 163.6 133.6V93.8008Z" fill="#7C5D1D"/>
<path d="M245.4 93.8008C245.4 87.1734 250.773 81.8008 257.4 81.8008H297.2C303.827 81.8008 309.2 87.1734 309.2 93.8008V133.6C309.2 140.228 303.827 145.6 297.2 145.6H257.4C250.773 145.6 245.4 140.228 245.4 133.6V93.8008Z" fill="#A67C26"/>
<path d="M327.2 93.8008C327.2 87.1734 332.573 81.8008 339.2 81.8008H379C385.627 81.8008 391 87.1734 391 93.8008V133.6C391 140.228 385.627 145.6 379 145.6H339.2C332.573 145.6 327.2 140.228 327.2 133.6V93.8008Z" fill="#CF9C30"/>
<path d="M409 93.8008C409 87.1734 414.373 81.8008 421 81.8008H460.799C467.427 81.8008 472.799 87.1734 472.799 93.8008V133.6C472.799 140.228 467.427 145.6 460.799 145.6H421C414.373 145.6 409 140.228 409 133.6V93.8008Z" fill="#D9AF59"/>
<path d="M490.8 93.8008C490.8 87.1734 496.172 81.8008 502.8 81.8008H542.599C549.227 81.8008 554.599 87.1734 554.599 93.8008V133.6C554.599 140.228 549.227 145.6 542.599 145.6H502.8C496.172 145.6 490.8 140.228 490.8 133.6V93.8008Z" fill="#E2C383"/>
<path d="M572.601 93.8008C572.601 87.1734 577.973 81.8008 584.601 81.8008H624.4C631.027 81.8008 636.4 87.1734 636.4 93.8008V133.6C636.4 140.228 631.027 145.6 624.4 145.6H584.601C577.973 145.6 572.601 140.228 572.601 133.6V93.8008Z" fill="#ECD7AC"/>
<path d="M654.4 93.8008C654.4 87.1734 659.773 81.8008 666.4 81.8008H706.2C712.827 81.8008 718.2 87.1734 718.2 93.8008V133.6C718.2 140.228 712.827 145.6 706.2 145.6H666.4C659.773 145.6 654.4 140.228 654.4 133.6V93.8008Z" fill="#F5EBD6"/>
<path d="M736.2 93.8008C736.2 87.1734 741.573 81.8008 748.2 81.8008H788C794.627 81.8008 800 87.1734 800 93.8008V133.6C800 140.228 794.627 145.6 788 145.6H748.2C741.573 145.6 736.2 140.228 736.2 133.6V93.8008Z" fill="white"/>
</svg>
